999
dxflib 3.17.0.0
  0
SECTION
  2
HEADER
  9
$ACADVER
  1
AC1015
  9
$HANDSEED
  5
FFFF
  9
$DIMADEC
 70
0
  9
$DIMASZ
 40
2.5
  9
$DIMAUNIT
 70
0
  9
$DIMAZIN
 70
2
  9
$DIMDEC
 70
4
  9
$DIMDLI
 40
5.0
  9
$DIMDSEP
 70
46
  9
$DIMEXE
 40
1.25
  9
$DIMEXO
 40
0.625
  9
$DIMGAP
 40
0.625
  9
$DIMLUNIT
 70
2
  9
$DIMSCALE
 40
1.0
  9
$DIMTSZ
 40
0.0
  9
$DIMTXT
 40
2.5
  9
$DIMZIN
 70
8
  9
$DWGCODEPAGE
  3
ANSI_1252
  9
$INSUNITS
 70
5
  9
$LTSCALE
 40
1.0
  9
$MAXACTVP
 70
64
  9
$MEASUREMENT
 70
1
  9
$MIRRTEXT
 70
0
  9
$PDMODE
 70
0
  9
$PDSIZE
 40
0.0
  0
ENDSEC
  0
SECTION
  2
TABLES
  0
TABLE
  2
VPORT
  5
8
100
AcDbSymbolTable
 70
1
  0
VPORT
  5
30
100
AcDbSymbolTableRecord
100
AcDbViewportTableRecord
  2
*Active
 70
0
 10
0.0
 20
0.0
 11
1.0
 21
1.0
 12
286.3055555555554861
 22
148.5
 13
0.0
 23
0.0
 14
10.0
 24
10.0
 15
10.0
 25
10.0
 16
0.0
 26
0.0
 36
1.0
 17
0.0
 27
0.0
 37
0.0
 40
297.0
 41
1.92798353909465
 42
50.0
 43
0.0
 44
0.0
 50
0.0
 51
0.0
 71
0
 72
100
 73
1
 74
3
 75
1
 76
1
 77
0
 78
0
281
0
 65
1
110
0.0
120
0.0
130
0.0
111
1.0
121
0.0
131
0.0
112
0.0
122
1.0
132
0.0
 79
0
146
0.0
  0
ENDTAB
  0
TABLE
  2
LTYPE
  5
5
100
AcDbSymbolTable
 70
41
  0
LTYPE
  5
16
100
AcDbSymbolTableRecord
100
AcDbLinetypeTableRecord
  2
Continuous
 70
0
  3
Solid line
 72
65
 73
0
 40
0.0
  0
LTYPE
  5
31
100
AcDbSymbolTableRecord
100
AcDbLinetypeTableRecord
  2
DOT
 70
0
  3
Dot . . . . . . . . . . . . . . . . . . . . . . . .
 72
65
 73
2
 40
6.3499999999999996
 49
0.0
 74
0
 49
-6.3499999999999996
 74
0
  0
LTYPE
  5
32
100
AcDbSymbolTableRecord
100
AcDbLinetypeTableRecord
  2
PHANTOMX2
 70
0
  3
Phantom (2x) ____________    ____    ____   _
 72
65
 73
6
 40
127.0000000000000142
 49
63.5
 74
0
 49
-12.6999999999999993
 74
0
 49
12.6999999999999993
 74
0
 49
-12.6999999999999993
 74
0
 49
12.6999999999999993
 74
0
 49
-12.6999999999999993
 74
0
  0
LTYPE
  5
33
100
AcDbSymbolTableRecord
100
AcDbLinetypeTableRecord
  2
CENTER2
 70
0
  3
Center (.5x) ___ _ ___ _ ___ _ ___ _ ___ _ ___
 72
65
 73
4
 40
28.5750000000000028
 49
19.0500000000000007
 74
0
 49
-3.1749999999999998
 74
0
 49
3.1749999999999998
 74
0
 49
-3.1749999999999998
 74
0
  0
LTYPE
  5
34
100
AcDbSymbolTableRecord
100
AcDbLinetypeTableRecord
  2
DASHEDX2
 70
0
  3
Dashed (2x) ____  ____  ____  ____  ____  ___
 72
65
 73
2
 40
38.0999999999999943
 49
25.3999999999999986
 74
0
 49
-12.6999999999999993
 74
0
  0
LTYPE
  5
35
100
AcDbSymbolTableRecord
100
AcDbLinetypeTableRecord
  2
DASHED
 70
0
  3
Dashed __ __ __ __ __ __ __ __ __ __ __ __ __ _
 72
65
 73
2
 40
19.0499999999999972
 49
12.6999999999999993
 74
0
 49
-6.3499999999999996
 74
0
  0
LTYPE
  5
15
100
AcDbSymbolTableRecord
100
AcDbLinetypeTableRecord
  2
BYLAYER
 70
0
  3

 72
65
 73
0
 40
0.0
  0
LTYPE
  5
36
100
AcDbSymbolTableRecord
100
AcDbLinetypeTableRecord
  2
ACAD_ISO13W100
 70
0
  3
ISO double-dash double-dot __ __ . . __ __ . . _
 72
65
 73
8
 40
36.0
 49
12.0
 74
0
 49
-3.0
 74
0
 49
12.0
 74
0
 49
-3.0
 74
0
 49
0.0
 74
0
 49
-3.0
 74
0
 49
0.0
 74
0
 49
-3.0
 74
0
  0
LTYPE
  5
37
100
AcDbSymbolTableRecord
100
AcDbLinetypeTableRecord
  2
DASHDOT2
 70
0
  3
Dash dot (.5x) _._._._._._._._._._._._._._._.
 72
65
 73
4
 40
12.6999999999999993
 49
6.3499999999999996
 74
0
 49
-3.1749999999999998
 74
0
 49
0.0
 74
0
 49
-3.1749999999999998
 74
0
  0
LTYPE
  5
38
100
AcDbSymbolTableRecord
100
AcDbLinetypeTableRecord
  2
ACAD_ISO02W100
 70
0
  3
ISO dash __ __ __ __ __ __ __ __ __ __ __ __ __
 72
65
 73
2
 40
15.0
 49
12.0
 74
0
 49
-3.0
 74
0
  0
LTYPE
  5
14
100
AcDbSymbolTableRecord
100
AcDbLinetypeTableRecord
  2
BYBLOCK
 70
0
  3

 72
65
 73
0
 40
0.0
  0
LTYPE
  5
39
100
AcDbSymbolTableRecord
100
AcDbLinetypeTableRecord
  2
HIDDEN
 70
0
  3
Hidden __ __ __ __ __ __ __ __ __ __ __ __ __ __
 72
65
 73
2
 40
9.5249999999999986
 49
6.3499999999999996
 74
0
 49
-3.1749999999999998
 74
0
  0
LTYPE
  5
3A
100
AcDbSymbolTableRecord
100
AcDbLinetypeTableRecord
  2
ACAD_ISO09W100
 70
0
  3
ISO long-dash double-short-dash ____ __ __ ____
 72
65
 73
6
 40
45.0
 49
24.0
 74
0
 49
-3.0
 74
0
 49
6.0
 74
0
 49
-3.0
 74
0
 49
6.0
 74
0
 49
-3.0
 74
0
  0
LTYPE
  5
3B
100
AcDbSymbolTableRecord
100
AcDbLinetypeTableRecord
  2
BORDER2
 70
0
  3
Border (.5x) __.__.__.__.__.__.__.__.__.__.__.
 72
65
 73
6
 40
22.2249999999999979
 49
6.3499999999999996
 74
0
 49
-3.1749999999999998
 74
0
 49
6.3499999999999996
 74
0
 49
-3.1749999999999998
 74
0
 49
0.0
 74
0
 49
-3.1749999999999998
 74
0
  0
LTYPE
  5
3C
100
AcDbSymbolTableRecord
100
AcDbLinetypeTableRecord
  2
ACAD_ISO05W100
 70
0
  3
ISO long-dash double-dot ____ .. ____ .. ____ . 
 72
65
 73
6
 40
33.0
 49
24.0
 74
0
 49
-3.0
 74
0
 49
0.0
 74
0
 49
-3.0
 74
0
 49
0.0
 74
0
 49
-3.0
 74
0
  0
LTYPE
  5
3D
100
AcDbSymbolTableRecord
100
AcDbLinetypeTableRecord
  2
DOTX2
 70
0
  3
Dot (2x) .  .  .  .  .  .  .  .  .  .  .  .  .  .
 72
65
 73
2
 40
12.6999999999999993
 49
0.0
 74
0
 49
-12.6999999999999993
 74
0
  0
LTYPE
  5
3E
100
AcDbSymbolTableRecord
100
AcDbLinetypeTableRecord
  2
ACAD_ISO04W100
 70
0
  3
ISO long-dash dot ____ . ____ . ____ . ____ . _
 72
65
 73
4
 40
30.0
 49
24.0
 74
0
 49
-3.0
 74
0
 49
0.0
 74
0
 49
-3.0
 74
0
  0
LTYPE
  5
3F
100
AcDbSymbolTableRecord
100
AcDbLinetypeTableRecord
  2
HIDDEN2
 70
0
  3
Hidden (.5x) _ _ _ _ _ _ _ _ _ _ _ _ _ _ _ _ _ 
 72
65
 73
2
 40
4.7624999999999993
 49
3.1749999999999998
 74
0
 49
-1.5874999999999999
 74
0
  0
LTYPE
  5
40
100
AcDbSymbolTableRecord
100
AcDbLinetypeTableRecord
  2
ACAD_ISO07W100
 70
0
  3
ISO dot . . . . . . . . . . . . . . . . . . . . 
 72
65
 73
2
 40
3.0
 49
0.0
 74
0
 49
-3.0
 74
0
  0
LTYPE
  5
41
100
AcDbSymbolTableRecord
100
AcDbLinetypeTableRecord
  2
DASHDOTX2
 70
0
  3
Dash dot (2x) ____  .  ____  .  ____  .  ___
 72
65
 73
4
 40
50.7999999999999972
 49
25.3999999999999986
 74
0
 49
-12.6999999999999993
 74
0
 49
0.0
 74
0
 49
-12.6999999999999993
 74
0
  0
LTYPE
  5
42
100
AcDbSymbolTableRecord
100
AcDbLinetypeTableRecord
  2
HIDDENX2
 70
0
  3
Hidden (2x) ____ ____ ____ ____ ____ ____ ____ 
 72
65
 73
2
 40
19.0499999999999972
 49
12.6999999999999993
 74
0
 49
-6.3499999999999996
 74
0
  0
LTYPE
  5
43
100
AcDbSymbolTableRecord
100
AcDbLinetypeTableRecord
  2
ACAD_ISO11W100
 70
0
  3
ISO double-dash dot __ __ . __ __ . __ __ . __ _
 72
65
 73
6
 40
33.0
 49
12.0
 74
0
 49
-3.0
 74
0
 49
12.0
 74
0
 49
-3.0
 74
0
 49
0.0
 74
0
 49
-3.0
 74
0
  0
LTYPE
  5
44
100
AcDbSymbolTableRecord
100
AcDbLinetypeTableRecord
  2
DOT2
 70
0
  3
Dot (.5x) ........................................
 72
65
 73
2
 40
3.1749999999999998
 49
0.0
 74
0
 49
-3.1749999999999998
 74
0
  0
LTYPE
  5
45
100
AcDbSymbolTableRecord
100
AcDbLinetypeTableRecord
  2
CENTER
 70
0
  3
Center ____ _ ____ _ ____ _ ____ _ ____ _ ____
 72
65
 73
4
 40
50.8000000000000043
 49
31.75
 74
0
 49
-6.3499999999999996
 74
0
 49
6.3499999999999996
 74
0
 49
-6.3499999999999996
 74
0
  0
LTYPE
  5
46
100
AcDbSymbolTableRecord
100
AcDbLinetypeTableRecord
  2
ACAD_ISO15W100
 70
0
  3
ISO double-dash triple-dot __ __ . . . __ __ . .
 72
65
 73
10
 40
39.0
 49
12.0
 74
0
 49
-3.0
 74
0
 49
12.0
 74
0
 49
-3.0
 74
0
 49
0.0
 74
0
 49
-3.0
 74
0
 49
0.0
 74
0
 49
-3.0
 74
0
 49
0.0
 74
0
 49
-3.0
 74
0
  0
LTYPE
  5
47
100
AcDbSymbolTableRecord
100
AcDbLinetypeTableRecord
  2
DIVIDE2
 70
0
  3
Divide (.5x) __..__..__..__..__..__..__..__.._
 72
65
 73
6
 40
15.875
 49
6.3499999999999996
 74
0
 49
-3.1749999999999998
 74
0
 49
0.0
 74
0
 49
-3.1749999999999998
 74
0
 49
0.0
 74
0
 49
-3.1749999999999998
 74
0
  0
LTYPE
  5
48
100
AcDbSymbolTableRecord
100
AcDbLinetypeTableRecord
  2
BORDERX2
 70
0
  3
Border (2x) ____  ____  .  ____  ____  .  ___
 72
65
 73
6
 40
88.8999999999999915
 49
25.3999999999999986
 74
0
 49
-12.6999999999999993
 74
0
 49
25.3999999999999986
 74
0
 49
-12.6999999999999993
 74
0
 49
0.0
 74
0
 49
-12.6999999999999993
 74
0
  0
LTYPE
  5
49
100
AcDbSymbolTableRecord
100
AcDbLinetypeTableRecord
  2
DASHDOT
 70
0
  3
Dash dot __ . __ . __ . __ . __ . __ . __ . __
 72
65
 73
4
 40
25.3999999999999986
 49
12.6999999999999993
 74
0
 49
-6.3499999999999996
 74
0
 49
0.0
 74
0
 49
-6.3499999999999996
 74
0
  0
LTYPE
  5
4A
100
AcDbSymbolTableRecord
100
AcDbLinetypeTableRecord
  2
ACAD_ISO08W100
 70
0
  3
ISO long-dash short-dash ____ __ ____ __ ____ _
 72
65
 73
4
 40
36.0
 49
24.0
 74
0
 49
-3.0
 74
0
 49
6.0
 74
0
 49
-3.0
 74
0
  0
LTYPE
  5
4B
100
AcDbSymbolTableRecord
100
AcDbLinetypeTableRecord
  2
ACAD_ISO10W100
 70
0
  3
ISO dash dot __ . __ . __ . __ . __ . __ . __ . 
 72
65
 73
4
 40
18.0
 49
12.0
 74
0
 49
-3.0
 74
0
 49
0.0
 74
0
 49
-3.0
 74
0
  0
LTYPE
  5
4C
100
AcDbSymbolTableRecord
100
AcDbLinetypeTableRecord
  2
PHANTOM
 70
0
  3
Phantom ______  __  __  ______  __  __  ______ 
 72
65
 73
6
 40
63.5000000000000071
 49
31.75
 74
0
 49
-6.3499999999999996
 74
0
 49
6.3499999999999996
 74
0
 49
-6.3499999999999996
 74
0
 49
6.3499999999999996
 74
0
 49
-6.3499999999999996
 74
0
  0
LTYPE
  5
4D
100
AcDbSymbolTableRecord
100
AcDbLinetypeTableRecord
  2
ACAD_ISO03W100
 70
0
  3
ISO dash space __    __    __    __    __    __
 72
65
 73
2
 40
30.0
 49
12.0
 74
0
 49
-18.0
 74
0
  0
LTYPE
  5
4E
100
AcDbSymbolTableRecord
100
AcDbLinetypeTableRecord
  2
BORDER
 70
0
  3
Border __ __ . __ __ . __ __ . __ __ . __ __ .
 72
65
 73
6
 40
44.4499999999999957
 49
12.6999999999999993
 74
0
 49
-6.3499999999999996
 74
0
 49
12.6999999999999993
 74
0
 49
-6.3499999999999996
 74
0
 49
0.0
 74
0
 49
-6.3499999999999996
 74
0
  0
LTYPE
  5
4F
100
AcDbSymbolTableRecord
100
AcDbLinetypeTableRecord
  2
CENTERX2
 70
0
  3
Center (2x) ________  __  ________  __  _____
 72
65
 73
4
 40
101.6000000000000085
 49
63.5
 74
0
 49
-12.6999999999999993
 74
0
 49
12.6999999999999993
 74
0
 49
-12.6999999999999993
 74
0
  0
LTYPE
  5
50
100
AcDbSymbolTableRecord
100
AcDbLinetypeTableRecord
  2
DASHED2
 70
0
  3
Dashed (.5x) _ _ _ _ _ _ _ _ _ _ _ _ _ _ _ _ _ 
 72
65
 73
2
 40
9.5249999999999986
 49
6.3499999999999996
 74
0
 49
-3.1749999999999998
 74
0
  0
LTYPE
  5
51
100
AcDbSymbolTableRecord
100
AcDbLinetypeTableRecord
  2
DIVIDEX2
 70
0
  3
Divide (2x) ________  .  .  ________  .  .  _
 72
65
 73
6
 40
63.5
 49
25.3999999999999986
 74
0
 49
-12.6999999999999993
 74
0
 49
0.0
 74
0
 49
-12.6999999999999993
 74
0
 49
0.0
 74
0
 49
-12.6999999999999993
 74
0
  0
LTYPE
  5
52
100
AcDbSymbolTableRecord
100
AcDbLinetypeTableRecord
  2
DIVIDE
 70
0
  3
Divide ____ . . ____ . . ____ . . ____ . . ____
 72
65
 73
6
 40
31.75
 49
12.6999999999999993
 74
0
 49
-6.3499999999999996
 74
0
 49
0.0
 74
0
 49
-6.3499999999999996
 74
0
 49
0.0
 74
0
 49
-6.3499999999999996
 74
0
  0
LTYPE
  5
53
100
AcDbSymbolTableRecord
100
AcDbLinetypeTableRecord
  2
ACAD_ISO12W100
 70
0
  3
ISO dash double-dot __ . . __ . . __ . . __ . . 
 72
65
 73
6
 40
21.0
 49
12.0
 74
0
 49
-3.0
 74
0
 49
0.0
 74
0
 49
-3.0
 74
0
 49
0.0
 74
0
 49
-3.0
 74
0
  0
LTYPE
  5
54
100
AcDbSymbolTableRecord
100
AcDbLinetypeTableRecord
  2
PHANTOM2
 70
0
  3
Phantom (.5x) ___ _ _ ___ _ _ ___ _ _ ___ _ _
 72
65
 73
6
 40
31.7500000000000036
 49
15.875
 74
0
 49
-3.1749999999999998
 74
0
 49
3.1749999999999998
 74
0
 49
-3.1749999999999998
 74
0
 49
3.1749999999999998
 74
0
 49
-3.1749999999999998
 74
0
  0
LTYPE
  5
55
100
AcDbSymbolTableRecord
100
AcDbLinetypeTableRecord
  2
ACAD_ISO06W100
 70
0
  3
ISO long-dash triple-dot ____ ... ____ ... ____
 72
65
 73
8
 40
36.0
 49
24.0
 74
0
 49
-3.0
 74
0
 49
0.0
 74
0
 49
-3.0
 74
0
 49
0.0
 74
0
 49
-3.0
 74
0
 49
0.0
 74
0
 49
-3.0
 74
0
  0
LTYPE
  5
56
100
AcDbSymbolTableRecord
100
AcDbLinetypeTableRecord
  2
ACAD_ISO14W100
 70
0
  3
ISO dash triple-dot __ . . . __ . . . __ . . . _
 72
65
 73
8
 40
24.0
 49
12.0
 74
0
 49
-3.0
 74
0
 49
0.0
 74
0
 49
-3.0
 74
0
 49
0.0
 74
0
 49
-3.0
 74
0
 49
0.0
 74
0
 49
-3.0
 74
0
  0
ENDTAB
  0
TABLE
  2
LAYER
  5
2
100
AcDbSymbolTable
 70
1
  0
LAYER
  5
10
100
AcDbSymbolTableRecord
100
AcDbLayerTableRecord
  2
0
 70
0
 62
9
420
12632256
  6
DASHED2
370
0
390
F
  0
ENDTAB
  0
TABLE
  2
STYLE
  5
3
100
AcDbSymbolTable
 70
1
  0
STYLE
  5
57
100
AcDbSymbolTableRecord
100
AcDbTextStyleTableRecord
  2
Standard
 70
0
 40
0.0
 41
1.0
 50
0.0
 71
0
 42
2.5
  3

  4

1001
ACAD
1000
txt
1071
0
  0
ENDTAB
  0
TABLE
  2
VIEW
  5
6
100
AcDbSymbolTable
 70
0
  0
ENDTAB
  0
TABLE
  2
UCS
  5
7
100
AcDbSymbolTable
 70
0
  0
ENDTAB
  0
TABLE
  2
APPID
  5
9
100
AcDbSymbolTable
 70
1
  0
APPID
  5
12
100
AcDbSymbolTableRecord
100
AcDbRegAppTableRecord
  2
ACAD
 70
0
  0
APPID
  5
58
100
AcDbSymbolTableRecord
100
AcDbRegAppTableRecord
  2
QCAD
 70
0
  0
ENDTAB
  0
TABLE
  2
DIMSTYLE
  5
A
100
AcDbSymbolTable
 70
1
100
AcDbDimStyleTable
 71
0
  0
DIMSTYLE
105
27
100
AcDbSymbolTableRecord
100
AcDbDimStyleTableRecord
  2
Standard
 41
2.5
 42
0.625
 43
3.75
 44
1.25
 70
0
 73
0
 74
0
 77
1
 78
8
140
2.5
141
2.5
143
0.03937007874016
147
0.625
171
3
172
1
271
2
272
2
274
3
278
44
283
0
284
8
340
57
  0
ENDTAB
  0
TABLE
  2
BLOCK_RECORD
  5
1
100
AcDbSymbolTable
 70
1
  0
BLOCK_RECORD
  5
1F
100
AcDbSymbolTableRecord
100
AcDbBlockTableRecord
  2
*Model_Space
340
22
  0
BLOCK_RECORD
  5
1B
100
AcDbSymbolTableRecord
100
AcDbBlockTableRecord
  2
*Paper_Space
340
1E
  0
BLOCK_RECORD
  5
23
100
AcDbSymbolTableRecord
100
AcDbBlockTableRecord
  2
*Paper_Space0
340
26
  0
ENDTAB
  0
ENDSEC
  0
SECTION
  2
BLOCKS
  0
BLOCK
  5
20
100
AcDbEntity
  8
0
100
AcDbBlockBegin
  2
*Model_Space
 70
0
 10
0.0
 20
0.0
 30
0.0
  3
*Model_Space
  1

  0
ENDBLK
  5
21
100
AcDbEntity
  8
0
100
AcDbBlockEnd
  0
BLOCK
  5
1C
100
AcDbEntity
 67
1
  8
0
100
AcDbBlockBegin
  2
*Paper_Space
 70
0
 10
0.0
 20
0.0
 30
0.0
  3
*Paper_Space
  1

  0
ENDBLK
  5
1D
100
AcDbEntity
 67
1
  8
0
100
AcDbBlockEnd
  0
BLOCK
  5
24
100
AcDbEntity
  8
0
100
AcDbBlockBegin
  2
*Paper_Space0
 70
0
 10
0.0
 20
0.0
 30
0.0
  3
*Paper_Space0
  1

  0
ENDBLK
  5
25
100
AcDbEntity
  8
0
100
AcDbBlockEnd
  0
ENDSEC
  0
SECTION
  2
ENTITIES
  0
LINE
  5
59
100
AcDbEntity
  8
0
 62
256
370
-1
 48
1.0
  6
BYLAYER
100
AcDbLine
 10
0.0
 20
0.0
 30
0.0
 11
147.224318643354593
 21
0.0
 31
0.0
  0
LINE
  5
5A
100
AcDbEntity
  8
0
 62
256
370
-1
 48
1.0
  6
BYLAYER
100
AcDbLine
 10
0.0
 20
225.0
 30
0.0
 11
147.2243186433545645
 21
225.0
 31
0.0
  0
LINE
  5
5B
100
AcDbEntity
  8
0
 62
256
370
-1
 48
1.0
  6
BYLAYER
100
AcDbLine
 10
0.0
 20
225.0
 30
0.0
 11
0.0
 21
0.0
 31
0.0
  0
LINE
  5
5C
100
AcDbEntity
  8
0
 62
256
370
-1
 48
1.0
  6
BYLAYER
100
AcDbLine
 10
4.3301270189221928
 20
225.0
 30
0.0
 11
4.3301270189221928
 21
0.0000000000000036
 31
0.0
  0
LINE
  5
5D
100
AcDbEntity
  8
0
 62
256
370
-1
 48
1.0
  6
BYLAYER
100
AcDbLine
 10
8.6602540378443855
 20
225.0
 30
0.0
 11
8.6602540378443855
 21
0.0000000000000071
 31
0.0
  0
LINE
  5
5E
100
AcDbEntity
  8
0
 62
256
370
-1
 48
1.0
  6
BYLAYER
100
AcDbLine
 10
12.9903810567665783
 20
225.0
 30
0.0
 11
12.9903810567665783
 21
0.0000000000000107
 31
0.0
  0
LINE
  5
5F
100
AcDbEntity
  8
0
 62
256
370
-1
 48
1.0
  6
BYLAYER
100
AcDbLine
 10
17.320508075688771
 20
225.0
 30
0.0
 11
17.320508075688771
 21
0.0000000000000142
 31
0.0
  0
LINE
  5
60
100
AcDbEntity
  8
0
 62
256
370
-1
 48
1.0
  6
BYLAYER
100
AcDbLine
 10
21.650635094610962
 20
225.0000000000000284
 30
0.0
 11
21.650635094610962
 21
0.0000000000000178
 31
0.0
  0
LINE
  5
61
100
AcDbEntity
  8
0
 62
256
370
-1
 48
1.0
  6
BYLAYER
100
AcDbLine
 10
25.9807621135331566
 20
225.0000000000000284
 30
0.0
 11
25.9807621135331566
 21
0.0000000000000213
 31
0.0
  0
LINE
  5
62
100
AcDbEntity
  8
0
 62
256
370
-1
 48
1.0
  6
BYLAYER
100
AcDbLine
 10
30.3108891324553511
 20
225.0000000000000284
 30
0.0
 11
30.3108891324553511
 21
0.0000000000000249
 31
0.0
  0
LINE
  5
63
100
AcDbEntity
  8
0
 62
256
370
-1
 48
1.0
  6
BYLAYER
100
AcDbLine
 10
34.6410161513775421
 20
225.0000000000000284
 30
0.0
 11
34.6410161513775421
 21
0.0000000000000284
 31
0.0
  0
LINE
  5
64
100
AcDbEntity
  8
0
 62
256
370
-1
 48
1.0
  6
BYLAYER
100
AcDbLine
 10
38.9711431702997331
 20
225.0000000000000284
 30
0.0
 11
38.9711431702997331
 21
0.000000000000032
 31
0.0
  0
LINE
  5
65
100
AcDbEntity
  8
0
 62
256
370
-1
 48
1.0
  6
BYLAYER
100
AcDbLine
 10
43.3012701892219241
 20
225.0000000000000284
 30
0.0
 11
43.3012701892219241
 21
0.0000000000000355
 31
0.0
  0
LINE
  5
66
100
AcDbEntity
  8
0
 62
256
370
-1
 48
1.0
  6
BYLAYER
100
AcDbLine
 10
47.6313972081441221
 20
225.0000000000000284
 30
0.0
 11
47.6313972081441221
 21
0.0000000000000391
 31
0.0
  0
LINE
  5
67
100
AcDbEntity
  8
0
 62
256
370
-1
 48
1.0
  6
BYLAYER
100
AcDbLine
 10
51.9615242270663131
 20
225.0000000000000568
 30
0.0
 11
51.9615242270663131
 21
0.0000000000000426
 31
0.0
  0
LINE
  5
68
100
AcDbEntity
  8
0
 62
256
370
-1
 48
1.0
  6
BYLAYER
100
AcDbLine
 10
56.2916512459885041
 20
225.0000000000000568
 30
0.0
 11
56.2916512459885041
 21
0.0000000000000462
 31
0.0
  0
LINE
  5
69
100
AcDbEntity
  8
0
 62
256
370
-1
 48
1.0
  6
BYLAYER
100
AcDbLine
 10
60.6217782649107022
 20
225.0000000000000568
 30
0.0
 11
60.6217782649107022
 21
0.0000000000000497
 31
0.0
  0
LINE
  5
6A
100
AcDbEntity
  8
0
 62
256
370
-1
 48
1.0
  6
BYLAYER
100
AcDbLine
 10
64.9519052838328861
 20
225.0000000000000568
 30
0.0
 11
64.9519052838328861
 21
0.0000000000000533
 31
0.0
  0
LINE
  5
6B
100
AcDbEntity
  8
0
 62
256
370
-1
 48
1.0
  6
BYLAYER
100
AcDbLine
 10
69.2820323027550842
 20
225.0000000000000568
 30
0.0
 11
69.2820323027550842
 21
0.0000000000000568
 31
0.0
  0
LINE
  5
6C
100
AcDbEntity
  8
0
 62
256
370
-1
 48
1.0
  6
BYLAYER
100
AcDbLine
 10
73.6121593216772823
 20
225.0000000000000568
 30
0.0
 11
73.6121593216772823
 21
0.0000000000000604
 31
0.0
  0
LINE
  5
6D
100
AcDbEntity
  8
0
 62
256
370
-1
 48
1.0
  6
BYLAYER
100
AcDbLine
 10
77.9422863405994661
 20
225.0000000000000568
 30
0.0
 11
77.9422863405994661
 21
0.0000000000000639
 31
0.0
  0
LINE
  5
6E
100
AcDbEntity
  8
0
 62
256
370
-1
 48
1.0
  6
BYLAYER
100
AcDbLine
 10
82.2724133595216642
 20
225.0000000000000568
 30
0.0
 11
82.2724133595216642
 21
0.0000000000000675
 31
0.0
  0
LINE
  5
6F
100
AcDbEntity
  8
0
 62
256
370
-1
 48
1.0
  6
BYLAYER
100
AcDbLine
 10
86.6025403784438481
 20
225.0000000000000568
 30
0.0
 11
86.6025403784438481
 21
0.0000000000000711
 31
0.0
  0
LINE
  5
70
100
AcDbEntity
  8
0
 62
256
370
-1
 48
1.0
  6
BYLAYER
100
AcDbLine
 10
90.9326673973660462
 20
225.0000000000000853
 30
0.0
 11
90.9326673973660462
 21
0.0000000000000746
 31
0.0
  0
LINE
  5
71
100
AcDbEntity
  8
0
 62
256
370
-1
 48
1.0
  6
BYLAYER
100
AcDbLine
 10
95.2627944162882443
 20
225.0000000000000853
 30
0.0
 11
95.2627944162882443
 21
0.0000000000000782
 31
0.0
  0
LINE
  5
72
100
AcDbEntity
  8
0
 62
256
370
-1
 48
1.0
  6
BYLAYER
100
AcDbLine
 10
99.5929214352104282
 20
225.0000000000000853
 30
0.0
 11
99.5929214352104282
 21
0.0000000000000817
 31
0.0
  0
LINE
  5
73
100
AcDbEntity
  8
0
 62
256
370
-1
 48
1.0
  6
BYLAYER
100
AcDbLine
 10
103.9230484541326263
 20
225.0000000000000853
 30
0.0
 11
103.9230484541326263
 21
0.0000000000000853
 31
0.0
  0
LINE
  5
74
100
AcDbEntity
  8
0
 62
256
370
-1
 48
1.0
  6
BYLAYER
100
AcDbLine
 10
108.2531754730548244
 20
225.0000000000000853
 30
0.0
 11
108.2531754730548244
 21
0.0000000000000888
 31
0.0
  0
LINE
  5
75
100
AcDbEntity
  8
0
 62
256
370
-1
 48
1.0
  6
BYLAYER
100
AcDbLine
 10
112.5833024919770082
 20
225.0000000000000853
 30
0.0
 11
112.5833024919770082
 21
0.0000000000000924
 31
0.0
  0
LINE
  5
76
100
AcDbEntity
  8
0
 62
256
370
-1
 48
1.0
  6
BYLAYER
100
AcDbLine
 10
116.9134295108992063
 20
225.0000000000000853
 30
0.0
 11
116.9134295108992063
 21
0.0000000000000959
 31
0.0
  0
LINE
  5
77
100
AcDbEntity
  8
0
 62
256
370
-1
 48
1.0
  6
BYLAYER
100
AcDbLine
 10
121.2435565298214044
 20
225.0000000000001137
 30
0.0
 11
121.2435565298214044
 21
0.0000000000000995
 31
0.0
  0
LINE
  5
78
100
AcDbEntity
  8
0
 62
256
370
-1
 48
1.0
  6
BYLAYER
100
AcDbLine
 10
125.5736835487435883
 20
225.0000000000001137
 30
0.0
 11
125.5736835487435883
 21
0.000000000000103
 31
0.0
  0
LINE
  5
79
100
AcDbEntity
  8
0
 62
256
370
-1
 48
1.0
  6
BYLAYER
100
AcDbLine
 10
129.9038105676657722
 20
225.0000000000001137
 30
0.0
 11
129.9038105676657722
 21
0.0000000000001066
 31
0.0
  0
LINE
  5
7A
100
AcDbEntity
  8
0
 62
256
370
-1
 48
1.0
  6
BYLAYER
100
AcDbLine
 10
134.2339375865879845
 20
225.0000000000001137
 30
0.0
 11
134.2339375865879845
 21
0.0000000000001101
 31
0.0
  0
LINE
  5
7B
100
AcDbEntity
  8
0
 62
256
370
-1
 48
1.0
  6
BYLAYER
100
AcDbLine
 10
138.5640646055101683
 20
225.0000000000001137
 30
0.0
 11
138.5640646055101683
 21
0.0000000000001137
 31
0.0
  0
LINE
  5
7C
100
AcDbEntity
  8
0
 62
256
370
-1
 48
1.0
  6
BYLAYER
100
AcDbLine
 10
142.8941916244323522
 20
225.0000000000001137
 30
0.0
 11
142.8941916244323522
 21
0.0000000000001172
 31
0.0
  0
LINE
  5
7D
100
AcDbEntity
  8
0
 62
256
370
-1
 48
1.0
  6
BYLAYER
100
AcDbLine
 10
147.2243186433545645
 20
225.0000000000001137
 30
0.0
 11
147.2243186433545645
 21
0.0000000000001208
 31
0.0
  0
LINE
  5
7E
100
AcDbEntity
  8
0
 62
256
370
-1
 48
1.0
  6
BYLAYER
100
AcDbLine
 10
-0.0
 20
-0.0
 30
0.0
 11
147.2243186433545645
 21
85.0
 31
0.0
  0
LINE
  5
7F
100
AcDbEntity
  8
0
 62
256
370
-1
 48
1.0
  6
BYLAYER
100
AcDbLine
 10
0.0
 20
5.0
 30
0.0
 11
147.2243186433545645
 21
90.0
 31
0.0
  0
LINE
  5
80
100
AcDbEntity
  8
0
 62
256
370
-1
 48
1.0
  6
BYLAYER
100
AcDbLine
 10
0.0
 20
10.0
 30
0.0
 11
147.2243186433545645
 21
95.0
 31
0.0
  0
LINE
  5
81
100
AcDbEntity
  8
0
 62
256
370
-1
 48
1.0
  6
BYLAYER
100
AcDbLine
 10
0.0
 20
15.0
 30
0.0
 11
147.2243186433545645
 21
100.0
 31
0.0
  0
LINE
  5
82
100
AcDbEntity
  8
0
 62
256
370
-1
 48
1.0
  6
BYLAYER
100
AcDbLine
 10
0.0
 20
20.0
 30
0.0
 11
147.2243186433545645
 21
105.0
 31
0.0
  0
LINE
  5
83
100
AcDbEntity
  8
0
 62
256
370
-1
 48
1.0
  6
BYLAYER
100
AcDbLine
 10
0.0
 20
25.0
 30
0.0
 11
147.2243186433545645
 21
110.0
 31
0.0
  0
LINE
  5
84
100
AcDbEntity
  8
0
 62
256
370
-1
 48
1.0
  6
BYLAYER
100
AcDbLine
 10
0.0
 20
30.0
 30
0.0
 11
147.2243186433545645
 21
115.0
 31
0.0
  0
LINE
  5
85
100
AcDbEntity
  8
0
 62
256
370
-1
 48
1.0
  6
BYLAYER
100
AcDbLine
 10
0.0
 20
35.0
 30
0.0
 11
147.2243186433545645
 21
120.0
 31
0.0
  0
LINE
  5
86
100
AcDbEntity
  8
0
 62
256
370
-1
 48
1.0
  6
BYLAYER
100
AcDbLine
 10
0.0
 20
40.0
 30
0.0
 11
147.2243186433545645
 21
125.0
 31
0.0
  0
LINE
  5
87
100
AcDbEntity
  8
0
 62
256
370
-1
 48
1.0
  6
BYLAYER
100
AcDbLine
 10
0.0
 20
45.0
 30
0.0
 11
147.2243186433545645
 21
130.0
 31
0.0
  0
LINE
  5
88
100
AcDbEntity
  8
0
 62
256
370
-1
 48
1.0
  6
BYLAYER
100
AcDbLine
 10
0.0
 20
50.0
 30
0.0
 11
147.2243186433545645
 21
135.0
 31
0.0
  0
LINE
  5
89
100
AcDbEntity
  8
0
 62
256
370
-1
 48
1.0
  6
BYLAYER
100
AcDbLine
 10
0.0
 20
55.0
 30
0.0
 11
147.2243186433545645
 21
140.0
 31
0.0
  0
LINE
  5
8A
100
AcDbEntity
  8
0
 62
256
370
-1
 48
1.0
  6
BYLAYER
100
AcDbLine
 10
0.0
 20
60.0
 30
0.0
 11
147.2243186433545645
 21
145.0
 31
0.0
  0
LINE
  5
8B
100
AcDbEntity
  8
0
 62
256
370
-1
 48
1.0
  6
BYLAYER
100
AcDbLine
 10
0.0
 20
65.0
 30
0.0
 11
147.2243186433545645
 21
150.0
 31
0.0
  0
LINE
  5
8C
100
AcDbEntity
  8
0
 62
256
370
-1
 48
1.0
  6
BYLAYER
100
AcDbLine
 10
0.0
 20
70.0
 30
0.0
 11
147.2243186433545645
 21
155.0
 31
0.0
  0
LINE
  5
8D
100
AcDbEntity
  8
0
 62
256
370
-1
 48
1.0
  6
BYLAYER
100
AcDbLine
 10
0.0
 20
75.0
 30
0.0
 11
147.2243186433545645
 21
160.0
 31
0.0
  0
LINE
  5
8E
100
AcDbEntity
  8
0
 62
256
370
-1
 48
1.0
  6
BYLAYER
100
AcDbLine
 10
0.0
 20
80.0
 30
0.0
 11
147.2243186433545645
 21
165.0
 31
0.0
  0
LINE
  5
8F
100
AcDbEntity
  8
0
 62
256
370
-1
 48
1.0
  6
BYLAYER
100
AcDbLine
 10
0.0
 20
85.0
 30
0.0
 11
147.2243186433545645
 21
170.0
 31
0.0
  0
LINE
  5
90
100
AcDbEntity
  8
0
 62
256
370
-1
 48
1.0
  6
BYLAYER
100
AcDbLine
 10
0.0
 20
90.0
 30
0.0
 11
147.2243186433545645
 21
175.0
 31
0.0
  0
LINE
  5
91
100
AcDbEntity
  8
0
 62
256
370
-1
 48
1.0
  6
BYLAYER
100
AcDbLine
 10
0.0
 20
95.0
 30
0.0
 11
147.2243186433545645
 21
180.0
 31
0.0
  0
LINE
  5
92
100
AcDbEntity
  8
0
 62
256
370
-1
 48
1.0
  6
BYLAYER
100
AcDbLine
 10
0.0
 20
100.0
 30
0.0
 11
147.2243186433545645
 21
185.0
 31
0.0
  0
LINE
  5
93
100
AcDbEntity
  8
0
 62
256
370
-1
 48
1.0
  6
BYLAYER
100
AcDbLine
 10
0.0
 20
105.0
 30
0.0
 11
147.2243186433545645
 21
190.0
 31
0.0
  0
LINE
  5
94
100
AcDbEntity
  8
0
 62
256
370
-1
 48
1.0
  6
BYLAYER
100
AcDbLine
 10
0.0
 20
110.0
 30
0.0
 11
147.2243186433545645
 21
195.0
 31
0.0
  0
LINE
  5
95
100
AcDbEntity
  8
0
 62
256
370
-1
 48
1.0
  6
BYLAYER
100
AcDbLine
 10
0.0
 20
115.0
 30
0.0
 11
147.2243186433545645
 21
200.0
 31
0.0
  0
LINE
  5
96
100
AcDbEntity
  8
0
 62
256
370
-1
 48
1.0
  6
BYLAYER
100
AcDbLine
 10
0.0
 20
120.0
 30
0.0
 11
147.2243186433545645
 21
205.0
 31
0.0
  0
LINE
  5
97
100
AcDbEntity
  8
0
 62
256
370
-1
 48
1.0
  6
BYLAYER
100
AcDbLine
 10
0.0
 20
125.0
 30
0.0
 11
147.2243186433545645
 21
210.0
 31
0.0
  0
LINE
  5
98
100
AcDbEntity
  8
0
 62
256
370
-1
 48
1.0
  6
BYLAYER
100
AcDbLine
 10
0.0
 20
130.0
 30
0.0
 11
147.2243186433545645
 21
215.0
 31
0.0
  0
LINE
  5
99
100
AcDbEntity
  8
0
 62
256
370
-1
 48
1.0
  6
BYLAYER
100
AcDbLine
 10
0.0
 20
135.0
 30
0.0
 11
147.2243186433545645
 21
220.0
 31
0.0
  0
LINE
  5
9A
100
AcDbEntity
  8
0
 62
256
370
-1
 48
1.0
  6
BYLAYER
100
AcDbLine
 10
0.0
 20
140.0
 30
0.0
 11
147.2243186433545645
 21
225.0
 31
0.0
  0
LINE
  5
9B
100
AcDbEntity
  8
0
 62
256
370
-1
 48
1.0
  6
BYLAYER
100
AcDbLine
 10
0.0
 20
145.0
 30
0.0
 11
138.5640646055101683
 21
225.0
 31
0.0
  0
LINE
  5
9C
100
AcDbEntity
  8
0
 62
256
370
-1
 48
1.0
  6
BYLAYER
100
AcDbLine
 10
0.0
 20
150.0
 30
0.0
 11
129.9038105676658006
 21
225.0
 31
0.0
  0
LINE
  5
9D
100
AcDbEntity
  8
0
 62
256
370
-1
 48
1.0
  6
BYLAYER
100
AcDbLine
 10
0.0
 20
155.0
 30
0.0
 11
121.2435565298214186
 21
225.0
 31
0.0
  0
LINE
  5
9E
100
AcDbEntity
  8
0
 62
256
370
-1
 48
1.0
  6
BYLAYER
100
AcDbLine
 10
0.0
 20
160.0
 30
0.0
 11
112.5833024919770082
 21
225.0
 31
0.0
  0
LINE
  5
9F
100
AcDbEntity
  8
0
 62
256
370
-1
 48
1.0
  6
BYLAYER
100
AcDbLine
 10
0.0
 20
165.0
 30
0.0
 11
103.9230484541326405
 21
225.0
 31
0.0
  0
LINE
  5
A0
100
AcDbEntity
  8
0
 62
256
370
-1
 48
1.0
  6
BYLAYER
100
AcDbLine
 10
0.0
 20
170.0
 30
0.0
 11
95.2627944162882585
 21
225.0
 31
0.0
  0
LINE
  5
A1
100
AcDbEntity
  8
0
 62
256
370
-1
 48
1.0
  6
BYLAYER
100
AcDbLine
 10
0.0
 20
175.0
 30
0.0
 11
86.6025403784438623
 21
225.0
 31
0.0
  0
LINE
  5
A2
100
AcDbEntity
  8
0
 62
256
370
-1
 48
1.0
  6
BYLAYER
100
AcDbLine
 10
0.0
 20
180.0
 30
0.0
 11
77.9422863405994804
 21
225.0
 31
0.0
  0
LINE
  5
A3
100
AcDbEntity
  8
0
 62
256
370
-1
 48
1.0
  6
BYLAYER
100
AcDbLine
 10
0.0
 20
185.0
 30
0.0
 11
69.2820323027550842
 21
225.0
 31
0.0
  0
LINE
  5
A4
100
AcDbEntity
  8
0
 62
256
370
-1
 48
1.0
  6
BYLAYER
100
AcDbLine
 10
0.0
 20
190.0
 30
0.0
 11
60.6217782649107093
 21
225.0
 31
0.0
  0
LINE
  5
A5
100
AcDbEntity
  8
0
 62
256
370
-1
 48
1.0
  6
BYLAYER
100
AcDbLine
 10
0.0
 20
195.0
 30
0.0
 11
51.9615242270662989
 21
225.0
 31
0.0
  0
LINE
  5
A6
100
AcDbEntity
  8
0
 62
256
370
-1
 48
1.0
  6
BYLAYER
100
AcDbLine
 10
0.0
 20
200.0
 30
0.0
 11
43.3012701892219312
 21
225.0
 31
0.0
  0
LINE
  5
A7
100
AcDbEntity
  8
0
 62
256
370
-1
 48
1.0
  6
BYLAYER
100
AcDbLine
 10
0.0
 20
205.0
 30
0.0
 11
34.641016151377535
 21
225.0
 31
0.0
  0
LINE
  5
A8
100
AcDbEntity
  8
0
 62
256
370
-1
 48
1.0
  6
BYLAYER
100
AcDbLine
 10
0.0
 20
210.0
 30
0.0
 11
25.9807621135331708
 21
225.0
 31
0.0
  0
LINE
  5
A9
100
AcDbEntity
  8
0
 62
256
370
-1
 48
1.0
  6
BYLAYER
100
AcDbLine
 10
0.0
 20
215.0
 30
0.0
 11
17.3205080756887675
 21
225.0
 31
0.0
  0
LINE
  5
AA
100
AcDbEntity
  8
0
 62
256
370
-1
 48
1.0
  6
BYLAYER
100
AcDbLine
 10
0.0
 20
220.0
 30
0.0
 11
8.6602540378444033
 21
225.0
 31
0.0
  0
LINE
  5
AB
100
AcDbEntity
  8
0
 62
256
370
-1
 48
1.0
  6
BYLAYER
100
AcDbLine
 10
138.5640646055101399
 20
-0.0000000000000142
 30
0.0
 11
147.2243186433545645
 21
5.0
 31
0.0
  0
LINE
  5
AC
100
AcDbEntity
  8
0
 62
256
370
-1
 48
1.0
  6
BYLAYER
100
AcDbLine
 10
129.9038105676657722
 20
-0.0000000000000142
 30
0.0
 11
147.2243186433545645
 21
10.0
 31
0.0
  0
LINE
  5
AD
100
AcDbEntity
  8
0
 62
256
370
-1
 48
1.0
  6
BYLAYER
100
AcDbLine
 10
121.2435565298214044
 20
0.0
 30
0.0
 11
147.2243186433545645
 21
15.0
 31
0.0
  0
LINE
  5
AE
100
AcDbEntity
  8
0
 62
256
370
-1
 48
1.0
  6
BYLAYER
100
AcDbLine
 10
112.583302491976994
 20
-0.0000000000000142
 30
0.0
 11
147.2243186433545645
 21
20.0
 31
0.0
  0
LINE
  5
AF
100
AcDbEntity
  8
0
 62
256
370
-1
 48
1.0
  6
BYLAYER
100
AcDbLine
 10
103.9230484541326121
 20
-0.0000000000000142
 30
0.0
 11
147.2243186433545645
 21
25.0
 31
0.0
  0
LINE
  5
B0
100
AcDbEntity
  8
0
 62
256
370
-1
 48
1.0
  6
BYLAYER
100
AcDbLine
 10
95.2627944162882301
 20
-0.0000000000000071
 30
0.0
 11
147.2243186433545645
 21
30.0
 31
0.0
  0
LINE
  5
B1
100
AcDbEntity
  8
0
 62
256
370
-1
 48
1.0
  6
BYLAYER
100
AcDbLine
 10
86.6025403784438339
 20
-0.0000000000000142
 30
0.0
 11
147.2243186433545645
 21
35.0
 31
0.0
  0
LINE
  5
B2
100
AcDbEntity
  8
0
 62
256
370
-1
 48
1.0
  6
BYLAYER
100
AcDbLine
 10
77.9422863405994661
 20
-0.0000000000000071
 30
0.0
 11
147.2243186433545645
 21
40.0
 31
0.0
  0
LINE
  5
B3
100
AcDbEntity
  8
0
 62
256
370
-1
 48
1.0
  6
BYLAYER
100
AcDbLine
 10
69.28203230275507
 20
-0.0000000000000071
 30
0.0
 11
147.2243186433545645
 21
45.0
 31
0.0
  0
LINE
  5
B4
100
AcDbEntity
  8
0
 62
256
370
-1
 48
1.0
  6
BYLAYER
100
AcDbLine
 10
60.6217782649107022
 20
0.0
 30
0.0
 11
147.2243186433545645
 21
50.0
 31
0.0
  0
LINE
  5
B5
100
AcDbEntity
  8
0
 62
256
370
-1
 48
1.0
  6
BYLAYER
100
AcDbLine
 10
51.961524227066306
 20
-0.0000000000000071
 30
0.0
 11
147.2243186433545645
 21
55.0
 31
0.0
  0
LINE
  5
B6
100
AcDbEntity
  8
0
 62
256
370
-1
 48
1.0
  6
BYLAYER
100
AcDbLine
 10
43.301270189221917
 20
-0.0000000000000071
 30
0.0
 11
147.2243186433545645
 21
60.0
 31
0.0
  0
LINE
  5
B7
100
AcDbEntity
  8
0
 62
256
370
-1
 48
1.0
  6
BYLAYER
100
AcDbLine
 10
34.641016151377535
 20
-0.0000000000000036
 30
0.0
 11
147.2243186433545645
 21
65.0
 31
0.0
  0
LINE
  5
B8
100
AcDbEntity
  8
0
 62
256
370
-1
 48
1.0
  6
BYLAYER
100
AcDbLine
 10
25.980762113533153
 20
-0.0000000000000036
 30
0.0
 11
147.2243186433545645
 21
70.0
 31
0.0
  0
LINE
  5
B9
100
AcDbEntity
  8
0
 62
256
370
-1
 48
1.0
  6
BYLAYER
100
AcDbLine
 10
17.3205080756887675
 20
-0.0000000000000018
 30
0.0
 11
147.2243186433545645
 21
75.0
 31
0.0
  0
LINE
  5
BA
100
AcDbEntity
  8
0
 62
256
370
-1
 48
1.0
  6
BYLAYER
100
AcDbLine
 10
8.6602540378443837
 20
-0.0000000000000009
 30
0.0
 11
147.2243186433545645
 21
80.0
 31
0.0
  0
LINE
  5
BB
100
AcDbEntity
  8
0
 62
256
370
-1
 48
1.0
  6
BYLAYER
100
AcDbLine
 10
147.224318643354593
 20
5.0000000000000036
 30
0.0
 11
0.0
 21
90.0
 31
0.0
  0
LINE
  5
BC
100
AcDbEntity
  8
0
 62
256
370
-1
 48
1.0
  6
BYLAYER
100
AcDbLine
 10
147.2243186433546214
 20
9.9999999999999822
 30
0.0
 11
0.0000000000000284
 21
94.9999999999999716
 31
0.0
  0
LINE
  5
BD
100
AcDbEntity
  8
0
 62
256
370
-1
 48
1.0
  6
BYLAYER
100
AcDbLine
 10
147.2243186433546498
 20
14.9999999999999609
 30
0.0
 11
0.0000000000000568
 21
99.9999999999999574
 31
0.0
  0
LINE
  5
BE
100
AcDbEntity
  8
0
 62
256
370
-1
 48
1.0
  6
BYLAYER
100
AcDbLine
 10
147.2243186433546782
 20
19.9999999999999396
 30
0.0
 11
0.0000000000000853
 21
104.9999999999999432
 31
0.0
  0
LINE
  5
BF
100
AcDbEntity
  8
0
 62
256
370
-1
 48
1.0
  6
BYLAYER
100
AcDbLine
 10
147.2243186433547066
 20
24.9999999999999183
 30
0.0
 11
0.0000000000001137
 21
109.9999999999999147
 31
0.0
  0
LINE
  5
C0
100
AcDbEntity
  8
0
 62
256
370
-1
 48
1.0
  6
BYLAYER
100
AcDbLine
 10
147.2243186433547351
 20
29.999999999999897
 30
0.0
 11
0.0000000000001421
 21
114.9999999999998863
 31
0.0
  0
LINE
  5
C1
100
AcDbEntity
  8
0
 62
256
370
-1
 48
1.0
  6
BYLAYER
100
AcDbLine
 10
147.2243186433547635
 20
34.9999999999998721
 30
0.0
 11
0.0000000000001705
 21
119.9999999999998721
 31
0.0
  0
LINE
  5
C2
100
AcDbEntity
  8
0
 62
256
370
-1
 48
1.0
  6
BYLAYER
100
AcDbLine
 10
147.2243186433547919
 20
39.9999999999998579
 30
0.0
 11
0.000000000000199
 21
124.9999999999998579
 31
0.0
  0
LINE
  5
C3
100
AcDbEntity
  8
0
 62
256
370
-1
 48
1.0
  6
BYLAYER
100
AcDbLine
 10
147.2243186433548203
 20
44.9999999999998295
 30
0.0
 11
0.0000000000002274
 21
129.9999999999998295
 31
0.0
  0
LINE
  5
C4
100
AcDbEntity
  8
0
 62
256
370
-1
 48
1.0
  6
BYLAYER
100
AcDbLine
 10
147.2243186433548487
 20
49.9999999999998153
 30
0.0
 11
0.0000000000002558
 21
134.999999999999801
 31
0.0
  0
LINE
  5
C5
100
AcDbEntity
  8
0
 62
256
370
-1
 48
1.0
  6
BYLAYER
100
AcDbLine
 10
147.2243186433548772
 20
54.9999999999997868
 30
0.0
 11
0.0000000000002842
 21
139.9999999999997726
 31
0.0
  0
LINE
  5
C6
100
AcDbEntity
  8
0
 62
256
370
-1
 48
1.0
  6
BYLAYER
100
AcDbLine
 10
147.2243186433549056
 20
59.9999999999997726
 30
0.0
 11
0.0000000000003126
 21
144.9999999999997726
 31
0.0
  0
LINE
  5
C7
100
AcDbEntity
  8
0
 62
256
370
-1
 48
1.0
  6
BYLAYER
100
AcDbLine
 10
147.224318643354934
 20
64.9999999999997442
 30
0.0
 11
0.0000000000003411
 21
149.9999999999997442
 31
0.0
  0
LINE
  5
C8
100
AcDbEntity
  8
0
 62
256
370
-1
 48
1.0
  6
BYLAYER
100
AcDbLine
 10
147.2243186433549624
 20
69.9999999999997158
 30
0.0
 11
0.0000000000003695
 21
154.9999999999997158
 31
0.0
  0
LINE
  5
C9
100
AcDbEntity
  8
0
 62
256
370
-1
 48
1.0
  6
BYLAYER
100
AcDbLine
 10
147.2243186433549909
 20
74.9999999999997016
 30
0.0
 11
0.0000000000003979
 21
159.9999999999997158
 31
0.0
  0
LINE
  5
CA
100
AcDbEntity
  8
0
 62
256
370
-1
 48
1.0
  6
BYLAYER
100
AcDbLine
 10
147.2243186433550193
 20
79.9999999999996874
 30
0.0
 11
0.0000000000004263
 21
164.9999999999996874
 31
0.0
  0
LINE
  5
CB
100
AcDbEntity
  8
0
 62
256
370
-1
 48
1.0
  6
BYLAYER
100
AcDbLine
 10
147.2243186433550477
 20
84.9999999999996589
 30
0.0
 11
0.0000000000004547
 21
169.9999999999996589
 31
0.0
  0
LINE
  5
CC
100
AcDbEntity
  8
0
 62
256
370
-1
 48
1.0
  6
BYLAYER
100
AcDbLine
 10
147.2243186433550761
 20
89.9999999999996305
 30
0.0
 11
0.0000000000004832
 21
174.9999999999996305
 31
0.0
  0
LINE
  5
CD
100
AcDbEntity
  8
0
 62
256
370
-1
 48
1.0
  6
BYLAYER
100
AcDbLine
 10
147.2243186433551045
 20
94.9999999999996163
 30
0.0
 11
0.0000000000005116
 21
179.9999999999996021
 31
0.0
  0
LINE
  5
CE
100
AcDbEntity
  8
0
 62
256
370
-1
 48
1.0
  6
BYLAYER
100
AcDbLine
 10
147.224318643355133
 20
99.9999999999996021
 30
0.0
 11
0.00000000000054
 21
184.9999999999996021
 31
0.0
  0
LINE
  5
CF
100
AcDbEntity
  8
0
 62
256
370
-1
 48
1.0
  6
BYLAYER
100
AcDbLine
 10
147.2243186433551614
 20
104.9999999999995737
 30
0.0
 11
0.0000000000005684
 21
189.9999999999995737
 31
0.0
  0
LINE
  5
D0
100
AcDbEntity
  8
0
 62
256
370
-1
 48
1.0
  6
BYLAYER
100
AcDbLine
 10
147.2243186433551898
 20
109.9999999999995453
 30
0.0
 11
0.0000000000005969
 21
194.9999999999995453
 31
0.0
  0
LINE
  5
D1
100
AcDbEntity
  8
0
 62
256
370
-1
 48
1.0
  6
BYLAYER
100
AcDbLine
 10
147.2243186433552182
 20
114.999999999999531
 30
0.0
 11
0.0000000000006253
 21
199.9999999999995453
 31
0.0
  0
LINE
  5
D2
100
AcDbEntity
  8
0
 62
256
370
-1
 48
1.0
  6
BYLAYER
100
AcDbLine
 10
147.2243186433552466
 20
119.9999999999995168
 30
0.0
 11
0.0000000000006537
 21
204.9999999999995168
 31
0.0
  0
LINE
  5
D3
100
AcDbEntity
  8
0
 62
256
370
-1
 48
1.0
  6
BYLAYER
100
AcDbLine
 10
147.2243186433552751
 20
124.9999999999994884
 30
0.0
 11
0.0000000000006821
 21
209.9999999999994884
 31
0.0
  0
LINE
  5
D4
100
AcDbEntity
  8
0
 62
256
370
-1
 48
1.0
  6
BYLAYER
100
AcDbLine
 10
147.2243186433553035
 20
129.99999999999946
 30
0.0
 11
0.0000000000007105
 21
214.99999999999946
 31
0.0
  0
LINE
  5
D5
100
AcDbEntity
  8
0
 62
256
370
-1
 48
1.0
  6
BYLAYER
100
AcDbLine
 10
147.2243186433553319
 20
134.9999999999994316
 30
0.0
 11
0.000000000000739
 21
219.9999999999994316
 31
0.0
  0
LINE
  5
D6
100
AcDbEntity
  8
0
 62
256
370
-1
 48
1.0
  6
BYLAYER
100
AcDbLine
 10
147.2243186433553603
 20
139.9999999999994316
 30
0.0
 11
0.0000000000007674
 21
224.9999999999994316
 31
0.0
  0
LINE
  5
D7
100
AcDbEntity
  8
0
 62
256
370
-1
 48
1.0
  6
BYLAYER
100
AcDbLine
 10
147.2243186433558151
 20
219.9999999999990905
 30
0.0
 11
138.5640646055097704
 21
225.0000000000000568
 31
0.0
  0
LINE
  5
D8
100
AcDbEntity
  8
0
 62
256
370
-1
 48
1.0
  6
BYLAYER
100
AcDbLine
 10
147.2243186433557867
 20
214.9999999999990905
 30
0.0
 11
129.903810567665488
 21
224.9999999999999716
 31
0.0
  0
LINE
  5
D9
100
AcDbEntity
  8
0
 62
256
370
-1
 48
1.0
  6
BYLAYER
100
AcDbLine
 10
147.2243186433557582
 20
209.9999999999991189
 30
0.0
 11
121.2435565298210349
 21
225.0000000000000284
 31
0.0
  0
LINE
  5
DA
100
AcDbEntity
  8
0
 62
256
370
-1
 48
1.0
  6
BYLAYER
100
AcDbLine
 10
147.2243186433557298
 20
204.9999999999991473
 30
0.0
 11
112.5833024919766956
 21
225.0
 31
0.0
  0
LINE
  5
DB
100
AcDbEntity
  8
0
 62
256
370
-1
 48
1.0
  6
BYLAYER
100
AcDbLine
 10
147.2243186433557014
 20
199.9999999999991758
 30
0.0
 11
103.923048454132342
 21
225.0
 31
0.0
  0
LINE
  5
DC
100
AcDbEntity
  8
0
 62
256
370
-1
 48
1.0
  6
BYLAYER
100
AcDbLine
 10
147.224318643355673
 20
194.9999999999992042
 30
0.0
 11
95.2627944162879601
 21
225.0
 31
0.0
  0
LINE
  5
DD
100
AcDbEntity
  8
0
 62
256
370
-1
 48
1.0
  6
BYLAYER
100
AcDbLine
 10
147.2243186433556446
 20
189.9999999999992042
 30
0.0
 11
86.6025403784435923
 21
224.9999999999999716
 31
0.0
  0
LINE
  5
DE
100
AcDbEntity
  8
0
 62
256
370
-1
 48
1.0
  6
BYLAYER
100
AcDbLine
 10
147.2243186433556161
 20
184.9999999999992326
 30
0.0
 11
77.9422863405990825
 21
225.0000000000000568
 31
0.0
  0
LINE
  5
DF
100
AcDbEntity
  8
0
 62
256
370
-1
 48
1.0
  6
BYLAYER
100
AcDbLine
 10
147.2243186433555877
 20
179.999999999999261
 30
0.0
 11
69.2820323027548426
 21
225.0
 31
0.0
  0
LINE
  5
E0
100
AcDbEntity
  8
0
 62
256
370
-1
 48
1.0
  6
BYLAYER
100
AcDbLine
 10
147.2243186433555593
 20
174.999999999999261
 30
0.0
 11
60.621778264910418
 21
225.0
 31
0.0
  0
LINE
  5
E1
100
AcDbEntity
  8
0
 62
256
370
-1
 48
1.0
  6
BYLAYER
100
AcDbLine
 10
147.2243186433555309
 20
169.9999999999992895
 30
0.0
 11
51.9615242270660787
 21
224.9999999999999716
 31
0.0
  0
LINE
  5
E2
100
AcDbEntity
  8
0
 62
256
370
-1
 48
1.0
  6
BYLAYER
100
AcDbLine
 10
147.2243186433555024
 20
164.9999999999993179
 30
0.0
 11
43.3012701892216683
 21
225.0
 31
0.0
  0
LINE
  5
E3
100
AcDbEntity
  8
0
 62
256
370
-1
 48
1.0
  6
BYLAYER
100
AcDbLine
 10
147.224318643355474
 20
159.9999999999993463
 30
0.0
 11
34.6410161513773289
 21
225.0
 31
0.0
  0
LINE
  5
E4
100
AcDbEntity
  8
0
 62
256
370
-1
 48
1.0
  6
BYLAYER
100
AcDbLine
 10
147.2243186433554456
 20
154.9999999999993747
 30
0.0
 11
25.9807621135329754
 21
224.9999999999999716
 31
0.0
  0
LINE
  5
E5
100
AcDbEntity
  8
0
 62
256
370
-1
 48
1.0
  6
BYLAYER
100
AcDbLine
 10
147.2243186433554172
 20
149.9999999999993747
 30
0.0
 11
17.3205080756885366
 21
225.0
 31
0.0
  0
LINE
  5
E6
100
AcDbEntity
  8
0
 62
256
370
-1
 48
1.0
  6
BYLAYER
100
AcDbLine
 10
147.2243186433553888
 20
144.9999999999994031
 30
0.0
 11
8.6602540378441972
 21
224.9999999999999716
 31
0.0
  0
LINE
  5
E7
100
AcDbEntity
  8
0
 62
256
370
-1
 48
1.0
  6
BYLAYER
100
AcDbLine
 10
147.224318643354593
 20
-0.0000000000000044
 30
0.0
 11
0.0
 21
84.9999999999999858
 31
0.0
  0
LINE
  5
E8
100
AcDbEntity
  8
0
 62
256
370
-1
 48
1.0
  6
BYLAYER
100
AcDbLine
 10
8.6602540378444246
 20
-0.0000000000001563
 30
0.0
 11
0.0
 21
4.9999999999998579
 31
0.0
  0
LINE
  5
E9
100
AcDbEntity
  8
0
 62
256
370
-1
 48
1.0
  6
BYLAYER
100
AcDbLine
 10
17.3205080756887924
 20
-0.0000000000001421
 30
0.0
 11
0.0
 21
9.9999999999998721
 31
0.0
  0
LINE
  5
EA
100
AcDbEntity
  8
0
 62
256
370
-1
 48
1.0
  6
BYLAYER
100
AcDbLine
 10
25.9807621135331459
 20
-0.0000000000001137
 30
0.0
 11
0.0
 21
14.9999999999998863
 31
0.0
  0
LINE
  5
EB
100
AcDbEntity
  8
0
 62
256
370
-1
 48
1.0
  6
BYLAYER
100
AcDbLine
 10
34.6410161513775563
 20
-0.0000000000001137
 30
0.0
 11
0.0
 21
19.9999999999998863
 31
0.0
  0
LINE
  5
EC
100
AcDbEntity
  8
0
 62
256
370
-1
 48
1.0
  6
BYLAYER
100
AcDbLine
 10
43.3012701892219383
 20
-0.0000000000000924
 30
0.0
 11
0.0
 21
24.9999999999999005
 31
0.0
  0
LINE
  5
ED
100
AcDbEntity
  8
0
 62
256
370
-1
 48
1.0
  6
BYLAYER
100
AcDbLine
 10
51.961524227066306
 20
-0.0000000000000853
 30
0.0
 11
0.0
 21
29.9999999999999005
 31
0.0
  0
LINE
  5
EE
100
AcDbEntity
  8
0
 62
256
370
-1
 48
1.0
  6
BYLAYER
100
AcDbLine
 10
60.6217782649107022
 20
-0.0000000000000711
 30
0.0
 11
0.0
 21
34.9999999999999147
 31
0.0
  0
LINE
  5
EF
100
AcDbEntity
  8
0
 62
256
370
-1
 48
1.0
  6
BYLAYER
100
AcDbLine
 10
69.2820323027550842
 20
-0.0000000000000639
 30
0.0
 11
0.0
 21
39.9999999999999218
 31
0.0
  0
LINE
  5
F0
100
AcDbEntity
  8
0
 62
256
370
-1
 48
1.0
  6
BYLAYER
100
AcDbLine
 10
77.9422863405994804
 20
-0.0000000000000639
 30
0.0
 11
0.0
 21
44.9999999999999289
 31
0.0
  0
LINE
  5
F1
100
AcDbEntity
  8
0
 62
256
370
-1
 48
1.0
  6
BYLAYER
100
AcDbLine
 10
86.6025403784438481
 20
-0.0000000000000426
 30
0.0
 11
0.0
 21
49.9999999999999361
 31
0.0
  0
LINE
  5
F2
100
AcDbEntity
  8
0
 62
256
370
-1
 48
1.0
  6
BYLAYER
100
AcDbLine
 10
95.2627944162882443
 20
-0.0000000000000462
 30
0.0
 11
0.0
 21
54.9999999999999432
 31
0.0
  0
LINE
  5
F3
100
AcDbEntity
  8
0
 62
256
370
-1
 48
1.0
  6
BYLAYER
100
AcDbLine
 10
103.9230484541326121
 20
-0.0000000000000249
 30
0.0
 11
0.0
 21
59.9999999999999503
 31
0.0
  0
LINE
  5
F4
100
AcDbEntity
  8
0
 62
256
370
-1
 48
1.0
  6
BYLAYER
100
AcDbLine
 10
112.5833024919770082
 20
-0.0000000000000178
 30
0.0
 11
0.0
 21
64.9999999999999574
 31
0.0
  0
LINE
  5
F5
100
AcDbEntity
  8
0
 62
256
370
-1
 48
1.0
  6
BYLAYER
100
AcDbLine
 10
121.2435565298214044
 20
-0.0000000000000124
 30
0.0
 11
0.0
 21
69.9999999999999716
 31
0.0
  0
LINE
  5
F6
100
AcDbEntity
  8
0
 62
256
370
-1
 48
1.0
  6
BYLAYER
100
AcDbLine
 10
129.9038105676658006
 20
-0.0000000000000124
 30
0.0
 11
0.0
 21
74.9999999999999716
 31
0.0
  0
LINE
  5
F7
100
AcDbEntity
  8
0
 62
256
370
-1
 48
1.0
  6
BYLAYER
100
AcDbLine
 10
138.5640646055101968
 20
-0.000000000000008
 30
0.0
 11
0.0
 21
79.9999999999999858
 31
0.0
  0
ENDSEC
  0
SECTION
  2
OBJECTS
  0
DICTIONARY
  5
C
100
AcDbDictionary
280
0
281
1
  3
ACAD_GROUP
350
D
  3
ACAD_LAYOUT
350
1A
  3
ACAD_MLINESTYLE
350
17
  3
ACAD_PLOTSETTINGS
350
19
  3
ACAD_PLOTSTYLENAME
350
E
  3
AcDbVariableDictionary
350
F8
  3
QCAD_OBJECTS
350
F9
  0
DICTIONARY
  5
D
100
AcDbDictionary
280
0
281
1
  0
ACDBDICTIONARYWDFLT
  5
E
100
AcDbDictionary
281
1
  3
Normal
350
F
100
AcDbDictionaryWithDefault
340
F
  0
ACDBPLACEHOLDER
  5
F
  0
DICTIONARY
  5
17
100
AcDbDictionary
280
0
281
1
  3
Standard
350
18
  0
MLINESTYLE
  5
18
100
AcDbMlineStyle
  2
STANDARD
 70
0
  3

 62
256
 51
90.0
 52
90.0
 71
2
 49
0.5
 62
256
  6
BYLAYER
 49
-0.5
 62
256
  6
BYLAYER
  0
DICTIONARY
  5
19
100
AcDbDictionary
280
0
281
1
  0
DICTIONARY
  5
1A
100
AcDbDictionary
281
1
  3
Layout1
350
1E
  3
Layout2
350
26
  3
Model
350
22
  0
LAYOUT
  5
1E
100
AcDbPlotSettings
  1

  2
none_device
  4

  6

 40
0.0
 41
0.0
 42
0.0
 43
0.0
 44
0.0
 45
0.0
 46
0.0
 47
0.0
 48
0.0
 49
0.0
140
0.0
141
0.0
142
1.0
143
1.0
 70
688
 72
0
 73
0
 74
5
  7

 75
16
147
1.0
148
0.0
149
0.0
100
AcDbLayout
  1
Layout1
 70
1
 71
1
 10
0.0
 20
0.0
 11
420.0
 21
297.0
 12
0.0
 22
0.0
 32
0.0
 14
100000000000000000000.0
 24
100000000000000000000.0
 34
100000000000000000000.0
 15
-100000000000000000000.0
 25
-100000000000000000000.0
 35
-100000000000000000000.0
146
0.0
 13
0.0
 23
0.0
 33
0.0
 16
1.0
 26
0.0
 36
0.0
 17
0.0
 27
1.0
 37
0.0
 76
0
330
1B
  0
LAYOUT
  5
22
100
AcDbPlotSettings
  1

  2
none_device
  4

  6

 40
0.0
 41
0.0
 42
0.0
 43
0.0
 44
0.0
 45
0.0
 46
0.0
 47
0.0
 48
0.0
 49
0.0
140
0.0
141
0.0
142
1.0
143
1.0
 70
1712
 72
0
 73
0
 74
0
  7

 75
0
147
1.0
148
0.0
149
0.0
100
AcDbLayout
  1
Model
 70
1
 71
0
 10
0.0
 20
0.0
 11
12.0
 21
9.0
 12
0.0
 22
0.0
 32
0.0
 14
0.0
 24
0.0
 34
0.0
 15
0.0
 25
0.0
 35
0.0
146
0.0
 13
0.0
 23
0.0
 33
0.0
 16
1.0
 26
0.0
 36
0.0
 17
0.0
 27
1.0
 37
0.0
 76
0
330
1F
  0
LAYOUT
  5
26
100
AcDbPlotSettings
  1

  2
none_device
  4

  6

 40
0.0
 41
0.0
 42
0.0
 43
0.0
 44
0.0
 45
0.0
 46
0.0
 47
0.0
 48
0.0
 49
0.0
140
0.0
141
0.0
142
1.0
143
1.0
 70
688
 72
0
 73
0
 74
5
  7

 75
16
147
1.0
148
0.0
149
0.0
100
AcDbLayout
  1
Layout2
 70
1
 71
2
 10
0.0
 20
0.0
 11
12.0
 21
9.0
 12
0.0
 22
0.0
 32
0.0
 14
0.0
 24
0.0
 34
0.0
 15
0.0
 25
0.0
 35
0.0
146
0.0
 13
0.0
 23
0.0
 33
0.0
 16
1.0
 26
0.0
 36
0.0
 17
0.0
 27
1.0
 37
0.0
 76
0
330
23
  0
DICTIONARY
  5
F8
100
AcDbDictionary
281
1
  3
DIMASSOC
350
FB
  3
HIDETEXT
350
FA
  0
DICTIONARYVAR
  5
FA
100
DictionaryVariables
280
0
  1
2
  0
DICTIONARYVAR
  5
FB
100
DictionaryVariables
280
0
  1
1
  0
DICTIONARY
  5
F9
100
AcDbDictionary
281
1
  3
ColorSettings/BackgroundColor
350
FC
  3
ColorSettings/ColorMode
350
FD
  3
Grid/DisplayGrid00
350
FE
  3
Grid/DisplayGrid01
350
FF
  3
Grid/DisplayGrid02
350
100
  3
Grid/DisplayGrid03
350
101
  3
Grid/GridSpacingX00
350
102
  3
Grid/GridSpacingX01
350
103
  3
Grid/GridSpacingX02
350
104
  3
Grid/GridSpacingX03
350
105
  3
Grid/GridSpacingY00
350
106
  3
Grid/GridSpacingY01
350
107
  3
Grid/GridSpacingY02
350
108
  3
Grid/GridSpacingY03
350
109
  3
Grid/IsometricGrid00
350
10A
  3
Grid/IsometricGrid01
350
10B
  3
Grid/IsometricGrid02
350
10C
  3
Grid/IsometricGrid03
350
10D
  3
Grid/IsometricProjection00
350
10E
  3
Grid/IsometricProjection01
350
10F
  3
Grid/IsometricProjection02
350
110
  3
Grid/IsometricProjection03
350
111
  3
Grid/MetaGridSpacingX00
350
112
  3
Grid/MetaGridSpacingX01
350
113
  3
Grid/MetaGridSpacingX02
350
114
  3
Grid/MetaGridSpacingX03
350
115
  3
Grid/MetaGridSpacingY00
350
116
  3
Grid/MetaGridSpacingY01
350
117
  3
Grid/MetaGridSpacingY02
350
118
  3
Grid/MetaGridSpacingY03
350
119
  3
MultiPageSettings/Columns
350
11A
  3
MultiPageSettings/GlueMarginsBottom
350
11B
  3
MultiPageSettings/GlueMarginsLeft
350
11C
  3
MultiPageSettings/GlueMarginsRight
350
11D
  3
MultiPageSettings/GlueMarginsTop
350
11E
  3
MultiPageSettings/PrintCropMarks
350
11F
  3
MultiPageSettings/Rows
350
120
  3
PageSettings/OffsetX
350
121
  3
PageSettings/OffsetY
350
122
  3
PageSettings/PageOrientation
350
123
  3
PageSettings/PaperHeight
350
124
  3
PageSettings/PaperWidth
350
125
  3
PageSettings/Scale
350
126
  3
PageSettings/ShowPaperBorders
350
127
  3
PageTagSettings/EnablePageTags
350
128
  3
PageTagSettings/TagAlignment
350
129
  3
PageTagSettings/TagFont
350
12A
  3
PageTagSettings/TagPosition
350
12B
  3
QCADVersion
350
12C
  3
UnitSettings/PaperUnit
350
12D
  3
ViewportCenter
350
12E
  3
ViewportHeight
350
12F
  3
ViewportWidth
350
130
  0
XRECORD
  5
FC
330
F9
100
AcDbXrecord
280
1
1000
White
  0
XRECORD
  5
FD
330
F9
100
AcDbXrecord
280
1
1000
FullColor
  0
XRECORD
  5
FE
330
F9
100
AcDbXrecord
280
1
290
1
  0
XRECORD
  5
FF
330
F9
100
AcDbXrecord
280
1
290
1
  0
XRECORD
  5
100
330
F9
100
AcDbXrecord
280
1
290
1
  0
XRECORD
  5
101
330
F9
100
AcDbXrecord
280
1
290
1
  0
XRECORD
  5
102
330
F9
100
AcDbXrecord
280
1
1000
auto
  0
XRECORD
  5
103
330
F9
100
AcDbXrecord
280
1
1000
auto
  0
XRECORD
  5
104
330
F9
100
AcDbXrecord
280
1
1000
auto
  0
XRECORD
  5
105
330
F9
100
AcDbXrecord
280
1
1000
auto
  0
XRECORD
  5
106
330
F9
100
AcDbXrecord
280
1
1000
auto
  0
XRECORD
  5
107
330
F9
100
AcDbXrecord
280
1
1000
auto
  0
XRECORD
  5
108
330
F9
100
AcDbXrecord
280
1
1000
auto
  0
XRECORD
  5
109
330
F9
100
AcDbXrecord
280
1
1000
auto
  0
XRECORD
  5
10A
330
F9
100
AcDbXrecord
280
1
290
1
  0
XRECORD
  5
10B
330
F9
100
AcDbXrecord
280
1
290
0
  0
XRECORD
  5
10C
330
F9
100
AcDbXrecord
280
1
290
0
  0
XRECORD
  5
10D
330
F9
100
AcDbXrecord
280
1
290
0
  0
XRECORD
  5
10E
330
F9
100
AcDbXrecord
280
1
 90
65537
  0
XRECORD
  5
10F
330
F9
100
AcDbXrecord
280
1
 90
65537
  0
XRECORD
  5
110
330
F9
100
AcDbXrecord
280
1
 90
65537
  0
XRECORD
  5
111
330
F9
100
AcDbXrecord
280
1
 90
65537
  0
XRECORD
  5
112
330
F9
100
AcDbXrecord
280
1
1000
auto
  0
XRECORD
  5
113
330
F9
100
AcDbXrecord
280
1
1000
auto
  0
XRECORD
  5
114
330
F9
100
AcDbXrecord
280
1
1000
auto
  0
XRECORD
  5
115
330
F9
100
AcDbXrecord
280
1
1000
auto
  0
XRECORD
  5
116
330
F9
100
AcDbXrecord
280
1
1000
auto
  0
XRECORD
  5
117
330
F9
100
AcDbXrecord
280
1
1000
auto
  0
XRECORD
  5
118
330
F9
100
AcDbXrecord
280
1
1000
auto
  0
XRECORD
  5
119
330
F9
100
AcDbXrecord
280
1
1000
auto
  0
XRECORD
  5
11A
330
F9
100
AcDbXrecord
280
1
 90
1
  0
XRECORD
  5
11B
330
F9
100
AcDbXrecord
280
1
 40
10.0
  0
XRECORD
  5
11C
330
F9
100
AcDbXrecord
280
1
 40
10.0
  0
XRECORD
  5
11D
330
F9
100
AcDbXrecord
280
1
 40
10.0
  0
XRECORD
  5
11E
330
F9
100
AcDbXrecord
280
1
 40
10.0
  0
XRECORD
  5
11F
330
F9
100
AcDbXrecord
280
1
290
0
  0
XRECORD
  5
120
330
F9
100
AcDbXrecord
280
1
 90
1
  0
XRECORD
  5
121
330
F9
100
AcDbXrecord
280
1
 40
0.0
  0
XRECORD
  5
122
330
F9
100
AcDbXrecord
280
1
 40
0.0
  0
XRECORD
  5
123
330
F9
100
AcDbXrecord
280
1
1000
Portrait
  0
XRECORD
  5
124
330
F9
100
AcDbXrecord
280
1
 40
297.0
  0
XRECORD
  5
125
330
F9
100
AcDbXrecord
280
1
 40
210.0
  0
XRECORD
  5
126
330
F9
100
AcDbXrecord
280
1
1000
1:1
  0
XRECORD
  5
127
330
F9
100
AcDbXrecord
280
1
290
1
  0
XRECORD
  5
128
330
F9
100
AcDbXrecord
280
1
290
0
  0
XRECORD
  5
129
330
F9
100
AcDbXrecord
280
1
1000
Inside
  0
XRECORD
  5
12A
330
F9
100
AcDbXrecord
280
1
1000
Arial,10,-1,5,50,0,0,0,0,0
  0
XRECORD
  5
12B
330
F9
100
AcDbXrecord
280
1
1000
TopLeft
  0
XRECORD
  5
12C
330
F9
100
AcDbXrecord
280
1
1000
3.25.2
  0
XRECORD
  5
12D
330
F9
100
AcDbXrecord
280
1
 90
4
  0
XRECORD
  5
12F
330
F9
100
AcDbXrecord
280
1
 40
277.6965119999999274
  0
XRECORD
  5
130
330
F9
100
AcDbXrecord
280
1
 40
535.6855295999997679
  0
ENDSEC
  0
EOF
