<?xml version="1.0" standalone="no"?>
 <!DOCTYPE svg PUBLIC "-//W3C//DTD SVG 1.1//EN" 
 "http://www.w3.org/Graphics/SVG/1.1/DTD/svg11.dtd"> 
<svg
  xmlns:svg="http://www.w3.org/2000/svg"
  xmlns="http://www.w3.org/2000/svg"
  xmlns:xlink="http://www.w3.org/1999/xlink"
  version="1.1"
  width="9.999980cm" height="4.000500cm" viewBox="0 0 39370 15750">
<title>SVG Picture created as Triangular_voltage_NE555.svg date 2021/12/05 13:05:32 </title>
  <desc>Picture generated by Eeschema-SVG </desc>
<g style="fill:#000000; fill-opacity:1.000000;stroke:#000000; stroke-opacity:1.000000;
stroke-linecap:round; stroke-linejoin:round;"
 transform="translate(0 0) scale(1 1)">
</g>
<g style="fill:#000000; fill-opacity:0.0; 
stroke:#000000; stroke-width:60.000000; stroke-opacity:1; 
stroke-linecap:round; stroke-linejoin:round;">
<g >
</g>
<g style="fill:#000000; fill-opacity:1.0; 
stroke:#000000; stroke-width:60.000000; stroke-opacity:1; 
stroke-linecap:round; stroke-linejoin:round;">
<rect x="1700.000000" y="8050.000000" width="1600.000000" height="100.000000" rx="0.000000" />
<rect x="1700.000000" y="6800.000000" width="1600.000000" height="100.000000" rx="0.000000" />
<rect x="1980.000000" y="8280.000000" width="1020.000000" height="200.000000" rx="0.000000" />
<rect x="1980.000000" y="7030.000000" width="1020.000000" height="200.000000" rx="0.000000" />
</g>
<g style="fill:#000000; fill-opacity:0.0; 
stroke:#000000; stroke-width:60.000000; stroke-opacity:1; 
stroke-linecap:round; stroke-linejoin:round;">
<path style="fill:#000000; fill-opacity:0.0; 
stroke:#000000; stroke-width:60.000000; stroke-opacity:1; 
stroke-linecap:round; stroke-linejoin:round;fill:none"
d="M 2500.000000,8100.000000
2500.000000,8000.000000
" /> 
<path style="fill:#000000; fill-opacity:0.0; 
stroke:#000000; stroke-width:60.000000; stroke-opacity:1; 
stroke-linecap:round; stroke-linejoin:round;fill:none"
d="M 2500.000000,7900.000000
2500.000000,7800.000000
" /> 
<path style="fill:#000000; fill-opacity:0.0; 
stroke:#000000; stroke-width:60.000000; stroke-opacity:1; 
stroke-linecap:round; stroke-linejoin:round;fill:none"
d="M 2500.000000,7700.000000
2500.000000,7600.000000
" /> 
<path style="fill:#000000; fill-opacity:0.0; 
stroke:#000000; stroke-width:60.000000; stroke-opacity:1; 
stroke-linecap:round; stroke-linejoin:round;fill:none"
d="M 2500.000000,7500.000000
2500.000000,7400.000000
" /> 
<path style="fill:#000000; fill-opacity:0.0; 
stroke:#000000; stroke-width:60.000000; stroke-opacity:1; 
stroke-linecap:round; stroke-linejoin:round;fill:none"
d="M 2500.000000,7300.000000
2500.000000,7200.000000
" /> 
<path style="fill:#000000; fill-opacity:0.0; 
stroke:#000000; stroke-width:60.000000; stroke-opacity:1; 
stroke-linecap:round; stroke-linejoin:round;fill:none"
d="M 2500.000000,6800.000000
2500.000000,6500.000000
" /> 
</g>
<g style="fill:#000000; fill-opacity:0.0; 
stroke:#000000; stroke-width:100.000000; stroke-opacity:1; 
stroke-linecap:round; stroke-linejoin:round;">
<path style="fill:#000000; fill-opacity:0.0; 
stroke:#000000; stroke-width:100.000000; stroke-opacity:1; 
stroke-linecap:round; stroke-linejoin:round;fill:none"
d="M 2600.000000,6450.000000
3000.000000,6450.000000
" /> 
<path style="fill:#000000; fill-opacity:0.0; 
stroke:#000000; stroke-width:100.000000; stroke-opacity:1; 
stroke-linecap:round; stroke-linejoin:round;fill:none"
d="M 2800.000000,6250.000000
2800.000000,6650.000000
" /> 
</g>
<g style="fill:#000000; fill-opacity:0.0; 
stroke:#000000; stroke-width:60.000000; stroke-opacity:1; 
stroke-linecap:round; stroke-linejoin:round;">
<path d="M2500 6500
L2500 5500
" />
<path d="M2500 8500
L2500 9500
" />
<text x="4519.330709" y="7099.960630"
textLength="1106.181102" font-size="666.653543" lengthAdjust="spacingAndGlyphs"
text-anchor="middle" opacity="0">B1</text>
<g class="stroked-text"><desc>B1</desc>
<path d="M4316 6814
L4388 6838
L4412 6861
L4435 6909
L4435 6980
L4412 7028
L4388 7052
L4340 7076
L4150 7076
L4150 6576
L4316 6576
L4364 6599
L4388 6623
L4412 6671
L4412 6718
L4388 6766
L4364 6790
L4316 6814
L4150 6814
" />
<path d="M4912 7076
L4626 7076
" />
<path d="M4769 7076
L4769 6576
L4721 6647
L4674 6695
L4626 6718
" />
</g><text x="4483.622047" y="8099.960630"
textLength="964.763780" font-size="666.653543" lengthAdjust="spacingAndGlyphs"
text-anchor="middle" opacity="0">9V</text>
<g class="stroked-text"><desc>9V</desc>
<path d="M4174 8076
L4269 8076
L4316 8052
L4340 8028
L4388 7957
L4412 7861
L4412 7671
L4388 7623
L4364 7599
L4316 7576
L4221 7576
L4174 7599
L4150 7623
L4126 7671
L4126 7790
L4150 7838
L4174 7861
L4221 7885
L4316 7885
L4364 7861
L4388 7838
L4412 7790
" />
<path d="M4555 7576
L4721 8076
L4888 7576
" />
</g></g>
</g>
<g style="fill:#000000; fill-opacity:0.0; 
stroke:#000000; stroke-width:60.000000; stroke-opacity:1; 
stroke-linecap:round; stroke-linejoin:round;">
<g >
</g>
<g style="fill:#000000; fill-opacity:0.0; 
stroke:#000000; stroke-width:100.000000; stroke-opacity:1; 
stroke-linecap:round; stroke-linejoin:round;">
<rect x="25000.000000" y="4500.000000" width="7000.000000" height="6000.000000" rx="0.000000" />
<rect x="25000.000000" y="4500.000000" width="7000.000000" height="6000.000000" rx="0.000000" />
</g>
<g style="fill:#000000; fill-opacity:0.0; 
stroke:#000000; stroke-width:60.000000; stroke-opacity:1; 
stroke-linecap:round; stroke-linejoin:round;">
<path d="M28500 10500
L28500 11500
" />
<g transform="rotate(-90.000000 28500.000000 10300.000000)">
<text x="28500.000000" y="10550.000000"
textLength="1583.818898" font-size="666.653543" lengthAdjust="spacingAndGlyphs"
text-anchor="start" opacity="0">GND</text>
</g>
<g class="stroked-text"><desc>GND</desc>
<path d="M28250 9889
L28226 9936
L28226 10008
L28250 10079
L28297 10127
L28345 10150
L28440 10174
L28511 10174
L28607 10150
L28654 10127
L28702 10079
L28726 10008
L28726 9960
L28702 9889
L28678 9865
L28511 9865
L28511 9960
" />
<path d="M28726 9650
L28226 9650
L28726 9365
L28226 9365
" />
<path d="M28726 9127
L28226 9127
L28226 9008
L28250 8936
L28297 8889
L28345 8865
L28440 8841
L28511 8841
L28607 8865
L28654 8889
L28702 8936
L28726 9008
L28726 9127
" />
</g><g transform="rotate(-90.000000 28400.000000 11000.000000)">
<text x="28400.000000" y="11000.000000"
textLength="536.181102" font-size="666.653543" lengthAdjust="spacingAndGlyphs"
text-anchor="middle" opacity="0">1</text>
</g>
<g class="stroked-text"><desc>1</desc>
<path d="M28376 10857
L28376 11142
" />
<path d="M28376 11000
L27876 11000
L27947 11047
L27995 11095
L28019 11142
" />
</g><path d="M29500 4500
L29500 3000
" />
<g transform="rotate(-90.000000 29500.000000 4700.000000)">
<text x="29500.000000" y="4950.000000"
textLength="1488.582677" font-size="666.653543" lengthAdjust="spacingAndGlyphs"
text-anchor="end" opacity="0">VCC</text>
</g>
<g class="stroked-text"><desc>VCC</desc>
<path d="M29226 6110
L29726 5944
L29226 5777
" />
<path d="M29678 5325
L29702 5349
L29726 5420
L29726 5468
L29702 5539
L29654 5587
L29607 5610
L29511 5634
L29440 5634
L29345 5610
L29297 5587
L29250 5539
L29226 5468
L29226 5420
L29250 5349
L29273 5325
" />
<path d="M29678 4825
L29702 4849
L29726 4920
L29726 4968
L29702 5039
L29654 5087
L29607 5110
L29511 5134
L29440 5134
L29345 5110
L29297 5087
L29250 5039
L29226 4968
L29226 4920
L29250 4849
L29273 4825
" />
</g><g transform="rotate(-90.000000 29400.000000 3750.000000)">
<text x="29400.000000" y="3750.000000"
textLength="536.181102" font-size="666.653543" lengthAdjust="spacingAndGlyphs"
text-anchor="middle" opacity="0">8</text>
</g>
<g class="stroked-text"><desc>8</desc>
<path d="M29090 3797
L29066 3845
L29042 3869
L28995 3892
L28971 3892
L28923 3869
L28900 3845
L28876 3797
L28876 3702
L28900 3654
L28923 3630
L28971 3607
L28995 3607
L29042 3630
L29066 3654
L29090 3702
L29090 3797
L29114 3845
L29138 3869
L29185 3892
L29280 3892
L29328 3869
L29352 3845
L29376 3797
L29376 3702
L29352 3654
L29328 3630
L29280 3607
L29185 3607
L29138 3630
L29114 3654
L29090 3702
" />
</g><path d="M25000 5500
L23500 5500
" />
<text x="25200.000000" y="5750.000000"
textLength="940.944882" font-size="666.653543" lengthAdjust="spacingAndGlyphs"
text-anchor="start" opacity="0">TR</text>
<g class="stroked-text"><desc>TR</desc>
<path d="M25277 5226
L25563 5226
" />
<path d="M25420 5726
L25420 5226
" />
<path d="M26015 5726
L25849 5488
" />
<path d="M25730 5726
L25730 5226
L25920 5226
L25968 5250
L25991 5273
L26015 5321
L26015 5392
L25991 5440
L25968 5464
L25920 5488
L25730 5488
" />
</g><text x="24250.000000" y="5400.000000"
textLength="536.181102" font-size="666.653543" lengthAdjust="spacingAndGlyphs"
text-anchor="middle" opacity="0">2</text>
<g class="stroked-text"><desc>2</desc>
<path d="M24107 4923
L24130 4900
L24178 4876
L24297 4876
L24345 4900
L24369 4923
L24392 4971
L24392 5019
L24369 5090
L24083 5376
L24392 5376
" />
</g><path d="M32000 6000
L33500 6000
" />
<text x="31800.000000" y="6250.000000"
textLength="583.818898" font-size="666.653543" lengthAdjust="spacingAndGlyphs"
text-anchor="end" opacity="0">Q</text>
<g class="stroked-text"><desc>Q</desc>
<path d="M31698 6273
L31650 6250
L31603 6202
L31531 6130
L31484 6107
L31436 6107
" />
<path d="M31460 6226
L31412 6202
L31365 6154
L31341 6059
L31341 5892
L31365 5797
L31412 5750
L31460 5726
L31555 5726
L31603 5750
L31650 5797
L31674 5892
L31674 6059
L31650 6154
L31603 6202
L31555 6226
L31460 6226
" />
</g><text x="32750.000000" y="5900.000000"
textLength="536.181102" font-size="666.653543" lengthAdjust="spacingAndGlyphs"
text-anchor="middle" opacity="0">3</text>
<g class="stroked-text"><desc>3</desc>
<path d="M32583 5376
L32892 5376
L32726 5566
L32797 5566
L32845 5590
L32869 5614
L32892 5661
L32892 5780
L32869 5828
L32845 5852
L32797 5876
L32654 5876
L32607 5852
L32583 5828
" />
</g><circle cx="27500.000000" cy="4250.000000" r="250.000000" /> 
<path d="M27500 4000
L27500 3000
" />
<g transform="rotate(-90.000000 27500.000000 4700.000000)">
<text x="27500.000000" y="4950.000000"
textLength="560.000000" font-size="666.653543" lengthAdjust="spacingAndGlyphs"
text-anchor="end" opacity="0">R</text>
</g>
<g class="stroked-text"><desc>R</desc>
<path d="M27726 4825
L27488 4991
" />
<path d="M27726 5110
L27226 5110
L27226 4920
L27250 4872
L27273 4849
L27321 4825
L27392 4825
L27440 4849
L27464 4872
L27488 4920
L27488 5110
" />
</g><g transform="rotate(-90.000000 27400.000000 3750.000000)">
<text x="27400.000000" y="3750.000000"
textLength="536.181102" font-size="666.653543" lengthAdjust="spacingAndGlyphs"
text-anchor="middle" opacity="0">4</text>
</g>
<g class="stroked-text"><desc>4</desc>
<path d="M27042 3654
L27376 3654
" />
<path d="M26852 3773
L27209 3892
L27209 3583
" />
</g><path d="M32000 9000
L33500 9000
" />
<text x="31800.000000" y="9250.000000"
textLength="988.582677" font-size="666.653543" lengthAdjust="spacingAndGlyphs"
text-anchor="end" opacity="0">CV</text>
<g class="stroked-text"><desc>CV</desc>
<path d="M31246 9178
L31222 9202
L31150 9226
L31103 9226
L31031 9202
L30984 9154
L30960 9107
L30936 9011
L30936 8940
L30960 8845
L30984 8797
L31031 8750
L31103 8726
L31150 8726
L31222 8750
L31246 8773
" />
<path d="M31389 8726
L31555 9226
L31722 8726
" />
</g><text x="32750.000000" y="8900.000000"
textLength="536.181102" font-size="666.653543" lengthAdjust="spacingAndGlyphs"
text-anchor="middle" opacity="0">5</text>
<g class="stroked-text"><desc>5</desc>
<path d="M32869 8376
L32630 8376
L32607 8614
L32630 8590
L32678 8566
L32797 8566
L32845 8590
L32869 8614
L32892 8661
L32892 8780
L32869 8828
L32845 8852
L32797 8876
L32678 8876
L32630 8852
L32607 8828
" />
</g><path d="M25000 7500
L23500 7500
" />
<text x="25200.000000" y="7750.000000"
textLength="1464.763780" font-size="666.653543" lengthAdjust="spacingAndGlyphs"
text-anchor="start" opacity="0">THR</text>
<g class="stroked-text"><desc>THR</desc>
<path d="M25277 7226
L25563 7226
" />
<path d="M25420 7726
L25420 7226
" />
<path d="M25730 7726
L25730 7226
" />
<path d="M25730 7464
L26015 7464
" />
<path d="M26015 7726
L26015 7226
" />
<path d="M26539 7726
L26372 7488
" />
<path d="M26253 7726
L26253 7226
L26444 7226
L26491 7250
L26515 7273
L26539 7321
L26539 7392
L26515 7440
L26491 7464
L26444 7488
L26253 7488
" />
</g><text x="24250.000000" y="7400.000000"
textLength="536.181102" font-size="666.653543" lengthAdjust="spacingAndGlyphs"
text-anchor="middle" opacity="0">6</text>
<g class="stroked-text"><desc>6</desc>
<path d="M24345 6876
L24250 6876
L24202 6900
L24178 6923
L24130 6995
L24107 7090
L24107 7280
L24130 7328
L24154 7352
L24202 7376
L24297 7376
L24345 7352
L24369 7328
L24392 7280
L24392 7161
L24369 7114
L24345 7090
L24297 7066
L24202 7066
L24154 7090
L24130 7114
L24107 7161
" />
</g><path d="M25000 9500
L23500 9500
" />
<text x="25200.000000" y="9750.000000"
textLength="1274.291339" font-size="666.653543" lengthAdjust="spacingAndGlyphs"
text-anchor="start" opacity="0">DIS</text>
<g class="stroked-text"><desc>DIS</desc>
<path d="M25349 9726
L25349 9226
L25468 9226
L25539 9250
L25587 9297
L25610 9345
L25634 9440
L25634 9511
L25610 9607
L25587 9654
L25539 9702
L25468 9726
L25349 9726
" />
<path d="M25849 9726
L25849 9226
" />
<path d="M26063 9702
L26134 9726
L26253 9726
L26301 9702
L26325 9678
L26349 9630
L26349 9583
L26325 9535
L26301 9511
L26253 9488
L26158 9464
L26110 9440
L26087 9416
L26063 9369
L26063 9321
L26087 9273
L26110 9250
L26158 9226
L26277 9226
L26349 9250
" />
</g><text x="24250.000000" y="9400.000000"
textLength="536.181102" font-size="666.653543" lengthAdjust="spacingAndGlyphs"
text-anchor="middle" opacity="0">7</text>
<g class="stroked-text"><desc>7</desc>
<path d="M24083 8876
L24416 8876
L24202 9376
" />
</g><text x="31531.259843" y="2750.000000"
textLength="1060.000000" font-size="666.653543" lengthAdjust="spacingAndGlyphs"
text-anchor="middle" opacity="0">U1</text>
<g class="stroked-text"><desc>U1</desc>
<path d="M31150 2226
L31150 2630
L31174 2678
L31197 2702
L31245 2726
L31340 2726
L31388 2702
L31412 2678
L31435 2630
L31435 2226
" />
<path d="M31935 2726
L31650 2726
" />
<path d="M31793 2726
L31793 2226
L31745 2297
L31697 2345
L31650 2369
" />
</g><text x="32483.622047" y="3750.000000"
textLength="2964.763780" font-size="666.653543" lengthAdjust="spacingAndGlyphs"
text-anchor="middle" opacity="0">NE555P</text>
<g class="stroked-text"><desc>NE555P</desc>
<path d="M31150 3726
L31150 3226
L31435 3726
L31435 3226
" />
<path d="M31674 3464
L31840 3464
" />
<path d="M31912 3726
L31674 3726
L31674 3226
L31912 3226
" />
<path d="M32364 3226
L32126 3226
L32102 3464
L32126 3440
L32174 3416
L32293 3416
L32340 3440
L32364 3464
L32388 3511
L32388 3630
L32364 3678
L32340 3702
L32293 3726
L32174 3726
L32126 3702
L32102 3678
" />
<path d="M32840 3226
L32602 3226
L32578 3464
L32602 3440
L32650 3416
L32769 3416
L32816 3440
L32840 3464
L32864 3511
L32864 3630
L32840 3678
L32816 3702
L32769 3726
L32650 3726
L32602 3702
L32578 3678
" />
<path d="M33316 3226
L33078 3226
L33055 3464
L33078 3440
L33126 3416
L33245 3416
L33293 3440
L33316 3464
L33340 3511
L33340 3630
L33316 3678
L33293 3702
L33245 3726
L33126 3726
L33078 3702
L33055 3678
" />
<path d="M33555 3726
L33555 3226
L33745 3226
L33793 3250
L33816 3273
L33840 3321
L33840 3392
L33816 3440
L33793 3464
L33745 3488
L33555 3488
" />
</g></g>
</g>
<g style="fill:#000000; fill-opacity:0.0; 
stroke:#000000; stroke-width:60.000000; stroke-opacity:1; 
stroke-linecap:round; stroke-linejoin:round;">
<g >
</g>
<g style="fill:#000000; fill-opacity:0.0; 
stroke:#000000; stroke-width:100.000000; stroke-opacity:1; 
stroke-linecap:round; stroke-linejoin:round;">
<path style="fill:#000000; fill-opacity:0.0; 
stroke:#000000; stroke-width:100.000000; stroke-opacity:1; 
stroke-linecap:round; stroke-linejoin:round;fill:none"
d="M 35000.000000,7000.000000
34000.000000,7000.000000
" /> 
</g>
<g style="fill:#000000; fill-opacity:0.0; 
stroke:#000000; stroke-width:60.000000; stroke-opacity:1; 
stroke-linecap:round; stroke-linejoin:round;">
<path style="fill:#000000; fill-opacity:0.0; 
stroke:#000000; stroke-width:60.000000; stroke-opacity:1; 
stroke-linecap:round; stroke-linejoin:round;fill:none"
d="M 34500.000000,8000.000000
34500.000000,7000.000000
" /> 
</g>
<g style="fill:#000000; fill-opacity:0.0; 
stroke:#000000; stroke-width:100.000000; stroke-opacity:1; 
stroke-linecap:round; stroke-linejoin:round;">
<path style="fill:#000000; fill-opacity:0.0; 
stroke:#000000; stroke-width:100.000000; stroke-opacity:1; 
stroke-linecap:round; stroke-linejoin:round;fill:none"
d="M 35000.000000,8000.000000
34000.000000,8000.000000
34500.000000,7000.000000
Z" /> 
</g>
<g style="fill:#000000; fill-opacity:0.0; 
stroke:#000000; stroke-width:60.000000; stroke-opacity:1; 
stroke-linecap:round; stroke-linejoin:round;">
<path d="M34500 7000
L34500 6000
" />
<path d="M34500 8000
L34500 9000
" />
<text x="36019.330709" y="7249.960630"
textLength="1036.181102" font-size="666.653543" lengthAdjust="spacingAndGlyphs"
text-anchor="middle" opacity="0">D2</text>
<g class="stroked-text"><desc>D2</desc>
<path d="M35650 7226
L35650 6726
L35769 6726
L35840 6749
L35888 6797
L35912 6845
L35935 6940
L35935 7011
L35912 7107
L35888 7154
L35840 7202
L35769 7226
L35650 7226
" />
<path d="M36126 6773
L36150 6749
L36197 6726
L36316 6726
L36364 6749
L36388 6773
L36412 6821
L36412 6868
L36388 6940
L36102 7226
L36412 7226
" />
</g><text x="36983.622047" y="8249.960630"
textLength="2964.763780" font-size="666.653543" lengthAdjust="spacingAndGlyphs"
text-anchor="middle" opacity="0">1N4001</text>
<g class="stroked-text"><desc>1N4001</desc>
<path d="M35912 8226
L35626 8226
" />
<path d="M35769 8226
L35769 7726
L35721 7797
L35674 7845
L35626 7868
" />
<path d="M36126 8226
L36126 7726
L36412 8226
L36412 7726
" />
<path d="M36864 7892
L36864 8226
" />
<path d="M36745 7702
L36626 8059
L36935 8059
" />
<path d="M37221 7726
L37269 7726
L37316 7749
L37340 7773
L37364 7821
L37388 7916
L37388 8035
L37364 8130
L37340 8178
L37316 8202
L37269 8226
L37221 8226
L37174 8202
L37150 8178
L37126 8130
L37102 8035
L37102 7916
L37126 7821
L37150 7773
L37174 7749
L37221 7726
" />
<path d="M37697 7726
L37745 7726
L37793 7749
L37816 7773
L37840 7821
L37864 7916
L37864 8035
L37840 8130
L37816 8178
L37793 8202
L37745 8226
L37697 8226
L37650 8202
L37626 8178
L37602 8130
L37578 8035
L37578 7916
L37602 7821
L37626 7773
L37650 7749
L37697 7726
" />
<path d="M38340 8226
L38055 8226
" />
<path d="M38197 8226
L38197 7726
L38150 7797
L38102 7845
L38055 7868
" />
</g></g>
</g>
<g style="fill:#000000; fill-opacity:0.0; 
stroke:#000000; stroke-width:60.000000; stroke-opacity:1; 
stroke-linecap:round; stroke-linejoin:round;">
<g >
</g>
<g style="fill:#000000; fill-opacity:0.0; 
stroke:#000000; stroke-width:100.000000; stroke-opacity:1; 
stroke-linecap:round; stroke-linejoin:round;">
<rect x="16100.000000" y="2500.000000" width="800.000000" height="2000.000000" rx="0.000000" />
</g>
<g style="fill:#000000; fill-opacity:0.0; 
stroke:#000000; stroke-width:60.000000; stroke-opacity:1; 
stroke-linecap:round; stroke-linejoin:round;">
<path d="M16500 2500
L16500 2000
" />
<path d="M16500 4500
L16500 5000
" />
<text x="18019.330709" y="3249.960630"
textLength="1036.181102" font-size="666.653543" lengthAdjust="spacingAndGlyphs"
text-anchor="middle" opacity="0">R2</text>
<g class="stroked-text"><desc>R2</desc>
<path d="M17935 3226
L17769 2988
" />
<path d="M17650 3226
L17650 2726
L17840 2726
L17888 2749
L17912 2773
L17935 2821
L17935 2892
L17912 2940
L17888 2964
L17840 2988
L17650 2988
" />
<path d="M18126 2773
L18150 2749
L18197 2726
L18316 2726
L18364 2749
L18388 2773
L18412 2821
L18412 2868
L18388 2940
L18102 3226
L18412 3226
" />
</g><text x="18328.858268" y="4249.960630"
textLength="1655.236220" font-size="666.653543" lengthAdjust="spacingAndGlyphs"
text-anchor="middle" opacity="0">1.2k</text>
<g class="stroked-text"><desc>1.2k</desc>
<path d="M17912 4226
L17626 4226
" />
<path d="M17769 4226
L17769 3726
L17721 3797
L17674 3845
L17626 3868
" />
<path d="M18126 4178
L18150 4202
L18126 4226
L18102 4202
L18126 4178
L18126 4226
" />
<path d="M18340 3773
L18364 3749
L18412 3726
L18531 3726
L18578 3749
L18602 3773
L18626 3821
L18626 3868
L18602 3940
L18316 4226
L18626 4226
" />
<path d="M18840 4226
L18840 3726
" />
<path d="M18888 4035
L19031 4226
" />
<path d="M19031 3892
L18840 4083
" />
</g></g>
</g>
<g style="fill:#000000; fill-opacity:0.0; 
stroke:#000000; stroke-width:60.000000; stroke-opacity:1; 
stroke-linecap:round; stroke-linejoin:round;">
<g >
<path style="fill:#000000; fill-opacity:0.0; 
stroke:#000000; stroke-width:60.000000; stroke-opacity:1; 
stroke-linecap:round; stroke-linejoin:round;fill:none"
d="M 15500.000000,7500.000000
15750.000000,7500.000000
" /> 
<path style="fill:#000000; fill-opacity:0.0; 
stroke:#000000; stroke-width:60.000000; stroke-opacity:1; 
stroke-linecap:round; stroke-linejoin:round;fill:none"
d="M 16500.000000,6500.000000
15750.000000,7250.000000
" /> 
<path style="fill:#000000; fill-opacity:0.0; 
stroke:#000000; stroke-width:60.000000; stroke-opacity:1; 
stroke-linecap:round; stroke-linejoin:round;fill:none"
d="M 16500.000000,8500.000000
15750.000000,7750.000000
" /> 
</g>
<g style="fill:#000000; fill-opacity:1.0; 
stroke:#000000; stroke-width:200.000000; stroke-opacity:1; 
stroke-linecap:round; stroke-linejoin:round;">
<path style="fill:#000000; fill-opacity:1.0; 
stroke:#000000; stroke-width:200.000000; stroke-opacity:1; 
stroke-linecap:round; stroke-linejoin:round;fill-rule:evenodd;"
d="M 15750.000000,8250.000000
15750.000000,6750.000000
15750.000000,6750.000000
" /> 
</g>
<g style="fill:#000000; fill-opacity:1.0; 
stroke:#000000; stroke-width:60.000000; stroke-opacity:1; 
stroke-linecap:round; stroke-linejoin:round;">
<path style="fill:#000000; fill-opacity:1.0; 
stroke:#000000; stroke-width:60.000000; stroke-opacity:1; 
stroke-linecap:round; stroke-linejoin:round;fill-rule:evenodd;"
d="M 16050.000000,6750.000000
16250.000000,6950.000000
15850.000000,7150.000000
16050.000000,6750.000000
Z" /> 
</g>
<g style="fill:#000000; fill-opacity:0.0; 
stroke:#000000; stroke-width:100.000000; stroke-opacity:1; 
stroke-linecap:round; stroke-linejoin:round;">
<circle cx="16000.000000" cy="7500.000000" r="1110.000000" /> 
</g>
<g style="fill:#000000; fill-opacity:0.0; 
stroke:#000000; stroke-width:60.000000; stroke-opacity:1; 
stroke-linecap:round; stroke-linejoin:round;">
<path d="M16500 8500
L16500 9500
" />
<g transform="rotate(-90.000000 16600.000000 9000.000000)">
<text x="16600.000000" y="9500.000000"
textLength="536.181102" font-size="666.653543" lengthAdjust="spacingAndGlyphs"
text-anchor="middle" opacity="0">1</text>
</g>
<g class="stroked-text"><desc>1</desc>
<path d="M17076 8857
L17076 9142
" />
<path d="M17076 9000
L16576 9000
L16647 9047
L16695 9095
L16719 9142
" />
</g><path d="M15500 7500
L13500 7500
" />
<text x="14500.000000" y="8100.000000"
textLength="536.181102" font-size="666.653543" lengthAdjust="spacingAndGlyphs"
text-anchor="middle" opacity="0">2</text>
<g class="stroked-text"><desc>2</desc>
<path d="M14357 7623
L14380 7600
L14428 7576
L14547 7576
L14595 7600
L14619 7623
L14642 7671
L14642 7719
L14619 7790
L14333 8076
L14642 8076
" />
</g><path d="M16500 6500
L16500 5500
" />
<g transform="rotate(-90.000000 16600.000000 6000.000000)">
<text x="16600.000000" y="6500.000000"
textLength="536.181102" font-size="666.653543" lengthAdjust="spacingAndGlyphs"
text-anchor="middle" opacity="0">3</text>
</g>
<g class="stroked-text"><desc>3</desc>
<path d="M16576 6166
L16576 5857
L16766 6023
L16766 5952
L16790 5904
L16814 5880
L16861 5857
L16980 5857
L17028 5880
L17052 5904
L17076 5952
L17076 6095
L17052 6142
L17028 6166
" />
</g><text x="18031.259843" y="7249.921260"
textLength="1060.000000" font-size="666.653543" lengthAdjust="spacingAndGlyphs"
text-anchor="middle" opacity="0">Q1</text>
<g class="stroked-text"><desc>Q1</desc>
<path d="M17983 7273
L17935 7249
L17888 7202
L17816 7130
L17769 7107
L17721 7107
" />
<path d="M17745 7226
L17697 7202
L17650 7154
L17626 7059
L17626 6892
L17650 6797
L17697 6749
L17745 6726
L17840 6726
L17888 6749
L17935 6797
L17959 6892
L17959 7059
L17935 7154
L17888 7202
L17840 7226
L17745 7226
" />
<path d="M18435 7226
L18150 7226
" />
<path d="M18293 7226
L18293 6726
L18245 6797
L18197 6845
L18150 6868
" />
</g><text x="18745.551181" y="8249.921260"
textLength="2488.582677" font-size="666.653543" lengthAdjust="spacingAndGlyphs"
text-anchor="middle" opacity="0">BC307</text>
<g class="stroked-text"><desc>BC307</desc>
<path d="M17816 7964
L17888 7987
L17912 8011
L17936 8059
L17936 8130
L17912 8178
L17888 8202
L17840 8226
L17650 8226
L17650 7726
L17816 7726
L17864 7749
L17888 7773
L17912 7821
L17912 7868
L17888 7916
L17864 7940
L17816 7964
L17650 7964
" />
<path d="M18436 8178
L18412 8202
L18340 8226
L18293 8226
L18221 8202
L18174 8154
L18150 8107
L18126 8011
L18126 7940
L18150 7845
L18174 7797
L18221 7749
L18293 7726
L18340 7726
L18412 7749
L18436 7773
" />
<path d="M18602 7726
L18912 7726
L18745 7916
L18816 7916
L18864 7940
L18888 7964
L18912 8011
L18912 8130
L18888 8178
L18864 8202
L18816 8226
L18674 8226
L18626 8202
L18602 8178
" />
<path d="M19221 7726
L19269 7726
L19316 7749
L19340 7773
L19364 7821
L19388 7916
L19388 8035
L19364 8130
L19340 8178
L19316 8202
L19269 8226
L19221 8226
L19174 8202
L19150 8178
L19126 8130
L19102 8035
L19102 7916
L19126 7821
L19150 7773
L19174 7749
L19221 7726
" />
<path d="M19555 7726
L19888 7726
L19674 8226
" />
</g></g>
</g>
<g style="fill:#000000; fill-opacity:0.0; 
stroke:#000000; stroke-width:60.000000; stroke-opacity:1; 
stroke-linecap:round; stroke-linejoin:round;">
<g >
<path style="fill:#000000; fill-opacity:0.0; 
stroke:#000000; stroke-width:60.000000; stroke-opacity:1; 
stroke-linecap:round; stroke-linejoin:round;fill:none"
d="M 28000.000000,14500.000000
28500.000000,15000.000000
29000.000000,14500.000000
Z" /> 
<text x="28500.000000" y="13750.000000"
textLength="536.181102" font-size="666.653543" lengthAdjust="spacingAndGlyphs"
text-anchor="middle" opacity="0">0</text>
<g class="stroked-text"><desc>0</desc>
<path d="M28476 13226
L28523 13226
L28571 13250
L28595 13273
L28619 13321
L28642 13416
L28642 13535
L28619 13630
L28595 13678
L28571 13702
L28523 13726
L28476 13726
L28428 13702
L28404 13678
L28380 13630
L28357 13535
L28357 13416
L28380 13321
L28404 13273
L28428 13250
L28476 13226
" />
</g></g>
</g>
<g style="fill:#000000; fill-opacity:0.0; 
stroke:#000000; stroke-width:60.000000; stroke-opacity:1; 
stroke-linecap:round; stroke-linejoin:round;">
<g >
<rect x="15600.000000" y="11100.000000" width="1800.000000" height="200.000000" rx="0.000000" />
<path style="fill:#000000; fill-opacity:0.0; 
stroke:#000000; stroke-width:60.000000; stroke-opacity:1; 
stroke-linecap:round; stroke-linejoin:round;fill:none"
d="M 15800.000000,10600.000000
16200.000000,10600.000000
" /> 
<path style="fill:#000000; fill-opacity:0.0; 
stroke:#000000; stroke-width:60.000000; stroke-opacity:1; 
stroke-linecap:round; stroke-linejoin:round;fill:none"
d="M 16000.000000,10400.000000
16000.000000,10800.000000
" /> 
</g>
<g style="fill:#000000; fill-opacity:1.0; 
stroke:#000000; stroke-width:60.000000; stroke-opacity:1; 
stroke-linecap:round; stroke-linejoin:round;">
<rect x="15600.000000" y="11700.000000" width="1800.000000" height="200.000000" rx="0.000000" />
</g>
<g style="fill:#000000; fill-opacity:0.0; 
stroke:#000000; stroke-width:60.000000; stroke-opacity:1; 
stroke-linecap:round; stroke-linejoin:round;">
<path d="M16500 11100
L16500 10000
" />
<path d="M16500 11900
L16500 13000
" />
<text x="18519.330709" y="10899.960630"
textLength="1036.181102" font-size="666.653543" lengthAdjust="spacingAndGlyphs"
text-anchor="middle" opacity="0">C1</text>
<g class="stroked-text"><desc>C1</desc>
<path d="M18435 10828
L18412 10852
L18340 10876
L18293 10876
L18221 10852
L18174 10804
L18150 10757
L18126 10661
L18126 10590
L18150 10495
L18174 10447
L18221 10399
L18293 10376
L18340 10376
L18412 10399
L18435 10423
" />
<path d="M18912 10876
L18626 10876
" />
<path d="M18769 10876
L18769 10376
L18721 10447
L18674 10495
L18626 10518
" />
</g><text x="18733.622047" y="11899.960630"
textLength="1464.763780" font-size="666.653543" lengthAdjust="spacingAndGlyphs"
text-anchor="middle" opacity="0">10u</text>
<g class="stroked-text"><desc>10u</desc>
<path d="M18412 11876
L18126 11876
" />
<path d="M18269 11876
L18269 11376
L18221 11447
L18174 11495
L18126 11518
" />
<path d="M18721 11376
L18769 11376
L18816 11399
L18840 11423
L18864 11471
L18888 11566
L18888 11685
L18864 11780
L18840 11828
L18816 11852
L18769 11876
L18721 11876
L18674 11852
L18650 11828
L18626 11780
L18602 11685
L18602 11566
L18626 11471
L18650 11423
L18674 11399
L18721 11376
" />
<path d="M19316 11542
L19316 11876
" />
<path d="M19102 11542
L19102 11804
L19126 11852
L19174 11876
L19245 11876
L19293 11852
L19316 11828
" />
</g></g>
</g>
<g style="fill:#000000; fill-opacity:0.0; 
stroke:#000000; stroke-width:60.000000; stroke-opacity:1; 
stroke-linecap:round; stroke-linejoin:round;">
<g >
<path style="fill:#000000; fill-opacity:0.0; 
stroke:#000000; stroke-width:60.000000; stroke-opacity:1; 
stroke-linecap:round; stroke-linejoin:round;fill:none"
d="M 9500.000000,5500.000000
9500.000000,4500.000000
" /> 
</g>
<g style="fill:#000000; fill-opacity:0.0; 
stroke:#000000; stroke-width:100.000000; stroke-opacity:1; 
stroke-linecap:round; stroke-linejoin:round;">
<path style="fill:#000000; fill-opacity:0.0; 
stroke:#000000; stroke-width:100.000000; stroke-opacity:1; 
stroke-linecap:round; stroke-linejoin:round;fill:none"
d="M 9000.000000,4500.000000
10000.000000,4500.000000
10000.000000,4700.000000
" /> 
</g>
<g style="fill:#000000; fill-opacity:1.0; 
stroke:#000000; stroke-width:100.000000; stroke-opacity:1; 
stroke-linecap:round; stroke-linejoin:round;">
<path style="fill:#000000; fill-opacity:1.0; 
stroke:#000000; stroke-width:100.000000; stroke-opacity:1; 
stroke-linecap:round; stroke-linejoin:round;fill-rule:evenodd;"
d="M 9000.000000,5500.000000
10000.000000,5500.000000
9500.000000,4500.000000
Z" /> 
</g>
<g style="fill:#000000; fill-opacity:1.0; 
stroke:#000000; stroke-width:60.000000; stroke-opacity:1; 
stroke-linecap:round; stroke-linejoin:round;">
</g>
<g style="fill:#000000; fill-opacity:0.0; 
stroke:#000000; stroke-width:60.000000; stroke-opacity:1; 
stroke-linecap:round; stroke-linejoin:round;">
<path d="M9500 4500
L9500 3500
" />
<path d="M9500 5500
L9500 6500
" />
<text x="11019.330709" y="4749.960630"
textLength="1036.181102" font-size="666.653543" lengthAdjust="spacingAndGlyphs"
text-anchor="middle" opacity="0">D1</text>
<g class="stroked-text"><desc>D1</desc>
<path d="M10650 4726
L10650 4226
L10769 4226
L10840 4249
L10888 4297
L10912 4345
L10935 4440
L10935 4511
L10912 4607
L10888 4654
L10840 4702
L10769 4726
L10650 4726
" />
<path d="M11412 4726
L11126 4726
" />
<path d="M11269 4726
L11269 4226
L11221 4297
L11174 4345
L11126 4368
" />
</g><text x="11340.787402" y="5749.960630"
textLength="1679.055118" font-size="666.653543" lengthAdjust="spacingAndGlyphs"
text-anchor="middle" opacity="0">3.3V</text>
<g class="stroked-text"><desc>3.3V</desc>
<path d="M10602 5226
L10912 5226
L10745 5416
L10816 5416
L10864 5440
L10888 5464
L10912 5511
L10912 5630
L10888 5678
L10864 5702
L10816 5726
L10674 5726
L10626 5702
L10602 5678
" />
<path d="M11126 5678
L11150 5702
L11126 5726
L11102 5702
L11126 5678
L11126 5726
" />
<path d="M11316 5226
L11626 5226
L11459 5416
L11531 5416
L11578 5440
L11602 5464
L11626 5511
L11626 5630
L11602 5678
L11578 5702
L11531 5726
L11388 5726
L11340 5702
L11316 5678
" />
<path d="M11769 5226
L11936 5726
L12102 5226
" />
</g></g>
</g>
<g style="fill:#000000; fill-opacity:0.0; 
stroke:#000000; stroke-width:60.000000; stroke-opacity:1; 
stroke-linecap:round; stroke-linejoin:round;">
<g >
</g>
<g style="fill:#000000; fill-opacity:0.0; 
stroke:#000000; stroke-width:100.000000; stroke-opacity:1; 
stroke-linecap:round; stroke-linejoin:round;">
<rect x="9100.000000" y="9500.000000" width="800.000000" height="2000.000000" rx="0.000000" />
</g>
<g style="fill:#000000; fill-opacity:0.0; 
stroke:#000000; stroke-width:60.000000; stroke-opacity:1; 
stroke-linecap:round; stroke-linejoin:round;">
<path d="M9500 9500
L9500 9000
" />
<path d="M9500 11500
L9500 12000
" />
<text x="11019.330709" y="10249.960630"
textLength="1036.181102" font-size="666.653543" lengthAdjust="spacingAndGlyphs"
text-anchor="middle" opacity="0">R1</text>
<g class="stroked-text"><desc>R1</desc>
<path d="M10935 10226
L10769 9988
" />
<path d="M10650 10226
L10650 9726
L10840 9726
L10888 9749
L10912 9773
L10935 9821
L10935 9892
L10912 9940
L10888 9964
L10840 9988
L10650 9988
" />
<path d="M11412 10226
L11126 10226
" />
<path d="M11269 10226
L11269 9726
L11221 9797
L11174 9845
L11126 9868
" />
</g><text x="11328.858268" y="11249.960630"
textLength="1655.236220" font-size="666.653543" lengthAdjust="spacingAndGlyphs"
text-anchor="middle" opacity="0">3.3k</text>
<g class="stroked-text"><desc>3.3k</desc>
<path d="M10602 10726
L10912 10726
L10745 10916
L10816 10916
L10864 10940
L10888 10964
L10912 11011
L10912 11130
L10888 11178
L10864 11202
L10816 11226
L10674 11226
L10626 11202
L10602 11178
" />
<path d="M11126 11178
L11150 11202
L11126 11226
L11102 11202
L11126 11178
L11126 11226
" />
<path d="M11316 10726
L11626 10726
L11459 10916
L11531 10916
L11578 10940
L11602 10964
L11626 11011
L11626 11130
L11602 11178
L11578 11202
L11531 11226
L11388 11226
L11340 11202
L11316 11178
" />
<path d="M11840 11226
L11840 10726
" />
<path d="M11888 11035
L12031 11226
" />
<path d="M12031 10892
L11840 11083
" />
</g></g>
</g>
<g style="fill:#000000; fill-opacity:0.0; 
stroke:#000000; stroke-width:62.519685; stroke-opacity:1; 
stroke-linecap:round; stroke-linejoin:round;">
</g>
<g style="fill:#000000; fill-opacity:0.0; 
stroke:#000000; stroke-width:60.000000; stroke-opacity:1; 
stroke-linecap:round; stroke-linejoin:round;">
<text x="4500.000000" y="1362.480315"
textLength="1488.582677" font-size="666.653543" lengthAdjust="spacingAndGlyphs"
text-anchor="start" opacity="0">VCC</text>
<g class="stroked-text"><desc>VCC</desc>
<path d="M4577 838
L4744 1338
L4910 838
" />
<path d="M5363 1291
L5339 1314
L5268 1338
L5220 1338
L5149 1314
L5101 1267
L5077 1219
L5053 1124
L5053 1052
L5077 957
L5101 910
L5149 862
L5220 838
L5268 838
L5339 862
L5363 886
" />
<path d="M5863 1291
L5839 1314
L5768 1338
L5720 1338
L5649 1314
L5601 1267
L5577 1219
L5553 1124
L5553 1052
L5577 957
L5601 910
L5649 862
L5720 838
L5768 838
L5839 862
L5863 886
" />
</g></g>
<g style="fill:#000000; fill-opacity:0.0; 
stroke:#000000; stroke-width:62.519685; stroke-opacity:1; 
stroke-linecap:round; stroke-linejoin:round;">
</g>
<g style="fill:#000000; fill-opacity:0.0; 
stroke:#000000; stroke-width:60.000000; stroke-opacity:1; 
stroke-linecap:round; stroke-linejoin:round;">
<text x="34500.000000" y="5862.480315"
textLength="1488.582677" font-size="666.653543" lengthAdjust="spacingAndGlyphs"
text-anchor="start" opacity="0">OUT</text>
<g class="stroked-text"><desc>OUT</desc>
<path d="M34744 5338
L34839 5338
L34887 5362
L34934 5410
L34958 5505
L34958 5671
L34934 5767
L34887 5814
L34839 5838
L34744 5838
L34696 5814
L34649 5767
L34625 5671
L34625 5505
L34649 5410
L34696 5362
L34744 5338
" />
<path d="M35172 5338
L35172 5743
L35196 5791
L35220 5814
L35268 5838
L35363 5838
L35410 5814
L35434 5791
L35458 5743
L35458 5338
" />
<path d="M35625 5338
L35910 5338
" />
<path d="M35768 5838
L35768 5338
" />
</g></g>
<g style="fill:#000000; fill-opacity:0.0; 
stroke:#000000; stroke-width:62.519685; stroke-opacity:1; 
stroke-linecap:round; stroke-linejoin:round;">
</g>
<g style="fill:#000000; fill-opacity:0.0; 
stroke:#000000; stroke-width:60.000000; stroke-opacity:1; 
stroke-linecap:round; stroke-linejoin:round;">
<text x="19000.000000" y="9362.480315"
textLength="1083.818898" font-size="666.653543" lengthAdjust="spacingAndGlyphs"
text-anchor="start" opacity="0">UC</text>
<g class="stroked-text"><desc>UC</desc>
<path d="M19149 8838
L19149 9243
L19172 9291
L19196 9314
L19244 9338
L19339 9338
L19387 9314
L19410 9291
L19434 9243
L19434 8838
" />
<path d="M19958 9291
L19934 9314
L19863 9338
L19815 9338
L19744 9314
L19696 9267
L19672 9219
L19649 9124
L19649 9052
L19672 8957
L19696 8910
L19744 8862
L19815 8838
L19863 8838
L19934 8862
L19958 8886
" />
</g></g>
<g style="fill:#000000; fill-opacity:0.0; 
stroke:#000000; stroke-width:62.519685; stroke-opacity:1; 
stroke-linecap:round; stroke-linejoin:round;">
</g>
<g style="fill:#000000; fill-opacity:0.0; 
stroke:#000000; stroke-width:60.000000; stroke-opacity:1; 
stroke-linecap:round; stroke-linejoin:round;">
<text x="11000.000000" y="7362.480315"
textLength="1083.818898" font-size="666.653543" lengthAdjust="spacingAndGlyphs"
text-anchor="start" opacity="0">UB</text>
<g class="stroked-text"><desc>UB</desc>
<path d="M11149 6838
L11149 7243
L11172 7291
L11196 7314
L11244 7338
L11339 7338
L11387 7314
L11410 7291
L11434 7243
L11434 6838
" />
<path d="M11839 7076
L11910 7100
L11934 7124
L11958 7171
L11958 7243
L11934 7291
L11910 7314
L11863 7338
L11672 7338
L11672 6838
L11839 6838
L11887 6862
L11910 6886
L11934 6933
L11934 6981
L11910 7029
L11887 7052
L11839 7076
L11672 7076
" />
</g><path d="M16500 13500
L28500 13500
" />
<path d="M16500 1500
L27500 1500
" />
<path d="M27500 1500
L27500 3000
" />
<path d="M16500 1500
L16500 2000
" />
<path d="M33500 9000
L34500 9000
" />
<path d="M27500 1500
L29500 1500
" />
<path d="M29500 1500
L29500 3000
" />
<path d="M9500 7500
L9500 9000
" />
<path d="M2500 13500
L9500 13500
" />
<path d="M33500 6000
L34500 6000
" />
<path d="M16500 5000
L16500 5500
" />
<path d="M28500 13500
L28500 14500
" />
<path d="M16500 9500
L16500 10000
" />
<path d="M28500 11500
L28500 13500
" />
<path d="M9500 1500
L16500 1500
" />
<path d="M9500 13500
L16500 13500
" />
<path d="M16500 13000
L16500 13500
" />
<path d="M23500 7500
L23500 9500
" />
<path d="M16500 9500
L23500 9500
" />
<path d="M23500 5500
L23500 7500
" />
<path d="M2500 9500
L2500 13500
" />
<path d="M2500 1500
L9500 1500
" />
<path d="M2500 5500
L2500 1500
" />
<path d="M9500 1500
L9500 3500
" />
<path d="M9500 12000
L9500 13500
" />
<path d="M9500 7500
L13500 7500
" />
<path d="M9500 6500
L9500 7500
" />
</g>
<g style="fill:#000000; fill-opacity:1.0; 
stroke:#000000; stroke-width:60.000000; stroke-opacity:1; 
stroke-linecap:round; stroke-linejoin:round;">
<circle cx="9500.000000" cy="7500.000000" r="180.000000" /> 
<circle cx="16500.000000" cy="9500.000000" r="180.000000" /> 
<circle cx="9500.000000" cy="13500.000000" r="180.000000" /> 
<circle cx="9500.000000" cy="1500.000000" r="180.000000" /> 
<circle cx="23500.000000" cy="7500.000000" r="180.000000" /> 
<circle cx="23500.000000" cy="9500.000000" r="180.000000" /> 
<circle cx="28500.000000" cy="13500.000000" r="180.000000" /> 
<circle cx="16500.000000" cy="13500.000000" r="180.000000" /> 
<circle cx="27500.000000" cy="1500.000000" r="180.000000" /> 
<circle cx="16500.000000" cy="1500.000000" r="180.000000" /> 
</g> 
</svg>
