999
dxflib 3.17.0.0
  0
SECTION
  2
HEADER
  9
$ACADVER
  1
AC1015
  9
$HANDSEED
  5
FFFF
  9
$DIMADEC
 70
0
  9
$DIMASZ
 40
2.5
  9
$DIMAUNIT
 70
0
  9
$DIMAZIN
 70
2
  9
$DIMDEC
 70
4
  9
$DIMDLI
 40
5.0
  9
$DIMDSEP
 70
46
  9
$DIMEXE
 40
1.25
  9
$DIMEXO
 40
0.625
  9
$DIMGAP
 40
0.625
  9
$DIMLUNIT
 70
2
  9
$DIMSCALE
 40
1.0
  9
$DIMTSZ
 40
0.0
  9
$DIMTXT
 40
2.5
  9
$DIMZIN
 70
8
  9
$DWGCODEPAGE
  3
ANSI_1252
  9
$INSUNITS
 70
4
  9
$LTSCALE
 40
1.0
  9
$MAXACTVP
 70
64
  9
$MEASUREMENT
 70
1
  9
$MIRRTEXT
 70
0
  9
$PDMODE
 70
0
  9
$PDSIZE
 40
0.0
  0
ENDSEC
  0
SECTION
  2
TABLES
  0
TABLE
  2
VPORT
  5
8
100
AcDbSymbolTable
 70
1
  0
VPORT
  5
30
100
AcDbSymbolTableRecord
100
AcDbViewportTableRecord
  2
*Active
 70
0
 10
0.0
 20
0.0
 11
1.0
 21
1.0
 12
286.3055555555554861
 22
148.5
 13
0.0
 23
0.0
 14
10.0
 24
10.0
 15
10.0
 25
10.0
 16
0.0
 26
0.0
 36
1.0
 17
0.0
 27
0.0
 37
0.0
 40
297.0
 41
1.92798353909465
 42
50.0
 43
0.0
 44
0.0
 50
0.0
 51
0.0
 71
0
 72
100
 73
1
 74
3
 75
1
 76
1
 77
0
 78
0
281
0
 65
1
110
0.0
120
0.0
130
0.0
111
1.0
121
0.0
131
0.0
112
0.0
122
1.0
132
0.0
 79
0
146
0.0
  0
ENDTAB
  0
TABLE
  2
LTYPE
  5
5
100
AcDbSymbolTable
 70
41
  0
LTYPE
  5
16
100
AcDbSymbolTableRecord
100
AcDbLinetypeTableRecord
  2
Continuous
 70
0
  3
Solid line
 72
65
 73
0
 40
0.0
  0
LTYPE
  5
31
100
AcDbSymbolTableRecord
100
AcDbLinetypeTableRecord
  2
DOT2
 70
0
  3
Dot (.5x) ........................................
 72
65
 73
2
 40
3.1749999999999998
 49
0.0
 74
0
 49
-3.1749999999999998
 74
0
  0
LTYPE
  5
32
100
AcDbSymbolTableRecord
100
AcDbLinetypeTableRecord
  2
HIDDEN2
 70
0
  3
Hidden (.5x) _ _ _ _ _ _ _ _ _ _ _ _ _ _ _ _ _ 
 72
65
 73
2
 40
4.7624999999999993
 49
3.1749999999999998
 74
0
 49
-1.5874999999999999
 74
0
  0
LTYPE
  5
33
100
AcDbSymbolTableRecord
100
AcDbLinetypeTableRecord
  2
CENTERX2
 70
0
  3
Center (2x) ________  __  ________  __  _____
 72
65
 73
4
 40
101.6000000000000085
 49
63.5
 74
0
 49
-12.6999999999999993
 74
0
 49
12.6999999999999993
 74
0
 49
-12.6999999999999993
 74
0
  0
LTYPE
  5
34
100
AcDbSymbolTableRecord
100
AcDbLinetypeTableRecord
  2
HIDDENX2
 70
0
  3
Hidden (2x) ____ ____ ____ ____ ____ ____ ____ 
 72
65
 73
2
 40
19.0499999999999972
 49
12.6999999999999993
 74
0
 49
-6.3499999999999996
 74
0
  0
LTYPE
  5
35
100
AcDbSymbolTableRecord
100
AcDbLinetypeTableRecord
  2
DIVIDE2
 70
0
  3
Divide (.5x) __..__..__..__..__..__..__..__.._
 72
65
 73
6
 40
15.875
 49
6.3499999999999996
 74
0
 49
-3.1749999999999998
 74
0
 49
0.0
 74
0
 49
-3.1749999999999998
 74
0
 49
0.0
 74
0
 49
-3.1749999999999998
 74
0
  0
LTYPE
  5
36
100
AcDbSymbolTableRecord
100
AcDbLinetypeTableRecord
  2
BORDER
 70
0
  3
Border __ __ . __ __ . __ __ . __ __ . __ __ .
 72
65
 73
6
 40
44.4499999999999957
 49
12.6999999999999993
 74
0
 49
-6.3499999999999996
 74
0
 49
12.6999999999999993
 74
0
 49
-6.3499999999999996
 74
0
 49
0.0
 74
0
 49
-6.3499999999999996
 74
0
  0
LTYPE
  5
15
100
AcDbSymbolTableRecord
100
AcDbLinetypeTableRecord
  2
BYLAYER
 70
0
  3

 72
65
 73
0
 40
0.0
  0
LTYPE
  5
37
100
AcDbSymbolTableRecord
100
AcDbLinetypeTableRecord
  2
ACAD_ISO05W100
 70
0
  3
ISO long-dash double-dot ____ .. ____ .. ____ . 
 72
65
 73
6
 40
33.0
 49
24.0
 74
0
 49
-3.0
 74
0
 49
0.0
 74
0
 49
-3.0
 74
0
 49
0.0
 74
0
 49
-3.0
 74
0
  0
LTYPE
  5
38
100
AcDbSymbolTableRecord
100
AcDbLinetypeTableRecord
  2
HIDDEN
 70
0
  3
Hidden __ __ __ __ __ __ __ __ __ __ __ __ __ __
 72
65
 73
2
 40
9.5249999999999986
 49
6.3499999999999996
 74
0
 49
-3.1749999999999998
 74
0
  0
LTYPE
  5
39
100
AcDbSymbolTableRecord
100
AcDbLinetypeTableRecord
  2
DIVIDE
 70
0
  3
Divide ____ . . ____ . . ____ . . ____ . . ____
 72
65
 73
6
 40
31.75
 49
12.6999999999999993
 74
0
 49
-6.3499999999999996
 74
0
 49
0.0
 74
0
 49
-6.3499999999999996
 74
0
 49
0.0
 74
0
 49
-6.3499999999999996
 74
0
  0
LTYPE
  5
3A
100
AcDbSymbolTableRecord
100
AcDbLinetypeTableRecord
  2
ACAD_ISO04W100
 70
0
  3
ISO long-dash dot ____ . ____ . ____ . ____ . _
 72
65
 73
4
 40
30.0
 49
24.0
 74
0
 49
-3.0
 74
0
 49
0.0
 74
0
 49
-3.0
 74
0
  0
LTYPE
  5
3B
100
AcDbSymbolTableRecord
100
AcDbLinetypeTableRecord
  2
DASHED2
 70
0
  3
Dashed (.5x) _ _ _ _ _ _ _ _ _ _ _ _ _ _ _ _ _ 
 72
65
 73
2
 40
9.5249999999999986
 49
6.3499999999999996
 74
0
 49
-3.1749999999999998
 74
0
  0
LTYPE
  5
3C
100
AcDbSymbolTableRecord
100
AcDbLinetypeTableRecord
  2
DASHEDX2
 70
0
  3
Dashed (2x) ____  ____  ____  ____  ____  ___
 72
65
 73
2
 40
38.0999999999999943
 49
25.3999999999999986
 74
0
 49
-12.6999999999999993
 74
0
  0
LTYPE
  5
3D
100
AcDbSymbolTableRecord
100
AcDbLinetypeTableRecord
  2
ACAD_ISO12W100
 70
0
  3
ISO dash double-dot __ . . __ . . __ . . __ . . 
 72
65
 73
6
 40
21.0
 49
12.0
 74
0
 49
-3.0
 74
0
 49
0.0
 74
0
 49
-3.0
 74
0
 49
0.0
 74
0
 49
-3.0
 74
0
  0
LTYPE
  5
3E
100
AcDbSymbolTableRecord
100
AcDbLinetypeTableRecord
  2
DASHED
 70
0
  3
Dashed __ __ __ __ __ __ __ __ __ __ __ __ __ _
 72
65
 73
2
 40
19.0499999999999972
 49
12.6999999999999993
 74
0
 49
-6.3499999999999996
 74
0
  0
LTYPE
  5
3F
100
AcDbSymbolTableRecord
100
AcDbLinetypeTableRecord
  2
PHANTOMX2
 70
0
  3
Phantom (2x) ____________    ____    ____   _
 72
65
 73
6
 40
127.0000000000000142
 49
63.5
 74
0
 49
-12.6999999999999993
 74
0
 49
12.6999999999999993
 74
0
 49
-12.6999999999999993
 74
0
 49
12.6999999999999993
 74
0
 49
-12.6999999999999993
 74
0
  0
LTYPE
  5
40
100
AcDbSymbolTableRecord
100
AcDbLinetypeTableRecord
  2
DIVIDEX2
 70
0
  3
Divide (2x) ________  .  .  ________  .  .  _
 72
65
 73
6
 40
63.5
 49
25.3999999999999986
 74
0
 49
-12.6999999999999993
 74
0
 49
0.0
 74
0
 49
-12.6999999999999993
 74
0
 49
0.0
 74
0
 49
-12.6999999999999993
 74
0
  0
LTYPE
  5
41
100
AcDbSymbolTableRecord
100
AcDbLinetypeTableRecord
  2
PHANTOM
 70
0
  3
Phantom ______  __  __  ______  __  __  ______ 
 72
65
 73
6
 40
63.5000000000000071
 49
31.75
 74
0
 49
-6.3499999999999996
 74
0
 49
6.3499999999999996
 74
0
 49
-6.3499999999999996
 74
0
 49
6.3499999999999996
 74
0
 49
-6.3499999999999996
 74
0
  0
LTYPE
  5
42
100
AcDbSymbolTableRecord
100
AcDbLinetypeTableRecord
  2
ACAD_ISO02W100
 70
0
  3
ISO dash __ __ __ __ __ __ __ __ __ __ __ __ __
 72
65
 73
2
 40
15.0
 49
12.0
 74
0
 49
-3.0
 74
0
  0
LTYPE
  5
43
100
AcDbSymbolTableRecord
100
AcDbLinetypeTableRecord
  2
ACAD_ISO10W100
 70
0
  3
ISO dash dot __ . __ . __ . __ . __ . __ . __ . 
 72
65
 73
4
 40
18.0
 49
12.0
 74
0
 49
-3.0
 74
0
 49
0.0
 74
0
 49
-3.0
 74
0
  0
LTYPE
  5
44
100
AcDbSymbolTableRecord
100
AcDbLinetypeTableRecord
  2
DASHDOT
 70
0
  3
Dash dot __ . __ . __ . __ . __ . __ . __ . __
 72
65
 73
4
 40
25.3999999999999986
 49
12.6999999999999993
 74
0
 49
-6.3499999999999996
 74
0
 49
0.0
 74
0
 49
-6.3499999999999996
 74
0
  0
LTYPE
  5
45
100
AcDbSymbolTableRecord
100
AcDbLinetypeTableRecord
  2
ACAD_ISO11W100
 70
0
  3
ISO double-dash dot __ __ . __ __ . __ __ . __ _
 72
65
 73
6
 40
33.0
 49
12.0
 74
0
 49
-3.0
 74
0
 49
12.0
 74
0
 49
-3.0
 74
0
 49
0.0
 74
0
 49
-3.0
 74
0
  0
LTYPE
  5
46
100
AcDbSymbolTableRecord
100
AcDbLinetypeTableRecord
  2
DASHDOT2
 70
0
  3
Dash dot (.5x) _._._._._._._._._._._._._._._.
 72
65
 73
4
 40
12.6999999999999993
 49
6.3499999999999996
 74
0
 49
-3.1749999999999998
 74
0
 49
0.0
 74
0
 49
-3.1749999999999998
 74
0
  0
LTYPE
  5
47
100
AcDbSymbolTableRecord
100
AcDbLinetypeTableRecord
  2
CENTER
 70
0
  3
Center ____ _ ____ _ ____ _ ____ _ ____ _ ____
 72
65
 73
4
 40
50.8000000000000043
 49
31.75
 74
0
 49
-6.3499999999999996
 74
0
 49
6.3499999999999996
 74
0
 49
-6.3499999999999996
 74
0
  0
LTYPE
  5
48
100
AcDbSymbolTableRecord
100
AcDbLinetypeTableRecord
  2
ACAD_ISO15W100
 70
0
  3
ISO double-dash triple-dot __ __ . . . __ __ . .
 72
65
 73
10
 40
39.0
 49
12.0
 74
0
 49
-3.0
 74
0
 49
12.0
 74
0
 49
-3.0
 74
0
 49
0.0
 74
0
 49
-3.0
 74
0
 49
0.0
 74
0
 49
-3.0
 74
0
 49
0.0
 74
0
 49
-3.0
 74
0
  0
LTYPE
  5
49
100
AcDbSymbolTableRecord
100
AcDbLinetypeTableRecord
  2
CENTER2
 70
0
  3
Center (.5x) ___ _ ___ _ ___ _ ___ _ ___ _ ___
 72
65
 73
4
 40
28.5750000000000028
 49
19.0500000000000007
 74
0
 49
-3.1749999999999998
 74
0
 49
3.1749999999999998
 74
0
 49
-3.1749999999999998
 74
0
  0
LTYPE
  5
4A
100
AcDbSymbolTableRecord
100
AcDbLinetypeTableRecord
  2
DOTX2
 70
0
  3
Dot (2x) .  .  .  .  .  .  .  .  .  .  .  .  .  .
 72
65
 73
2
 40
12.6999999999999993
 49
0.0
 74
0
 49
-12.6999999999999993
 74
0
  0
LTYPE
  5
4B
100
AcDbSymbolTableRecord
100
AcDbLinetypeTableRecord
  2
BORDER2
 70
0
  3
Border (.5x) __.__.__.__.__.__.__.__.__.__.__.
 72
65
 73
6
 40
22.2249999999999979
 49
6.3499999999999996
 74
0
 49
-3.1749999999999998
 74
0
 49
6.3499999999999996
 74
0
 49
-3.1749999999999998
 74
0
 49
0.0
 74
0
 49
-3.1749999999999998
 74
0
  0
LTYPE
  5
4C
100
AcDbSymbolTableRecord
100
AcDbLinetypeTableRecord
  2
DASHDOTX2
 70
0
  3
Dash dot (2x) ____  .  ____  .  ____  .  ___
 72
65
 73
4
 40
50.7999999999999972
 49
25.3999999999999986
 74
0
 49
-12.6999999999999993
 74
0
 49
0.0
 74
0
 49
-12.6999999999999993
 74
0
  0
LTYPE
  5
4D
100
AcDbSymbolTableRecord
100
AcDbLinetypeTableRecord
  2
PHANTOM2
 70
0
  3
Phantom (.5x) ___ _ _ ___ _ _ ___ _ _ ___ _ _
 72
65
 73
6
 40
31.7500000000000036
 49
15.875
 74
0
 49
-3.1749999999999998
 74
0
 49
3.1749999999999998
 74
0
 49
-3.1749999999999998
 74
0
 49
3.1749999999999998
 74
0
 49
-3.1749999999999998
 74
0
  0
LTYPE
  5
4E
100
AcDbSymbolTableRecord
100
AcDbLinetypeTableRecord
  2
ACAD_ISO08W100
 70
0
  3
ISO long-dash short-dash ____ __ ____ __ ____ _
 72
65
 73
4
 40
36.0
 49
24.0
 74
0
 49
-3.0
 74
0
 49
6.0
 74
0
 49
-3.0
 74
0
  0
LTYPE
  5
4F
100
AcDbSymbolTableRecord
100
AcDbLinetypeTableRecord
  2
ACAD_ISO03W100
 70
0
  3
ISO dash space __    __    __    __    __    __
 72
65
 73
2
 40
30.0
 49
12.0
 74
0
 49
-18.0
 74
0
  0
LTYPE
  5
50
100
AcDbSymbolTableRecord
100
AcDbLinetypeTableRecord
  2
ACAD_ISO09W100
 70
0
  3
ISO long-dash double-short-dash ____ __ __ ____
 72
65
 73
6
 40
45.0
 49
24.0
 74
0
 49
-3.0
 74
0
 49
6.0
 74
0
 49
-3.0
 74
0
 49
6.0
 74
0
 49
-3.0
 74
0
  0
LTYPE
  5
51
100
AcDbSymbolTableRecord
100
AcDbLinetypeTableRecord
  2
ACAD_ISO13W100
 70
0
  3
ISO double-dash double-dot __ __ . . __ __ . . _
 72
65
 73
8
 40
36.0
 49
12.0
 74
0
 49
-3.0
 74
0
 49
12.0
 74
0
 49
-3.0
 74
0
 49
0.0
 74
0
 49
-3.0
 74
0
 49
0.0
 74
0
 49
-3.0
 74
0
  0
LTYPE
  5
52
100
AcDbSymbolTableRecord
100
AcDbLinetypeTableRecord
  2
BORDERX2
 70
0
  3
Border (2x) ____  ____  .  ____  ____  .  ___
 72
65
 73
6
 40
88.8999999999999915
 49
25.3999999999999986
 74
0
 49
-12.6999999999999993
 74
0
 49
25.3999999999999986
 74
0
 49
-12.6999999999999993
 74
0
 49
0.0
 74
0
 49
-12.6999999999999993
 74
0
  0
LTYPE
  5
53
100
AcDbSymbolTableRecord
100
AcDbLinetypeTableRecord
  2
ACAD_ISO06W100
 70
0
  3
ISO long-dash triple-dot ____ ... ____ ... ____
 72
65
 73
8
 40
36.0
 49
24.0
 74
0
 49
-3.0
 74
0
 49
0.0
 74
0
 49
-3.0
 74
0
 49
0.0
 74
0
 49
-3.0
 74
0
 49
0.0
 74
0
 49
-3.0
 74
0
  0
LTYPE
  5
54
100
AcDbSymbolTableRecord
100
AcDbLinetypeTableRecord
  2
ACAD_ISO14W100
 70
0
  3
ISO dash triple-dot __ . . . __ . . . __ . . . _
 72
65
 73
8
 40
24.0
 49
12.0
 74
0
 49
-3.0
 74
0
 49
0.0
 74
0
 49
-3.0
 74
0
 49
0.0
 74
0
 49
-3.0
 74
0
 49
0.0
 74
0
 49
-3.0
 74
0
  0
LTYPE
  5
55
100
AcDbSymbolTableRecord
100
AcDbLinetypeTableRecord
  2
ACAD_ISO07W100
 70
0
  3
ISO dot . . . . . . . . . . . . . . . . . . . . 
 72
65
 73
2
 40
3.0
 49
0.0
 74
0
 49
-3.0
 74
0
  0
LTYPE
  5
14
100
AcDbSymbolTableRecord
100
AcDbLinetypeTableRecord
  2
BYBLOCK
 70
0
  3

 72
65
 73
0
 40
0.0
  0
LTYPE
  5
56
100
AcDbSymbolTableRecord
100
AcDbLinetypeTableRecord
  2
DOT
 70
0
  3
Dot . . . . . . . . . . . . . . . . . . . . . . . .
 72
65
 73
2
 40
6.3499999999999996
 49
0.0
 74
0
 49
-6.3499999999999996
 74
0
  0
ENDTAB
  0
TABLE
  2
LAYER
  5
2
100
AcDbSymbolTable
 70
5
  0
LAYER
  5
57
100
AcDbSymbolTableRecord
100
AcDbLayerTableRecord
  2
sestava
 70
0
 62
7
420
0
  6
ACAD_ISO12W100
370
25
390
F
  0
LAYER
  5
58
100
AcDbSymbolTableRecord
100
AcDbLayerTableRecord
  2
sred
 70
0
 62
7
420
0
  6
ACAD_ISO10W100
370
25
390
F
  0
LAYER
  5
10
100
AcDbSymbolTableRecord
100
AcDbLayerTableRecord
  2
0
 70
0
 62
7
420
16777215
  6
Continuous
370
50
390
F
  0
LAYER
  5
59
100
AcDbSymbolTableRecord
100
AcDbLayerTableRecord
  2
kot
 70
0
 62
7
420
0
  6
Continuous
370
25
390
F
  0
LAYER
  5
5A
100
AcDbSymbolTableRecord
100
AcDbLayerTableRecord
  2
nevid
 70
0
 62
7
420
0
  6
ACAD_ISO02W100
370
25
390
F
  0
ENDTAB
  0
TABLE
  2
STYLE
  5
3
100
AcDbSymbolTable
 70
10
  0
STYLE
  5
5B
100
AcDbSymbolTableRecord
100
AcDbTextStyleTableRecord
  2
Standard
 70
0
 40
0.0
 41
1.0
 50
0.0
 71
0
 42
2.5
  3

  4

1001
ACAD
1000
txt
1071
0
  0
STYLE
  5
5C
100
AcDbSymbolTableRecord
100
AcDbTextStyleTableRecord
  2
textstyle0
 70
0
 40
0.0
 41
1.0
 50
0.0
 71
0
 42
3.5
  3

  4

1001
ACAD
1000
Cursive
1071
0
  0
STYLE
  5
5D
100
AcDbSymbolTableRecord
100
AcDbTextStyleTableRecord
  2
textstyle1
 70
0
 40
0.0
 41
1.0
 50
0.0
 71
0
 42
3.5
  3

  4

1001
ACAD
1000
Cursive
1071
0
  0
STYLE
  5
5E
100
AcDbSymbolTableRecord
100
AcDbTextStyleTableRecord
  2
textstyle2
 70
0
 40
0.0
 41
1.0
 50
0.0
 71
0
 42
3.5
  3

  4

1001
ACAD
1000
Cursive
1071
0
  0
STYLE
  5
5F
100
AcDbSymbolTableRecord
100
AcDbTextStyleTableRecord
  2
textstyle3
 70
0
 40
0.0
 41
1.0
 50
0.0
 71
0
 42
3.5
  3

  4

1001
ACAD
1000
Cursive
1071
0
  0
STYLE
  5
60
100
AcDbSymbolTableRecord
100
AcDbTextStyleTableRecord
  2
textstyle4
 70
0
 40
0.0
 41
1.0
 50
0.0
 71
0
 42
3.5
  3

  4

1001
ACAD
1000
Cursive
1071
0
  0
STYLE
  5
61
100
AcDbSymbolTableRecord
100
AcDbTextStyleTableRecord
  2
textstyle5
 70
0
 40
0.0
 41
1.0
 50
0.0
 71
0
 42
3.5
  3

  4

1001
ACAD
1000
Cursive
1071
0
  0
STYLE
  5
62
100
AcDbSymbolTableRecord
100
AcDbTextStyleTableRecord
  2
textstyle6
 70
0
 40
0.0
 41
1.0
 50
0.0
 71
0
 42
3.5
  3

  4

1001
ACAD
1000
Cursive
1071
0
  0
STYLE
  5
63
100
AcDbSymbolTableRecord
100
AcDbTextStyleTableRecord
  2
textstyle7
 70
0
 40
0.0
 41
1.0
 50
0.0
 71
0
 42
3.5
  3

  4

1001
ACAD
1000
Cursive
1071
0
  0
STYLE
  5
64
100
AcDbSymbolTableRecord
100
AcDbTextStyleTableRecord
  2
textstyle8
 70
0
 40
0.0
 41
1.0
 50
0.0
 71
0
 42
3.5
  3

  4

1001
ACAD
1000
Cursive
1071
0
  0
ENDTAB
  0
TABLE
  2
VIEW
  5
6
100
AcDbSymbolTable
 70
0
  0
ENDTAB
  0
TABLE
  2
UCS
  5
7
100
AcDbSymbolTable
 70
0
  0
ENDTAB
  0
TABLE
  2
APPID
  5
9
100
AcDbSymbolTable
 70
1
  0
APPID
  5
12
100
AcDbSymbolTableRecord
100
AcDbRegAppTableRecord
  2
ACAD
 70
0
  0
APPID
  5
65
100
AcDbSymbolTableRecord
100
AcDbRegAppTableRecord
  2
QCAD
 70
0
  0
ENDTAB
  0
TABLE
  2
DIMSTYLE
  5
A
100
AcDbSymbolTable
 70
1
100
AcDbDimStyleTable
 71
0
  0
DIMSTYLE
105
27
100
AcDbSymbolTableRecord
100
AcDbDimStyleTableRecord
  2
Standard
 41
2.5
 42
0.625
 43
3.75
 44
1.25
 70
0
 73
0
 74
0
 77
1
 78
8
140
2.5
141
2.5
143
0.03937007874016
147
0.625
171
3
172
1
271
2
272
2
274
3
278
44
283
0
284
8
340
5B
  0
ENDTAB
  0
TABLE
  2
BLOCK_RECORD
  5
1
100
AcDbSymbolTable
 70
1
  0
BLOCK_RECORD
  5
1F
100
AcDbSymbolTableRecord
100
AcDbBlockTableRecord
  2
*Model_Space
340
22
  0
BLOCK_RECORD
  5
1B
100
AcDbSymbolTableRecord
100
AcDbBlockTableRecord
  2
*Paper_Space
340
1E
  0
BLOCK_RECORD
  5
23
100
AcDbSymbolTableRecord
100
AcDbBlockTableRecord
  2
*Paper_Space0
340
26
  0
ENDTAB
  0
ENDSEC
  0
SECTION
  2
BLOCKS
  0
BLOCK
  5
20
100
AcDbEntity
  8
0
100
AcDbBlockBegin
  2
*Model_Space
 70
0
 10
0.0
 20
0.0
 30
0.0
  3
*Model_Space
  1

  0
ENDBLK
  5
21
100
AcDbEntity
  8
0
100
AcDbBlockEnd
  0
BLOCK
  5
1C
100
AcDbEntity
 67
1
  8
0
100
AcDbBlockBegin
  2
*Paper_Space
 70
0
 10
0.0
 20
0.0
 30
0.0
  3
*Paper_Space
  1

  0
ENDBLK
  5
1D
100
AcDbEntity
 67
1
  8
0
100
AcDbBlockEnd
  0
BLOCK
  5
24
100
AcDbEntity
  8
0
100
AcDbBlockBegin
  2
*Paper_Space0
 70
0
 10
0.0
 20
0.0
 30
0.0
  3
*Paper_Space0
  1

  0
ENDBLK
  5
25
100
AcDbEntity
  8
0
100
AcDbBlockEnd
  0
ENDSEC
  0
SECTION
  2
ENTITIES
  0
CIRCLE
  5
66
100
AcDbEntity
  8
0
 62
256
370
-1
 48
1.0
  6
BYLAYER
100
AcDbCircle
 10
-20.0
 20
12.0
 30
0.0
 40
4.0
  0
LINE
  5
67
100
AcDbEntity
  8
0
 62
256
370
-1
 48
1.0
  6
BYLAYER
100
AcDbLine
 10
-21.9999999999999858
 20
15.4641016151377428
 30
0.0
 11
-21.9999999999999929
 21
16.9999999999999929
 31
0.0
  0
LINE
  5
68
100
AcDbEntity
  8
0
 62
256
370
-1
 48
1.0
  6
BYLAYER
100
AcDbLine
 10
-21.9999999999999929
 20
16.9999999999999929
 30
0.0
 11
-17.9999999999999929
 21
17.0000000000000071
 31
0.0
  0
LINE
  5
69
100
AcDbEntity
  8
0
 62
256
370
-1
 48
1.0
  6
BYLAYER
100
AcDbLine
 10
-17.9999999999999929
 20
17.0000000000000071
 30
0.0
 11
-18.0
 21
15.4641016151377819
 31
0.0
  0
LINE
  5
6A
100
AcDbEntity
  8
0
 62
256
370
-1
 48
1.0
  6
BYLAYER
100
AcDbLine
 10
-18.0000000000000071
 20
8.5358983848622643
 30
0.0
 11
-18.0
 21
7.0000000000000071
 31
0.0
  0
LINE
  5
6B
100
AcDbEntity
  8
0
 62
256
370
-1
 48
1.0
  6
BYLAYER
100
AcDbLine
 10
-18.0
 20
7.0000000000000071
 30
0.0
 11
-21.9999999999999787
 21
6.9999999999999787
 31
0.0
  0
LINE
  5
6C
100
AcDbEntity
  8
0
 62
256
370
-1
 48
1.0
  6
BYLAYER
100
AcDbLine
 10
-21.9999999999999787
 20
6.9999999999999787
 30
0.0
 11
-22.0000000000000071
 21
8.5358983848622572
 31
0.0
  0
LINE
  5
6D
100
AcDbEntity
  8
0
 62
256
370
-1
 48
1.0
  6
BYLAYER
100
AcDbLine
 10
-20.0
 20
20.0
 30
0.0
 11
-20.0
 21
17.0
 31
0.0
  0
LINE
  5
6E
100
AcDbEntity
  8
0
 62
256
370
-1
 48
1.0
  6
BYLAYER
100
AcDbLine
 10
-19.9999999999999893
 20
6.9999999999999929
 30
0.0
 11
-20.0000000000000071
 21
0.0000000000000107
 31
0.0
  0
LINE
  5
6F
100
AcDbEntity
  8
0
 62
256
370
-1
 48
1.0
  6
BYLAYER
100
AcDbLine
 10
-20.0000000000000071
 20
0.0000000000000107
 30
0.0
 11
-50.0
 21
0.0000000000000107
 31
0.0
  0
CIRCLE
  5
70
100
AcDbEntity
  8
0
 62
256
370
-1
 48
1.0
  6
BYLAYER
100
AcDbCircle
 10
-49.9999999999999929
 20
12.0000000000000053
 30
0.0
 40
3.0
  0
CIRCLE
  5
71
100
AcDbEntity
  8
0
 62
256
370
-1
 48
1.0
  6
BYLAYER
100
AcDbCircle
 10
-35.0
 20
24.0
 30
0.0
 40
3.0
  0
LINE
  5
72
100
AcDbEntity
  8
0
 62
256
370
-1
 48
1.0
  6
BYLAYER
100
AcDbLine
 10
-50.0
 20
0.0000000000000107
 30
0.0
 11
-49.9999999999999929
 21
9.0000000000000036
 31
0.0
  0
LINE
  5
73
100
AcDbEntity
  8
0
 62
256
370
-1
 48
1.0
  6
BYLAYER
100
AcDbLine
 10
-49.9999999999999929
 20
15.0000000000000053
 30
0.0
 11
-49.9999999999999858
 21
24.0
 31
0.0
  0
MTEXT
  5
74
100
AcDbEntity
  8
0
 62
256
370
-1
 48
1.0
  6
BYLAYER
100
AcDbMText
 10
-49.9999999999999787
 20
12.0000000000000728
 30
0.0
 40
3.5
 41
0.0
 71
5
 72
1
  1
\fISOCPEUR|b0|i0|c0|p0;V
  7
textstyle2
 50
0.0
 73
2
 44
1.0
  0
MTEXT
  5
75
100
AcDbEntity
  8
0
 62
256
370
-1
 48
1.0
  6
BYLAYER
100
AcDbMText
 10
-34.9999999999999858
 20
24.0000000000000568
 30
0.0
 40
3.5
 41
0.0
 71
5
 72
1
  1
\fISOCPEUR|b0|i0|c0|p0;A
  7
textstyle1
 50
0.0
 73
2
 44
1.0
  0
MTEXT
  5
76
100
AcDbEntity
  8
0
 62
256
370
-1
 48
1.0
  6
BYLAYER
100
AcDbMText
 10
-20.0
 20
12.0000000000000036
 30
0.0
 40
3.5
 41
0.0
 71
5
 72
1
  1
\fISOCPEUR|b0|i0|c0|p0;M
  7
textstyle3
 50
0.0
 73
2
 44
1.0
  0
CIRCLE
  5
77
100
AcDbEntity
  8
0
 62
256
370
50
 48
1.0
  6
BYLAYER
100
AcDbCircle
 10
-49.9999999999999858
 20
24.0
 30
0.0
 40
0.2999999999999972
  0
CIRCLE
  5
78
100
AcDbEntity
  8
0
 62
256
370
50
 48
1.0
  6
BYLAYER
100
AcDbCircle
 10
-50.0
 20
0.0
 30
0.0
 40
0.2999999999999972
  0
CIRCLE
  5
79
100
AcDbEntity
  8
0
 62
256
370
50
 48
1.0
  6
BYLAYER
100
AcDbCircle
 10
-70.0
 20
24.0
 30
0.0
 40
0.2999999999999972
  0
LINE
  5
7A
100
AcDbEntity
  8
0
 62
256
370
-1
 48
1.0
  6
BYLAYER
100
AcDbLine
 10
1.5
 20
31.0000000000000071
 30
0.0
 11
0.5
 21
31.0000000000000071
 31
0.0
  0
LINE
  5
7B
100
AcDbEntity
  8
0
 62
256
370
-1
 48
1.0
  6
BYLAYER
100
AcDbLine
 10
0.5
 20
31.0000000000000071
 30
0.0
 11
0.5
 21
20.9999999999999929
 31
0.0
  0
LINE
  5
7C
100
AcDbEntity
  8
0
 62
256
370
-1
 48
1.0
  6
BYLAYER
100
AcDbLine
 10
0.5
 20
20.9999999999999929
 30
0.0
 11
1.5
 21
21.0
 31
0.0
  0
LINE
  5
7D
100
AcDbEntity
  8
0
 62
256
370
-1
 48
1.0
  6
BYLAYER
100
AcDbLine
 10
1.5
 20
21.0
 30
0.0
 11
1.5
 21
31.0000000000000071
 31
0.0
  0
LINE
  5
7E
100
AcDbEntity
  8
0
 62
256
370
-1
 48
1.0
  6
BYLAYER
100
AcDbLine
 10
0.5
 20
30.0000000000000213
 30
0.0
 11
-0.5
 21
29.9999999999999858
 31
0.0
  0
LINE
  5
7F
100
AcDbEntity
  8
0
 62
256
370
-1
 48
1.0
  6
BYLAYER
100
AcDbLine
 10
-0.5
 20
29.9999999999999858
 30
0.0
 11
-0.4999999999999964
 21
21.9999999999999964
 31
0.0
  0
LINE
  5
80
100
AcDbEntity
  8
0
 62
256
370
-1
 48
1.0
  6
BYLAYER
100
AcDbLine
 10
-0.4999999999999964
 20
21.9999999999999964
 30
0.0
 11
0.5
 21
22.0
 31
0.0
  0
LINE
  5
81
100
AcDbEntity
  8
0
 62
256
370
-1
 48
1.0
  6
BYLAYER
100
AcDbLine
 10
0.5
 20
22.0
 30
0.0
 11
0.5
 21
30.0000000000000213
 31
0.0
  0
LINE
  5
82
100
AcDbEntity
  8
0
 62
256
370
-1
 48
1.0
  6
BYLAYER
100
AcDbLine
 10
-0.5
 20
31.0000000000000071
 30
0.0
 11
-1.5
 21
31.0000000000000071
 31
0.0
  0
LINE
  5
83
100
AcDbEntity
  8
0
 62
256
370
-1
 48
1.0
  6
BYLAYER
100
AcDbLine
 10
-1.5
 20
31.0000000000000071
 30
0.0
 11
-1.5000000000000036
 21
21.0000000000000142
 31
0.0
  0
LINE
  5
84
100
AcDbEntity
  8
0
 62
256
370
-1
 48
1.0
  6
BYLAYER
100
AcDbLine
 10
-1.5000000000000036
 20
21.0000000000000142
 30
0.0
 11
-0.5
 21
21.0
 31
0.0
  0
LINE
  5
85
100
AcDbEntity
  8
0
 62
256
370
-1
 48
1.0
  6
BYLAYER
100
AcDbLine
 10
-0.5
 20
21.0
 30
0.0
 11
-0.5
 21
31.0000000000000071
 31
0.0
  0
LINE
  5
86
100
AcDbEntity
  8
sred
 62
256
370
-1
 48
0.8
  6
BYLAYER
100
AcDbLine
 10
3.5
 20
26.0000000000000071
 30
0.0
 11
-3.5
 21
26.0
 31
0.0
  0
LINE
  5
87
100
AcDbEntity
  8
sestava
 62
256
370
-1
 48
1.0
  6
BYLAYER
100
AcDbLine
 10
-3.5
 20
26.0
 30
0.0
 11
-11.0
 21
26.0
 31
0.0
  0
LINE
  5
88
100
AcDbEntity
  8
sestava
 62
256
370
-1
 48
1.0
  6
BYLAYER
100
AcDbLine
 10
-11.0
 20
26.0
 30
0.0
 11
-11.0
 21
12.0
 31
0.0
  0
LINE
  5
89
100
AcDbEntity
  8
sestava
 62
256
370
-1
 48
1.0
  6
BYLAYER
100
AcDbLine
 10
-11.0
 20
12.0
 30
0.0
 11
-15.0
 21
12.0
 31
0.0
  0
LINE
  5
8A
100
AcDbEntity
  8
0
 62
252
420
10526884
370
-1
 48
1.0
  6
BYLAYER
100
AcDbLine
 10
0.0
 20
29.9999999999999538
 30
0.0
 11
0.0038738639834222
 21
30.2326657087323518
 31
0.0
  0
LINE
  5
8B
100
AcDbEntity
  8
0
 62
252
420
10526884
370
-1
 48
1.0
  6
BYLAYER
100
AcDbLine
 10
0.0
 20
29.9999999999999538
 30
0.0
 11
-0.0000000000000011
 21
3.9999999999999929
 31
0.0
  0
ARC
  5
8C
100
AcDbEntity
  8
0
 62
256
370
-1
 48
1.0
  6
BYLAYER
100
AcDbCircle
 10
0.0
 20
2.9999999999999929
 30
0.0
 40
1.0
100
AcDbArc
 50
360.0
 51
270.0
  0
LINE
  5
8D
100
AcDbEntity
  8
0
 62
256
370
-1
 48
1.0
  6
BYLAYER
100
AcDbLine
 10
0.0000000000000036
 20
1.9999999999999982
 30
0.0
 11
-0.0000000000000036
 21
1.0000000000000053
 31
0.0
  0
LINE
  5
8E
100
AcDbEntity
  8
0
 62
256
370
-1
 48
1.0
  6
BYLAYER
100
AcDbLine
 10
1.9999999999999964
 20
1.0000000000000071
 30
0.0
 11
-2.0000000000000071
 21
1.0000000000000036
 31
0.0
  0
LINE
  5
8F
100
AcDbEntity
  8
0
 62
256
370
-1
 48
1.0
  6
BYLAYER
100
AcDbLine
 10
-2.0000000000000071
 20
1.0000000000000036
 30
0.0
 11
-2.0000000000000107
 21
-3.9999999999999893
 31
0.0
  0
LINE
  5
90
100
AcDbEntity
  8
0
 62
256
370
-1
 48
1.0
  6
BYLAYER
100
AcDbLine
 10
-2.0000000000000107
 20
-3.9999999999999893
 30
0.0
 11
1.9999999999999929
 21
-3.9999999999999929
 31
0.0
  0
LINE
  5
91
100
AcDbEntity
  8
0
 62
256
370
-1
 48
1.0
  6
BYLAYER
100
AcDbLine
 10
1.9999999999999929
 20
-3.9999999999999929
 30
0.0
 11
1.9999999999999964
 21
1.0000000000000071
 31
0.0
  0
MTEXT
  5
92
100
AcDbEntity
  8
0
 62
256
370
-1
 48
1.0
  6
BYLAYER
100
AcDbMText
 10
0.0000000000000008
 20
-1.0000000000000107
 30
0.0
 40
3.5
 41
0.0
 71
5
 72
1
  1
\fISOCPEUR|b0|i0|c0|p0;m
  7
textstyle8
 50
0.0
 73
2
 44
1.0
  0
LINE
  5
93
100
AcDbEntity
  8
0
 62
256
370
-1
 48
1.0
  6
BYLAYER
100
AcDbLine
 10
-4.9374999999999867
 20
-4.999999999999992
 30
0.0
 11
6.9999999999999929
 21
-5.0000000000000044
 31
0.0
  0
LINE
  5
94
100
AcDbEntity
  8
kot
 62
256
370
-1
 48
1.0
  6
BYLAYER
100
AcDbLine
 10
-4.0000000000000062
 20
-5.0000000000000018
 30
0.0
 11
-4.9999999999999911
 21
-5.9999999999999929
 31
0.0
  0
LINE
  5
95
100
AcDbEntity
  8
kot
 62
256
370
-1
 48
1.0
  6
BYLAYER
100
AcDbLine
 10
-4.9999999999999778
 20
-6.9999999999999876
 30
0.0
 11
-2.9999999999999911
 21
-4.9999999999999982
 31
0.0
  0
LINE
  5
96
100
AcDbEntity
  8
kot
 62
256
370
-1
 48
1.0
  6
BYLAYER
100
AcDbLine
 10
-4.0000000000000009
 20
-6.9999999999999973
 30
0.0
 11
-1.9999999999999933
 21
-4.9999999999999929
 31
0.0
  0
LINE
  5
97
100
AcDbEntity
  8
kot
 62
256
370
-1
 48
1.0
  6
BYLAYER
100
AcDbLine
 10
-2.9999999999999867
 20
-6.9999999999999929
 30
0.0
 11
-1.0000000000000067
 21
-5.0
 31
0.0
  0
LINE
  5
98
100
AcDbEntity
  8
kot
 62
256
370
-1
 48
1.0
  6
BYLAYER
100
AcDbLine
 10
-1.9999999999999982
 20
-7.0
 30
0.0
 11
0.0000000000000016
 21
-4.9999999999999929
 31
0.0
  0
LINE
  5
99
100
AcDbEntity
  8
kot
 62
256
370
-1
 48
1.0
  6
BYLAYER
100
AcDbLine
 10
-0.9999999999999898
 20
-6.9999999999999911
 30
0.0
 11
1.0000000000000129
 21
-4.9999999999999858
 31
0.0
  0
LINE
  5
9A
100
AcDbEntity
  8
kot
 62
256
370
-1
 48
1.0
  6
BYLAYER
100
AcDbLine
 10
0.0000000000000027
 20
-7.0000000000000071
 30
0.0
 11
1.9999999999999991
 21
-5.0
 31
0.0
  0
LINE
  5
9B
100
AcDbEntity
  8
kot
 62
256
370
-1
 48
1.0
  6
BYLAYER
100
AcDbLine
 10
0.9999999999999971
 20
-7.0000000000000071
 30
0.0
 11
2.9999999999999973
 21
-5.0
 31
0.0
  0
LINE
  5
9C
100
AcDbEntity
  8
kot
 62
256
370
-1
 48
1.0
  6
BYLAYER
100
AcDbLine
 10
1.9999999999999925
 20
-7.0
 30
0.0
 11
4.0000000000000036
 21
-5.0
 31
0.0
  0
LINE
  5
9D
100
AcDbEntity
  8
kot
 62
256
370
-1
 48
1.0
  6
BYLAYER
100
AcDbLine
 10
3.0000000000000164
 20
-6.9999999999999849
 30
0.0
 11
4.9999999999999982
 21
-5.0000000000000009
 31
0.0
  0
LINE
  5
9E
100
AcDbEntity
  8
kot
 62
256
370
-1
 48
1.0
  6
BYLAYER
100
AcDbLine
 10
4.0000000000000053
 20
-7.0
 30
0.0
 11
6.0000000000000071
 21
-4.9999999999999956
 31
0.0
  0
LINE
  5
9F
100
AcDbEntity
  8
kot
 62
256
370
-1
 48
1.0
  6
BYLAYER
100
AcDbLine
 10
5.0000000000000053
 20
-6.9999999999999991
 30
0.0
 11
6.9999999999999929
 21
-5.0000000000000044
 31
0.0
  0
LINE
  5
A0
100
AcDbEntity
  8
kot
 62
256
370
-1
 48
1.0
  6
BYLAYER
100
AcDbLine
 10
6.0000000000000115
 20
-6.9999999999999867
 30
0.0
 11
6.9999999999999885
 21
-6.0000000000000036
 31
0.0
  0
LINE
  5
A1
100
AcDbEntity
  8
0
 62
256
370
100
 48
1.0
  6
BYLAYER
100
AcDbLine
 10
-71.5
 20
4.0
 30
0.0
 11
-68.5
 21
4.0
 31
0.0
  0
LINE
  5
A2
100
AcDbEntity
  8
0
 62
256
370
100
 48
1.0
  6
BYLAYER
100
AcDbLine
 10
-71.5
 20
8.0
 30
0.0
 11
-68.5
 21
8.0
 31
0.0
  0
LINE
  5
A3
100
AcDbEntity
  8
0
 62
256
370
100
 48
1.0
  6
BYLAYER
100
AcDbLine
 10
-71.5
 20
12.0
 30
0.0
 11
-68.5
 21
12.0
 31
0.0
  0
LINE
  5
A4
100
AcDbEntity
  8
0
 62
256
370
100
 48
1.0
  6
BYLAYER
100
AcDbLine
 10
-71.5
 20
16.0
 30
0.0
 11
-68.5
 21
16.0
 31
0.0
  0
LINE
  5
A5
100
AcDbEntity
  8
0
 62
256
370
100
 48
1.0
  6
BYLAYER
100
AcDbLine
 10
-71.5
 20
20.0
 30
0.0
 11
-68.5
 21
20.0
 31
0.0
  0
LINE
  5
A6
100
AcDbEntity
  8
0
 62
256
370
100
 48
1.0
  6
BYLAYER
100
AcDbLine
 10
-71.5
 20
27.0
 30
0.0
 11
-68.5
 21
27.0
 31
0.0
  0
LINE
  5
A7
100
AcDbEntity
  8
0
 62
256
370
-1
 48
1.0
  6
BYLAYER
100
AcDbLine
 10
-74.0
 20
5.0
 30
0.0
 11
-66.0
 21
5.0
 31
0.0
  0
LINE
  5
A8
100
AcDbEntity
  8
0
 62
256
370
-1
 48
1.0
  6
BYLAYER
100
AcDbLine
 10
-74.0
 20
9.0
 30
0.0
 11
-66.0
 21
9.0
 31
0.0
  0
LINE
  5
A9
100
AcDbEntity
  8
0
 62
256
370
-1
 48
1.0
  6
BYLAYER
100
AcDbLine
 10
-74.0
 20
13.0
 30
0.0
 11
-66.0
 21
13.0
 31
0.0
  0
LINE
  5
AA
100
AcDbEntity
  8
0
 62
256
370
-1
 48
1.0
  6
BYLAYER
100
AcDbLine
 10
-74.0
 20
17.0
 30
0.0
 11
-66.0
 21
17.0
 31
0.0
  0
LINE
  5
AB
100
AcDbEntity
  8
0
 62
256
370
-1
 48
1.0
  6
BYLAYER
100
AcDbLine
 10
-74.0
 20
21.0
 30
0.0
 11
-66.0
 21
21.0
 31
0.0
  0
LINE
  5
AC
100
AcDbEntity
  8
0
 62
256
370
-1
 48
1.0
  6
BYLAYER
100
AcDbLine
 10
-74.0
 20
28.0
 30
0.0
 11
-66.0
 21
28.0
 31
0.0
  0
LINE
  5
AD
100
AcDbEntity
  8
0
 62
256
370
-1
 48
1.0
  6
BYLAYER
100
AcDbLine
 10
-70.0
 20
20.0
 30
0.0
 11
-70.0
 21
17.0
 31
0.0
  0
LINE
  5
AE
100
AcDbEntity
  8
0
 62
256
370
-1
 48
1.0
  6
BYLAYER
100
AcDbLine
 10
-70.0
 20
13.0
 30
0.0
 11
-70.0
 21
16.0
 31
0.0
  0
LINE
  5
AF
100
AcDbEntity
  8
0
 62
256
370
-1
 48
1.0
  6
BYLAYER
100
AcDbLine
 10
-70.0
 20
12.0
 30
0.0
 11
-70.0
 21
9.0
 31
0.0
  0
LINE
  5
B0
100
AcDbEntity
  8
0
 62
256
370
-1
 48
1.0
  6
BYLAYER
100
AcDbLine
 10
-70.0
 20
8.0
 30
0.0
 11
-70.0
 21
5.0
 31
0.0
  0
LINE
  5
B1
100
AcDbEntity
  8
0
 62
256
370
-1
 48
1.0
  6
BYLAYER
100
AcDbLine
 10
-70.0
 20
30.1660102288987133
 30
0.0
 11
-70.0
 21
28.0
 31
0.0
  0
LINE
  5
B2
100
AcDbEntity
  8
0
 62
256
370
-1
 48
1.0
  6
BYLAYER
100
AcDbLine
 10
-70.0
 20
4.0
 30
0.0
 11
-70.0
 21
0.0
 31
0.0
  0
LINE
  5
B3
100
AcDbEntity
  8
0
 62
256
370
-1
 48
1.0
  6
BYLAYER
100
AcDbLine
 10
-70.0
 20
0.0
 30
0.0
 11
-50.0
 21
0.0000000000000107
 31
0.0
  0
LINE
  5
B4
100
AcDbEntity
  8
sestava
 62
256
370
-1
 48
1.0
  6
BYLAYER
100
AcDbLine
 10
-76.0
 20
23.0
 30
0.0
 11
-64.0
 21
23.0
 31
0.0
  0
LINE
  5
B5
100
AcDbEntity
  8
sestava
 62
256
370
-1
 48
1.0
  6
BYLAYER
100
AcDbLine
 10
-64.0
 20
23.0
 30
0.0
 11
-64.0
 21
2.0
 31
0.0
  0
LINE
  5
B6
100
AcDbEntity
  8
sestava
 62
256
370
-1
 48
1.0
  6
BYLAYER
100
AcDbLine
 10
-64.0
 20
30.7993693557981523
 30
0.0
 11
-64.0
 21
25.0
 31
0.0
  0
LINE
  5
B7
100
AcDbEntity
  8
sestava
 62
256
370
-1
 48
1.0
  6
BYLAYER
100
AcDbLine
 10
-64.0
 20
2.0
 30
0.0
 11
-76.0
 21
2.0
 31
0.0
  0
LINE
  5
B8
100
AcDbEntity
  8
sestava
 62
256
370
-1
 48
1.0
  6
BYLAYER
100
AcDbLine
 10
-64.0
 20
25.0
 30
0.0
 11
-76.0
 21
25.0
 31
0.0
  0
LINE
  5
B9
100
AcDbEntity
  8
sestava
 62
256
370
-1
 48
1.0
  6
BYLAYER
100
AcDbLine
 10
-76.0
 20
2.0
 30
0.0
 11
-76.0
 21
23.0
 31
0.0
  0
LINE
  5
BA
100
AcDbEntity
  8
sestava
 62
256
370
-1
 48
1.0
  6
BYLAYER
100
AcDbLine
 10
-76.0
 20
25.0
 30
0.0
 11
-76.0
 21
30.4875122865118762
 31
0.0
  0
LINE
  5
BB
100
AcDbEntity
  8
sestava
 62
256
370
-1
 48
1.0
  6
BYLAYER
100
AcDbLine
 10
-75.9470166811098579
 20
30.4875122865118797
 30
0.0
 11
-75.9068289239082077
 21
30.4875122865118797
 31
0.0
  0
LINE
  5
BC
100
AcDbEntity
  8
sestava
 62
256
370
-1
 48
1.0
  6
BYLAYER
100
AcDbLine
 10
-75.9068289239082077
 20
30.4875122865118797
 30
0.0
 11
-75.8666411667065717
 21
30.4875122865118797
 31
0.0
  0
LINE
  5
BD
100
AcDbEntity
  8
sestava
 62
256
370
-1
 48
1.0
  6
BYLAYER
100
AcDbLine
 10
-75.8666411667065717
 20
30.4875122865118797
 30
0.0
 11
-75.7862656523032712
 21
30.447324529310233
 31
0.0
  0
LINE
  5
BE
100
AcDbEntity
  8
sestava
 62
256
370
-1
 48
1.0
  6
BYLAYER
100
AcDbLine
 10
-75.7862656523032712
 20
30.447324529310233
 30
0.0
 11
-75.7460778951016351
 21
30.447324529310233
 31
0.0
  0
LINE
  5
BF
100
AcDbEntity
  8
sestava
 62
256
370
-1
 48
1.0
  6
BYLAYER
100
AcDbLine
 10
-75.7460778951016351
 20
30.447324529310233
 30
0.0
 11
-75.7058901378999849
 21
30.447324529310233
 31
0.0
  0
LINE
  5
C0
100
AcDbEntity
  8
sestava
 62
256
370
-1
 48
1.0
  6
BYLAYER
100
AcDbLine
 10
-75.7058901378999849
 20
30.447324529310233
 30
0.0
 11
-75.6657023806983347
 21
30.447324529310233
 31
0.0
  0
LINE
  5
C1
100
AcDbEntity
  8
sestava
 62
256
370
-1
 48
1.0
  6
BYLAYER
100
AcDbLine
 10
-75.6657023806983347
 20
30.447324529310233
 30
0.0
 11
-75.6255146234966844
 21
30.447324529310233
 31
0.0
  0
LINE
  5
C2
100
AcDbEntity
  8
sestava
 62
256
370
-1
 48
1.0
  6
BYLAYER
100
AcDbLine
 10
-75.6255146234966844
 20
30.447324529310233
 30
0.0
 11
-75.5853268662950484
 21
30.447324529310233
 31
0.0
  0
LINE
  5
C3
100
AcDbEntity
  8
sestava
 62
256
370
-1
 48
1.0
  6
BYLAYER
100
AcDbLine
 10
-75.5853268662950484
 20
30.447324529310233
 30
0.0
 11
-75.5451391090933981
 21
30.4071367721085863
 31
0.0
  0
LINE
  5
C4
100
AcDbEntity
  8
sestava
 62
256
370
-1
 48
1.0
  6
BYLAYER
100
AcDbLine
 10
-75.5451391090933981
 20
30.4071367721085863
 30
0.0
 11
-75.5049513518917479
 21
30.4071367721085863
 31
0.0
  0
LINE
  5
C5
100
AcDbEntity
  8
sestava
 62
256
370
-1
 48
1.0
  6
BYLAYER
100
AcDbLine
 10
-75.5049513518917479
 20
30.4071367721085863
 30
0.0
 11
-75.4647635946901119
 21
30.4071367721085863
 31
0.0
  0
LINE
  5
C6
100
AcDbEntity
  8
sestava
 62
256
370
-1
 48
1.0
  6
BYLAYER
100
AcDbLine
 10
-75.4647635946901119
 20
30.4071367721085863
 30
0.0
 11
-75.4245758374884616
 21
30.4071367721085863
 31
0.0
  0
LINE
  5
C7
100
AcDbEntity
  8
sestava
 62
256
370
-1
 48
1.0
  6
BYLAYER
100
AcDbLine
 10
-75.4245758374884616
 20
30.4071367721085863
 30
0.0
 11
-75.3442003230851753
 21
30.4071367721085863
 31
0.0
  0
LINE
  5
C8
100
AcDbEntity
  8
sestava
 62
256
370
-1
 48
1.0
  6
BYLAYER
100
AcDbLine
 10
-75.3442003230851753
 20
30.4071367721085863
 30
0.0
 11
-75.2638248086818749
 21
30.4071367721085863
 31
0.0
  0
LINE
  5
C9
100
AcDbEntity
  8
sestava
 62
256
370
-1
 48
1.0
  6
BYLAYER
100
AcDbLine
 10
-75.2638248086818749
 20
30.4071367721085863
 30
0.0
 11
-75.2236370514802246
 21
30.4071367721085863
 31
0.0
  0
LINE
  5
CA
100
AcDbEntity
  8
sestava
 62
256
370
-1
 48
1.0
  6
BYLAYER
100
AcDbLine
 10
-75.2236370514802246
 20
30.4071367721085863
 30
0.0
 11
-75.1834492942785886
 21
30.4071367721085863
 31
0.0
  0
LINE
  5
CB
100
AcDbEntity
  8
sestava
 62
256
370
-1
 48
1.0
  6
BYLAYER
100
AcDbLine
 10
-75.1834492942785886
 20
30.4071367721085863
 30
0.0
 11
-75.1432615370769383
 21
30.4071367721085863
 31
0.0
  0
LINE
  5
CC
100
AcDbEntity
  8
sestava
 62
256
370
-1
 48
1.0
  6
BYLAYER
100
AcDbLine
 10
-75.1432615370769383
 20
30.4071367721085863
 30
0.0
 11
-75.1030737798752881
 21
30.4071367721085863
 31
0.0
  0
LINE
  5
CD
100
AcDbEntity
  8
sestava
 62
256
370
-1
 48
1.0
  6
BYLAYER
100
AcDbLine
 10
-75.1030737798752881
 20
30.4071367721085863
 30
0.0
 11
-75.0628860226736379
 21
30.4071367721085863
 31
0.0
  0
LINE
  5
CE
100
AcDbEntity
  8
sestava
 62
256
370
-1
 48
1.0
  6
BYLAYER
100
AcDbLine
 10
-75.0628860226736379
 20
30.4071367721085863
 30
0.0
 11
-75.0226982654720018
 21
30.4071367721085863
 31
0.0
  0
LINE
  5
CF
100
AcDbEntity
  8
sestava
 62
256
370
-1
 48
1.0
  6
BYLAYER
100
AcDbLine
 10
-75.0226982654720018
 20
30.4071367721085863
 30
0.0
 11
-74.9825105082703516
 21
30.4071367721085863
 31
0.0
  0
LINE
  5
D0
100
AcDbEntity
  8
sestava
 62
256
370
-1
 48
1.0
  6
BYLAYER
100
AcDbLine
 10
-74.9825105082703516
 20
30.4071367721085863
 30
0.0
 11
-74.9423227510687013
 21
30.4071367721085863
 31
0.0
  0
LINE
  5
D1
100
AcDbEntity
  8
sestava
 62
256
370
-1
 48
1.0
  6
BYLAYER
100
AcDbLine
 10
-74.9423227510687013
 20
30.4071367721085863
 30
0.0
 11
-74.9021349938670653
 21
30.4071367721085863
 31
0.0
  0
LINE
  5
D2
100
AcDbEntity
  8
sestava
 62
256
370
-1
 48
1.0
  6
BYLAYER
100
AcDbLine
 10
-74.9021349938670653
 20
30.4071367721085863
 30
0.0
 11
-74.8619472366654151
 21
30.4071367721085863
 31
0.0
  0
LINE
  5
D3
100
AcDbEntity
  8
sestava
 62
256
370
-1
 48
1.0
  6
BYLAYER
100
AcDbLine
 10
-74.8619472366654151
 20
30.4071367721085863
 30
0.0
 11
-74.8217594794637648
 21
30.4071367721085863
 31
0.0
  0
LINE
  5
D4
100
AcDbEntity
  8
sestava
 62
256
370
-1
 48
1.0
  6
BYLAYER
100
AcDbLine
 10
-74.8217594794637648
 20
30.4071367721085863
 30
0.0
 11
-74.7815717222621288
 21
30.4071367721085863
 31
0.0
  0
LINE
  5
D5
100
AcDbEntity
  8
sestava
 62
256
370
-1
 48
1.0
  6
BYLAYER
100
AcDbLine
 10
-74.7815717222621288
 20
30.4071367721085863
 30
0.0
 11
-74.7413839650604785
 21
30.4071367721085863
 31
0.0
  0
LINE
  5
D6
100
AcDbEntity
  8
sestava
 62
256
370
-1
 48
1.0
  6
BYLAYER
100
AcDbLine
 10
-74.7413839650604785
 20
30.4071367721085863
 30
0.0
 11
-74.7011962078588283
 21
30.4071367721085863
 31
0.0
  0
LINE
  5
D7
100
AcDbEntity
  8
sestava
 62
256
370
-1
 48
1.0
  6
BYLAYER
100
AcDbLine
 10
-74.7011962078588283
 20
30.4071367721085863
 30
0.0
 11
-74.6610084506571923
 21
30.4071367721085863
 31
0.0
  0
LINE
  5
D8
100
AcDbEntity
  8
sestava
 62
256
370
-1
 48
1.0
  6
BYLAYER
100
AcDbLine
 10
-74.6610084506571923
 20
30.4071367721085863
 30
0.0
 11
-74.620820693455542
 21
30.4071367721085863
 31
0.0
  0
LINE
  5
D9
100
AcDbEntity
  8
sestava
 62
256
370
-1
 48
1.0
  6
BYLAYER
100
AcDbLine
 10
-74.620820693455542
 20
30.4071367721085863
 30
0.0
 11
-74.5806329362538918
 21
30.4071367721085863
 31
0.0
  0
LINE
  5
DA
100
AcDbEntity
  8
sestava
 62
256
370
-1
 48
1.0
  6
BYLAYER
100
AcDbLine
 10
-74.5806329362538918
 20
30.4071367721085863
 30
0.0
 11
-74.5002574218506055
 21
30.4071367721085863
 31
0.0
  0
LINE
  5
DB
100
AcDbEntity
  8
sestava
 62
256
370
-1
 48
1.0
  6
BYLAYER
100
AcDbLine
 10
-74.5002574218506055
 20
30.4071367721085863
 30
0.0
 11
-74.4600696646489553
 21
30.4071367721085863
 31
0.0
  0
LINE
  5
DC
100
AcDbEntity
  8
sestava
 62
256
370
-1
 48
1.0
  6
BYLAYER
100
AcDbLine
 10
-74.4600696646489553
 20
30.4071367721085863
 30
0.0
 11
-74.419881907447305
 21
30.4071367721085863
 31
0.0
  0
LINE
  5
DD
100
AcDbEntity
  8
sestava
 62
256
370
-1
 48
1.0
  6
BYLAYER
100
AcDbLine
 10
-74.419881907447305
 20
30.4071367721085863
 30
0.0
 11
-74.3796941502456548
 21
30.4071367721085863
 31
0.0
  0
LINE
  5
DE
100
AcDbEntity
  8
sestava
 62
256
370
-1
 48
1.0
  6
BYLAYER
100
AcDbLine
 10
-74.3796941502456548
 20
30.4071367721085863
 30
0.0
 11
-74.3395063930440188
 21
30.4071367721085863
 31
0.0
  0
LINE
  5
DF
100
AcDbEntity
  8
sestava
 62
256
370
-1
 48
1.0
  6
BYLAYER
100
AcDbLine
 10
-74.3395063930440188
 20
30.4071367721085863
 30
0.0
 11
-74.2993186358423685
 21
30.4071367721085863
 31
0.0
  0
LINE
  5
E0
100
AcDbEntity
  8
sestava
 62
256
370
-1
 48
1.0
  6
BYLAYER
100
AcDbLine
 10
-74.2993186358423685
 20
30.4071367721085863
 30
0.0
 11
-74.2189431214390822
 21
30.4071367721085863
 31
0.0
  0
LINE
  5
E1
100
AcDbEntity
  8
sestava
 62
256
370
-1
 48
1.0
  6
BYLAYER
100
AcDbLine
 10
-74.2189431214390822
 20
30.4071367721085863
 30
0.0
 11
-74.178755364237432
 21
30.4071367721085863
 31
0.0
  0
LINE
  5
E2
100
AcDbEntity
  8
sestava
 62
256
370
-1
 48
1.0
  6
BYLAYER
100
AcDbLine
 10
-74.178755364237432
 20
30.4071367721085863
 30
0.0
 11
-74.0983798498341457
 21
30.4071367721085863
 31
0.0
  0
LINE
  5
E3
100
AcDbEntity
  8
sestava
 62
256
370
-1
 48
1.0
  6
BYLAYER
100
AcDbLine
 10
-74.0983798498341457
 20
30.4071367721085863
 30
0.0
 11
-74.0581920926324955
 21
30.4071367721085863
 31
0.0
  0
LINE
  5
E4
100
AcDbEntity
  8
sestava
 62
256
370
-1
 48
1.0
  6
BYLAYER
100
AcDbLine
 10
-74.0581920926324955
 20
30.4071367721085863
 30
0.0
 11
-73.937628821027559
 21
30.4071367721085863
 31
0.0
  0
LINE
  5
E5
100
AcDbEntity
  8
sestava
 62
256
370
-1
 48
1.0
  6
BYLAYER
100
AcDbLine
 10
-73.937628821027559
 20
30.4071367721085863
 30
0.0
 11
-73.8170655494226224
 21
30.4071367721085863
 31
0.0
  0
LINE
  5
E6
100
AcDbEntity
  8
sestava
 62
256
370
-1
 48
1.0
  6
BYLAYER
100
AcDbLine
 10
-73.8170655494226224
 20
30.4071367721085863
 30
0.0
 11
-73.7768777922209722
 21
30.4071367721085863
 31
0.0
  0
LINE
  5
E7
100
AcDbEntity
  8
sestava
 62
256
370
-1
 48
1.0
  6
BYLAYER
100
AcDbLine
 10
-73.7768777922209722
 20
30.4071367721085863
 30
0.0
 11
-73.6965022778176717
 21
30.4071367721085863
 31
0.0
  0
LINE
  5
E8
100
AcDbEntity
  8
sestava
 62
256
370
-1
 48
1.0
  6
BYLAYER
100
AcDbLine
 10
-73.6965022778176717
 20
30.4071367721085863
 30
0.0
 11
-73.6563145206160357
 21
30.4071367721085863
 31
0.0
  0
LINE
  5
E9
100
AcDbEntity
  8
sestava
 62
256
370
-1
 48
1.0
  6
BYLAYER
100
AcDbLine
 10
-73.6563145206160357
 20
30.4071367721085863
 30
0.0
 11
-73.5759390062127352
 21
30.4071367721085863
 31
0.0
  0
LINE
  5
EA
100
AcDbEntity
  8
sestava
 62
256
370
-1
 48
1.0
  6
BYLAYER
100
AcDbLine
 10
-73.5759390062127352
 20
30.4071367721085863
 30
0.0
 11
-73.5357512490110992
 21
30.4071367721085863
 31
0.0
  0
LINE
  5
EB
100
AcDbEntity
  8
sestava
 62
256
370
-1
 48
1.0
  6
BYLAYER
100
AcDbLine
 10
-73.5357512490110992
 20
30.4071367721085863
 30
0.0
 11
-73.4553757346077987
 21
30.4071367721085863
 31
0.0
  0
LINE
  5
EC
100
AcDbEntity
  8
sestava
 62
256
370
-1
 48
1.0
  6
BYLAYER
100
AcDbLine
 10
-73.4553757346077987
 20
30.4071367721085863
 30
0.0
 11
-73.4151879774061626
 21
30.4071367721085863
 31
0.0
  0
LINE
  5
ED
100
AcDbEntity
  8
sestava
 62
256
370
-1
 48
1.0
  6
BYLAYER
100
AcDbLine
 10
-73.4151879774061626
 20
30.4071367721085863
 30
0.0
 11
-73.3348124630028622
 21
30.4071367721085863
 31
0.0
  0
LINE
  5
EE
100
AcDbEntity
  8
sestava
 62
256
370
-1
 48
1.0
  6
BYLAYER
100
AcDbLine
 10
-73.3348124630028622
 20
30.4071367721085863
 30
0.0
 11
-73.2946247058012261
 21
30.4071367721085863
 31
0.0
  0
LINE
  5
EF
100
AcDbEntity
  8
sestava
 62
256
370
-1
 48
1.0
  6
BYLAYER
100
AcDbLine
 10
-73.2946247058012261
 20
30.4071367721085863
 30
0.0
 11
-73.2544369485995759
 21
30.4071367721085863
 31
0.0
  0
LINE
  5
F0
100
AcDbEntity
  8
sestava
 62
256
370
-1
 48
1.0
  6
BYLAYER
100
AcDbLine
 10
-73.2544369485995759
 20
30.4071367721085863
 30
0.0
 11
-73.2142491913979256
 21
30.3669490149069432
 31
0.0
  0
LINE
  5
F1
100
AcDbEntity
  8
sestava
 62
256
370
-1
 48
1.0
  6
BYLAYER
100
AcDbLine
 10
-73.2142491913979256
 20
30.3669490149069432
 30
0.0
 11
-73.1740614341962754
 21
30.3669490149069432
 31
0.0
  0
LINE
  5
F2
100
AcDbEntity
  8
sestava
 62
256
370
-1
 48
1.0
  6
BYLAYER
100
AcDbLine
 10
-73.1740614341962754
 20
30.3669490149069432
 30
0.0
 11
-73.1338736769946252
 21
30.3669490149069432
 31
0.0
  0
LINE
  5
F3
100
AcDbEntity
  8
sestava
 62
256
370
-1
 48
1.0
  6
BYLAYER
100
AcDbLine
 10
-73.1338736769946252
 20
30.3669490149069432
 30
0.0
 11
-73.0936859197929891
 21
30.3669490149069432
 31
0.0
  0
LINE
  5
F4
100
AcDbEntity
  8
sestava
 62
256
370
-1
 48
1.0
  6
BYLAYER
100
AcDbLine
 10
-73.0936859197929891
 20
30.3669490149069432
 30
0.0
 11
-72.9731226481880526
 21
30.326761257705293
 31
0.0
  0
LINE
  5
F5
100
AcDbEntity
  8
sestava
 62
256
370
-1
 48
1.0
  6
BYLAYER
100
AcDbLine
 10
-72.9731226481880526
 20
30.326761257705293
 30
0.0
 11
-72.8927471337847521
 21
30.2865735005036498
 31
0.0
  0
LINE
  5
F6
100
AcDbEntity
  8
sestava
 62
256
370
-1
 48
1.0
  6
BYLAYER
100
AcDbLine
 10
-72.8927471337847521
 20
30.2865735005036498
 30
0.0
 11
-72.7721838621798156
 21
30.2865735005036498
 31
0.0
  0
LINE
  5
F7
100
AcDbEntity
  8
sestava
 62
256
370
-1
 48
1.0
  6
BYLAYER
100
AcDbLine
 10
-72.7721838621798156
 20
30.2865735005036498
 30
0.0
 11
-72.7319961049781796
 21
30.2463857433020031
 31
0.0
  0
LINE
  5
F8
100
AcDbEntity
  8
sestava
 62
256
370
-1
 48
1.0
  6
BYLAYER
100
AcDbLine
 10
-72.7319961049781796
 20
30.2463857433020031
 30
0.0
 11
-72.6516205905748791
 21
30.2463857433020031
 31
0.0
  0
LINE
  5
F9
100
AcDbEntity
  8
sestava
 62
256
370
-1
 48
1.0
  6
BYLAYER
100
AcDbLine
 10
-72.6516205905748791
 20
30.2463857433020031
 30
0.0
 11
-72.5712450761715928
 21
30.2061979861003564
 31
0.0
  0
LINE
  5
FA
100
AcDbEntity
  8
sestava
 62
256
370
-1
 48
1.0
  6
BYLAYER
100
AcDbLine
 10
-72.5712450761715928
 20
30.2061979861003564
 30
0.0
 11
-72.5310573189699426
 21
30.2061979861003564
 31
0.0
  0
LINE
  5
FB
100
AcDbEntity
  8
sestava
 62
256
370
-1
 48
1.0
  6
BYLAYER
100
AcDbLine
 10
-72.5310573189699426
 20
30.2061979861003564
 30
0.0
 11
-72.4506818045666421
 21
30.1660102288987133
 31
0.0
  0
LINE
  5
FC
100
AcDbEntity
  8
sestava
 62
256
370
-1
 48
1.0
  6
BYLAYER
100
AcDbLine
 10
-72.4506818045666421
 20
30.1660102288987133
 30
0.0
 11
-72.3703062901633558
 21
30.1258224716970631
 31
0.0
  0
LINE
  5
FD
100
AcDbEntity
  8
sestava
 62
256
370
-1
 48
1.0
  6
BYLAYER
100
AcDbLine
 10
-72.3703062901633558
 20
30.1258224716970631
 30
0.0
 11
-72.3301185329617056
 21
30.1258224716970631
 31
0.0
  0
LINE
  5
FE
100
AcDbEntity
  8
sestava
 62
256
370
-1
 48
1.0
  6
BYLAYER
100
AcDbLine
 10
-72.3301185329617056
 20
30.1258224716970631
 30
0.0
 11
-72.2899307757600695
 21
30.1258224716970631
 31
0.0
  0
LINE
  5
FF
100
AcDbEntity
  8
sestava
 62
256
370
-1
 48
1.0
  6
BYLAYER
100
AcDbLine
 10
-72.2899307757600695
 20
30.1258224716970631
 30
0.0
 11
-72.2497430185584193
 21
30.0856347144954199
 31
0.0
  0
LINE
  5
100
100
AcDbEntity
  8
sestava
 62
256
370
-1
 48
1.0
  6
BYLAYER
100
AcDbLine
 10
-72.2497430185584193
 20
30.0856347144954199
 30
0.0
 11
-72.2095552613567691
 21
30.0856347144954199
 31
0.0
  0
LINE
  5
101
100
AcDbEntity
  8
sestava
 62
256
370
-1
 48
1.0
  6
BYLAYER
100
AcDbLine
 10
-72.2095552613567691
 20
30.0856347144954199
 30
0.0
 11
-72.169367504155133
 21
30.0856347144954199
 31
0.0
  0
LINE
  5
102
100
AcDbEntity
  8
sestava
 62
256
370
-1
 48
1.0
  6
BYLAYER
100
AcDbLine
 10
-72.169367504155133
 20
30.0856347144954199
 30
0.0
 11
-72.1291797469534828
 21
30.0856347144954199
 31
0.0
  0
LINE
  5
103
100
AcDbEntity
  8
sestava
 62
256
370
-1
 48
1.0
  6
BYLAYER
100
AcDbLine
 10
-72.1291797469534828
 20
30.0856347144954199
 30
0.0
 11
-72.0889919897518325
 21
30.0856347144954199
 31
0.0
  0
LINE
  5
104
100
AcDbEntity
  8
sestava
 62
256
370
-1
 48
1.0
  6
BYLAYER
100
AcDbLine
 10
-72.0889919897518325
 20
30.0856347144954199
 30
0.0
 11
-72.0488042325501965
 21
30.0856347144954199
 31
0.0
  0
LINE
  5
105
100
AcDbEntity
  8
sestava
 62
256
370
-1
 48
1.0
  6
BYLAYER
100
AcDbLine
 10
-72.0488042325501965
 20
30.0856347144954199
 30
0.0
 11
-71.968428718146896
 21
30.0856347144954199
 31
0.0
  0
LINE
  5
106
100
AcDbEntity
  8
sestava
 62
256
370
-1
 48
1.0
  6
BYLAYER
100
AcDbLine
 10
-71.968428718146896
 20
30.0856347144954199
 30
0.0
 11
-71.8478654465419595
 21
30.0856347144954199
 31
0.0
  0
LINE
  5
107
100
AcDbEntity
  8
sestava
 62
256
370
-1
 48
1.0
  6
BYLAYER
100
AcDbLine
 10
-71.8478654465419595
 20
30.0856347144954199
 30
0.0
 11
-71.727302174937023
 21
30.0856347144954199
 31
0.0
  0
LINE
  5
108
100
AcDbEntity
  8
sestava
 62
256
370
-1
 48
1.0
  6
BYLAYER
100
AcDbLine
 10
-71.727302174937023
 20
30.0856347144954199
 30
0.0
 11
-71.6871144177353727
 21
30.0856347144954199
 31
0.0
  0
LINE
  5
109
100
AcDbEntity
  8
sestava
 62
256
370
-1
 48
1.0
  6
BYLAYER
100
AcDbLine
 10
-71.6871144177353727
 20
30.0856347144954199
 30
0.0
 11
-71.6067389033320865
 21
30.0856347144954199
 31
0.0
  0
LINE
  5
10A
100
AcDbEntity
  8
sestava
 62
256
370
-1
 48
1.0
  6
BYLAYER
100
AcDbLine
 10
-71.6067389033320865
 20
30.0856347144954199
 30
0.0
 11
-71.5665511461304362
 21
30.0856347144954199
 31
0.0
  0
LINE
  5
10B
100
AcDbEntity
  8
sestava
 62
256
370
-1
 48
1.0
  6
BYLAYER
100
AcDbLine
 10
-71.5665511461304362
 20
30.0856347144954199
 30
0.0
 11
-71.526363388928786
 21
30.0856347144954199
 31
0.0
  0
LINE
  5
10C
100
AcDbEntity
  8
sestava
 62
256
370
-1
 48
1.0
  6
BYLAYER
100
AcDbLine
 10
-71.526363388928786
 20
30.0856347144954199
 30
0.0
 11
-71.4861756317271499
 21
30.0856347144954199
 31
0.0
  0
LINE
  5
10D
100
AcDbEntity
  8
sestava
 62
256
370
-1
 48
1.0
  6
BYLAYER
100
AcDbLine
 10
-71.4861756317271499
 20
30.0856347144954199
 30
0.0
 11
-71.3656123601222134
 21
30.0856347144954199
 31
0.0
  0
LINE
  5
10E
100
AcDbEntity
  8
sestava
 62
256
370
-1
 48
1.0
  6
BYLAYER
100
AcDbLine
 10
-71.3656123601222134
 20
30.0856347144954199
 30
0.0
 11
-71.2852368457189129
 21
30.0856347144954199
 31
0.0
  0
LINE
  5
10F
100
AcDbEntity
  8
sestava
 62
256
370
-1
 48
1.0
  6
BYLAYER
100
AcDbLine
 10
-71.2852368457189129
 20
30.0856347144954199
 30
0.0
 11
-71.2450490885172627
 21
30.0856347144954199
 31
0.0
  0
LINE
  5
110
100
AcDbEntity
  8
sestava
 62
256
370
-1
 48
1.0
  6
BYLAYER
100
AcDbLine
 10
-71.2450490885172627
 20
30.0856347144954199
 30
0.0
 11
-71.1244858169123262
 21
30.0856347144954199
 31
0.0
  0
LINE
  5
111
100
AcDbEntity
  8
sestava
 62
256
370
-1
 48
1.0
  6
BYLAYER
100
AcDbLine
 10
-71.1244858169123262
 20
30.0856347144954199
 30
0.0
 11
-71.0842980597106759
 21
30.1258224716970631
 31
0.0
  0
LINE
  5
112
100
AcDbEntity
  8
sestava
 62
256
370
-1
 48
1.0
  6
BYLAYER
100
AcDbLine
 10
-71.0842980597106759
 20
30.1258224716970631
 30
0.0
 11
-70.9637347881057394
 21
30.1258224716970631
 31
0.0
  0
LINE
  5
113
100
AcDbEntity
  8
sestava
 62
256
370
-1
 48
1.0
  6
BYLAYER
100
AcDbLine
 10
-70.9637347881057394
 20
30.1258224716970631
 30
0.0
 11
-70.9235470309041034
 21
30.1258224716970631
 31
0.0
  0
LINE
  5
114
100
AcDbEntity
  8
sestava
 62
256
370
-1
 48
1.0
  6
BYLAYER
100
AcDbLine
 10
-70.9235470309041034
 20
30.1258224716970631
 30
0.0
 11
-70.8833592737024532
 21
30.1258224716970631
 31
0.0
  0
LINE
  5
115
100
AcDbEntity
  8
sestava
 62
256
370
-1
 48
1.0
  6
BYLAYER
100
AcDbLine
 10
-70.8833592737024532
 20
30.1258224716970631
 30
0.0
 11
-70.8833592737024532
 21
30.1660102288987133
 31
0.0
  0
LINE
  5
116
100
AcDbEntity
  8
sestava
 62
256
370
-1
 48
1.0
  6
BYLAYER
100
AcDbLine
 10
-70.8833592737024532
 20
30.1660102288987133
 30
0.0
 11
-70.8431715165008029
 21
30.1660102288987133
 31
0.0
  0
LINE
  5
117
100
AcDbEntity
  8
sestava
 62
256
370
-1
 48
1.0
  6
BYLAYER
100
AcDbLine
 10
-70.8431715165008029
 20
30.1660102288987133
 30
0.0
 11
-70.8029837592991669
 21
30.1660102288987133
 31
0.0
  0
LINE
  5
118
100
AcDbEntity
  8
sestava
 62
256
370
-1
 48
1.0
  6
BYLAYER
100
AcDbLine
 10
-70.8029837592991669
 20
30.1660102288987133
 30
0.0
 11
-70.7627960020975166
 21
30.1660102288987133
 31
0.0
  0
LINE
  5
119
100
AcDbEntity
  8
sestava
 62
256
370
-1
 48
1.0
  6
BYLAYER
100
AcDbLine
 10
-70.7627960020975166
 20
30.1660102288987133
 30
0.0
 11
-70.6422327304925801
 21
30.1660102288987133
 31
0.0
  0
LINE
  5
11A
100
AcDbEntity
  8
sestava
 62
256
370
-1
 48
1.0
  6
BYLAYER
100
AcDbLine
 10
-70.6422327304925801
 20
30.1660102288987133
 30
0.0
 11
-70.5216694588876294
 21
30.1660102288987133
 31
0.0
  0
LINE
  5
11B
100
AcDbEntity
  8
sestava
 62
256
370
-1
 48
1.0
  6
BYLAYER
100
AcDbLine
 10
-70.5216694588876294
 20
30.1660102288987133
 30
0.0
 11
-70.4011061872826929
 21
30.1660102288987133
 31
0.0
  0
LINE
  5
11C
100
AcDbEntity
  8
sestava
 62
256
370
-1
 48
1.0
  6
BYLAYER
100
AcDbLine
 10
-70.4011061872826929
 20
30.1660102288987133
 30
0.0
 11
-70.2403551584761203
 21
30.1660102288987133
 31
0.0
  0
LINE
  5
11D
100
AcDbEntity
  8
sestava
 62
256
370
-1
 48
1.0
  6
BYLAYER
100
AcDbLine
 10
-70.2403551584761203
 20
30.1660102288987133
 30
0.0
 11
-70.1197918868711838
 21
30.1660102288987133
 31
0.0
  0
LINE
  5
11E
100
AcDbEntity
  8
sestava
 62
256
370
-1
 48
1.0
  6
BYLAYER
100
AcDbLine
 10
-70.1197918868711838
 20
30.1660102288987133
 30
0.0
 11
-70.0796041296695336
 21
30.1660102288987133
 31
0.0
  0
LINE
  5
11F
100
AcDbEntity
  8
sestava
 62
256
370
-1
 48
1.0
  6
BYLAYER
100
AcDbLine
 10
-70.0796041296695336
 20
30.1660102288987133
 30
0.0
 11
-69.9992286152662331
 21
30.1660102288987133
 31
0.0
  0
LINE
  5
120
100
AcDbEntity
  8
sestava
 62
256
370
-1
 48
1.0
  6
BYLAYER
100
AcDbLine
 10
-69.9992286152662331
 20
30.1660102288987133
 30
0.0
 11
-69.8786653436612966
 21
30.1660102288987133
 31
0.0
  0
LINE
  5
121
100
AcDbEntity
  8
sestava
 62
256
370
-1
 48
1.0
  6
BYLAYER
100
AcDbLine
 10
-69.8786653436612966
 20
30.1660102288987133
 30
0.0
 11
-69.7982898292580103
 21
30.1660102288987133
 31
0.0
  0
LINE
  5
122
100
AcDbEntity
  8
sestava
 62
256
370
-1
 48
1.0
  6
BYLAYER
100
AcDbLine
 10
-69.7982898292580103
 20
30.1660102288987133
 30
0.0
 11
-69.7179143148547098
 21
30.1660102288987133
 31
0.0
  0
LINE
  5
123
100
AcDbEntity
  8
sestava
 62
256
370
-1
 48
1.0
  6
BYLAYER
100
AcDbLine
 10
-69.7179143148547098
 20
30.1660102288987133
 30
0.0
 11
-69.6777265576530738
 21
30.1660102288987133
 31
0.0
  0
LINE
  5
124
100
AcDbEntity
  8
sestava
 62
256
370
-1
 48
1.0
  6
BYLAYER
100
AcDbLine
 10
-69.6777265576530738
 20
30.1660102288987133
 30
0.0
 11
-69.5973510432497733
 21
30.1660102288987133
 31
0.0
  0
LINE
  5
125
100
AcDbEntity
  8
sestava
 62
256
370
-1
 48
1.0
  6
BYLAYER
100
AcDbLine
 10
-69.5973510432497733
 20
30.1660102288987133
 30
0.0
 11
-69.5571632860481373
 21
30.1660102288987133
 31
0.0
  0
LINE
  5
126
100
AcDbEntity
  8
sestava
 62
256
370
-1
 48
1.0
  6
BYLAYER
100
AcDbLine
 10
-69.5571632860481373
 20
30.1660102288987133
 30
0.0
 11
-69.3964122572415505
 21
30.1660102288987133
 31
0.0
  0
LINE
  5
127
100
AcDbEntity
  8
sestava
 62
256
370
-1
 48
1.0
  6
BYLAYER
100
AcDbLine
 10
-69.3964122572415505
 20
30.1660102288987133
 30
0.0
 11
-69.31603674283825
 21
30.1660102288987133
 31
0.0
  0
LINE
  5
128
100
AcDbEntity
  8
sestava
 62
256
370
-1
 48
1.0
  6
BYLAYER
100
AcDbLine
 10
-69.31603674283825
 20
30.1660102288987133
 30
0.0
 11
-69.1954734712333135
 21
30.1660102288987133
 31
0.0
  0
LINE
  5
129
100
AcDbEntity
  8
sestava
 62
256
370
-1
 48
1.0
  6
BYLAYER
100
AcDbLine
 10
-69.1954734712333135
 20
30.1660102288987133
 30
0.0
 11
-69.1150979568300272
 21
30.1660102288987133
 31
0.0
  0
LINE
  5
12A
100
AcDbEntity
  8
sestava
 62
256
370
-1
 48
1.0
  6
BYLAYER
100
AcDbLine
 10
-69.1150979568300272
 20
30.1660102288987133
 30
0.0
 11
-69.0347224424267267
 21
30.1660102288987133
 31
0.0
  0
LINE
  5
12B
100
AcDbEntity
  8
sestava
 62
256
370
-1
 48
1.0
  6
BYLAYER
100
AcDbLine
 10
-69.0347224424267267
 20
30.1660102288987133
 30
0.0
 11
-68.9543469280234405
 21
30.1660102288987133
 31
0.0
  0
LINE
  5
12C
100
AcDbEntity
  8
sestava
 62
256
370
-1
 48
1.0
  6
BYLAYER
100
AcDbLine
 10
-68.9543469280234405
 20
30.1660102288987133
 30
0.0
 11
-68.8739714136201542
 21
30.1660102288987133
 31
0.0
  0
LINE
  5
12D
100
AcDbEntity
  8
sestava
 62
256
370
-1
 48
1.0
  6
BYLAYER
100
AcDbLine
 10
-68.8739714136201542
 20
30.1660102288987133
 30
0.0
 11
-68.8337836564185039
 21
30.1660102288987133
 31
0.0
  0
LINE
  5
12E
100
AcDbEntity
  8
sestava
 62
256
370
-1
 48
1.0
  6
BYLAYER
100
AcDbLine
 10
-68.8337836564185039
 20
30.1660102288987133
 30
0.0
 11
-68.7534081420152177
 21
30.1660102288987133
 31
0.0
  0
LINE
  5
12F
100
AcDbEntity
  8
sestava
 62
256
370
-1
 48
1.0
  6
BYLAYER
100
AcDbLine
 10
-68.7534081420152177
 20
30.1660102288987133
 30
0.0
 11
-68.6730326276119172
 21
30.1660102288987133
 31
0.0
  0
LINE
  5
130
100
AcDbEntity
  8
sestava
 62
256
370
-1
 48
1.0
  6
BYLAYER
100
AcDbLine
 10
-68.6730326276119172
 20
30.1660102288987133
 30
0.0
 11
-68.5524693560069807
 21
30.1660102288987133
 31
0.0
  0
LINE
  5
131
100
AcDbEntity
  8
sestava
 62
256
370
-1
 48
1.0
  6
BYLAYER
100
AcDbLine
 10
-68.5524693560069807
 20
30.1660102288987133
 30
0.0
 11
-68.4720938416036802
 21
30.1660102288987133
 31
0.0
  0
LINE
  5
132
100
AcDbEntity
  8
sestava
 62
256
370
-1
 48
1.0
  6
BYLAYER
100
AcDbLine
 10
-68.4720938416036802
 20
30.1660102288987133
 30
0.0
 11
-68.3515305699987437
 21
30.1660102288987133
 31
0.0
  0
LINE
  5
133
100
AcDbEntity
  8
sestava
 62
256
370
-1
 48
1.0
  6
BYLAYER
100
AcDbLine
 10
-68.3515305699987437
 20
30.1660102288987133
 30
0.0
 11
-68.3113428127971076
 21
30.1660102288987133
 31
0.0
  0
LINE
  5
134
100
AcDbEntity
  8
sestava
 62
256
370
-1
 48
1.0
  6
BYLAYER
100
AcDbLine
 10
-68.3113428127971076
 20
30.1660102288987133
 30
0.0
 11
-68.2711550555954574
 21
30.1660102288987133
 31
0.0
  0
LINE
  5
135
100
AcDbEntity
  8
sestava
 62
256
370
-1
 48
1.0
  6
BYLAYER
100
AcDbLine
 10
-68.2711550555954574
 20
30.1660102288987133
 30
0.0
 11
-68.2309672983938071
 21
30.1660102288987133
 31
0.0
  0
LINE
  5
136
100
AcDbEntity
  8
sestava
 62
256
370
-1
 48
1.0
  6
BYLAYER
100
AcDbLine
 10
-68.2309672983938071
 20
30.1660102288987133
 30
0.0
 11
-68.2309672983938071
 21
30.2061979861003564
 31
0.0
  0
LINE
  5
137
100
AcDbEntity
  8
sestava
 62
256
370
-1
 48
1.0
  6
BYLAYER
100
AcDbLine
 10
-68.2309672983938071
 20
30.2061979861003564
 30
0.0
 11
-68.1907795411921711
 21
30.2061979861003564
 31
0.0
  0
LINE
  5
138
100
AcDbEntity
  8
sestava
 62
256
370
-1
 48
1.0
  6
BYLAYER
100
AcDbLine
 10
-68.1907795411921711
 20
30.2061979861003564
 30
0.0
 11
-68.1505917839905209
 21
30.2061979861003564
 31
0.0
  0
LINE
  5
139
100
AcDbEntity
  8
sestava
 62
256
370
-1
 48
1.0
  6
BYLAYER
100
AcDbLine
 10
-68.1505917839905209
 20
30.2061979861003564
 30
0.0
 11
-68.1104040267888706
 21
30.2463857433020031
 31
0.0
  0
LINE
  5
13A
100
AcDbEntity
  8
sestava
 62
256
370
-1
 48
1.0
  6
BYLAYER
100
AcDbLine
 10
-68.1104040267888706
 20
30.2463857433020031
 30
0.0
 11
-68.0702162695872204
 21
30.2463857433020031
 31
0.0
  0
LINE
  5
13B
100
AcDbEntity
  8
sestava
 62
256
370
-1
 48
1.0
  6
BYLAYER
100
AcDbLine
 10
-68.0702162695872204
 20
30.2463857433020031
 30
0.0
 11
-67.9496529979822839
 21
30.2865735005036498
 31
0.0
  0
LINE
  5
13C
100
AcDbEntity
  8
sestava
 62
256
370
-1
 48
1.0
  6
BYLAYER
100
AcDbLine
 10
-67.9496529979822839
 20
30.2865735005036498
 30
0.0
 11
-67.8692774835789976
 21
30.3669490149069432
 31
0.0
  0
LINE
  5
13D
100
AcDbEntity
  8
sestava
 62
256
370
-1
 48
1.0
  6
BYLAYER
100
AcDbLine
 10
-67.8692774835789976
 20
30.3669490149069432
 30
0.0
 11
-67.7487142119740611
 21
30.4071367721085863
 31
0.0
  0
LINE
  5
13E
100
AcDbEntity
  8
sestava
 62
256
370
-1
 48
1.0
  6
BYLAYER
100
AcDbLine
 10
-67.7487142119740611
 20
30.4071367721085863
 30
0.0
 11
-67.6683386975707606
 21
30.4071367721085863
 31
0.0
  0
LINE
  5
13F
100
AcDbEntity
  8
sestava
 62
256
370
-1
 48
1.0
  6
BYLAYER
100
AcDbLine
 10
-67.6683386975707606
 20
30.4071367721085863
 30
0.0
 11
-67.6281509403691246
 21
30.447324529310233
 31
0.0
  0
LINE
  5
140
100
AcDbEntity
  8
sestava
 62
256
370
-1
 48
1.0
  6
BYLAYER
100
AcDbLine
 10
-67.6281509403691246
 20
30.447324529310233
 30
0.0
 11
-67.5879631831674743
 21
30.447324529310233
 31
0.0
  0
LINE
  5
141
100
AcDbEntity
  8
sestava
 62
256
370
-1
 48
1.0
  6
BYLAYER
100
AcDbLine
 10
-67.5879631831674743
 20
30.447324529310233
 30
0.0
 11
-67.5477754259658241
 21
30.447324529310233
 31
0.0
  0
LINE
  5
142
100
AcDbEntity
  8
sestava
 62
256
370
-1
 48
1.0
  6
BYLAYER
100
AcDbLine
 10
-67.5477754259658241
 20
30.447324529310233
 30
0.0
 11
-67.4673999115625378
 21
30.4875122865118797
 31
0.0
  0
LINE
  5
143
100
AcDbEntity
  8
sestava
 62
256
370
-1
 48
1.0
  6
BYLAYER
100
AcDbLine
 10
-67.4673999115625378
 20
30.4875122865118797
 30
0.0
 11
-67.4272121543608876
 21
30.4875122865118797
 31
0.0
  0
LINE
  5
144
100
AcDbEntity
  8
sestava
 62
256
370
-1
 48
1.0
  6
BYLAYER
100
AcDbLine
 10
-67.4272121543608876
 20
30.4875122865118797
 30
0.0
 11
-67.3468366399575871
 21
30.4875122865118797
 31
0.0
  0
LINE
  5
145
100
AcDbEntity
  8
sestava
 62
256
370
-1
 48
1.0
  6
BYLAYER
100
AcDbLine
 10
-67.3468366399575871
 20
30.4875122865118797
 30
0.0
 11
-67.2664611255543008
 21
30.5277000437135229
 31
0.0
  0
LINE
  5
146
100
AcDbEntity
  8
sestava
 62
256
370
-1
 48
1.0
  6
BYLAYER
100
AcDbLine
 10
-67.2664611255543008
 20
30.5277000437135229
 30
0.0
 11
-67.1860856111510145
 21
30.5277000437135229
 31
0.0
  0
LINE
  5
147
100
AcDbEntity
  8
sestava
 62
256
370
-1
 48
1.0
  6
BYLAYER
100
AcDbLine
 10
-67.1860856111510145
 20
30.5277000437135229
 30
0.0
 11
-67.105710096747714
 21
30.5277000437135229
 31
0.0
  0
LINE
  5
148
100
AcDbEntity
  8
sestava
 62
256
370
-1
 48
1.0
  6
BYLAYER
100
AcDbLine
 10
-67.105710096747714
 20
30.5277000437135229
 30
0.0
 11
-67.0253345823444278
 21
30.5277000437135229
 31
0.0
  0
LINE
  5
149
100
AcDbEntity
  8
sestava
 62
256
370
-1
 48
1.0
  6
BYLAYER
100
AcDbLine
 10
-67.0253345823444278
 20
30.5277000437135229
 30
0.0
 11
-66.9449590679411415
 21
30.5678878009151731
 31
0.0
  0
LINE
  5
14A
100
AcDbEntity
  8
sestava
 62
256
370
-1
 48
1.0
  6
BYLAYER
100
AcDbLine
 10
-66.9449590679411415
 20
30.5678878009151731
 30
0.0
 11
-66.824395796336205
 21
30.5678878009151731
 31
0.0
  0
LINE
  5
14B
100
AcDbEntity
  8
sestava
 62
256
370
-1
 48
1.0
  6
BYLAYER
100
AcDbLine
 10
-66.824395796336205
 20
30.5678878009151731
 30
0.0
 11
-66.7038325247312542
 21
30.5678878009151731
 31
0.0
  0
LINE
  5
14C
100
AcDbEntity
  8
sestava
 62
256
370
-1
 48
1.0
  6
BYLAYER
100
AcDbLine
 10
-66.7038325247312542
 20
30.5678878009151731
 30
0.0
 11
-66.5832692531263177
 21
30.5678878009151731
 31
0.0
  0
LINE
  5
14D
100
AcDbEntity
  8
sestava
 62
256
370
-1
 48
1.0
  6
BYLAYER
100
AcDbLine
 10
-66.5832692531263177
 20
30.5678878009151731
 30
0.0
 11
-66.5028937387230314
 21
30.5678878009151731
 31
0.0
  0
LINE
  5
14E
100
AcDbEntity
  8
sestava
 62
256
370
-1
 48
1.0
  6
BYLAYER
100
AcDbLine
 10
-66.5028937387230314
 20
30.5678878009151731
 30
0.0
 11
-66.3823304671180949
 21
30.5678878009151731
 31
0.0
  0
LINE
  5
14F
100
AcDbEntity
  8
sestava
 62
256
370
-1
 48
1.0
  6
BYLAYER
100
AcDbLine
 10
-66.3823304671180949
 20
30.5678878009151731
 30
0.0
 11
-66.3019549527147944
 21
30.5678878009151731
 31
0.0
  0
LINE
  5
150
100
AcDbEntity
  8
sestava
 62
256
370
-1
 48
1.0
  6
BYLAYER
100
AcDbLine
 10
-66.3019549527147944
 20
30.5678878009151731
 30
0.0
 11
-66.1010161667065717
 21
30.5678878009151731
 31
0.0
  0
LINE
  5
151
100
AcDbEntity
  8
sestava
 62
256
370
-1
 48
1.0
  6
BYLAYER
100
AcDbLine
 10
-66.1010161667065717
 20
30.5678878009151731
 30
0.0
 11
-65.9804528951016209
 21
30.5678878009151731
 31
0.0
  0
LINE
  5
152
100
AcDbEntity
  8
sestava
 62
256
370
-1
 48
1.0
  6
BYLAYER
100
AcDbLine
 10
-65.9804528951016209
 20
30.5678878009151731
 30
0.0
 11
-65.9000773806983347
 21
30.5678878009151731
 31
0.0
  0
LINE
  5
153
100
AcDbEntity
  8
sestava
 62
256
370
-1
 48
1.0
  6
BYLAYER
100
AcDbLine
 10
-65.9000773806983347
 20
30.5678878009151731
 30
0.0
 11
-65.8598896234966844
 21
30.5678878009151731
 31
0.0
  0
LINE
  5
154
100
AcDbEntity
  8
sestava
 62
256
370
-1
 48
1.0
  6
BYLAYER
100
AcDbLine
 10
-65.8598896234966844
 20
30.5678878009151731
 30
0.0
 11
-65.7795141090933981
 21
30.5678878009151731
 31
0.0
  0
LINE
  5
155
100
AcDbEntity
  8
sestava
 62
256
370
-1
 48
1.0
  6
BYLAYER
100
AcDbLine
 10
-65.7795141090933981
 20
30.5678878009151731
 30
0.0
 11
-65.6991385946901119
 21
30.5678878009151731
 31
0.0
  0
LINE
  5
156
100
AcDbEntity
  8
sestava
 62
256
370
-1
 48
1.0
  6
BYLAYER
100
AcDbLine
 10
-65.6991385946901119
 20
30.5678878009151731
 30
0.0
 11
-65.6187630802868114
 21
30.5678878009151731
 31
0.0
  0
LINE
  5
157
100
AcDbEntity
  8
sestava
 62
256
370
-1
 48
1.0
  6
BYLAYER
100
AcDbLine
 10
-65.6187630802868114
 20
30.5678878009151731
 30
0.0
 11
-65.5383875658835251
 21
30.5678878009151731
 31
0.0
  0
LINE
  5
158
100
AcDbEntity
  8
sestava
 62
256
370
-1
 48
1.0
  6
BYLAYER
100
AcDbLine
 10
-65.5383875658835251
 20
30.5678878009151731
 30
0.0
 11
-65.4580120514802246
 21
30.5678878009151731
 31
0.0
  0
LINE
  5
159
100
AcDbEntity
  8
sestava
 62
256
370
-1
 48
1.0
  6
BYLAYER
100
AcDbLine
 10
-65.4580120514802246
 20
30.5678878009151731
 30
0.0
 11
-65.2972610226736379
 21
30.5678878009151731
 31
0.0
  0
LINE
  5
15A
100
AcDbEntity
  8
sestava
 62
256
370
-1
 48
1.0
  6
BYLAYER
100
AcDbLine
 10
-65.2972610226736379
 20
30.5678878009151731
 30
0.0
 11
-65.2168855082703516
 21
30.5678878009151731
 31
0.0
  0
LINE
  5
15B
100
AcDbEntity
  8
sestava
 62
256
370
-1
 48
1.0
  6
BYLAYER
100
AcDbLine
 10
-65.2168855082703516
 20
30.5678878009151731
 30
0.0
 11
-65.0963222366654151
 21
30.5678878009151731
 31
0.0
  0
LINE
  5
15C
100
AcDbEntity
  8
sestava
 62
256
370
-1
 48
1.0
  6
BYLAYER
100
AcDbLine
 10
-65.0963222366654151
 20
30.5678878009151731
 30
0.0
 11
-65.0561344794637648
 21
30.5678878009151731
 31
0.0
  0
LINE
  5
15D
100
AcDbEntity
  8
sestava
 62
256
370
-1
 48
1.0
  6
BYLAYER
100
AcDbLine
 10
-65.0561344794637648
 20
30.5678878009151731
 30
0.0
 11
-64.9757589650604785
 21
30.5678878009151731
 31
0.0
  0
LINE
  5
15E
100
AcDbEntity
  8
sestava
 62
256
370
-1
 48
1.0
  6
BYLAYER
100
AcDbLine
 10
-64.9757589650604785
 20
30.5678878009151731
 30
0.0
 11
-64.9355712078588283
 21
30.5678878009151731
 31
0.0
  0
LINE
  5
15F
100
AcDbEntity
  8
sestava
 62
256
370
-1
 48
1.0
  6
BYLAYER
100
AcDbLine
 10
-64.9355712078588283
 20
30.5678878009151731
 30
0.0
 11
-64.855195693455542
 21
30.6080755581168162
 31
0.0
  0
LINE
  5
160
100
AcDbEntity
  8
sestava
 62
256
370
-1
 48
1.0
  6
BYLAYER
100
AcDbLine
 10
-64.855195693455542
 20
30.6080755581168162
 30
0.0
 11
-64.8150079362538918
 21
30.6080755581168162
 31
0.0
  0
LINE
  5
161
100
AcDbEntity
  8
sestava
 62
256
370
-1
 48
1.0
  6
BYLAYER
100
AcDbLine
 10
-64.8150079362538918
 20
30.6080755581168162
 30
0.0
 11
-64.6944446646489553
 21
30.6482633153184629
 31
0.0
  0
LINE
  5
162
100
AcDbEntity
  8
sestava
 62
256
370
-1
 48
1.0
  6
BYLAYER
100
AcDbLine
 10
-64.6944446646489553
 20
30.6482633153184629
 30
0.0
 11
-64.5738813930440188
 21
30.6884510725201096
 31
0.0
  0
LINE
  5
163
100
AcDbEntity
  8
sestava
 62
256
370
-1
 48
1.0
  6
BYLAYER
100
AcDbLine
 10
-64.5738813930440188
 20
30.6884510725201096
 30
0.0
 11
-64.5336936358423685
 21
30.6884510725201096
 31
0.0
  0
LINE
  5
164
100
AcDbEntity
  8
sestava
 62
256
370
-1
 48
1.0
  6
BYLAYER
100
AcDbLine
 10
-64.5336936358423685
 20
30.6884510725201096
 30
0.0
 11
-64.4533181214390822
 21
30.7286388297217563
 31
0.0
  0
LINE
  5
165
100
AcDbEntity
  8
sestava
 62
256
370
-1
 48
1.0
  6
BYLAYER
100
AcDbLine
 10
-64.4533181214390822
 20
30.7286388297217563
 30
0.0
 11
-64.3729426070357817
 21
30.7286388297217563
 31
0.0
  0
LINE
  5
166
100
AcDbEntity
  8
sestava
 62
256
370
-1
 48
1.0
  6
BYLAYER
100
AcDbLine
 10
-64.3729426070357817
 20
30.7286388297217563
 30
0.0
 11
-64.3327548498341457
 21
30.7286388297217563
 31
0.0
  0
LINE
  5
167
100
AcDbEntity
  8
sestava
 62
256
370
-1
 48
1.0
  6
BYLAYER
100
AcDbLine
 10
-64.3327548498341457
 20
30.7286388297217563
 30
0.0
 11
-64.2925670926324955
 21
30.7286388297217563
 31
0.0
  0
LINE
  5
168
100
AcDbEntity
  8
sestava
 62
256
370
-1
 48
1.0
  6
BYLAYER
100
AcDbLine
 10
-64.2925670926324955
 20
30.7286388297217563
 30
0.0
 11
-64.2925670926324955
 21
30.768826586923403
 31
0.0
  0
LINE
  5
169
100
AcDbEntity
  8
sestava
 62
256
370
-1
 48
1.0
  6
BYLAYER
100
AcDbLine
 10
-64.2925670926324955
 20
30.768826586923403
 30
0.0
 11
-64.0
 21
30.7993693557981523
 31
0.0
  0
LINE
  5
16A
100
AcDbEntity
  8
0
 62
256
370
-1
 48
1.0
  6
BYLAYER
100
AcDbLine
 10
-70.0
 20
27.0
 30
0.0
 11
-70.0
 21
21.0
 31
0.0
  0
LINE
  5
16B
100
AcDbEntity
  8
0
 62
256
370
-1
 48
1.0
  6
BYLAYER
100
AcDbLine
 10
-70.0
 20
24.0
 30
0.0
 11
-38.0
 21
24.0
 31
0.0
  0
LINE
  5
16C
100
AcDbEntity
  8
0
 62
256
370
-1
 48
1.0
  6
BYLAYER
100
AcDbLine
 10
-32.0
 20
24.0
 30
0.0
 11
-20.0
 21
24.0
 31
0.0
  0
LINE
  5
16D
100
AcDbEntity
  8
0
 62
256
370
-1
 48
1.0
  6
BYLAYER
100
AcDbLine
 10
-20.0
 20
24.0
 30
0.0
 11
-20.0
 21
19.9999999999999964
 31
0.0
  0
MTEXT
  5
16E
100
AcDbEntity
  8
nevid
 62
252
420
10526884
370
-1
 48
1.0
  6
BYLAYER
100
AcDbMText
 10
-79.0
 20
26.0
 30
0.0
 40
3.5
 41
0.0
 71
3
 72
1
  1
\fISOCPEUR|b0|i0|c0|p0;Bat. korito\P6,0 V\P4,5 V\P3,0 V\P1,5 V
  7
textstyle0
 50
360.0
 73
2
 44
1.0
  0
DIMENSION
  5
16F
100
AcDbEntity
  8
kot
 62
256
370
-1
 48
1.0
  6
BYLAYER
100
AcDbDimension
 10
-7.0
 20
-4.9999999999999964
 30
0.0
 11
-8.875
 21
-2.4999999999999978
 31
0.0
 70
0
 71
8
 72
2
 74
0
 75
0
 41
1.0
 42
0.0
  1
x
  3
Standard
100
AcDbAlignedDimension
 13
-1.0000000000000038
 23
-4.9999999999999964
 33
0.0
 14
-4.0
 24
0.0
 34
0.0
 50
90.0
100
AcDbRotatedDimension
1001
ACAD
1000
DSTYLE
1002
{
1070
144
1040
1.0
1070
40
1040
1.0
1002
}
  0
DIMENSION
  5
170
100
AcDbEntity
  8
kot
 62
256
370
-1
 48
1.0
  6
BYLAYER
100
AcDbDimension
 10
-7.0
 20
0.0
 30
0.0
 11
-8.875
 21
7.0
 31
0.0
 70
0
 71
8
 72
2
 74
0
 75
0
 41
1.0
 42
0.0
  1
h
  3
Standard
100
AcDbAlignedDimension
 13
-3.0
 23
0.0
 33
0.0
 14
-2.0
 24
14.0
 34
0.0
 50
90.0
100
AcDbRotatedDimension
1001
ACAD
1000
DSTYLE
1002
{
1070
144
1040
1.0
1070
40
1040
1.0
1002
}
  0
MTEXT
  5
171
100
AcDbEntity
  8
kot
 62
252
420
10526884
370
-1
 48
1.0
  6
BYLAYER
100
AcDbMText
 10
20.0
 20
20.0
 30
0.0
 40
3.5
 41
0.0
 71
7
 72
1
  1
\fISOCPEUR|b0|i0|c0|p0;Jermenica
  7
textstyle5
 50
0.0
 73
2
 44
1.0
  0
MTEXT
  5
172
100
AcDbEntity
  8
kot
 62
252
420
10526884
370
-1
 48
1.0
  6
BYLAYER
100
AcDbMText
 10
20.0
 20
10.0
 30
0.0
 40
3.5
 41
0.0
 71
7
 72
1
  1
\fISOCPEUR|b0|i0|c0|p0;Ute\U+017e\P[0 .. 1kg]
  7
textstyle4
 50
0.0
 73
2
 44
1.0
  0
LEADER
  5
173
100
AcDbEntity
  8
kot
 62
252
420
10526884
370
-1
 48
1.0
  6
BYLAYER
100
AcDbLeader
  3
Standard
 71
1
 72
0
 73
3
 74
0
 75
0
 40
1.0
 41
10.0
 76
3
 10
3.0
 20
24.0
 10
10.0
 20
21.0
 10
19.0
 20
21.0
1001
ACAD
1000
DSTYLE
1002
{
1070
40
1040
1.0
1002
}
  0
LEADER
  5
174
100
AcDbEntity
  8
kot
 62
252
420
10526884
370
-1
 48
1.0
  6
BYLAYER
100
AcDbLeader
  3
Standard
 71
1
 72
0
 73
3
 74
0
 75
0
 40
1.0
 41
10.0
 76
3
 10
3.0
 20
2.0
 10
10.0
 20
17.0
 10
19.0
 20
17.0
1001
ACAD
1000
DSTYLE
1002
{
1070
40
1040
1.0
1002
}
  0
MTEXT
  5
175
100
AcDbEntity
  8
kot
 62
252
420
10526884
370
-1
 48
1.0
  6
BYLAYER
100
AcDbMText
 10
20.0
 20
27.0
 30
0.0
 40
3.5
 41
0.0
 71
7
 72
1
  1
\fISOCPEUR|b0|i0|c0|p0;A\S^EL; = U I t
  7
textstyle7
 50
0.0
 73
2
 44
1.0
  0
MTEXT
  5
176
100
AcDbEntity
  8
kot
 62
252
420
10526884
370
-1
 48
1.0
  6
BYLAYER
100
AcDbMText
 10
20.0
 20
-0.0000000000000036
 30
0.0
 40
3.5
 41
0.0
 71
7
 72
1
  1
\fISOCPEUR|b0|i0|c0|p0;A\S^MEH; = m g h
  7
textstyle6
 50
0.0
 73
2
 44
1.0
  0
ENDSEC
  0
SECTION
  2
OBJECTS
  0
DICTIONARY
  5
C
100
AcDbDictionary
280
0
281
1
  3
ACAD_GROUP
350
D
  3
ACAD_LAYOUT
350
1A
  3
ACAD_MLINESTYLE
350
17
  3
ACAD_PLOTSETTINGS
350
19
  3
ACAD_PLOTSTYLENAME
350
E
  3
AcDbVariableDictionary
350
177
  3
QCAD_OBJECTS
350
178
  0
DICTIONARY
  5
D
100
AcDbDictionary
280
0
281
1
  0
ACDBDICTIONARYWDFLT
  5
E
100
AcDbDictionary
281
1
  3
Normal
350
F
100
AcDbDictionaryWithDefault
340
F
  0
ACDBPLACEHOLDER
  5
F
  0
DICTIONARY
  5
17
100
AcDbDictionary
280
0
281
1
  3
Standard
350
18
  0
MLINESTYLE
  5
18
100
AcDbMlineStyle
  2
STANDARD
 70
0
  3

 62
256
 51
90.0
 52
90.0
 71
2
 49
0.5
 62
256
  6
BYLAYER
 49
-0.5
 62
256
  6
BYLAYER
  0
DICTIONARY
  5
19
100
AcDbDictionary
280
0
281
1
  0
DICTIONARY
  5
1A
100
AcDbDictionary
281
1
  3
Layout1
350
1E
  3
Layout2
350
26
  3
Model
350
22
  0
LAYOUT
  5
1E
100
AcDbPlotSettings
  1

  2
none_device
  4

  6

 40
0.0
 41
0.0
 42
0.0
 43
0.0
 44
0.0
 45
0.0
 46
0.0
 47
0.0
 48
0.0
 49
0.0
140
0.0
141
0.0
142
1.0
143
1.0
 70
688
 72
0
 73
0
 74
5
  7

 75
16
147
1.0
148
0.0
149
0.0
100
AcDbLayout
  1
Layout1
 70
1
 71
1
 10
0.0
 20
0.0
 11
420.0
 21
297.0
 12
0.0
 22
0.0
 32
0.0
 14
100000000000000000000.0
 24
100000000000000000000.0
 34
100000000000000000000.0
 15
-100000000000000000000.0
 25
-100000000000000000000.0
 35
-100000000000000000000.0
146
0.0
 13
0.0
 23
0.0
 33
0.0
 16
1.0
 26
0.0
 36
0.0
 17
0.0
 27
1.0
 37
0.0
 76
0
330
1B
  0
LAYOUT
  5
22
100
AcDbPlotSettings
  1

  2
none_device
  4

  6

 40
0.0
 41
0.0
 42
0.0
 43
0.0
 44
0.0
 45
0.0
 46
0.0
 47
0.0
 48
0.0
 49
0.0
140
0.0
141
0.0
142
1.0
143
1.0
 70
1712
 72
0
 73
0
 74
0
  7

 75
0
147
1.0
148
0.0
149
0.0
100
AcDbLayout
  1
Model
 70
1
 71
0
 10
0.0
 20
0.0
 11
12.0
 21
9.0
 12
0.0
 22
0.0
 32
0.0
 14
0.0
 24
0.0
 34
0.0
 15
0.0
 25
0.0
 35
0.0
146
0.0
 13
0.0
 23
0.0
 33
0.0
 16
1.0
 26
0.0
 36
0.0
 17
0.0
 27
1.0
 37
0.0
 76
0
330
1F
  0
LAYOUT
  5
26
100
AcDbPlotSettings
  1

  2
none_device
  4

  6

 40
0.0
 41
0.0
 42
0.0
 43
0.0
 44
0.0
 45
0.0
 46
0.0
 47
0.0
 48
0.0
 49
0.0
140
0.0
141
0.0
142
1.0
143
1.0
 70
688
 72
0
 73
0
 74
5
  7

 75
16
147
1.0
148
0.0
149
0.0
100
AcDbLayout
  1
Layout2
 70
1
 71
2
 10
0.0
 20
0.0
 11
12.0
 21
9.0
 12
0.0
 22
0.0
 32
0.0
 14
0.0
 24
0.0
 34
0.0
 15
0.0
 25
0.0
 35
0.0
146
0.0
 13
0.0
 23
0.0
 33
0.0
 16
1.0
 26
0.0
 36
0.0
 17
0.0
 27
1.0
 37
0.0
 76
0
330
23
  0
DICTIONARY
  5
177
100
AcDbDictionary
281
1
  3
DIMASSOC
350
17A
  3
HIDETEXT
350
179
  0
DICTIONARYVAR
  5
179
100
DictionaryVariables
280
0
  1
2
  0
DICTIONARYVAR
  5
17A
100
DictionaryVariables
280
0
  1
1
  0
DICTIONARY
  5
178
100
AcDbDictionary
281
1
  3
ColorSettings/BackgroundColor
350
17B
  3
ColorSettings/ColorMode
350
17C
  3
Grid/DisplayGrid00
350
17D
  3
Grid/DisplayGrid01
350
17E
  3
Grid/DisplayGrid02
350
17F
  3
Grid/DisplayGrid03
350
180
  3
Grid/GridSpacingX00
350
181
  3
Grid/GridSpacingX01
350
182
  3
Grid/GridSpacingX02
350
183
  3
Grid/GridSpacingX03
350
184
  3
Grid/GridSpacingY00
350
185
  3
Grid/GridSpacingY01
350
186
  3
Grid/GridSpacingY02
350
187
  3
Grid/GridSpacingY03
350
188
  3
Grid/IsometricGrid00
350
189
  3
Grid/IsometricGrid01
350
18A
  3
Grid/IsometricGrid02
350
18B
  3
Grid/IsometricGrid03
350
18C
  3
Grid/IsometricProjection00
350
18D
  3
Grid/IsometricProjection01
350
18E
  3
Grid/IsometricProjection02
350
18F
  3
Grid/IsometricProjection03
350
190
  3
Grid/MetaGridSpacingX00
350
191
  3
Grid/MetaGridSpacingX01
350
192
  3
Grid/MetaGridSpacingX02
350
193
  3
Grid/MetaGridSpacingX03
350
194
  3
Grid/MetaGridSpacingY00
350
195
  3
Grid/MetaGridSpacingY01
350
196
  3
Grid/MetaGridSpacingY02
350
197
  3
Grid/MetaGridSpacingY03
350
198
  3
MultiPageSettings/Columns
350
199
  3
MultiPageSettings/GlueMarginsBottom
350
19A
  3
MultiPageSettings/GlueMarginsLeft
350
19B
  3
MultiPageSettings/GlueMarginsRight
350
19C
  3
MultiPageSettings/GlueMarginsTop
350
19D
  3
MultiPageSettings/PrintCropMarks
350
19E
  3
MultiPageSettings/Rows
350
19F
  3
PageSettings/OffsetX
350
1A0
  3
PageSettings/OffsetY
350
1A1
  3
PageSettings/PageOrientation
350
1A2
  3
PageSettings/PaperHeight
350
1A3
  3
PageSettings/PaperWidth
350
1A4
  3
PageSettings/Scale
350
1A5
  3
PageSettings/ShowPaperBorders
350
1A6
  3
PageTagSettings/EnablePageTags
350
1A7
  3
PageTagSettings/TagAlignment
350
1A8
  3
PageTagSettings/TagFont
350
1A9
  3
PageTagSettings/TagPosition
350
1AA
  3
QCADVersion
350
1AB
  3
UnitSettings/PaperUnit
350
1AC
  3
ViewportCenter
350
1AD
  3
ViewportHeight
350
1AE
  3
ViewportWidth
350
1AF
  0
XRECORD
  5
17B
330
178
100
AcDbXrecord
280
1
1000
White
  0
XRECORD
  5
17C
330
178
100
AcDbXrecord
280
1
1000
FullColor
  0
XRECORD
  5
17D
330
178
100
AcDbXrecord
280
1
290
1
  0
XRECORD
  5
17E
330
178
100
AcDbXrecord
280
1
290
1
  0
XRECORD
  5
17F
330
178
100
AcDbXrecord
280
1
290
1
  0
XRECORD
  5
180
330
178
100
AcDbXrecord
280
1
290
1
  0
XRECORD
  5
181
330
178
100
AcDbXrecord
280
1
1000
auto
  0
XRECORD
  5
182
330
178
100
AcDbXrecord
280
1
1000
auto
  0
XRECORD
  5
183
330
178
100
AcDbXrecord
280
1
1000
auto
  0
XRECORD
  5
184
330
178
100
AcDbXrecord
280
1
1000
auto
  0
XRECORD
  5
185
330
178
100
AcDbXrecord
280
1
1000
auto
  0
XRECORD
  5
186
330
178
100
AcDbXrecord
280
1
1000
auto
  0
XRECORD
  5
187
330
178
100
AcDbXrecord
280
1
1000
auto
  0
XRECORD
  5
188
330
178
100
AcDbXrecord
280
1
1000
auto
  0
XRECORD
  5
189
330
178
100
AcDbXrecord
280
1
290
0
  0
XRECORD
  5
18A
330
178
100
AcDbXrecord
280
1
290
0
  0
XRECORD
  5
18B
330
178
100
AcDbXrecord
280
1
290
0
  0
XRECORD
  5
18C
330
178
100
AcDbXrecord
280
1
290
0
  0
XRECORD
  5
18D
330
178
100
AcDbXrecord
280
1
 90
65537
  0
XRECORD
  5
18E
330
178
100
AcDbXrecord
280
1
 90
65537
  0
XRECORD
  5
18F
330
178
100
AcDbXrecord
280
1
 90
65537
  0
XRECORD
  5
190
330
178
100
AcDbXrecord
280
1
 90
65537
  0
XRECORD
  5
191
330
178
100
AcDbXrecord
280
1
1000
auto
  0
XRECORD
  5
192
330
178
100
AcDbXrecord
280
1
1000
auto
  0
XRECORD
  5
193
330
178
100
AcDbXrecord
280
1
1000
auto
  0
XRECORD
  5
194
330
178
100
AcDbXrecord
280
1
1000
auto
  0
XRECORD
  5
195
330
178
100
AcDbXrecord
280
1
1000
auto
  0
XRECORD
  5
196
330
178
100
AcDbXrecord
280
1
1000
auto
  0
XRECORD
  5
197
330
178
100
AcDbXrecord
280
1
1000
auto
  0
XRECORD
  5
198
330
178
100
AcDbXrecord
280
1
1000
auto
  0
XRECORD
  5
199
330
178
100
AcDbXrecord
280
1
 90
1
  0
XRECORD
  5
19A
330
178
100
AcDbXrecord
280
1
 40
10.0
  0
XRECORD
  5
19B
330
178
100
AcDbXrecord
280
1
 40
10.0
  0
XRECORD
  5
19C
330
178
100
AcDbXrecord
280
1
 40
10.0
  0
XRECORD
  5
19D
330
178
100
AcDbXrecord
280
1
 40
10.0
  0
XRECORD
  5
19E
330
178
100
AcDbXrecord
280
1
290
0
  0
XRECORD
  5
19F
330
178
100
AcDbXrecord
280
1
 90
1
  0
XRECORD
  5
1A0
330
178
100
AcDbXrecord
280
1
 40
0.0
  0
XRECORD
  5
1A1
330
178
100
AcDbXrecord
280
1
 40
0.0
  0
XRECORD
  5
1A2
330
178
100
AcDbXrecord
280
1
1000
Portrait
  0
XRECORD
  5
1A3
330
178
100
AcDbXrecord
280
1
 40
297.0
  0
XRECORD
  5
1A4
330
178
100
AcDbXrecord
280
1
 40
210.0
  0
XRECORD
  5
1A5
330
178
100
AcDbXrecord
280
1
1000
1:1
  0
XRECORD
  5
1A6
330
178
100
AcDbXrecord
280
1
290
1
  0
XRECORD
  5
1A7
330
178
100
AcDbXrecord
280
1
290
0
  0
XRECORD
  5
1A8
330
178
100
AcDbXrecord
280
1
1000
Inside
  0
XRECORD
  5
1A9
330
178
100
AcDbXrecord
280
1
1000
Arial,10,-1,5,50,0,0,0,0,0
  0
XRECORD
  5
1AA
330
178
100
AcDbXrecord
280
1
1000
TopLeft
  0
XRECORD
  5
1AB
330
178
100
AcDbXrecord
280
1
1000
3.26.2
  0
XRECORD
  5
1AC
330
178
100
AcDbXrecord
280
1
 90
4
  0
XRECORD
  5
1AE
330
178
100
AcDbXrecord
280
1
 40
100.7999999999999972
  0
XRECORD
  5
1AF
330
178
100
AcDbXrecord
280
1
 40
196.5599999999999739
  0
ENDSEC
  0
EOF
