999
dxflib 3.17.0.0
  0
SECTION
  2
HEADER
  9
$ACADVER
  1
AC1015
  9
$HANDSEED
  5
FFFF
  9
$DIMADEC
 70
0
  9
$DIMASZ
 40
2.5
  9
$DIMAUNIT
 70
0
  9
$DIMAZIN
 70
2
  9
$DIMDEC
 70
4
  9
$DIMDLI
 40
5.0
  9
$DIMDSEP
 70
46
  9
$DIMEXE
 40
1.25
  9
$DIMEXO
 40
0.625
  9
$DIMGAP
 40
0.625
  9
$DIMLUNIT
 70
2
  9
$DIMSCALE
 40
1.0
  9
$DIMTSZ
 40
0.0
  9
$DIMTXT
 40
2.5
  9
$DIMZIN
 70
8
  9
$DWGCODEPAGE
  3
ANSI_1252
  9
$INSUNITS
 70
5
  9
$LTSCALE
 40
1.0
  9
$MAXACTVP
 70
64
  9
$MEASUREMENT
 70
1
  9
$MIRRTEXT
 70
0
  9
$PDMODE
 70
0
  9
$PDSIZE
 40
0.0
  0
ENDSEC
  0
SECTION
  2
TABLES
  0
TABLE
  2
VPORT
  5
8
100
AcDbSymbolTable
 70
1
  0
VPORT
  5
30
100
AcDbSymbolTableRecord
100
AcDbViewportTableRecord
  2
*Active
 70
0
 10
0.0
 20
0.0
 11
1.0
 21
1.0
 12
286.3055555555554861
 22
148.5
 13
0.0
 23
0.0
 14
10.0
 24
10.0
 15
10.0
 25
10.0
 16
0.0
 26
0.0
 36
1.0
 17
0.0
 27
0.0
 37
0.0
 40
297.0
 41
1.92798353909465
 42
50.0
 43
0.0
 44
0.0
 50
0.0
 51
0.0
 71
0
 72
100
 73
1
 74
3
 75
1
 76
1
 77
0
 78
0
281
0
 65
1
110
0.0
120
0.0
130
0.0
111
1.0
121
0.0
131
0.0
112
0.0
122
1.0
132
0.0
 79
0
146
0.0
  0
ENDTAB
  0
TABLE
  2
LTYPE
  5
5
100
AcDbSymbolTable
 70
41
  0
LTYPE
  5
16
100
AcDbSymbolTableRecord
100
AcDbLinetypeTableRecord
  2
Continuous
 70
0
  3
Solid line
 72
65
 73
0
 40
0.0
  0
LTYPE
  5
31
100
AcDbSymbolTableRecord
100
AcDbLinetypeTableRecord
  2
DIVIDEX2
 70
0
  3
Divide (2x) ________  .  .  ________  .  .  _
 72
65
 73
6
 40
63.5
 49
25.3999999999999986
 74
0
 49
-12.6999999999999993
 74
0
 49
0.0
 74
0
 49
-12.6999999999999993
 74
0
 49
0.0
 74
0
 49
-12.6999999999999993
 74
0
  0
LTYPE
  5
32
100
AcDbSymbolTableRecord
100
AcDbLinetypeTableRecord
  2
CENTER
 70
0
  3
Center ____ _ ____ _ ____ _ ____ _ ____ _ ____
 72
65
 73
4
 40
50.8000000000000043
 49
31.75
 74
0
 49
-6.3499999999999996
 74
0
 49
6.3499999999999996
 74
0
 49
-6.3499999999999996
 74
0
  0
LTYPE
  5
33
100
AcDbSymbolTableRecord
100
AcDbLinetypeTableRecord
  2
DIVIDE2
 70
0
  3
Divide (.5x) __..__..__..__..__..__..__..__.._
 72
65
 73
6
 40
15.875
 49
6.3499999999999996
 74
0
 49
-3.1749999999999998
 74
0
 49
0.0
 74
0
 49
-3.1749999999999998
 74
0
 49
0.0
 74
0
 49
-3.1749999999999998
 74
0
  0
LTYPE
  5
34
100
AcDbSymbolTableRecord
100
AcDbLinetypeTableRecord
  2
ACAD_ISO06W100
 70
0
  3
ISO long-dash triple-dot ____ ... ____ ... ____
 72
65
 73
8
 40
36.0
 49
24.0
 74
0
 49
-3.0
 74
0
 49
0.0
 74
0
 49
-3.0
 74
0
 49
0.0
 74
0
 49
-3.0
 74
0
 49
0.0
 74
0
 49
-3.0
 74
0
  0
LTYPE
  5
35
100
AcDbSymbolTableRecord
100
AcDbLinetypeTableRecord
  2
ACAD_ISO02W100
 70
0
  3
ISO dash __ __ __ __ __ __ __ __ __ __ __ __ __
 72
65
 73
2
 40
15.0
 49
12.0
 74
0
 49
-3.0
 74
0
  0
LTYPE
  5
36
100
AcDbSymbolTableRecord
100
AcDbLinetypeTableRecord
  2
CENTER2
 70
0
  3
Center (.5x) ___ _ ___ _ ___ _ ___ _ ___ _ ___
 72
65
 73
4
 40
28.5750000000000028
 49
19.0500000000000007
 74
0
 49
-3.1749999999999998
 74
0
 49
3.1749999999999998
 74
0
 49
-3.1749999999999998
 74
0
  0
LTYPE
  5
37
100
AcDbSymbolTableRecord
100
AcDbLinetypeTableRecord
  2
DASHDOT2
 70
0
  3
Dash dot (.5x) _._._._._._._._._._._._._._._.
 72
65
 73
4
 40
12.6999999999999993
 49
6.3499999999999996
 74
0
 49
-3.1749999999999998
 74
0
 49
0.0
 74
0
 49
-3.1749999999999998
 74
0
  0
LTYPE
  5
38
100
AcDbSymbolTableRecord
100
AcDbLinetypeTableRecord
  2
ACAD_ISO04W100
 70
0
  3
ISO long-dash dot ____ . ____ . ____ . ____ . _
 72
65
 73
4
 40
30.0
 49
24.0
 74
0
 49
-3.0
 74
0
 49
0.0
 74
0
 49
-3.0
 74
0
  0
LTYPE
  5
39
100
AcDbSymbolTableRecord
100
AcDbLinetypeTableRecord
  2
DASHEDX2
 70
0
  3
Dashed (2x) ____  ____  ____  ____  ____  ___
 72
65
 73
2
 40
38.0999999999999943
 49
25.3999999999999986
 74
0
 49
-12.6999999999999993
 74
0
  0
LTYPE
  5
3A
100
AcDbSymbolTableRecord
100
AcDbLinetypeTableRecord
  2
DASHED
 70
0
  3
Dashed __ __ __ __ __ __ __ __ __ __ __ __ __ _
 72
65
 73
2
 40
19.0499999999999972
 49
12.6999999999999993
 74
0
 49
-6.3499999999999996
 74
0
  0
LTYPE
  5
3B
100
AcDbSymbolTableRecord
100
AcDbLinetypeTableRecord
  2
ACAD_ISO13W100
 70
0
  3
ISO double-dash double-dot __ __ . . __ __ . . _
 72
65
 73
8
 40
36.0
 49
12.0
 74
0
 49
-3.0
 74
0
 49
12.0
 74
0
 49
-3.0
 74
0
 49
0.0
 74
0
 49
-3.0
 74
0
 49
0.0
 74
0
 49
-3.0
 74
0
  0
LTYPE
  5
3C
100
AcDbSymbolTableRecord
100
AcDbLinetypeTableRecord
  2
ACAD_ISO05W100
 70
0
  3
ISO long-dash double-dot ____ .. ____ .. ____ . 
 72
65
 73
6
 40
33.0
 49
24.0
 74
0
 49
-3.0
 74
0
 49
0.0
 74
0
 49
-3.0
 74
0
 49
0.0
 74
0
 49
-3.0
 74
0
  0
LTYPE
  5
3D
100
AcDbSymbolTableRecord
100
AcDbLinetypeTableRecord
  2
ACAD_ISO08W100
 70
0
  3
ISO long-dash short-dash ____ __ ____ __ ____ _
 72
65
 73
4
 40
36.0
 49
24.0
 74
0
 49
-3.0
 74
0
 49
6.0
 74
0
 49
-3.0
 74
0
  0
LTYPE
  5
3E
100
AcDbSymbolTableRecord
100
AcDbLinetypeTableRecord
  2
DASHDOT
 70
0
  3
Dash dot __ . __ . __ . __ . __ . __ . __ . __
 72
65
 73
4
 40
25.3999999999999986
 49
12.6999999999999993
 74
0
 49
-6.3499999999999996
 74
0
 49
0.0
 74
0
 49
-6.3499999999999996
 74
0
  0
LTYPE
  5
3F
100
AcDbSymbolTableRecord
100
AcDbLinetypeTableRecord
  2
BORDER2
 70
0
  3
Border (.5x) __.__.__.__.__.__.__.__.__.__.__.
 72
65
 73
6
 40
22.2249999999999979
 49
6.3499999999999996
 74
0
 49
-3.1749999999999998
 74
0
 49
6.3499999999999996
 74
0
 49
-3.1749999999999998
 74
0
 49
0.0
 74
0
 49
-3.1749999999999998
 74
0
  0
LTYPE
  5
40
100
AcDbSymbolTableRecord
100
AcDbLinetypeTableRecord
  2
DOT2
 70
0
  3
Dot (.5x) ........................................
 72
65
 73
2
 40
3.1749999999999998
 49
0.0
 74
0
 49
-3.1749999999999998
 74
0
  0
LTYPE
  5
41
100
AcDbSymbolTableRecord
100
AcDbLinetypeTableRecord
  2
PHANTOM
 70
0
  3
Phantom ______  __  __  ______  __  __  ______ 
 72
65
 73
6
 40
63.5000000000000071
 49
31.75
 74
0
 49
-6.3499999999999996
 74
0
 49
6.3499999999999996
 74
0
 49
-6.3499999999999996
 74
0
 49
6.3499999999999996
 74
0
 49
-6.3499999999999996
 74
0
  0
LTYPE
  5
42
100
AcDbSymbolTableRecord
100
AcDbLinetypeTableRecord
  2
CENTERX2
 70
0
  3
Center (2x) ________  __  ________  __  _____
 72
65
 73
4
 40
101.6000000000000085
 49
63.5
 74
0
 49
-12.6999999999999993
 74
0
 49
12.6999999999999993
 74
0
 49
-12.6999999999999993
 74
0
  0
LTYPE
  5
43
100
AcDbSymbolTableRecord
100
AcDbLinetypeTableRecord
  2
BORDER
 70
0
  3
Border __ __ . __ __ . __ __ . __ __ . __ __ .
 72
65
 73
6
 40
44.4499999999999957
 49
12.6999999999999993
 74
0
 49
-6.3499999999999996
 74
0
 49
12.6999999999999993
 74
0
 49
-6.3499999999999996
 74
0
 49
0.0
 74
0
 49
-6.3499999999999996
 74
0
  0
LTYPE
  5
44
100
AcDbSymbolTableRecord
100
AcDbLinetypeTableRecord
  2
HIDDENX2
 70
0
  3
Hidden (2x) ____ ____ ____ ____ ____ ____ ____ 
 72
65
 73
2
 40
19.0499999999999972
 49
12.6999999999999993
 74
0
 49
-6.3499999999999996
 74
0
  0
LTYPE
  5
45
100
AcDbSymbolTableRecord
100
AcDbLinetypeTableRecord
  2
PHANTOMX2
 70
0
  3
Phantom (2x) ____________    ____    ____   _
 72
65
 73
6
 40
127.0000000000000142
 49
63.5
 74
0
 49
-12.6999999999999993
 74
0
 49
12.6999999999999993
 74
0
 49
-12.6999999999999993
 74
0
 49
12.6999999999999993
 74
0
 49
-12.6999999999999993
 74
0
  0
LTYPE
  5
46
100
AcDbSymbolTableRecord
100
AcDbLinetypeTableRecord
  2
ACAD_ISO09W100
 70
0
  3
ISO long-dash double-short-dash ____ __ __ ____
 72
65
 73
6
 40
45.0
 49
24.0
 74
0
 49
-3.0
 74
0
 49
6.0
 74
0
 49
-3.0
 74
0
 49
6.0
 74
0
 49
-3.0
 74
0
  0
LTYPE
  5
47
100
AcDbSymbolTableRecord
100
AcDbLinetypeTableRecord
  2
HIDDEN2
 70
0
  3
Hidden (.5x) _ _ _ _ _ _ _ _ _ _ _ _ _ _ _ _ _ 
 72
65
 73
2
 40
4.7624999999999993
 49
3.1749999999999998
 74
0
 49
-1.5874999999999999
 74
0
  0
LTYPE
  5
48
100
AcDbSymbolTableRecord
100
AcDbLinetypeTableRecord
  2
ACAD_ISO12W100
 70
0
  3
ISO dash double-dot __ . . __ . . __ . . __ . . 
 72
65
 73
6
 40
21.0
 49
12.0
 74
0
 49
-3.0
 74
0
 49
0.0
 74
0
 49
-3.0
 74
0
 49
0.0
 74
0
 49
-3.0
 74
0
  0
LTYPE
  5
49
100
AcDbSymbolTableRecord
100
AcDbLinetypeTableRecord
  2
DOTX2
 70
0
  3
Dot (2x) .  .  .  .  .  .  .  .  .  .  .  .  .  .
 72
65
 73
2
 40
12.6999999999999993
 49
0.0
 74
0
 49
-12.6999999999999993
 74
0
  0
LTYPE
  5
4A
100
AcDbSymbolTableRecord
100
AcDbLinetypeTableRecord
  2
DIVIDE
 70
0
  3
Divide ____ . . ____ . . ____ . . ____ . . ____
 72
65
 73
6
 40
31.75
 49
12.6999999999999993
 74
0
 49
-6.3499999999999996
 74
0
 49
0.0
 74
0
 49
-6.3499999999999996
 74
0
 49
0.0
 74
0
 49
-6.3499999999999996
 74
0
  0
LTYPE
  5
4B
100
AcDbSymbolTableRecord
100
AcDbLinetypeTableRecord
  2
ACAD_ISO15W100
 70
0
  3
ISO double-dash triple-dot __ __ . . . __ __ . .
 72
65
 73
10
 40
39.0
 49
12.0
 74
0
 49
-3.0
 74
0
 49
12.0
 74
0
 49
-3.0
 74
0
 49
0.0
 74
0
 49
-3.0
 74
0
 49
0.0
 74
0
 49
-3.0
 74
0
 49
0.0
 74
0
 49
-3.0
 74
0
  0
LTYPE
  5
4C
100
AcDbSymbolTableRecord
100
AcDbLinetypeTableRecord
  2
HIDDEN
 70
0
  3
Hidden __ __ __ __ __ __ __ __ __ __ __ __ __ __
 72
65
 73
2
 40
9.5249999999999986
 49
6.3499999999999996
 74
0
 49
-3.1749999999999998
 74
0
  0
LTYPE
  5
4D
100
AcDbSymbolTableRecord
100
AcDbLinetypeTableRecord
  2
PHANTOM2
 70
0
  3
Phantom (.5x) ___ _ _ ___ _ _ ___ _ _ ___ _ _
 72
65
 73
6
 40
31.7500000000000036
 49
15.875
 74
0
 49
-3.1749999999999998
 74
0
 49
3.1749999999999998
 74
0
 49
-3.1749999999999998
 74
0
 49
3.1749999999999998
 74
0
 49
-3.1749999999999998
 74
0
  0
LTYPE
  5
4E
100
AcDbSymbolTableRecord
100
AcDbLinetypeTableRecord
  2
ACAD_ISO03W100
 70
0
  3
ISO dash space __    __    __    __    __    __
 72
65
 73
2
 40
30.0
 49
12.0
 74
0
 49
-18.0
 74
0
  0
LTYPE
  5
4F
100
AcDbSymbolTableRecord
100
AcDbLinetypeTableRecord
  2
ACAD_ISO14W100
 70
0
  3
ISO dash triple-dot __ . . . __ . . . __ . . . _
 72
65
 73
8
 40
24.0
 49
12.0
 74
0
 49
-3.0
 74
0
 49
0.0
 74
0
 49
-3.0
 74
0
 49
0.0
 74
0
 49
-3.0
 74
0
 49
0.0
 74
0
 49
-3.0
 74
0
  0
LTYPE
  5
50
100
AcDbSymbolTableRecord
100
AcDbLinetypeTableRecord
  2
DOT
 70
0
  3
Dot . . . . . . . . . . . . . . . . . . . . . . . .
 72
65
 73
2
 40
6.3499999999999996
 49
0.0
 74
0
 49
-6.3499999999999996
 74
0
  0
LTYPE
  5
51
100
AcDbSymbolTableRecord
100
AcDbLinetypeTableRecord
  2
ACAD_ISO07W100
 70
0
  3
ISO dot . . . . . . . . . . . . . . . . . . . . 
 72
65
 73
2
 40
3.0
 49
0.0
 74
0
 49
-3.0
 74
0
  0
LTYPE
  5
14
100
AcDbSymbolTableRecord
100
AcDbLinetypeTableRecord
  2
BYBLOCK
 70
0
  3

 72
65
 73
0
 40
0.0
  0
LTYPE
  5
52
100
AcDbSymbolTableRecord
100
AcDbLinetypeTableRecord
  2
ACAD_ISO11W100
 70
0
  3
ISO double-dash dot __ __ . __ __ . __ __ . __ _
 72
65
 73
6
 40
33.0
 49
12.0
 74
0
 49
-3.0
 74
0
 49
12.0
 74
0
 49
-3.0
 74
0
 49
0.0
 74
0
 49
-3.0
 74
0
  0
LTYPE
  5
53
100
AcDbSymbolTableRecord
100
AcDbLinetypeTableRecord
  2
ACAD_ISO10W100
 70
0
  3
ISO dash dot __ . __ . __ . __ . __ . __ . __ . 
 72
65
 73
4
 40
18.0
 49
12.0
 74
0
 49
-3.0
 74
0
 49
0.0
 74
0
 49
-3.0
 74
0
  0
LTYPE
  5
54
100
AcDbSymbolTableRecord
100
AcDbLinetypeTableRecord
  2
DASHED2
 70
0
  3
Dashed (.5x) _ _ _ _ _ _ _ _ _ _ _ _ _ _ _ _ _ 
 72
65
 73
2
 40
9.5249999999999986
 49
6.3499999999999996
 74
0
 49
-3.1749999999999998
 74
0
  0
LTYPE
  5
55
100
AcDbSymbolTableRecord
100
AcDbLinetypeTableRecord
  2
BORDERX2
 70
0
  3
Border (2x) ____  ____  .  ____  ____  .  ___
 72
65
 73
6
 40
88.8999999999999915
 49
25.3999999999999986
 74
0
 49
-12.6999999999999993
 74
0
 49
25.3999999999999986
 74
0
 49
-12.6999999999999993
 74
0
 49
0.0
 74
0
 49
-12.6999999999999993
 74
0
  0
LTYPE
  5
56
100
AcDbSymbolTableRecord
100
AcDbLinetypeTableRecord
  2
DASHDOTX2
 70
0
  3
Dash dot (2x) ____  .  ____  .  ____  .  ___
 72
65
 73
4
 40
50.7999999999999972
 49
25.3999999999999986
 74
0
 49
-12.6999999999999993
 74
0
 49
0.0
 74
0
 49
-12.6999999999999993
 74
0
  0
LTYPE
  5
15
100
AcDbSymbolTableRecord
100
AcDbLinetypeTableRecord
  2
BYLAYER
 70
0
  3

 72
65
 73
0
 40
0.0
  0
ENDTAB
  0
TABLE
  2
LAYER
  5
2
100
AcDbSymbolTable
 70
6
  0
LAYER
  5
57
100
AcDbSymbolTableRecord
100
AcDbLayerTableRecord
  2
zob
 70
0
 62
2
420
16776960
  6
Continuous
370
25
390
F
  0
LAYER
  5
58
100
AcDbSymbolTableRecord
100
AcDbLayerTableRecord
  2
zagin_list
 70
1
 62
7
420
0
  6
Continuous
370
25
390
F
  0
LAYER
  5
59
100
AcDbSymbolTableRecord
100
AcDbLayerTableRecord
  2
obdelovanec
 70
1
 62
30
420
16744192
  6
Continuous
370
25
390
F
  0
LAYER
  5
5A
100
AcDbSymbolTableRecord
100
AcDbLayerTableRecord
  2
kote
 70
1
 62
252
420
10526884
  6
Continuous
370
25
390
F
  0
LAYER
  5
10
100
AcDbSymbolTableRecord
100
AcDbLayerTableRecord
  2
0
 70
0
 62
7
420
16777215
  6
Continuous
370
25
390
F
  0
LAYER
  5
5B
100
AcDbSymbolTableRecord
100
AcDbLayerTableRecord
  2
pred_rezilo
 70
1
 62
7
420
0
  6
Continuous
370
25
390
F
  0
ENDTAB
  0
TABLE
  2
STYLE
  5
3
100
AcDbSymbolTable
 70
1
  0
STYLE
  5
5C
100
AcDbSymbolTableRecord
100
AcDbTextStyleTableRecord
  2
Standard
 70
0
 40
0.0
 41
1.0
 50
0.0
 71
0
 42
2.5
  3

  4

1001
ACAD
1000
txt
1071
0
  0
ENDTAB
  0
TABLE
  2
VIEW
  5
6
100
AcDbSymbolTable
 70
0
  0
ENDTAB
  0
TABLE
  2
UCS
  5
7
100
AcDbSymbolTable
 70
0
  0
ENDTAB
  0
TABLE
  2
APPID
  5
9
100
AcDbSymbolTable
 70
1
  0
APPID
  5
12
100
AcDbSymbolTableRecord
100
AcDbRegAppTableRecord
  2
ACAD
 70
0
  0
APPID
  5
5D
100
AcDbSymbolTableRecord
100
AcDbRegAppTableRecord
  2
QCAD
 70
0
  0
ENDTAB
  0
TABLE
  2
DIMSTYLE
  5
A
100
AcDbSymbolTable
 70
1
100
AcDbDimStyleTable
 71
0
  0
DIMSTYLE
105
27
100
AcDbSymbolTableRecord
100
AcDbDimStyleTableRecord
  2
Standard
 41
2.5
 42
0.625
 43
3.75
 44
1.25
 70
0
 73
0
 74
0
 77
1
 78
8
140
2.5
141
2.5
143
0.03937007874016
147
0.625
171
3
172
1
271
2
272
2
274
3
278
44
283
0
284
8
340
5C
  0
ENDTAB
  0
TABLE
  2
BLOCK_RECORD
  5
1
100
AcDbSymbolTable
 70
1
  0
BLOCK_RECORD
  5
1F
100
AcDbSymbolTableRecord
100
AcDbBlockTableRecord
  2
*Model_Space
340
22
  0
BLOCK_RECORD
  5
1B
100
AcDbSymbolTableRecord
100
AcDbBlockTableRecord
  2
*Paper_Space
340
1E
  0
BLOCK_RECORD
  5
23
100
AcDbSymbolTableRecord
100
AcDbBlockTableRecord
  2
*Paper_Space0
340
26
  0
ENDTAB
  0
ENDSEC
  0
SECTION
  2
BLOCKS
  0
BLOCK
  5
20
100
AcDbEntity
  8
0
100
AcDbBlockBegin
  2
*Model_Space
 70
0
 10
0.0
 20
0.0
 30
0.0
  3
*Model_Space
  1

  0
ENDBLK
  5
21
100
AcDbEntity
  8
0
100
AcDbBlockEnd
  0
BLOCK
  5
1C
100
AcDbEntity
 67
1
  8
0
100
AcDbBlockBegin
  2
*Paper_Space
 70
0
 10
0.0
 20
0.0
 30
0.0
  3
*Paper_Space
  1

  0
ENDBLK
  5
1D
100
AcDbEntity
 67
1
  8
0
100
AcDbBlockEnd
  0
BLOCK
  5
24
100
AcDbEntity
  8
0
100
AcDbBlockBegin
  2
*Paper_Space0
 70
0
 10
0.0
 20
0.0
 30
0.0
  3
*Paper_Space0
  1

  0
ENDBLK
  5
25
100
AcDbEntity
  8
0
100
AcDbBlockEnd
  0
ENDSEC
  0
SECTION
  2
ENTITIES
  0
LINE
  5
5E
100
AcDbEntity
  8
zagin_list
 62
256
370
-1
 48
1.0
  6
BYLAYER
100
AcDbLine
 10
-6.75
 20
222.7499999999999432
 30
0.0
 11
0.0
 21
225.0
 31
0.0
  0
LINE
  5
5F
100
AcDbEntity
  8
zagin_list
 62
256
370
-1
 48
1.0
  6
BYLAYER
100
AcDbLine
 10
-52.9148254346090852
 20
216.478974150435306
 30
0.0
 11
-46.7801304339958577
 21
220.0832101651062658
 31
0.0
  0
LINE
  5
60
100
AcDbEntity
  8
zagin_list
 62
256
370
-1
 48
1.0
  6
BYLAYER
100
AcDbLine
 10
-96.7670190842219995
 20
200.7467783491277089
 30
0.0
 11
-91.5157446920550228
 21
205.5477279695852246
 31
0.0
  0
LINE
  5
61
100
AcDbEntity
  8
zagin_list
 62
256
370
-1
 48
1.0
  6
BYLAYER
100
AcDbLine
 10
-136.3900296601792945
 20
176.2409850440452885
 30
0.0
 11
-132.2516817658064383
 21
182.0288237343631863
 31
0.0
  0
LINE
  5
62
100
AcDbEntity
  8
zagin_list
 62
256
370
-1
 48
1.0
  6
BYLAYER
100
AcDbLine
 10
-170.0521414680118255
 20
144.0326149944632164
 30
0.0
 11
-167.2075857324136621
 21
150.5543864307431363
 31
0.0
  0
LINE
  5
63
100
AcDbEntity
  8
zagin_list
 62
256
370
-1
 48
1.0
  6
BYLAYER
100
AcDbLine
 10
-196.2821586929836712
 20
105.5293285244550532
 30
0.0
 11
-194.855715851498644
 21
112.5000000000000853
 31
0.0
  0
LINE
  5
64
100
AcDbEntity
  8
zagin_list
 62
256
370
-1
 48
1.0
  6
BYLAYER
100
AcDbLine
 10
-213.9337037167763356
 20
62.413904012027217
 30
0.0
 11
-213.9877161664095411
 21
69.5288237343631863
 31
0.0
  0
LINE
  5
65
100
AcDbEntity
  8
zagin_list
 62
256
370
-1
 48
1.0
  6
BYLAYER
100
AcDbLine
 10
-222.2353193203394994
 20
16.5706923991340602
 30
0.0
 11
-223.7674264578614896
 21
23.5189042352220881
 31
0.0
  0
LINE
  5
66
100
AcDbEntity
  8
zagin_list
 62
256
370
-1
 48
1.0
  6
BYLAYER
100
AcDbLine
 10
-220.8241850662262209
 20
-29.9967379866056163
 30
0.0
 11
-223.7674264578614896
 21
-23.5189042352219388
 31
0.0
  0
LINE
  5
67
100
AcDbEntity
  8
zagin_list
 62
256
370
-1
 48
1.0
  6
BYLAYER
100
AcDbLine
 10
-209.7619742927145126
 20
-75.2531669820118481
 30
0.0
 11
-213.9877161664095695
 21
-69.5288237343631295
 31
0.0
  0
LINE
  5
68
100
AcDbEntity
  8
zagin_list
 62
256
370
-1
 48
1.0
  6
BYLAYER
100
AcDbLine
 10
-189.5321586929837281
 20
-117.2206714755448616
 30
0.0
 11
-194.8557158514987577
 21
-112.4999999999999432
 31
0.0
  0
LINE
  5
69
100
AcDbEntity
  8
zagin_list
 62
256
370
-1
 48
1.0
  6
BYLAYER
100
AcDbLine
 10
-161.018878282167293
 20
-154.0650701384080037
 30
0.0
 11
-167.2075857324137758
 21
-150.5543864307430226
 31
0.0
  0
LINE
  5
6A
100
AcDbEntity
  8
zagin_list
 62
256
370
-1
 48
1.0
  6
BYLAYER
100
AcDbLine
 10
-125.4683002361174715
 20
-184.1760859499937055
 30
0.0
 11
-132.2516817658064952
 21
-182.0288237343631295
 31
0.0
  0
LINE
  5
6B
100
AcDbEntity
  8
zagin_list
 62
256
370
-1
 48
1.0
  6
BYLAYER
100
AcDbLine
 10
-84.4341554060470258
 20
-206.2377230306509546
 30
0.0
 11
-91.5157446920551934
 21
-205.5477279695850825
 31
0.0
  0
LINE
  5
6C
100
AcDbEntity
  8
zagin_list
 62
256
370
-1
 48
1.0
  6
BYLAYER
100
AcDbLine
 10
-39.7098328247027439
 20
-219.2857819764750786
 30
0.0
 11
-46.7801304339959572
 21
-220.0832101651062374
 31
0.0
  0
LINE
  5
6D
100
AcDbEntity
  8
zagin_list
 62
256
370
-1
 48
1.0
  6
BYLAYER
100
AcDbLine
 10
6.750000000000016
 20
-222.7499999999999432
 30
0.0
 11
-0.0000000000000413
 21
-225.0
 31
0.0
  0
LINE
  5
6E
100
AcDbEntity
  8
zagin_list
 62
256
370
-1
 48
1.0
  6
BYLAYER
100
AcDbLine
 10
52.9148254346089573
 20
-216.4789741504353344
 30
0.0
 11
46.7801304339956729
 21
-220.0832101651063226
 31
0.0
  0
LINE
  5
6F
100
AcDbEntity
  8
zagin_list
 62
256
370
-1
 48
1.0
  6
BYLAYER
100
AcDbLine
 10
96.7670190842219995
 20
-200.7467783491277089
 30
0.0
 11
91.5157446920549518
 21
-205.5477279695852246
 31
0.0
  0
LINE
  5
70
100
AcDbEntity
  8
zagin_list
 62
256
370
-1
 48
1.0
  6
BYLAYER
100
AcDbLine
 10
136.3900296601792661
 20
-176.2409850440452885
 30
0.0
 11
132.2516817658064099
 21
-182.0288237343632147
 31
0.0
  0
LINE
  5
71
100
AcDbEntity
  8
zagin_list
 62
256
370
-1
 48
1.0
  6
BYLAYER
100
AcDbLine
 10
170.0521414680117687
 20
-144.03261499446333
 30
0.0
 11
167.2075857324135768
 21
-150.5543864307432216
 31
0.0
  0
LINE
  5
72
100
AcDbEntity
  8
zagin_list
 62
256
370
-1
 48
1.0
  6
BYLAYER
100
AcDbLine
 10
196.2821586929836712
 20
-105.5293285244550816
 30
0.0
 11
194.8557158514986156
 21
-112.5000000000001137
 31
0.0
  0
LINE
  5
73
100
AcDbEntity
  8
zagin_list
 62
256
370
-1
 48
1.0
  6
BYLAYER
100
AcDbLine
 10
213.9337037167763356
 20
-62.4139040120272384
 30
0.0
 11
213.9877161664095411
 21
-69.5288237343632147
 31
0.0
  0
LINE
  5
74
100
AcDbEntity
  8
zagin_list
 62
256
370
-1
 48
1.0
  6
BYLAYER
100
AcDbLine
 10
222.2353193203394994
 20
-16.5706923991340886
 30
0.0
 11
223.7674264578614896
 21
-23.5189042352222195
 31
0.0
  0
LINE
  5
75
100
AcDbEntity
  8
zagin_list
 62
256
370
-1
 48
1.0
  6
BYLAYER
100
AcDbLine
 10
220.8241850662262209
 20
29.9967379866055914
 30
0.0
 11
223.7674264578614896
 21
23.5189042352219104
 31
0.0
  0
LINE
  5
76
100
AcDbEntity
  8
zagin_list
 62
256
370
-1
 48
1.0
  6
BYLAYER
100
AcDbLine
 10
209.7619742927145694
 20
75.2531669820118054
 30
0.0
 11
213.9877161664095695
 21
69.5288237343631152
 31
0.0
  0
LINE
  5
77
100
AcDbEntity
  8
zagin_list
 62
256
370
-1
 48
1.0
  6
BYLAYER
100
AcDbLine
 10
189.5321586929837281
 20
117.2206714755448331
 30
0.0
 11
194.8557158514987862
 21
112.4999999999998295
 31
0.0
  0
LINE
  5
78
100
AcDbEntity
  8
zagin_list
 62
256
370
-1
 48
1.0
  6
BYLAYER
100
AcDbLine
 10
161.018878282167293
 20
154.0650701384080037
 30
0.0
 11
167.2075857324137758
 21
150.5543864307429942
 31
0.0
  0
LINE
  5
79
100
AcDbEntity
  8
zagin_list
 62
256
370
-1
 48
1.0
  6
BYLAYER
100
AcDbLine
 10
125.4683002361174715
 20
184.1760859499937055
 30
0.0
 11
132.2516817658064952
 21
182.0288237343631295
 31
0.0
  0
LINE
  5
7A
100
AcDbEntity
  8
zagin_list
 62
256
370
-1
 48
1.0
  6
BYLAYER
100
AcDbLine
 10
84.4341554060470401
 20
206.2377230306508977
 30
0.0
 11
91.5157446920552218
 21
205.5477279695850825
 31
0.0
  0
LINE
  5
7B
100
AcDbEntity
  8
zagin_list
 62
256
370
-1
 48
1.0
  6
BYLAYER
100
AcDbLine
 10
39.7098328247027723
 20
219.2857819764750786
 30
0.0
 11
46.7801304339959856
 21
220.0832101651062374
 31
0.0
  0
LINE
  5
7C
100
AcDbEntity
  8
zagin_list
 62
256
370
-1
 48
1.0
  6
BYLAYER
100
AcDbLine
 10
-6.7499999999999893
 20
222.7499999999999432
 30
0.0
 11
0.0000000000000689
 21
225.0
 31
0.0
  0
LINE
  5
7D
100
AcDbEntity
  8
zob
 62
256
370
-1
 48
1.0
  6
BYLAYER
100
AcDbLine
 10
-6.750000000000024
 20
222.7499999999998863
 30
0.0
 11
-0.000000000000024
 21
224.9999999999999147
 31
0.0
  0
LINE
  5
7E
100
AcDbEntity
  8
zob
 62
256
370
-1
 48
1.0
  6
BYLAYER
100
AcDbLine
 10
-6.7500000000000133
 20
222.7499999999998863
 30
0.0
 11
0.0000000000000453
 21
224.9999999999999147
 31
0.0
  0
LINE
  5
7F
100
AcDbEntity
  8
pred_rezilo
 62
256
370
-1
 48
1.0
  6
BYLAYER
100
AcDbLine
 10
580.1450835876487417
 20
149.6428909882372977
 30
0.0
 11
576.6099347830019042
 21
150.0416050825530192
 31
0.0
  0
LINE
  5
80
100
AcDbEntity
  8
pred_rezilo
 62
256
370
-1
 48
1.0
  6
BYLAYER
100
AcDbLine
 10
603.375
 20
151.3750000000000853
 30
0.0
 11
600.0
 21
152.4999999999998295
 31
0.0
  0
LINE
  5
81
100
AcDbEntity
  8
pred_rezilo
 62
256
370
-1
 48
1.0
  6
BYLAYER
100
AcDbLine
 10
557.7829222969763805
 20
143.1188615153252499
 30
0.0
 11
554.2421276539723749
 21
142.7738639847925128
 31
0.0
  0
LINE
  5
82
100
AcDbEntity
  8
pred_rezilo
 62
256
370
-1
 48
1.0
  6
BYLAYER
100
AcDbLine
 10
537.2658498819412216
 20
132.0880429749968528
 30
0.0
 11
533.8741591170968377
 21
131.0144118671815932
 31
0.0
  0
LINE
  5
83
100
AcDbEntity
  8
pred_rezilo
 62
256
370
-1
 48
1.0
  6
BYLAYER
100
AcDbLine
 10
519.4905608589164103
 20
117.0325350692027655
 30
0.0
 11
516.3962071337930411
 21
115.2771932153678449
 31
0.0
  0
LINE
  5
84
100
AcDbEntity
  8
pred_rezilo
 62
256
370
-1
 48
1.0
  6
BYLAYER
100
AcDbLine
 10
626.4574127173045781
 20
148.2394870752175962
 30
0.0
 11
623.3900652169979821
 21
150.0416050825530192
 31
0.0
  0
LINE
  5
85
100
AcDbEntity
  8
pred_rezilo
 62
256
370
-1
 48
1.0
  6
BYLAYER
100
AcDbLine
 10
603.375
 20
151.3750000000000853
 30
0.0
 11
600.0
 21
152.4999999999997726
 31
0.0
  0
LINE
  5
86
100
AcDbEntity
  8
pred_rezilo
 62
256
370
-1
 48
1.0
  6
BYLAYER
100
AcDbLine
 10
698.1410793464917788
 20
92.7646642622278392
 30
0.0
 11
697.4278579257494357
 21
96.2500000000001279
 31
0.0
  0
LINE
  5
87
100
AcDbEntity
  8
pred_rezilo
 62
256
370
-1
 48
1.0
  6
BYLAYER
100
AcDbLine
 10
685.026070734005998
 20
112.0163074972340382
 30
0.0
 11
683.6037928662067316
 21
115.2771932153849832
 31
0.0
  0
LINE
  5
88
100
AcDbEntity
  8
pred_rezilo
 62
256
370
-1
 48
1.0
  6
BYLAYER
100
AcDbLine
 10
668.1950148300895762
 20
128.1204925220226301
 30
0.0
 11
666.1258408829031623
 21
131.0144118671817068
 31
0.0
  0
LINE
  5
89
100
AcDbEntity
  8
pred_rezilo
 62
256
370
-1
 48
1.0
  6
BYLAYER
100
AcDbLine
 10
648.3835095421109145
 20
140.3733891745633855
 30
0.0
 11
645.7578723460273977
 21
142.7738639847926834
 31
0.0
  0
LINE
  5
8A
100
AcDbEntity
  8
pred_rezilo
 62
256
370
-1
 48
1.0
  6
BYLAYER
100
AcDbLine
 10
704.8809871463572563
 20
2.3734165089938557
 30
0.0
 11
706.9938580832048274
 21
5.2355881328186484
 31
0.0
  0
LINE
  5
8B
100
AcDbEntity
  8
pred_rezilo
 62
256
370
-1
 48
1.0
  6
BYLAYER
100
AcDbLine
 10
710.412092533113082
 20
25.0016310066974974
 30
0.0
 11
711.8837132289307874
 21
28.2405478823890626
 31
0.0
  0
LINE
  5
8C
100
AcDbEntity
  8
pred_rezilo
 62
256
370
-1
 48
1.0
  6
BYLAYER
100
AcDbLine
 10
711.1176596601696929
 20
48.2853461995669591
 30
0.0
 11
711.8837132289307874
 21
51.7594521176112465
 31
0.0
  0
LINE
  5
8D
100
AcDbEntity
  8
pred_rezilo
 62
256
370
-1
 48
1.0
  6
BYLAYER
100
AcDbLine
 10
706.9668518583882815
 20
71.2069520060136512
 30
0.0
 11
706.9938580832048274
 21
74.7644118671819911
 31
0.0
  0
LINE
  5
8E
100
AcDbEntity
  8
pred_rezilo
 62
256
370
-1
 48
1.0
  6
BYLAYER
100
AcDbLine
 10
642.2170777030235058
 20
-63.1188615153255341
 30
0.0
 11
645.7578723460276251
 21
-62.7738639847925697
 31
0.0
  0
LINE
  5
8F
100
AcDbEntity
  8
pred_rezilo
 62
256
370
-1
 48
1.0
  6
BYLAYER
100
AcDbLine
 10
662.7341501180587784
 20
-52.0880429749968528
 30
0.0
 11
666.1258408829031623
 21
-51.0144118671816784
 31
0.0
  0
LINE
  5
90
100
AcDbEntity
  8
pred_rezilo
 62
256
370
-1
 48
1.0
  6
BYLAYER
100
AcDbLine
 10
680.5094391410835897
 20
-37.0325350692041297
 30
0.0
 11
683.6037928662069589
 21
-35.2771932153715113
 31
0.0
  0
LINE
  5
91
100
AcDbEntity
  8
pred_rezilo
 62
256
370
-1
 48
1.0
  6
BYLAYER
100
AcDbLine
 10
694.7660793464917788
 20
-18.6103357377724024
 30
0.0
 11
697.427857925749322
 21
-16.2500000000000711
 31
0.0
  0
LINE
  5
92
100
AcDbEntity
  8
pred_rezilo
 62
256
370
-1
 48
1.0
  6
BYLAYER
100
AcDbLine
 10
551.6164904578888581
 20
-60.3733891745638545
 30
0.0
 11
554.2421276539723749
 21
-62.7738639847927402
 31
0.0
  0
LINE
  5
93
100
AcDbEntity
  8
pred_rezilo
 62
256
370
-1
 48
1.0
  6
BYLAYER
100
AcDbLine
 10
573.5425872826954219
 20
-68.2394870752176672
 30
0.0
 11
576.6099347830020179
 21
-70.0416050825532466
 31
0.0
  0
LINE
  5
94
100
AcDbEntity
  8
pred_rezilo
 62
256
370
-1
 48
1.0
  6
BYLAYER
100
AcDbLine
 10
596.625
 20
-71.3749999999999147
 30
0.0
 11
600.0
 21
-72.4999999999999574
 31
0.0
  0
LINE
  5
95
100
AcDbEntity
  8
pred_rezilo
 62
256
370
-1
 48
1.0
  6
BYLAYER
100
AcDbLine
 10
619.8549164123512583
 20
-69.6428909882375393
 30
0.0
 11
623.3900652169979821
 21
-70.041605082553076
 31
0.0
  0
LINE
  5
96
100
AcDbEntity
  8
pred_rezilo
 62
256
370
-1
 48
1.0
  6
BYLAYER
100
AcDbLine
 10
493.0331481416118891
 20
8.7930479939865087
 30
0.0
 11
493.0061419167951726
 21
5.2355881328184068
 31
0.0
  0
LINE
  5
97
100
AcDbEntity
  8
pred_rezilo
 62
256
370
-1
 48
1.0
  6
BYLAYER
100
AcDbLine
 10
501.8589206535081644
 20
-12.7646642622274697
 30
0.0
 11
502.5721420742505643
 21
-16.2500000000000142
 31
0.0
  0
LINE
  5
98
100
AcDbEntity
  8
pred_rezilo
 62
256
370
-1
 48
1.0
  6
BYLAYER
100
AcDbLine
 10
514.973929265994002
 20
-32.0163074972316508
 30
0.0
 11
516.3962071337932684
 21
-35.2771932153716108
 31
0.0
  0
LINE
  5
99
100
AcDbEntity
  8
pred_rezilo
 62
256
370
-1
 48
1.0
  6
BYLAYER
100
AcDbLine
 10
531.8049851699101964
 20
-48.1204925220226443
 30
0.0
 11
533.8741591170968377
 21
-51.0144118671816074
 31
0.0
  0
LINE
  5
9A
100
AcDbEntity
  8
pred_rezilo
 62
256
370
-1
 48
1.0
  6
BYLAYER
100
AcDbLine
 10
505.2339206535081644
 20
98.6103357377724592
 30
0.0
 11
502.5721420742505643
 21
96.2499999999998295
 31
0.0
  0
LINE
  5
9B
100
AcDbEntity
  8
pred_rezilo
 62
256
370
-1
 48
1.0
  6
BYLAYER
100
AcDbLine
 10
495.1190128536427437
 20
77.6265834910059311
 30
0.0
 11
493.0061419167951726
 21
74.7644118671814937
 31
0.0
  0
LINE
  5
9C
100
AcDbEntity
  8
pred_rezilo
 62
256
370
-1
 48
1.0
  6
BYLAYER
100
AcDbLine
 10
489.587907466886918
 20
54.9983689933028046
 30
0.0
 11
488.1162867710692126
 21
51.7594521176109481
 31
0.0
  0
LINE
  5
9D
100
AcDbEntity
  8
pred_rezilo
 62
256
370
-1
 48
1.0
  6
BYLAYER
100
AcDbLine
 10
488.8823403398303071
 20
31.7146538004330658
 30
0.0
 11
488.1162867710692126
 21
28.2405478823888814
 31
0.0
  0
LINE
  5
9E
100
AcDbEntity
  8
zagin_list
 62
256
370
-1
 48
1.0
  6
BYLAYER
100
AcDbLine
 10
-6.7500000000000027
 20
222.7499999999999147
 30
0.0
 11
-27.0
 21
216.0
 31
0.0
  0
LINE
  5
9F
100
AcDbEntity
  8
zagin_list
 62
256
370
-1
 48
1.0
  6
BYLAYER
100
AcDbLine
 10
-52.914825434609071
 20
216.478974150435306
 30
0.0
 11
-71.3189104364487605
 21
205.6662661064224835
 31
0.0
  0
LINE
  5
A0
100
AcDbEntity
  8
zagin_list
 62
256
370
-1
 48
1.0
  6
BYLAYER
100
AcDbLine
 10
-96.7670190842219995
 20
200.7467783491276805
 30
0.0
 11
-112.5208422607230432
 21
186.3439294877551902
 31
0.0
  0
LINE
  5
A1
100
AcDbEntity
  8
zagin_list
 62
256
370
-1
 48
1.0
  6
BYLAYER
100
AcDbLine
 10
-136.3900296601792661
 20
176.2409850440452601
 30
0.0
 11
-148.8050733432978063
 21
158.8774689730918226
 31
0.0
  0
LINE
  5
A2
100
AcDbEntity
  8
zagin_list
 62
256
370
-1
 48
1.0
  6
BYLAYER
100
AcDbLine
 10
-170.0521414680117971
 20
144.0326149944631879
 30
0.0
 11
-178.5858086748063158
 21
124.4673006856237123
 31
0.0
  0
LINE
  5
A3
100
AcDbEntity
  8
zagin_list
 62
256
370
-1
 48
1.0
  6
BYLAYER
100
AcDbLine
 10
-196.2821586929836144
 20
105.529328524455039
 30
0.0
 11
-200.561487217438696
 21
84.6173140978201843
 31
0.0
  0
LINE
  5
A4
100
AcDbEntity
  8
zagin_list
 62
256
370
-1
 48
1.0
  6
BYLAYER
100
AcDbLine
 10
-213.9337037167763071
 20
62.4139040120272028
 30
0.0
 11
-213.7716663678767191
 21
41.0691448450194656
 31
0.0
  0
LINE
  5
A5
100
AcDbEntity
  8
zagin_list
 62
256
370
-1
 48
1.0
  6
BYLAYER
100
AcDbLine
 10
-222.235319320339471
 20
16.5706923991340567
 30
0.0
 11
-217.6389979077736712
 21
-4.2739431091301308
 31
0.0
  0
LINE
  5
A6
100
AcDbEntity
  8
zagin_list
 62
256
370
-1
 48
1.0
  6
BYLAYER
100
AcDbLine
 10
-220.8241850662261641
 20
-29.9967379866056127
 30
0.0
 11
-211.9944608913203865
 21
-49.4302392407564852
 31
0.0
  0
LINE
  5
A7
100
AcDbEntity
  8
zagin_list
 62
256
370
-1
 48
1.0
  6
BYLAYER
100
AcDbLine
 10
-209.7619742927144557
 20
-75.2531669820118339
 30
0.0
 11
-197.0847486716295975
 21
-92.4261967249578049
 31
0.0
  0
LINE
  5
A8
100
AcDbEntity
  8
zagin_list
 62
256
370
-1
 48
1.0
  6
BYLAYER
100
AcDbLine
 10
-189.5321586929837281
 20
-117.2206714755448331
 30
0.0
 11
-173.5614872174388097
 21
-131.3826859021797588
 31
0.0
  0
LINE
  5
A9
100
AcDbEntity
  8
zagin_list
 62
256
370
-1
 48
1.0
  6
BYLAYER
100
AcDbLine
 10
-161.0188782821672646
 20
-154.0650701384079753
 30
0.0
 11
-142.4527559314280154
 21
-164.5971212614029753
 31
0.0
  0
LINE
  5
AA
100
AcDbEntity
  8
zagin_list
 62
256
370
-1
 48
1.0
  6
BYLAYER
100
AcDbLine
 10
-125.4683002361174431
 20
-184.1760859499937055
 30
0.0
 11
-105.1181556470505996
 21
-190.6178725968854053
 31
0.0
  0
LINE
  5
AB
100
AcDbEntity
  8
zagin_list
 62
256
370
-1
 48
1.0
  6
BYLAYER
100
AcDbLine
 10
-84.4341554060470116
 20
-206.2377230306508977
 30
0.0
 11
-63.1893875480227152
 21
-208.3077082138483433
 31
0.0
  0
LINE
  5
AC
100
AcDbEntity
  8
zagin_list
 62
256
370
-1
 48
1.0
  6
BYLAYER
100
AcDbLine
 10
-39.7098328247027439
 20
-219.2857819764750502
 30
0.0
 11
-18.4989399968233101
 21
-216.8934974105814604
 31
0.0
  0
LINE
  5
AD
100
AcDbEntity
  8
zagin_list
 62
256
370
-1
 48
1.0
  6
BYLAYER
100
AcDbLine
 10
6.7500000000000142
 20
-222.7499999999999147
 30
0.0
 11
27.0000000000000142
 21
-216.0
 31
0.0
  0
LINE
  5
AE
100
AcDbEntity
  8
zagin_list
 62
256
370
-1
 48
1.0
  6
BYLAYER
100
AcDbLine
 10
52.9148254346089573
 20
-216.478974150435306
 30
0.0
 11
71.3189104364486468
 21
-205.6662661064225404
 31
0.0
  0
LINE
  5
AF
100
AcDbEntity
  8
zagin_list
 62
256
370
-1
 48
1.0
  6
BYLAYER
100
AcDbLine
 10
96.7670190842219711
 20
-200.7467783491276805
 30
0.0
 11
112.5208422607230148
 21
-186.3439294877551902
 31
0.0
  0
LINE
  5
B0
100
AcDbEntity
  8
zagin_list
 62
256
370
-1
 48
1.0
  6
BYLAYER
100
AcDbLine
 10
136.3900296601792377
 20
-176.2409850440452601
 30
0.0
 11
148.8050733432978063
 21
-158.877468973091851
 31
0.0
  0
LINE
  5
B1
100
AcDbEntity
  8
zagin_list
 62
256
370
-1
 48
1.0
  6
BYLAYER
100
AcDbLine
 10
170.0521414680117118
 20
-144.0326149944633016
 30
0.0
 11
178.5858086748062306
 21
-124.467300685623826
 31
0.0
  0
LINE
  5
B2
100
AcDbEntity
  8
zagin_list
 62
256
370
-1
 48
1.0
  6
BYLAYER
100
AcDbLine
 10
196.2821586929836144
 20
-105.5293285244550532
 30
0.0
 11
200.561487217438696
 21
-84.6173140978202127
 31
0.0
  0
LINE
  5
B3
100
AcDbEntity
  8
zagin_list
 62
256
370
-1
 48
1.0
  6
BYLAYER
100
AcDbLine
 10
213.9337037167763071
 20
-62.4139040120272313
 30
0.0
 11
213.7716663678767191
 21
-41.069144845019494
 31
0.0
  0
LINE
  5
B4
100
AcDbEntity
  8
zagin_list
 62
256
370
-1
 48
1.0
  6
BYLAYER
100
AcDbLine
 10
222.235319320339471
 20
-16.5706923991340886
 30
0.0
 11
217.6389979077736712
 21
4.2739431091301041
 31
0.0
  0
LINE
  5
B5
100
AcDbEntity
  8
zagin_list
 62
256
370
-1
 48
1.0
  6
BYLAYER
100
AcDbLine
 10
220.8241850662261641
 20
29.9967379866055879
 30
0.0
 11
211.9944608913203865
 21
49.4302392407564639
 31
0.0
  0
LINE
  5
B6
100
AcDbEntity
  8
zagin_list
 62
256
370
-1
 48
1.0
  6
BYLAYER
100
AcDbLine
 10
209.7619742927145126
 20
75.2531669820118054
 30
0.0
 11
197.0847486716295975
 21
92.4261967249577907
 31
0.0
  0
LINE
  5
B7
100
AcDbEntity
  8
zagin_list
 62
256
370
-1
 48
1.0
  6
BYLAYER
100
AcDbLine
 10
189.5321586929837281
 20
117.2206714755448047
 30
0.0
 11
173.5614872174388097
 21
131.3826859021797304
 31
0.0
  0
LINE
  5
B8
100
AcDbEntity
  8
zagin_list
 62
256
370
-1
 48
1.0
  6
BYLAYER
100
AcDbLine
 10
161.018878282167293
 20
154.0650701384079753
 30
0.0
 11
142.4527559314280154
 21
164.5971212614029753
 31
0.0
  0
LINE
  5
B9
100
AcDbEntity
  8
zagin_list
 62
256
370
-1
 48
1.0
  6
BYLAYER
100
AcDbLine
 10
125.4683002361174431
 20
184.1760859499936771
 30
0.0
 11
105.1181556470506138
 21
190.6178725968854053
 31
0.0
  0
LINE
  5
BA
100
AcDbEntity
  8
zagin_list
 62
256
370
-1
 48
1.0
  6
BYLAYER
100
AcDbLine
 10
84.4341554060470401
 20
206.2377230306508409
 30
0.0
 11
63.1893875480227507
 21
208.3077082138483433
 31
0.0
  0
LINE
  5
BB
100
AcDbEntity
  8
zagin_list
 62
256
370
-1
 48
1.0
  6
BYLAYER
100
AcDbLine
 10
39.7098328247027652
 20
219.2857819764750502
 30
0.0
 11
18.4989399968233386
 21
216.8934974105814604
 31
0.0
  0
LINE
  5
BC
100
AcDbEntity
  8
zagin_list
 62
256
370
-1
 48
1.0
  6
BYLAYER
100
AcDbLine
 10
-6.7499999999999876
 20
222.7499999999999147
 30
0.0
 11
-26.9999999999999858
 21
216.0
 31
0.0
  0
LINE
  5
BD
100
AcDbEntity
  8
zob
 62
256
370
-1
 48
1.0
  6
BYLAYER
100
AcDbLine
 10
-6.7500000000000266
 20
222.7499999999998295
 30
0.0
 11
-27.0000000000000213
 21
215.9999999999999147
 31
0.0
  0
LINE
  5
BE
100
AcDbEntity
  8
zob
 62
256
370
-1
 48
1.0
  6
BYLAYER
100
AcDbLine
 10
-6.7500000000000133
 20
222.7499999999998295
 30
0.0
 11
-27.0000000000000107
 21
215.9999999999999147
 31
0.0
  0
LINE
  5
BF
100
AcDbEntity
  8
pred_rezilo
 62
256
370
-1
 48
1.0
  6
BYLAYER
100
AcDbLine
 10
557.7829222969764942
 20
143.1188615153252783
 30
0.0
 11
568.4053062259886246
 21
144.1538541069240296
 31
0.0
  0
LINE
  5
C0
100
AcDbEntity
  8
pred_rezilo
 62
256
370
-1
 48
1.0
  6
BYLAYER
100
AcDbLine
 10
537.2658498819412216
 20
132.0880429749968528
 30
0.0
 11
547.4409221764747144
 21
135.3089362984428305
 31
0.0
  0
LINE
  5
C1
100
AcDbEntity
  8
pred_rezilo
 62
256
370
-1
 48
1.0
  6
BYLAYER
100
AcDbLine
 10
519.4905608589164103
 20
117.0325350692050819
 30
0.0
 11
528.7736220342860634
 21
122.2985606307014734
 31
0.0
  0
LINE
  5
C2
100
AcDbEntity
  8
pred_rezilo
 62
256
370
-1
 48
1.0
  6
BYLAYER
100
AcDbLine
 10
626.4574127173045781
 20
148.2394870752175962
 30
0.0
 11
635.6594552182244797
 21
142.833133053211526
 31
0.0
  0
LINE
  5
C3
100
AcDbEntity
  8
pred_rezilo
 62
256
370
-1
 48
1.0
  6
BYLAYER
100
AcDbLine
 10
603.375
 20
151.3750000000000853
 30
0.0
 11
613.5
 21
148.0000000000000568
 31
0.0
  0
LINE
  5
C4
100
AcDbEntity
  8
pred_rezilo
 62
256
370
-1
 48
1.0
  6
BYLAYER
100
AcDbLine
 10
698.1410793464917788
 20
92.7646642622278392
 30
0.0
 11
700.2807436087193764
 21
82.3086570489103622
 31
0.0
  0
LINE
  5
C5
100
AcDbEntity
  8
pred_rezilo
 62
256
370
-1
 48
1.0
  6
BYLAYER
100
AcDbLine
 10
685.026070734005998
 20
112.0163074972340382
 30
0.0
 11
689.2929043374031153
 21
102.2336503428118846
 31
0.0
  0
LINE
  5
C6
100
AcDbEntity
  8
pred_rezilo
 62
256
370
-1
 48
1.0
  6
BYLAYER
100
AcDbLine
 10
668.1950148300895762
 20
128.1204925220226301
 30
0.0
 11
674.4025366716489316
 21
119.4387344865455276
 31
0.0
  0
LINE
  5
C7
100
AcDbEntity
  8
pred_rezilo
 62
256
370
-1
 48
1.0
  6
BYLAYER
100
AcDbLine
 10
648.3835095421109145
 20
140.3733891745633855
 30
0.0
 11
656.2604211303614647
 21
133.1719647438778225
 31
0.0
  0
LINE
  5
C8
100
AcDbEntity
  8
pred_rezilo
 62
256
370
-1
 48
1.0
  6
BYLAYER
100
AcDbLine
 10
704.8809871463572563
 20
2.3734165089938557
 30
0.0
 11
698.5423743358146567
 21
-6.2130983624789877
 31
0.0
  0
LINE
  5
C9
100
AcDbEntity
  8
pred_rezilo
 62
256
370
-1
 48
1.0
  6
BYLAYER
100
AcDbLine
 10
710.412092533113082
 20
25.0016310066974974
 30
0.0
 11
705.9972304456600796
 21
15.2848803796216508
 31
0.0
  0
LINE
  5
CA
100
AcDbEntity
  8
pred_rezilo
 62
256
370
-1
 48
1.0
  6
BYLAYER
100
AcDbLine
 10
711.1176596601696929
 20
48.2853461995669733
 30
0.0
 11
708.8194989538867503
 21
37.8630284454349137
 31
0.0
  0
LINE
  5
CB
100
AcDbEntity
  8
pred_rezilo
 62
256
370
-1
 48
1.0
  6
BYLAYER
100
AcDbLine
 10
706.9668518583880541
 20
71.2069520060136654
 30
0.0
 11
706.8858331839383027
 21
60.5345724225096404
 31
0.0
  0
LINE
  5
CC
100
AcDbEntity
  8
pred_rezilo
 62
256
370
-1
 48
1.0
  6
BYLAYER
100
AcDbLine
 10
642.2170777030235058
 20
-63.1188615153254915
 30
0.0
 11
631.5946937740112617
 21
-64.1538541069241717
 31
0.0
  0
LINE
  5
CD
100
AcDbEntity
  8
pred_rezilo
 62
256
370
-1
 48
1.0
  6
BYLAYER
100
AcDbLine
 10
662.7341501180587784
 20
-52.0880429749968528
 30
0.0
 11
652.5590778235252856
 21
-55.30893629844266
 31
0.0
  0
LINE
  5
CE
100
AcDbEntity
  8
pred_rezilo
 62
256
370
-1
 48
1.0
  6
BYLAYER
100
AcDbLine
 10
680.5094391410835897
 20
-37.0325350692041155
 30
0.0
 11
671.2263779657139366
 21
-42.298560630701374
 31
0.0
  0
LINE
  5
CF
100
AcDbEntity
  8
pred_rezilo
 62
256
370
-1
 48
1.0
  6
BYLAYER
100
AcDbLine
 10
694.7660793464917788
 20
-18.6103357377724024
 30
0.0
 11
686.7807436087193764
 21
-25.6913429510898652
 31
0.0
  0
LINE
  5
D0
100
AcDbEntity
  8
pred_rezilo
 62
256
370
-1
 48
1.0
  6
BYLAYER
100
AcDbLine
 10
551.6164904578888581
 20
-60.3733891745638545
 30
0.0
 11
543.7395788696385353
 21
-53.1719647438774388
 31
0.0
  0
LINE
  5
D1
100
AcDbEntity
  8
pred_rezilo
 62
256
370
-1
 48
1.0
  6
BYLAYER
100
AcDbLine
 10
573.5425872826954219
 20
-68.2394870752176246
 30
0.0
 11
564.3405447817755203
 21
-62.8331330532112702
 31
0.0
  0
LINE
  5
D2
100
AcDbEntity
  8
pred_rezilo
 62
256
370
-1
 48
1.0
  6
BYLAYER
100
AcDbLine
 10
596.625
 20
-71.3749999999999147
 30
0.0
 11
586.5
 21
-68.0
 31
0.0
  0
LINE
  5
D3
100
AcDbEntity
  8
pred_rezilo
 62
256
370
-1
 48
1.0
  6
BYLAYER
100
AcDbLine
 10
619.8549164123512583
 20
-69.6428909882375393
 30
0.0
 11
609.2494699984115414
 21
-68.4467487052906733
 31
0.0
  0
LINE
  5
D4
100
AcDbEntity
  8
pred_rezilo
 62
256
370
-1
 48
1.0
  6
BYLAYER
100
AcDbLine
 10
493.0331481416118891
 20
8.7930479939864874
 30
0.0
 11
493.1141668160616973
 21
19.4654275774902814
 31
0.0
  0
LINE
  5
D5
100
AcDbEntity
  8
pred_rezilo
 62
256
370
-1
 48
1.0
  6
BYLAYER
100
AcDbLine
 10
501.8589206535081644
 20
-12.764664262227484
 30
0.0
 11
499.7192563912806236
 21
-2.3086570489100637
 31
0.0
  0
LINE
  5
D6
100
AcDbEntity
  8
pred_rezilo
 62
256
370
-1
 48
1.0
  6
BYLAYER
100
AcDbLine
 10
514.973929265994002
 20
-32.0163074972316508
 30
0.0
 11
510.7070956625968847
 21
-22.2336503428118846
 31
0.0
  0
LINE
  5
D7
100
AcDbEntity
  8
pred_rezilo
 62
256
370
-1
 48
1.0
  6
BYLAYER
100
AcDbLine
 10
531.8049851699101964
 20
-48.1204925220226443
 30
0.0
 11
525.5974633283509547
 21
-39.4387344865459113
 31
0.0
  0
LINE
  5
D8
100
AcDbEntity
  8
pred_rezilo
 62
256
370
-1
 48
1.0
  6
BYLAYER
100
AcDbLine
 10
505.2339206535081644
 20
98.6103357377724592
 30
0.0
 11
513.2192563912806236
 21
105.6913429510900357
 31
0.0
  0
LINE
  5
D9
100
AcDbEntity
  8
pred_rezilo
 62
256
370
-1
 48
1.0
  6
BYLAYER
100
AcDbLine
 10
495.1190128536427437
 20
77.6265834910059311
 30
0.0
 11
501.457625664185116
 21
86.2130983624787746
 31
0.0
  0
LINE
  5
DA
100
AcDbEntity
  8
pred_rezilo
 62
256
370
-1
 48
1.0
  6
BYLAYER
100
AcDbLine
 10
489.587907466886918
 20
54.9983689933027904
 30
0.0
 11
494.0027695543398636
 21
64.7151196203783456
 31
0.0
  0
LINE
  5
DB
100
AcDbEntity
  8
pred_rezilo
 62
256
370
-1
 48
1.0
  6
BYLAYER
100
AcDbLine
 10
488.8823403398303071
 20
31.7146538004330338
 30
0.0
 11
491.1805010461132497
 21
42.1369715545651644
 31
0.0
  0
LINE
  5
DC
100
AcDbEntity
  8
pred_rezilo
 62
256
370
-1
 48
1.0
  6
BYLAYER
100
AcDbLine
 10
580.1450835876487417
 20
149.6428909882372977
 30
0.0
 11
590.7505300015882312
 21
148.4467487052908439
 31
0.0
  0
LINE
  5
DD
100
AcDbEntity
  8
pred_rezilo
 62
256
370
-1
 48
1.0
  6
BYLAYER
100
AcDbLine
 10
603.375
 20
151.3750000000000853
 30
0.0
 11
613.5
 21
148.0000000000000568
 31
0.0
  0
LINE
  5
DE
100
AcDbEntity
  8
zagin_list
 62
256
370
-1
 48
1.0
  6
BYLAYER
100
AcDbLine
 10
-11.2499999999999982
 20
209.2499999999999432
 30
0.0
 11
-6.75
 21
222.7499999999999432
 31
0.0
  0
LINE
  5
DF
100
AcDbEntity
  8
zagin_list
 62
256
370
-1
 48
1.0
  6
BYLAYER
100
AcDbLine
 10
-54.5096818118714737
 20
202.3383789318490074
 30
0.0
 11
-52.9148254346090852
 21
216.478974150435306
 31
0.0
  0
LINE
  5
E0
100
AcDbEntity
  8
zagin_list
 62
256
370
-1
 48
1.0
  6
BYLAYER
100
AcDbLine
 10
-95.3870289620904828
 20
186.5835997771114592
 30
0.0
 11
-96.7670190842219995
 21
200.7467783491277089
 31
0.0
  0
LINE
  5
E1
100
AcDbEntity
  8
zagin_list
 62
256
370
-1
 48
1.0
  6
BYLAYER
100
AcDbLine
 10
-132.0955052289181708
 20
162.6742219846673834
 30
0.0
 11
-136.3900296601792945
 21
176.2409850440452885
 31
0.0
  0
LINE
  5
E2
100
AcDbEntity
  8
zagin_list
 62
256
370
-1
 48
1.0
  6
BYLAYER
100
AcDbLine
 10
-163.0307740526818634
 20
131.655200093970393
 30
0.0
 11
-170.0521414680118255
 21
144.0326149944632164
 31
0.0
  0
LINE
  5
E3
100
AcDbEntity
  8
zagin_list
 62
256
370
-1
 48
1.0
  6
BYLAYER
100
AcDbLine
 10
-186.8408157418937492
 20
94.8822142074250792
 30
0.0
 11
-196.2821586929836712
 21
105.5293285244550532
 31
0.0
  0
LINE
  5
E4
100
AcDbEntity
  8
zagin_list
 62
256
370
-1
 48
1.0
  6
BYLAYER
100
AcDbLine
 10
-202.4850172214790405
 20
53.9624202646372524
 30
0.0
 11
-213.9337037167763356
 21
62.413904012027217
 31
0.0
  0
LINE
  5
E5
100
AcDbEntity
  8
zagin_list
 62
256
370
-1
 48
1.0
  6
BYLAYER
100
AcDbLine
 10
-209.279651817572244
 20
10.6842096158634323
 30
0.0
 11
-222.2353193203394994
 21
16.5706923991340602
 31
0.0
  0
LINE
  5
E6
100
AcDbEntity
  8
zagin_list
 62
256
370
-1
 48
1.0
  6
BYLAYER
100
AcDbLine
 10
-206.9277613940500657
 20
-33.0609522616495113
 30
0.0
 11
-220.8241850662262209
 21
-29.9967379866056163
 31
0.0
  0
LINE
  5
E7
100
AcDbEntity
  8
zagin_list
 62
256
370
-1
 48
1.0
  6
BYLAYER
100
AcDbLine
 10
-195.5321348480427162
 20
-75.3611918812782307
 30
0.0
 11
-209.7619742927145126
 21
-75.2531669820118481
 31
0.0
  0
LINE
  5
E8
100
AcDbEntity
  8
zagin_list
 62
256
370
-1
 48
1.0
  6
BYLAYER
100
AcDbLine
 10
-175.5908157418937776
 20
-114.3677857925748924
 30
0.0
 11
-189.5321586929837281
 21
-117.2206714755448616
 31
0.0
  0
LINE
  5
E9
100
AcDbEntity
  8
zagin_list
 62
256
370
-1
 48
1.0
  6
BYLAYER
100
AcDbLine
 10
-147.9753354096076237
 20
-148.3759586672117052
 30
0.0
 11
-161.018878282167293
 21
-154.0650701384080037
 31
0.0
  0
LINE
  5
EA
100
AcDbEntity
  8
zagin_list
 62
256
370
-1
 48
1.0
  6
BYLAYER
100
AcDbLine
 10
-113.8926228554818181
 20
-175.8993901612480499
 30
0.0
 11
-125.4683002361174715
 21
-184.1760859499937055
 31
0.0
  0
LINE
  5
EB
100
AcDbEntity
  8
zagin_list
 62
256
370
-1
 48
1.0
  6
BYLAYER
100
AcDbLine
 10
-74.832256165132037
 20
-195.7351742463169444
 30
0.0
 11
-84.4341554060470258
 21
-206.2377230306509546
 31
0.0
  0
LINE
  5
EC
100
AcDbEntity
  8
zagin_list
 62
256
370
-1
 48
1.0
  6
BYLAYER
100
AcDbLine
 10
-32.5013607953608812
 20
-207.0163919752486095
 30
0.0
 11
-39.7098328247027439
 21
-219.2857819764750786
 31
0.0
  0
LINE
  5
ED
100
AcDbEntity
  8
zagin_list
 62
256
370
-1
 48
1.0
  6
BYLAYER
100
AcDbLine
 10
11.2499999999999947
 20
-209.2499999999999432
 30
0.0
 11
6.750000000000016
 21
-222.7499999999999432
 31
0.0
  0
LINE
  5
EE
100
AcDbEntity
  8
zagin_list
 62
256
370
-1
 48
1.0
  6
BYLAYER
100
AcDbLine
 10
54.5096818118713315
 20
-202.3383789318490358
 30
0.0
 11
52.9148254346089573
 21
-216.4789741504353344
 31
0.0
  0
LINE
  5
EF
100
AcDbEntity
  8
zagin_list
 62
256
370
-1
 48
1.0
  6
BYLAYER
100
AcDbLine
 10
95.3870289620903833
 20
-186.5835997771114876
 30
0.0
 11
96.7670190842219995
 21
-200.7467783491277089
 31
0.0
  0
LINE
  5
F0
100
AcDbEntity
  8
zagin_list
 62
256
370
-1
 48
1.0
  6
BYLAYER
100
AcDbLine
 10
132.0955052289181708
 20
-162.6742219846674118
 30
0.0
 11
136.3900296601792661
 21
-176.2409850440452885
 31
0.0
  0
LINE
  5
F1
100
AcDbEntity
  8
zagin_list
 62
256
370
-1
 48
1.0
  6
BYLAYER
100
AcDbLine
 10
163.0307740526818066
 20
-131.6552000939704783
 30
0.0
 11
170.0521414680117687
 21
-144.03261499446333
 31
0.0
  0
LINE
  5
F2
100
AcDbEntity
  8
zagin_list
 62
256
370
-1
 48
1.0
  6
BYLAYER
100
AcDbLine
 10
186.8408157418937208
 20
-94.8822142074251076
 30
0.0
 11
196.2821586929836712
 21
-105.5293285244550816
 31
0.0
  0
LINE
  5
F3
100
AcDbEntity
  8
zagin_list
 62
256
370
-1
 48
1.0
  6
BYLAYER
100
AcDbLine
 10
202.4850172214789836
 20
-53.9624202646372879
 30
0.0
 11
213.9337037167763356
 21
-62.4139040120272384
 31
0.0
  0
LINE
  5
F4
100
AcDbEntity
  8
zagin_list
 62
256
370
-1
 48
1.0
  6
BYLAYER
100
AcDbLine
 10
209.279651817572244
 20
-10.6842096158635513
 30
0.0
 11
222.2353193203394994
 21
-16.5706923991340886
 31
0.0
  0
LINE
  5
F5
100
AcDbEntity
  8
zagin_list
 62
256
370
-1
 48
1.0
  6
BYLAYER
100
AcDbLine
 10
206.9277613940500657
 20
33.0609522616494829
 30
0.0
 11
220.8241850662262209
 21
29.9967379866055914
 31
0.0
  0
LINE
  5
F6
100
AcDbEntity
  8
zagin_list
 62
256
370
-1
 48
1.0
  6
BYLAYER
100
AcDbLine
 10
195.5321348480427162
 20
75.3611918812782022
 30
0.0
 11
209.7619742927145694
 21
75.2531669820118054
 31
0.0
  0
LINE
  5
F7
100
AcDbEntity
  8
zagin_list
 62
256
370
-1
 48
1.0
  6
BYLAYER
100
AcDbLine
 10
175.5908157418938345
 20
114.3677857925748071
 30
0.0
 11
189.5321586929837281
 21
117.2206714755448331
 31
0.0
  0
LINE
  5
F8
100
AcDbEntity
  8
zagin_list
 62
256
370
-1
 48
1.0
  6
BYLAYER
100
AcDbLine
 10
147.9753354096076237
 20
148.3759586672117052
 30
0.0
 11
161.018878282167293
 21
154.0650701384080037
 31
0.0
  0
LINE
  5
F9
100
AcDbEntity
  8
zagin_list
 62
256
370
-1
 48
1.0
  6
BYLAYER
100
AcDbLine
 10
113.8926228554818323
 20
175.8993901612480215
 30
0.0
 11
125.4683002361174715
 21
184.1760859499937055
 31
0.0
  0
LINE
  5
FA
100
AcDbEntity
  8
zagin_list
 62
256
370
-1
 48
1.0
  6
BYLAYER
100
AcDbLine
 10
74.8322561651320655
 20
195.7351742463168875
 30
0.0
 11
84.4341554060470401
 21
206.2377230306508977
 31
0.0
  0
LINE
  5
FB
100
AcDbEntity
  8
zagin_list
 62
256
370
-1
 48
1.0
  6
BYLAYER
100
AcDbLine
 10
32.5013607953609096
 20
207.0163919752486095
 30
0.0
 11
39.7098328247027723
 21
219.2857819764750786
 31
0.0
  0
LINE
  5
FC
100
AcDbEntity
  8
zagin_list
 62
256
370
-1
 48
1.0
  6
BYLAYER
100
AcDbLine
 10
-11.2499999999999716
 20
209.2499999999999432
 30
0.0
 11
-6.7499999999999893
 21
222.7499999999999432
 31
0.0
  0
LINE
  5
FD
100
AcDbEntity
  8
zob
 62
256
370
-1
 48
1.0
  6
BYLAYER
100
AcDbLine
 10
-11.2500000000000231
 20
209.2499999999998863
 30
0.0
 11
-6.750000000000024
 21
222.7499999999998863
 31
0.0
  0
LINE
  5
FE
100
AcDbEntity
  8
zob
 62
256
370
-1
 48
1.0
  6
BYLAYER
100
AcDbLine
 10
-11.2499999999999947
 20
209.2499999999998863
 30
0.0
 11
-6.7500000000000133
 21
222.7499999999998863
 31
0.0
  0
LINE
  5
FF
100
AcDbEntity
  8
pred_rezilo
 62
256
370
-1
 48
1.0
  6
BYLAYER
100
AcDbLine
 10
583.7493196023194741
 20
143.5081959876242763
 30
0.0
 11
580.1450835876487417
 21
149.6428909882372977
 31
0.0
  0
LINE
  5
100
100
AcDbEntity
  8
pred_rezilo
 62
256
370
-1
 48
1.0
  6
BYLAYER
100
AcDbLine
 10
562.5838719174340667
 20
137.8675871231583301
 30
0.0
 11
557.7829222969763805
 21
143.1188615153252499
 31
0.0
  0
LINE
  5
101
100
AcDbEntity
  8
pred_rezilo
 62
256
370
-1
 48
1.0
  6
BYLAYER
100
AcDbLine
 10
543.0536885722591478
 20
127.9496950806240676
 30
0.0
 11
537.2658498819412216
 21
132.0880429749968528
 31
0.0
  0
LINE
  5
102
100
AcDbEntity
  8
pred_rezilo
 62
256
370
-1
 48
1.0
  6
BYLAYER
100
AcDbLine
 10
526.0123322951960745
 20
114.1879793336033231
 30
0.0
 11
519.4905608589164103
 21
117.0325350692027655
 31
0.0
  0
LINE
  5
103
100
AcDbEntity
  8
pred_rezilo
 62
256
370
-1
 48
1.0
  6
BYLAYER
100
AcDbLine
 10
627.25484090593568
 20
141.1691894659245463
 30
0.0
 11
626.4574127173045781
 21
148.2394870752175962
 31
0.0
  0
LINE
  5
104
100
AcDbEntity
  8
pred_rezilo
 62
256
370
-1
 48
1.0
  6
BYLAYER
100
AcDbLine
 10
605.625
 20
144.6249999999998295
 30
0.0
 11
603.375
 21
151.3750000000000853
 31
0.0
  0
LINE
  5
105
100
AcDbEntity
  8
pred_rezilo
 62
256
370
-1
 48
1.0
  6
BYLAYER
100
AcDbLine
 10
605.625
 20
144.6249999999998295
 30
0.0
 11
603.375
 21
151.3750000000000853
 31
0.0
  0
LINE
  5
106
100
AcDbEntity
  8
pred_rezilo
 62
256
370
-1
 48
1.0
  6
BYLAYER
100
AcDbLine
 10
693.4204078709469741
 20
87.4411071037125254
 30
0.0
 11
698.1410793464917788
 21
92.7646642622278392
 31
0.0
  0
LINE
  5
107
100
AcDbEntity
  8
pred_rezilo
 62
256
370
-1
 48
1.0
  6
BYLAYER
100
AcDbLine
 10
681.5153870263410454
 20
105.8276000469851539
 30
0.0
 11
685.026070734005998
 21
112.0163074972340382
 31
0.0
  0
LINE
  5
108
100
AcDbEntity
  8
pred_rezilo
 62
256
370
-1
 48
1.0
  6
BYLAYER
100
AcDbLine
 10
666.0477526144591138
 20
121.3371109923334075
 30
0.0
 11
668.1950148300895762
 21
128.1204925220226301
 31
0.0
  0
LINE
  5
109
100
AcDbEntity
  8
pred_rezilo
 62
256
370
-1
 48
1.0
  6
BYLAYER
100
AcDbLine
 10
647.6935144810453266
 20
133.2917998885553175
 30
0.0
 11
648.3835095421109145
 21
140.3733891745633855
 31
0.0
  0
LINE
  5
10A
100
AcDbEntity
  8
pred_rezilo
 62
256
370
-1
 48
1.0
  6
BYLAYER
100
AcDbLine
 10
697.7660674240212302
 20
2.3194040593608065
 30
0.0
 11
704.8809871463572563
 21
2.3734165089938557
 31
0.0
  0
LINE
  5
10B
100
AcDbEntity
  8
pred_rezilo
 62
256
370
-1
 48
1.0
  6
BYLAYER
100
AcDbLine
 10
703.4638806970249334
 20
23.4695238691752124
 30
0.0
 11
710.412092533113082
 21
25.0016310066974974
 31
0.0
  0
LINE
  5
10C
100
AcDbEntity
  8
pred_rezilo
 62
256
370
-1
 48
1.0
  6
BYLAYER
100
AcDbLine
 10
704.6398259087861788
 20
45.3421048079316051
 30
0.0
 11
711.1176596601696929
 21
48.2853461995669591
 31
0.0
  0
LINE
  5
10D
100
AcDbEntity
  8
pred_rezilo
 62
256
370
-1
 48
1.0
  6
BYLAYER
100
AcDbLine
 10
701.2425086107396055
 20
66.9812101323184663
 30
0.0
 11
706.9668518583882815
 21
71.2069520060136512
 31
0.0
  0
LINE
  5
10E
100
AcDbEntity
  8
pred_rezilo
 62
256
370
-1
 48
1.0
  6
BYLAYER
100
AcDbLine
 10
637.4161280825660469
 20
-57.8675871231583585
 30
0.0
 11
642.2170777030235058
 21
-63.1188615153255341
 31
0.0
  0
LINE
  5
10F
100
AcDbEntity
  8
pred_rezilo
 62
256
370
-1
 48
1.0
  6
BYLAYER
100
AcDbLine
 10
656.9463114277408522
 20
-47.9496950806240818
 30
0.0
 11
662.7341501180587784
 21
-52.0880429749968528
 31
0.0
  0
LINE
  5
110
100
AcDbEntity
  8
pred_rezilo
 62
256
370
-1
 48
1.0
  6
BYLAYER
100
AcDbLine
 10
673.9876677048036981
 20
-34.1879793336058526
 30
0.0
 11
680.5094391410835897
 21
-37.0325350692041297
 31
0.0
  0
LINE
  5
111
100
AcDbEntity
  8
pred_rezilo
 62
256
370
-1
 48
1.0
  6
BYLAYER
100
AcDbLine
 10
687.7954078709467467
 20
-17.183892896287432
 30
0.0
 11
694.7660793464917788
 21
-18.6103357377724024
 31
0.0
  0
LINE
  5
112
100
AcDbEntity
  8
pred_rezilo
 62
256
370
-1
 48
1.0
  6
BYLAYER
100
AcDbLine
 10
552.3064855189546734
 20
-53.2917998885557438
 30
0.0
 11
551.6164904578888581
 21
-60.3733891745638545
 31
0.0
  0
LINE
  5
113
100
AcDbEntity
  8
pred_rezilo
 62
256
370
-1
 48
1.0
  6
BYLAYER
100
AcDbLine
 10
572.74515909406432
 20
-61.1691894659245037
 30
0.0
 11
573.5425872826954219
 21
-68.2394870752176672
 31
0.0
  0
LINE
  5
114
100
AcDbEntity
  8
pred_rezilo
 62
256
370
-1
 48
1.0
  6
BYLAYER
100
AcDbLine
 10
594.375
 20
-64.6249999999998721
 30
0.0
 11
596.625
 21
-71.3749999999999147
 31
0.0
  0
LINE
  5
115
100
AcDbEntity
  8
pred_rezilo
 62
256
370
-1
 48
1.0
  6
BYLAYER
100
AcDbLine
 10
616.2506803976805259
 20
-63.5081959876242621
 30
0.0
 11
619.8549164123512583
 21
-69.6428909882375393
 31
0.0
  0
LINE
  5
116
100
AcDbEntity
  8
pred_rezilo
 62
256
370
-1
 48
1.0
  6
BYLAYER
100
AcDbLine
 10
498.757491389260565
 20
13.0187898676814591
 30
0.0
 11
493.0331481416118891
 21
8.7930479939865087
 31
0.0
  0
LINE
  5
117
100
AcDbEntity
  8
pred_rezilo
 62
256
370
-1
 48
1.0
  6
BYLAYER
100
AcDbLine
 10
506.5795921290530828
 20
-7.441107103712497
 30
0.0
 11
501.8589206535081644
 21
-12.7646642622274697
 31
0.0
  0
LINE
  5
118
100
AcDbEntity
  8
pred_rezilo
 62
256
370
-1
 48
1.0
  6
BYLAYER
100
AcDbLine
 10
518.4846129736589546
 20
-25.8276000469852676
 30
0.0
 11
514.973929265994002
 21
-32.0163074972316508
 31
0.0
  0
LINE
  5
119
100
AcDbEntity
  8
pred_rezilo
 62
256
370
-1
 48
1.0
  6
BYLAYER
100
AcDbLine
 10
533.9522473855408862
 20
-41.3371109923337059
 30
0.0
 11
531.8049851699101964
 21
-48.1204925220226443
 31
0.0
  0
LINE
  5
11A
100
AcDbEntity
  8
pred_rezilo
 62
256
370
-1
 48
1.0
  6
BYLAYER
100
AcDbLine
 10
512.2045921290530259
 20
97.1838928962874462
 30
0.0
 11
505.2339206535081644
 21
98.6103357377724592
 31
0.0
  0
LINE
  5
11B
100
AcDbEntity
  8
pred_rezilo
 62
256
370
-1
 48
1.0
  6
BYLAYER
100
AcDbLine
 10
502.2339325759785993
 20
77.6805959406391082
 30
0.0
 11
495.1190128536427437
 21
77.6265834910059311
 31
0.0
  0
LINE
  5
11C
100
AcDbEntity
  8
pred_rezilo
 62
256
370
-1
 48
1.0
  6
BYLAYER
100
AcDbLine
 10
496.5361193029750098
 20
56.5304761308248231
 30
0.0
 11
489.587907466886918
 21
54.9983689933028046
 31
0.0
  0
LINE
  5
11D
100
AcDbEntity
  8
pred_rezilo
 62
256
370
-1
 48
1.0
  6
BYLAYER
100
AcDbLine
 10
495.3601740912138212
 20
34.6578951920682812
 30
0.0
 11
488.8823403398303071
 21
31.7146538004330658
 31
0.0
  0
ARC
  5
11E
100
AcDbEntity
  8
zagin_list
 62
256
370
-1
 48
1.0
  6
BYLAYER
100
AcDbCircle
 10
-43.5055213036161348
 20
204.677385453548851
 30
0.0
 40
11.2499999999999982
100
AcDbArc
 50
281.9999999999999432
 51
343.153505134505906
  0
ARC
  5
11F
100
AcDbEntity
  8
zagin_list
 62
256
370
-1
 48
1.0
  6
BYLAYER
100
AcDbCircle
 10
0.0
 20
209.2499999999999432
 30
0.0
 40
11.2499999999999982
100
AcDbArc
 50
180.0
 51
270.0
  0
ARC
  5
120
100
AcDbEntity
  8
zagin_list
 62
256
370
-1
 48
1.0
  6
BYLAYER
100
AcDbCircle
 10
-43.5055213036161348
 20
204.677385453548851
 30
0.0
 40
11.2499999999999982
100
AcDbArc
 50
192.0
 51
282.0
  0
ARC
  5
121
100
AcDbEntity
  8
zagin_list
 62
256
370
-1
 48
1.0
  6
BYLAYER
100
AcDbCircle
 10
-85.1096425636112031
 20
191.159387011714216
 30
0.0
 40
11.2499999999999982
100
AcDbArc
 50
294.0
 51
355.1535051345059628
  0
ARC
  5
122
100
AcDbEntity
  8
zagin_list
 62
256
370
-1
 48
1.0
  6
BYLAYER
100
AcDbCircle
 10
-85.1096425636111462
 20
191.1593870117142444
 30
0.0
 40
11.2499999999999982
100
AcDbArc
 50
204.0
 51
294.0
  0
ARC
  5
123
100
AcDbEntity
  8
zagin_list
 62
256
370
-1
 48
1.0
  6
BYLAYER
100
AcDbCircle
 10
-122.994064042199966
 20
169.2868060729577451
 30
0.0
 40
11.2499999999999982
100
AcDbArc
 50
305.9999999999999432
 51
7.1535051345059166
  0
ARC
  5
124
100
AcDbEntity
  8
zagin_list
 62
256
370
-1
 48
1.0
  6
BYLAYER
100
AcDbCircle
 10
-122.994064042199966
 20
169.2868060729577451
 30
0.0
 40
11.2499999999999982
100
AcDbArc
 50
216.0
 51
306.0
  0
ARC
  5
125
100
AcDbEntity
  8
zagin_list
 62
256
370
-1
 48
1.0
  6
BYLAYER
100
AcDbCircle
 10
-155.5030547311447435
 20
140.0155793805910207
 30
0.0
 40
11.2499999999999982
100
AcDbArc
 50
317.9999999999999432
 51
19.1535051345059344
  0
ARC
  5
126
100
AcDbEntity
  8
zagin_list
 62
256
370
-1
 48
1.0
  6
BYLAYER
100
AcDbCircle
 10
-155.5030547311446867
 20
140.0155793805910776
 30
0.0
 40
11.2499999999999982
100
AcDbArc
 50
228.0
 51
318.0000000000000568
  0
ARC
  5
127
100
AcDbEntity
  8
zagin_list
 62
256
370
-1
 48
1.0
  6
BYLAYER
100
AcDbCircle
 10
-181.2158157418937492
 20
104.6249999999999574
 30
0.0
 40
11.2499999999999982
100
AcDbArc
 50
330.0
 51
31.1535051345059522
  0
ARC
  5
128
100
AcDbEntity
  8
zagin_list
 62
256
370
-1
 48
1.0
  6
BYLAYER
100
AcDbCircle
 10
-181.2158157418937208
 20
104.6250000000000426
 30
0.0
 40
11.2499999999999982
100
AcDbArc
 50
240.0
 51
330.0
  0
ARC
  5
129
100
AcDbEntity
  8
zagin_list
 62
256
370
-1
 48
1.0
  6
BYLAYER
100
AcDbCircle
 10
-199.0085760347608357
 20
64.6618060729577593
 30
0.0
 40
11.2499999999999982
100
AcDbArc
 50
341.9999999999999432
 51
43.1535051345059202
  0
ARC
  5
12A
100
AcDbEntity
  8
zagin_list
 62
256
370
-1
 48
1.0
  6
BYLAYER
100
AcDbCircle
 10
-199.0085760347608357
 20
64.6618060729577593
 30
0.0
 40
11.2499999999999982
100
AcDbArc
 50
251.9999999999999716
 51
342.0
  0
ARC
  5
12B
100
AcDbEntity
  8
zagin_list
 62
256
370
-1
 48
1.0
  6
BYLAYER
100
AcDbCircle
 10
-208.1037066058112259
 20
21.872580938756446
 30
0.0
 40
11.2499999999999982
100
AcDbArc
 50
354.0
 51
55.1535051345059344
  0
ARC
  5
12C
100
AcDbEntity
  8
zagin_list
 62
256
370
-1
 48
1.0
  6
BYLAYER
100
AcDbCircle
 10
-208.1037066058111691
 20
21.872580938756542
 30
0.0
 40
11.2499999999999982
100
AcDbArc
 50
264.0
 51
354.0
  0
ARC
  5
12D
100
AcDbEntity
  8
zagin_list
 62
256
370
-1
 48
1.0
  6
BYLAYER
100
AcDbCircle
 10
-208.1037066058112259
 20
-21.8725809387563999
 30
0.0
 40
11.2499999999999982
100
AcDbArc
 50
5.9999999999999325
 51
67.1535051345059486
  0
ARC
  5
12E
100
AcDbEntity
  8
zagin_list
 62
256
370
-1
 48
1.0
  6
BYLAYER
100
AcDbCircle
 10
-208.1037066058112259
 20
-21.8725809387563999
 30
0.0
 40
11.2499999999999982
100
AcDbArc
 50
276.0
 51
5.9999999999999822
  0
ARC
  5
12F
100
AcDbEntity
  8
zagin_list
 62
256
370
-1
 48
1.0
  6
BYLAYER
100
AcDbCircle
 10
-199.0085760347608925
 20
-64.6618060729577167
 30
0.0
 40
11.2499999999999982
100
AcDbArc
 50
17.9999999999999503
 51
79.1535051345059202
  0
ARC
  5
130
100
AcDbEntity
  8
zagin_list
 62
256
370
-1
 48
1.0
  6
BYLAYER
100
AcDbCircle
 10
-199.0085760347608925
 20
-64.6618060729577167
 30
0.0
 40
11.2499999999999982
100
AcDbArc
 50
288.0
 51
18.0
  0
ARC
  5
131
100
AcDbEntity
  8
zagin_list
 62
256
370
-1
 48
1.0
  6
BYLAYER
100
AcDbCircle
 10
-181.2158157418937492
 20
-104.625
 30
0.0
 40
11.2499999999999982
100
AcDbArc
 50
29.999999999999968
 51
91.1535051345059486
  0
ARC
  5
132
100
AcDbEntity
  8
zagin_list
 62
256
370
-1
 48
1.0
  6
BYLAYER
100
AcDbCircle
 10
-181.2158157418937776
 20
-104.6249999999999432
 30
0.0
 40
11.2499999999999982
100
AcDbArc
 50
300.0
 51
29.999999999999968
  0
ARC
  5
133
100
AcDbEntity
  8
zagin_list
 62
256
370
-1
 48
1.0
  6
BYLAYER
100
AcDbCircle
 10
-155.5030547311448004
 20
-140.0155793805910207
 30
0.0
 40
11.2499999999999982
100
AcDbArc
 50
41.9999999999999289
 51
103.1535051345059628
  0
ARC
  5
134
100
AcDbEntity
  8
zagin_list
 62
256
370
-1
 48
1.0
  6
BYLAYER
100
AcDbCircle
 10
-155.5030547311448004
 20
-140.0155793805910207
 30
0.0
 40
11.2499999999999982
100
AcDbArc
 50
311.9999999999999432
 51
41.9999999999999787
  0
ARC
  5
135
100
AcDbEntity
  8
zagin_list
 62
256
370
-1
 48
1.0
  6
BYLAYER
100
AcDbCircle
 10
-122.9940640422000229
 20
-169.2868060729577167
 30
0.0
 40
11.2499999999999982
100
AcDbArc
 50
53.9999999999999503
 51
115.1535051345059202
  0
ARC
  5
136
100
AcDbEntity
  8
zagin_list
 62
256
370
-1
 48
1.0
  6
BYLAYER
100
AcDbCircle
 10
-122.9940640422000229
 20
-169.2868060729577167
 30
0.0
 40
11.2499999999999982
100
AcDbArc
 50
324.0
 51
54.0
  0
ARC
  5
137
100
AcDbEntity
  8
zagin_list
 62
256
370
-1
 48
1.0
  6
BYLAYER
100
AcDbCircle
 10
-85.1096425636111604
 20
-191.1593870117142444
 30
0.0
 40
11.2499999999999982
100
AcDbArc
 50
65.9999999999999716
 51
127.153505134505977
  0
ARC
  5
138
100
AcDbEntity
  8
zagin_list
 62
256
370
-1
 48
1.0
  6
BYLAYER
100
AcDbCircle
 10
-85.1096425636113167
 20
-191.1593870117141591
 30
0.0
 40
11.2499999999999982
100
AcDbArc
 50
335.9999999999999432
 51
65.9999999999999716
  0
ARC
  5
139
100
AcDbEntity
  8
zagin_list
 62
256
370
-1
 48
1.0
  6
BYLAYER
100
AcDbCircle
 10
-43.5055213036162343
 20
-204.6773854535488226
 30
0.0
 40
11.2499999999999982
100
AcDbArc
 50
77.9999999999999289
 51
139.1535051345059628
  0
ARC
  5
13A
100
AcDbEntity
  8
zagin_list
 62
256
370
-1
 48
1.0
  6
BYLAYER
100
AcDbCircle
 10
-43.5055213036162343
 20
-204.6773854535488226
 30
0.0
 40
11.2499999999999982
100
AcDbArc
 50
348.0
 51
77.9999999999999858
  0
ARC
  5
13B
100
AcDbEntity
  8
zagin_list
 62
256
370
-1
 48
1.0
  6
BYLAYER
100
AcDbCircle
 10
-0.0000000000000384
 20
-209.2499999999999432
 30
0.0
 40
11.2499999999999982
100
AcDbArc
 50
89.9999999999999432
 51
151.153505134505906
  0
ARC
  5
13C
100
AcDbEntity
  8
zagin_list
 62
256
370
-1
 48
1.0
  6
BYLAYER
100
AcDbCircle
 10
-0.0000000000000384
 20
-209.2499999999999432
 30
0.0
 40
11.2499999999999982
100
AcDbArc
 50
0.0
 51
90.0
  0
ARC
  5
13D
100
AcDbEntity
  8
zagin_list
 62
256
370
-1
 48
1.0
  6
BYLAYER
100
AcDbCircle
 10
43.505521303616149
 20
-204.6773854535488226
 30
0.0
 40
11.2499999999999982
100
AcDbArc
 50
101.9999999999999574
 51
163.1535051345059912
  0
ARC
  5
13E
100
AcDbEntity
  8
zagin_list
 62
256
370
-1
 48
1.0
  6
BYLAYER
100
AcDbCircle
 10
43.5055213036159714
 20
-204.677385453548851
 30
0.0
 40
11.2499999999999982
100
AcDbArc
 50
11.9999999999999645
 51
101.9999999999999574
  0
ARC
  5
13F
100
AcDbEntity
  8
zagin_list
 62
256
370
-1
 48
1.0
  6
BYLAYER
100
AcDbCircle
 10
85.1096425636110894
 20
-191.1593870117142444
 30
0.0
 40
11.2499999999999982
100
AcDbArc
 50
113.9999999999999289
 51
175.1535051345059344
  0
ARC
  5
140
100
AcDbEntity
  8
zagin_list
 62
256
370
-1
 48
1.0
  6
BYLAYER
100
AcDbCircle
 10
85.1096425636110894
 20
-191.1593870117142444
 30
0.0
 40
11.2499999999999982
100
AcDbArc
 50
23.9999999999999858
 51
114.0000000000000284
  0
ARC
  5
141
100
AcDbEntity
  8
zagin_list
 62
256
370
-1
 48
1.0
  6
BYLAYER
100
AcDbCircle
 10
122.9940640421999518
 20
-169.2868060729577451
 30
0.0
 40
11.2499999999999982
100
AcDbArc
 50
125.9999999999998863
 51
187.1535051345059344
  0
ARC
  5
142
100
AcDbEntity
  8
zagin_list
 62
256
370
-1
 48
1.0
  6
BYLAYER
100
AcDbCircle
 10
122.9940640421999518
 20
-169.2868060729577451
 30
0.0
 40
11.2499999999999982
100
AcDbArc
 50
36.0
 51
125.9999999999999858
  0
ARC
  5
143
100
AcDbEntity
  8
zagin_list
 62
256
370
-1
 48
1.0
  6
BYLAYER
100
AcDbCircle
 10
155.5030547311447151
 20
-140.0155793805910207
 30
0.0
 40
11.2499999999999982
100
AcDbArc
 50
137.9999999999999716
 51
199.1535051345059912
  0
ARC
  5
144
100
AcDbEntity
  8
zagin_list
 62
256
370
-1
 48
1.0
  6
BYLAYER
100
AcDbCircle
 10
155.5030547311446014
 20
-140.0155793805911912
 30
0.0
 40
11.2499999999999982
100
AcDbArc
 50
47.9999999999999716
 51
137.9999999999999716
  0
ARC
  5
145
100
AcDbEntity
  8
zagin_list
 62
256
370
-1
 48
1.0
  6
BYLAYER
100
AcDbCircle
 10
181.2158157418937208
 20
-104.6250000000000853
 30
0.0
 40
11.2499999999999982
100
AcDbArc
 50
149.9999999999999147
 51
211.1535051345059628
  0
ARC
  5
146
100
AcDbEntity
  8
zagin_list
 62
256
370
-1
 48
1.0
  6
BYLAYER
100
AcDbCircle
 10
181.2158157418937208
 20
-104.6250000000000853
 30
0.0
 40
11.2499999999999982
100
AcDbArc
 50
59.9999999999999858
 51
150.0000000000000284
  0
ARC
  5
147
100
AcDbEntity
  8
zagin_list
 62
256
370
-1
 48
1.0
  6
BYLAYER
100
AcDbCircle
 10
199.0085760347608357
 20
-64.6618060729578019
 30
0.0
 40
11.2499999999999982
100
AcDbArc
 50
161.9999999999999147
 51
223.153505134505906
  0
ARC
  5
148
100
AcDbEntity
  8
zagin_list
 62
256
370
-1
 48
1.0
  6
BYLAYER
100
AcDbCircle
 10
199.0085760347608357
 20
-64.6618060729578019
 30
0.0
 40
11.2499999999999982
100
AcDbArc
 50
72.0
 51
162.0
  0
ARC
  5
149
100
AcDbEntity
  8
zagin_list
 62
256
370
-1
 48
1.0
  6
BYLAYER
100
AcDbCircle
 10
208.1037066058111691
 20
-21.872580938756478
 30
0.0
 40
11.2499999999999982
100
AcDbArc
 50
173.9999999999999716
 51
235.1535051345059912
  0
ARC
  5
14A
100
AcDbEntity
  8
zagin_list
 62
256
370
-1
 48
1.0
  6
BYLAYER
100
AcDbCircle
 10
208.1037066058111691
 20
-21.8725809387566592
 30
0.0
 40
11.2499999999999982
100
AcDbArc
 50
83.9999999999999574
 51
173.9999999999999716
  0
ARC
  5
14B
100
AcDbEntity
  8
zagin_list
 62
256
370
-1
 48
1.0
  6
BYLAYER
100
AcDbCircle
 10
208.1037066058112259
 20
21.8725809387563714
 30
0.0
 40
11.2499999999999982
100
AcDbArc
 50
185.9999999999999432
 51
247.1535051345058775
  0
ARC
  5
14C
100
AcDbEntity
  8
zagin_list
 62
256
370
-1
 48
1.0
  6
BYLAYER
100
AcDbCircle
 10
208.1037066058112259
 20
21.8725809387563714
 30
0.0
 40
11.2499999999999982
100
AcDbArc
 50
95.9999999999999716
 51
186.0000000000000284
  0
ARC
  5
14D
100
AcDbEntity
  8
zagin_list
 62
256
370
-1
 48
1.0
  6
BYLAYER
100
AcDbCircle
 10
199.0085760347608925
 20
64.6618060729576882
 30
0.0
 40
11.2499999999999982
100
AcDbArc
 50
197.9999999999998863
 51
259.153505134505906
  0
ARC
  5
14E
100
AcDbEntity
  8
zagin_list
 62
256
370
-1
 48
1.0
  6
BYLAYER
100
AcDbCircle
 10
199.0085760347608925
 20
64.6618060729576882
 30
0.0
 40
11.2499999999999982
100
AcDbArc
 50
108.0
 51
198.0000000000000284
  0
ARC
  5
14F
100
AcDbEntity
  8
zagin_list
 62
256
370
-1
 48
1.0
  6
BYLAYER
100
AcDbCircle
 10
181.2158157418937492
 20
104.6249999999999716
 30
0.0
 40
11.2499999999999982
100
AcDbArc
 50
209.9999999999999716
 51
271.1535051345059628
  0
ARC
  5
150
100
AcDbEntity
  8
zagin_list
 62
256
370
-1
 48
1.0
  6
BYLAYER
100
AcDbCircle
 10
181.2158157418938345
 20
104.6249999999998295
 30
0.0
 40
11.2499999999999982
100
AcDbArc
 50
119.9999999999999716
 51
209.9999999999999716
  0
ARC
  5
151
100
AcDbEntity
  8
zagin_list
 62
256
370
-1
 48
1.0
  6
BYLAYER
100
AcDbCircle
 10
155.5030547311448004
 20
140.0155793805909923
 30
0.0
 40
11.2499999999999982
100
AcDbArc
 50
221.9999999999999432
 51
283.1535051345058491
  0
ARC
  5
152
100
AcDbEntity
  8
zagin_list
 62
256
370
-1
 48
1.0
  6
BYLAYER
100
AcDbCircle
 10
155.5030547311448004
 20
140.0155793805909923
 30
0.0
 40
11.2499999999999982
100
AcDbArc
 50
131.9999999999999432
 51
222.0000000000000568
  0
ARC
  5
153
100
AcDbEntity
  8
zagin_list
 62
256
370
-1
 48
1.0
  6
BYLAYER
100
AcDbCircle
 10
122.9940640422000371
 20
169.2868060729576882
 30
0.0
 40
11.2499999999999982
100
AcDbArc
 50
233.9999999999998863
 51
295.153505134505906
  0
ARC
  5
154
100
AcDbEntity
  8
zagin_list
 62
256
370
-1
 48
1.0
  6
BYLAYER
100
AcDbCircle
 10
122.9940640422000371
 20
169.2868060729576882
 30
0.0
 40
11.2499999999999982
100
AcDbArc
 50
144.0
 51
234.0
  0
ARC
  5
155
100
AcDbEntity
  8
zagin_list
 62
256
370
-1
 48
1.0
  6
BYLAYER
100
AcDbCircle
 10
85.1096425636111888
 20
191.159387011714216
 30
0.0
 40
11.2499999999999982
100
AcDbArc
 50
245.9999999999999716
 51
307.1535051345059628
  0
ARC
  5
156
100
AcDbEntity
  8
zagin_list
 62
256
370
-1
 48
1.0
  6
BYLAYER
100
AcDbCircle
 10
85.1096425636113736
 20
191.1593870117141591
 30
0.0
 40
11.2499999999999982
100
AcDbArc
 50
155.9999999999999716
 51
245.9999999999999716
  0
ARC
  5
157
100
AcDbEntity
  8
zagin_list
 62
256
370
-1
 48
1.0
  6
BYLAYER
100
AcDbCircle
 10
43.5055213036162627
 20
204.6773854535487658
 30
0.0
 40
11.2499999999999982
100
AcDbArc
 50
257.9999999999999432
 51
319.1535051345058491
  0
ARC
  5
158
100
AcDbEntity
  8
zagin_list
 62
256
370
-1
 48
1.0
  6
BYLAYER
100
AcDbCircle
 10
43.5055213036162627
 20
204.6773854535487658
 30
0.0
 40
11.2499999999999982
100
AcDbArc
 50
167.9999999999999147
 51
258.0000000000000568
  0
ARC
  5
159
100
AcDbEntity
  8
zagin_list
 62
256
370
-1
 48
1.0
  6
BYLAYER
100
AcDbCircle
 10
0.0000000000000641
 20
209.2499999999999432
 30
0.0
 40
11.2499999999999982
100
AcDbArc
 50
269.9999999999998863
 51
331.153505134505906
  0
ARC
  5
15A
100
AcDbEntity
  8
zagin_list
 62
256
370
-1
 48
1.0
  6
BYLAYER
100
AcDbCircle
 10
0.0000000000000641
 20
209.2499999999999432
 30
0.0
 40
11.2499999999999982
100
AcDbArc
 50
180.0
 51
270.0
  0
ARC
  5
15B
100
AcDbEntity
  8
zagin_list
 62
256
370
-1
 48
1.0
  6
BYLAYER
100
AcDbCircle
 10
-43.50552130361595
 20
204.677385453548851
 30
0.0
 40
11.2499999999999982
100
AcDbArc
 50
281.9999999999999432
 51
343.1535051345059628
  0
ARC
  5
15C
100
AcDbEntity
  8
zob
 62
256
370
-1
 48
1.0
  6
BYLAYER
100
AcDbCircle
 10
-0.000000000000024
 20
209.2499999999998863
 30
0.0
 40
11.2499999999999982
100
AcDbArc
 50
180.0
 51
270.0
  0
ARC
  5
15D
100
AcDbEntity
  8
zob
 62
256
370
-1
 48
1.0
  6
BYLAYER
100
AcDbCircle
 10
0.00000000000004
 20
209.2499999999998863
 30
0.0
 40
11.2499999999999982
100
AcDbArc
 50
180.0
 51
270.0
  0
ARC
  5
15E
100
AcDbEntity
  8
zob
 62
256
370
-1
 48
1.0
  6
BYLAYER
100
AcDbCircle
 10
-43.5055213036159714
 20
204.6773854535487658
 30
0.0
 40
11.2499999999999982
100
AcDbArc
 50
281.9999999999999432
 51
343.1535051345059628
  0
ARC
  5
15F
100
AcDbEntity
  8
pred_rezilo
 62
256
370
-1
 48
1.0
  6
BYLAYER
100
AcDbCircle
 10
600.0
 20
144.6250000000001705
 30
0.0
 40
5.6249999999999991
100
AcDbArc
 50
208.8464948654940656
 51
270.0000000000001137
  0
ARC
  5
160
100
AcDbEntity
  8
pred_rezilo
 62
256
370
-1
 48
1.0
  6
BYLAYER
100
AcDbCircle
 10
578.2472393481918971
 20
142.3386927267742976
 30
0.0
 40
5.6249999999999991
100
AcDbArc
 50
281.9999999999999432
 51
12.000000000000048
  0
ARC
  5
161
100
AcDbEntity
  8
pred_rezilo
 62
256
370
-1
 48
1.0
  6
BYLAYER
100
AcDbCircle
 10
578.2472393481918971
 20
142.3386927267742976
 30
0.0
 40
5.6249999999999991
100
AcDbArc
 50
220.846494865494094
 51
282.0000000000000568
  0
ARC
  5
162
100
AcDbEntity
  8
pred_rezilo
 62
256
370
-1
 48
1.0
  6
BYLAYER
100
AcDbCircle
 10
557.44517871819437
 20
135.5796935058571364
 30
0.0
 40
5.6249999999999991
100
AcDbArc
 50
294.0000000000000568
 51
24.0000000000000213
  0
ARC
  5
163
100
AcDbEntity
  8
pred_rezilo
 62
256
370
-1
 48
1.0
  6
BYLAYER
100
AcDbCircle
 10
557.44517871819437
 20
135.5796935058571364
 30
0.0
 40
5.6249999999999991
100
AcDbArc
 50
232.8464948654940372
 51
294.0000000000000568
  0
ARC
  5
164
100
AcDbEntity
  8
pred_rezilo
 62
256
370
-1
 48
1.0
  6
BYLAYER
100
AcDbCircle
 10
538.5029679788999601
 20
124.6434030364787873
 30
0.0
 40
5.6249999999999991
100
AcDbArc
 50
306.0
 51
35.9999999999999858
  0
ARC
  5
165
100
AcDbEntity
  8
pred_rezilo
 62
256
370
-1
 48
1.0
  6
BYLAYER
100
AcDbCircle
 10
538.5029679788999601
 20
124.6434030364787873
 30
0.0
 40
5.6249999999999991
100
AcDbArc
 50
244.846494865494094
 51
306.0000000000001137
  0
ARC
  5
166
100
AcDbEntity
  8
pred_rezilo
 62
256
370
-1
 48
1.0
  6
BYLAYER
100
AcDbCircle
 10
522.2484726344276851
 20
110.007789690295823
 30
0.0
 40
5.6249999999999991
100
AcDbArc
 50
317.9999999999999432
 51
48.0000000000000497
  0
ARC
  5
167
100
AcDbEntity
  8
pred_rezilo
 62
256
370
-1
 48
1.0
  6
BYLAYER
100
AcDbCircle
 10
642.55482128180563
 20
135.5796935058567669
 30
0.0
 40
5.6249999999999991
100
AcDbArc
 50
184.8464948654940372
 51
246.0
  0
ARC
  5
168
100
AcDbEntity
  8
pred_rezilo
 62
256
370
-1
 48
1.0
  6
BYLAYER
100
AcDbCircle
 10
621.7527606518081029
 20
142.3386927267745818
 30
0.0
 40
5.6249999999999991
100
AcDbArc
 50
258.0
 51
348.0000000000000568
  0
ARC
  5
169
100
AcDbEntity
  8
pred_rezilo
 62
256
370
-1
 48
1.0
  6
BYLAYER
100
AcDbCircle
 10
600.0
 20
144.6249999999997442
 30
0.0
 40
5.6249999999999991
100
AcDbArc
 50
270.0
 51
360.0
  0
ARC
  5
16A
100
AcDbEntity
  8
pred_rezilo
 62
256
370
-1
 48
1.0
  6
BYLAYER
100
AcDbCircle
 10
621.7527606518081029
 20
142.3386927267745818
 30
0.0
 40
5.6249999999999991
100
AcDbArc
 50
196.8464948654940372
 51
258.0000000000000568
  0
ARC
  5
16B
100
AcDbEntity
  8
pred_rezilo
 62
256
370
-1
 48
1.0
  6
BYLAYER
100
AcDbCircle
 10
621.7527606518081029
 20
142.3386927267738997
 30
0.0
 40
5.6249999999999991
100
AcDbArc
 50
196.8464948654940372
 51
258.0000000000000568
  0
ARC
  5
16C
100
AcDbEntity
  8
pred_rezilo
 62
256
370
-1
 48
1.0
  6
BYLAYER
100
AcDbCircle
 10
600.0
 20
144.6250000000001705
 30
0.0
 40
5.6249999999999991
100
AcDbArc
 50
270.0
 51
360.0
  0
ARC
  5
16D
100
AcDbEntity
  8
pred_rezilo
 62
256
370
-1
 48
1.0
  6
BYLAYER
100
AcDbCircle
 10
699.5042880173804178
 20
72.3309030364787873
 30
0.0
 40
5.6249999999999991
100
AcDbArc
 50
136.846494865494094
 51
198.0000000000000284
  0
ARC
  5
16E
100
AcDbEntity
  8
pred_rezilo
 62
256
370
-1
 48
1.0
  6
BYLAYER
100
AcDbCircle
 10
690.6079078709469741
 20
92.3125000000001137
 30
0.0
 40
5.6249999999999991
100
AcDbArc
 50
209.9999999999999716
 51
300.0000000000000568
  0
ARC
  5
16F
100
AcDbEntity
  8
pred_rezilo
 62
256
370
-1
 48
1.0
  6
BYLAYER
100
AcDbCircle
 10
690.6079078709469741
 20
92.3125000000001137
 30
0.0
 40
5.6249999999999991
100
AcDbArc
 50
148.8464948654940372
 51
209.9999999999999716
  0
ARC
  5
170
100
AcDbEntity
  8
pred_rezilo
 62
256
370
-1
 48
1.0
  6
BYLAYER
100
AcDbCircle
 10
677.7515273655723149
 20
110.0077896902952261
 30
0.0
 40
5.6249999999999991
100
AcDbArc
 50
221.9999999999999716
 51
312.0000000000000568
  0
ARC
  5
171
100
AcDbEntity
  8
pred_rezilo
 62
256
370
-1
 48
1.0
  6
BYLAYER
100
AcDbCircle
 10
677.7515273655723149
 20
110.0077896902952261
 30
0.0
 40
5.6249999999999991
100
AcDbArc
 50
160.8464948654940088
 51
222.0000000000000568
  0
ARC
  5
172
100
AcDbEntity
  8
pred_rezilo
 62
256
370
-1
 48
1.0
  6
BYLAYER
100
AcDbCircle
 10
661.4970320211000399
 20
124.6434030364786594
 30
0.0
 40
5.6249999999999991
100
AcDbArc
 50
234.0
 51
324.0
  0
ARC
  5
173
100
AcDbEntity
  8
pred_rezilo
 62
256
370
-1
 48
1.0
  6
BYLAYER
100
AcDbCircle
 10
661.4970320211000399
 20
124.6434030364786594
 30
0.0
 40
5.6249999999999991
100
AcDbArc
 50
172.8464948654940656
 51
234.0
  0
ARC
  5
174
100
AcDbEntity
  8
pred_rezilo
 62
256
370
-1
 48
1.0
  6
BYLAYER
100
AcDbCircle
 10
642.55482128180563
 20
135.5796935058567669
 30
0.0
 40
5.6249999999999991
100
AcDbArc
 50
246.0
 51
336.0
  0
ARC
  5
175
100
AcDbEntity
  8
pred_rezilo
 62
256
370
-1
 48
1.0
  6
BYLAYER
100
AcDbCircle
 10
690.6079078709467467
 20
-12.3125000000002842
 30
0.0
 40
5.6249999999999991
100
AcDbArc
 50
88.8464948654940514
 51
150.0000000000000284
  0
ARC
  5
176
100
AcDbEntity
  8
pred_rezilo
 62
256
370
-1
 48
1.0
  6
BYLAYER
100
AcDbCircle
 10
699.5042880173804178
 20
7.6690969635210848
 30
0.0
 40
5.6249999999999991
100
AcDbArc
 50
162.0
 51
251.9999999999999716
  0
ARC
  5
177
100
AcDbEntity
  8
pred_rezilo
 62
256
370
-1
 48
1.0
  6
BYLAYER
100
AcDbCircle
 10
699.5042880173804178
 20
7.6690969635210848
 30
0.0
 40
5.6249999999999991
100
AcDbArc
 50
100.8464948654940798
 51
162.0
  0
ARC
  5
178
100
AcDbEntity
  8
pred_rezilo
 62
256
370
-1
 48
1.0
  6
BYLAYER
100
AcDbCircle
 10
704.0518533029056698
 20
29.0637095306219031
 30
0.0
 40
5.6249999999999991
100
AcDbArc
 50
174.0
 51
264.0
  0
ARC
  5
179
100
AcDbEntity
  8
pred_rezilo
 62
256
370
-1
 48
1.0
  6
BYLAYER
100
AcDbCircle
 10
704.0518533029056698
 20
29.0637095306219031
 30
0.0
 40
5.6249999999999991
100
AcDbArc
 50
112.8464948654940372
 51
174.0000000000001705
  0
ARC
  5
17A
100
AcDbEntity
  8
pred_rezilo
 62
256
370
-1
 48
1.0
  6
BYLAYER
100
AcDbCircle
 10
704.0518533029055561
 20
50.9362904693784273
 30
0.0
 40
5.6249999999999991
100
AcDbArc
 50
186.0000000000000284
 51
276.0
  0
ARC
  5
17B
100
AcDbEntity
  8
pred_rezilo
 62
256
370
-1
 48
1.0
  6
BYLAYER
100
AcDbCircle
 10
704.0518533029055561
 20
50.9362904693784273
 30
0.0
 40
5.6249999999999991
100
AcDbArc
 50
124.8464948654940088
 51
186.0000000000000284
  0
ARC
  5
17C
100
AcDbEntity
  8
pred_rezilo
 62
256
370
-1
 48
1.0
  6
BYLAYER
100
AcDbCircle
 10
699.5042880173804178
 20
72.3309030364787873
 30
0.0
 40
5.6249999999999991
100
AcDbArc
 50
197.9999999999999716
 51
288.0
  0
ARC
  5
17D
100
AcDbEntity
  8
pred_rezilo
 62
256
370
-1
 48
1.0
  6
BYLAYER
100
AcDbCircle
 10
621.7527606518081029
 20
-62.3386927267743403
 30
0.0
 40
5.6249999999999991
100
AcDbArc
 50
40.8464948654940372
 51
102.0000000000000568
  0
ARC
  5
17E
100
AcDbEntity
  8
pred_rezilo
 62
256
370
-1
 48
1.0
  6
BYLAYER
100
AcDbCircle
 10
642.55482128180563
 20
-55.5796935058570938
 30
0.0
 40
5.6249999999999991
100
AcDbArc
 50
114.0000000000000142
 51
204.0
  0
ARC
  5
17F
100
AcDbEntity
  8
pred_rezilo
 62
256
370
-1
 48
1.0
  6
BYLAYER
100
AcDbCircle
 10
642.55482128180563
 20
-55.5796935058570654
 30
0.0
 40
5.6249999999999991
100
AcDbArc
 50
52.8464948654940017
 51
114.0000000000000142
  0
ARC
  5
180
100
AcDbEntity
  8
pred_rezilo
 62
256
370
-1
 48
1.0
  6
BYLAYER
100
AcDbCircle
 10
661.4970320210998125
 20
-44.643403036478901
 30
0.0
 40
5.6249999999999991
100
AcDbArc
 50
125.9999999999999858
 51
216.0
  0
ARC
  5
181
100
AcDbEntity
  8
pred_rezilo
 62
256
370
-1
 48
1.0
  6
BYLAYER
100
AcDbCircle
 10
661.4970320210998125
 20
-44.643403036478901
 30
0.0
 40
5.6249999999999991
100
AcDbArc
 50
64.8464948654940656
 51
126.0000000000000853
  0
ARC
  5
182
100
AcDbEntity
  8
pred_rezilo
 62
256
370
-1
 48
1.0
  6
BYLAYER
100
AcDbCircle
 10
677.7515273655723149
 20
-30.007789690295553
 30
0.0
 40
5.6249999999999991
100
AcDbArc
 50
137.9999999999999432
 51
228.0
  0
ARC
  5
183
100
AcDbEntity
  8
pred_rezilo
 62
256
370
-1
 48
1.0
  6
BYLAYER
100
AcDbCircle
 10
677.7515273655723149
 20
-30.007789690295553
 30
0.0
 40
5.6249999999999991
100
AcDbArc
 50
76.8464948654940372
 51
138.0000000000000568
  0
ARC
  5
184
100
AcDbEntity
  8
pred_rezilo
 62
256
370
-1
 48
1.0
  6
BYLAYER
100
AcDbCircle
 10
690.6079078709470878
 20
-12.3124999999997158
 30
0.0
 40
5.6249999999999991
100
AcDbArc
 50
150.0000000000000284
 51
240.0000000000000284
  0
ARC
  5
185
100
AcDbEntity
  8
pred_rezilo
 62
256
370
-1
 48
1.0
  6
BYLAYER
100
AcDbCircle
 10
538.5029679788999601
 20
-44.6434030364788157
 30
0.0
 40
5.6249999999999991
100
AcDbArc
 50
352.846494865494094
 51
54.0000000000000853
  0
ARC
  5
186
100
AcDbEntity
  8
pred_rezilo
 62
256
370
-1
 48
1.0
  6
BYLAYER
100
AcDbCircle
 10
557.44517871819437
 20
-55.5796935058570512
 30
0.0
 40
5.6249999999999991
100
AcDbArc
 50
65.9999999999999574
 51
155.9999999999999716
  0
ARC
  5
187
100
AcDbEntity
  8
pred_rezilo
 62
256
370
-1
 48
1.0
  6
BYLAYER
100
AcDbCircle
 10
557.44517871819437
 20
-55.5796935058570512
 30
0.0
 40
5.6249999999999991
100
AcDbArc
 50
4.8464948654940407
 51
66.0000000000000568
  0
ARC
  5
188
100
AcDbEntity
  8
pred_rezilo
 62
256
370
-1
 48
1.0
  6
BYLAYER
100
AcDbCircle
 10
578.2472393481918971
 20
-62.3386927267743829
 30
0.0
 40
5.6249999999999991
100
AcDbArc
 50
78.0000000000000284
 51
168.0
  0
ARC
  5
189
100
AcDbEntity
  8
pred_rezilo
 62
256
370
-1
 48
1.0
  6
BYLAYER
100
AcDbCircle
 10
578.2472393481918971
 20
-62.3386927267743403
 30
0.0
 40
5.6249999999999991
100
AcDbArc
 50
16.8464948654939946
 51
78.0000000000000284
  0
ARC
  5
18A
100
AcDbEntity
  8
pred_rezilo
 62
256
370
-1
 48
1.0
  6
BYLAYER
100
AcDbCircle
 10
599.9999999999997726
 20
-64.6250000000000853
 30
0.0
 40
5.6249999999999991
100
AcDbArc
 50
89.9999999999999858
 51
180.0
  0
ARC
  5
18B
100
AcDbEntity
  8
pred_rezilo
 62
256
370
-1
 48
1.0
  6
BYLAYER
100
AcDbCircle
 10
599.9999999999997726
 20
-64.6250000000000853
 30
0.0
 40
5.6249999999999991
100
AcDbArc
 50
28.8464948654940656
 51
90.0000000000000426
  0
ARC
  5
18C
100
AcDbEntity
  8
pred_rezilo
 62
256
370
-1
 48
1.0
  6
BYLAYER
100
AcDbCircle
 10
621.7527606518081029
 20
-62.3386927267743403
 30
0.0
 40
5.6249999999999991
100
AcDbArc
 50
101.9999999999999574
 51
192.0
  0
ARC
  5
18D
100
AcDbEntity
  8
pred_rezilo
 62
256
370
-1
 48
1.0
  6
BYLAYER
100
AcDbCircle
 10
495.9481466970943302
 20
29.0637095306218072
 30
0.0
 40
5.6249999999999991
100
AcDbArc
 50
304.8464948654940372
 51
6.0000000000000258
  0
ARC
  5
18E
100
AcDbEntity
  8
pred_rezilo
 62
256
370
-1
 48
1.0
  6
BYLAYER
100
AcDbCircle
 10
500.4957119826195822
 20
7.669096963521099
 30
0.0
 40
5.6249999999999991
100
AcDbArc
 50
17.9999999999999893
 51
108.0
  0
ARC
  5
18F
100
AcDbEntity
  8
pred_rezilo
 62
256
370
-1
 48
1.0
  6
BYLAYER
100
AcDbCircle
 10
500.4957119826195822
 20
7.669096963521099
 30
0.0
 40
5.6249999999999991
100
AcDbArc
 50
316.846494865494094
 51
18.0000000000000888
  0
ARC
  5
190
100
AcDbEntity
  8
pred_rezilo
 62
256
370
-1
 48
1.0
  6
BYLAYER
100
AcDbCircle
 10
509.3920921290530828
 20
-12.3125000000000284
 30
0.0
 40
5.6249999999999991
100
AcDbArc
 50
29.9999999999999538
 51
120.0000000000000711
  0
ARC
  5
191
100
AcDbEntity
  8
pred_rezilo
 62
256
370
-1
 48
1.0
  6
BYLAYER
100
AcDbCircle
 10
509.3920921290530828
 20
-12.3125000000000284
 30
0.0
 40
5.6249999999999991
100
AcDbArc
 50
328.8464948654940372
 51
30.0000000000000426
  0
ARC
  5
192
100
AcDbEntity
  8
pred_rezilo
 62
256
370
-1
 48
1.0
  6
BYLAYER
100
AcDbCircle
 10
522.2484726344276851
 20
-30.0077896902955104
 30
0.0
 40
5.6249999999999991
100
AcDbArc
 50
42.0000000000000213
 51
132.0000000000000284
  0
ARC
  5
193
100
AcDbEntity
  8
pred_rezilo
 62
256
370
-1
 48
1.0
  6
BYLAYER
100
AcDbCircle
 10
522.2484726344276851
 20
-30.0077896902954819
 30
0.0
 40
5.6249999999999991
100
AcDbArc
 50
340.8464948654939803
 51
42.0000000000000213
  0
ARC
  5
194
100
AcDbEntity
  8
pred_rezilo
 62
256
370
-1
 48
1.0
  6
BYLAYER
100
AcDbCircle
 10
538.5029679788999601
 20
-44.6434030364788157
 30
0.0
 40
5.6249999999999991
100
AcDbArc
 50
53.9999999999999858
 51
143.9999999999999716
  0
ARC
  5
195
100
AcDbEntity
  8
pred_rezilo
 62
256
370
-1
 48
1.0
  6
BYLAYER
100
AcDbCircle
 10
522.2484726344276851
 20
110.007789690295823
 30
0.0
 40
5.6249999999999991
100
AcDbArc
 50
256.8464948654941509
 51
318.0000000000000568
  0
ARC
  5
196
100
AcDbEntity
  8
pred_rezilo
 62
256
370
-1
 48
1.0
  6
BYLAYER
100
AcDbCircle
 10
509.3920921290530828
 20
92.3124999999999858
 30
0.0
 40
5.6249999999999991
100
AcDbArc
 50
330.0
 51
60.0000000000000142
  0
ARC
  5
197
100
AcDbEntity
  8
pred_rezilo
 62
256
370
-1
 48
1.0
  6
BYLAYER
100
AcDbCircle
 10
509.3920921290530828
 20
92.3124999999999716
 30
0.0
 40
5.6249999999999991
100
AcDbArc
 50
268.8464948654940372
 51
330.0
  0
ARC
  5
198
100
AcDbEntity
  8
pred_rezilo
 62
256
370
-1
 48
1.0
  6
BYLAYER
100
AcDbCircle
 10
500.4957119826195822
 20
72.3309030364788015
 30
0.0
 40
5.6249999999999991
100
AcDbArc
 50
342.0
 51
71.9999999999999858
  0
ARC
  5
199
100
AcDbEntity
  8
pred_rezilo
 62
256
370
-1
 48
1.0
  6
BYLAYER
100
AcDbCircle
 10
500.4957119826195822
 20
72.3309030364788015
 30
0.0
 40
5.6249999999999991
100
AcDbArc
 50
280.846494865494094
 51
342.0000000000001137
  0
ARC
  5
19A
100
AcDbEntity
  8
pred_rezilo
 62
256
370
-1
 48
1.0
  6
BYLAYER
100
AcDbCircle
 10
495.9481466970943302
 20
50.9362904693782355
 30
0.0
 40
5.6249999999999991
100
AcDbArc
 50
354.0
 51
84.0
  0
ARC
  5
19B
100
AcDbEntity
  8
pred_rezilo
 62
256
370
-1
 48
1.0
  6
BYLAYER
100
AcDbCircle
 10
495.9481466970943302
 20
50.9362904693782355
 30
0.0
 40
5.6249999999999991
100
AcDbArc
 50
292.8464948654941509
 51
354.0000000000001137
  0
ARC
  5
19C
100
AcDbEntity
  8
pred_rezilo
 62
256
370
-1
 48
1.0
  6
BYLAYER
100
AcDbCircle
 10
495.9481466970943302
 20
29.063709530621658
 30
0.0
 40
5.6249999999999991
100
AcDbArc
 50
6.0000000000000258
 51
96.0000000000000142
  0
LINE
  5
19D
100
AcDbEntity
  8
zagin_list
 62
256
370
-1
 48
1.0
  6
BYLAYER
100
AcDbLine
 10
-0.000000000000035
 20
225.0
 30
0.0
 11
-4.4999999999999991
 21
211.4999999999999432
 31
0.0
  0
LINE
  5
19E
100
AcDbEntity
  8
zagin_list
 62
256
370
-1
 48
1.0
  6
BYLAYER
100
AcDbLine
 10
-46.7801304339959074
 20
220.0832101651062374
 30
0.0
 11
-48.3749868112582391
 21
205.9426149465199956
 31
0.0
  0
LINE
  5
19F
100
AcDbEntity
  8
zagin_list
 62
256
370
-1
 48
1.0
  6
BYLAYER
100
AcDbLine
 10
-91.5157446920550512
 20
205.5477279695851962
 30
0.0
 11
-90.135754569923435
 21
191.3845493975690033
 31
0.0
  0
LINE
  5
1A0
100
AcDbEntity
  8
zagin_list
 62
256
370
-1
 48
1.0
  6
BYLAYER
100
AcDbLine
 10
-132.2516817658064383
 20
182.0288237343631863
 30
0.0
 11
-127.9571573345453714
 21
168.4620606749852527
 31
0.0
  0
LINE
  5
1A1
100
AcDbEntity
  8
zagin_list
 62
256
370
-1
 48
1.0
  6
BYLAYER
100
AcDbLine
 10
-167.2075857324137473
 20
150.5543864307430511
 30
0.0
 11
-160.1862183170837568
 21
138.1769715302502277
 31
0.0
  0
LINE
  5
1A2
100
AcDbEntity
  8
zagin_list
 62
256
370
-1
 48
1.0
  6
BYLAYER
100
AcDbLine
 10
-194.8557158514987009
 20
112.4999999999999716
 30
0.0
 11
-185.4143729004087504
 21
101.8528856829700544
 31
0.0
  0
LINE
  5
1A3
100
AcDbEntity
  8
zagin_list
 62
256
370
-1
 48
1.0
  6
BYLAYER
100
AcDbLine
 10
-213.9877161664095411
 20
69.5288237343631863
 30
0.0
 11
-202.539029671112246
 21
61.0773399869731506
 31
0.0
  0
LINE
  5
1A4
100
AcDbEntity
  8
zagin_list
 62
256
370
-1
 48
1.0
  6
BYLAYER
100
AcDbLine
 10
-223.7674264578614896
 20
23.5189042352219886
 30
0.0
 11
-210.8117589550942057
 21
17.6324214519515685
 31
0.0
  0
LINE
  5
1A5
100
AcDbEntity
  8
zagin_list
 62
256
370
-1
 48
1.0
  6
BYLAYER
100
AcDbLine
 10
-223.7674264578614896
 20
-23.5189042352220383
 30
0.0
 11
-209.8710027856853912
 21
-26.583118510265912
 31
0.0
  0
LINE
  5
1A6
100
AcDbEntity
  8
zagin_list
 62
256
370
-1
 48
1.0
  6
BYLAYER
100
AcDbLine
 10
-213.9877161664095695
 20
-69.5288237343631295
 30
0.0
 11
-199.7578767217376878
 21
-69.6368486336296115
 31
0.0
  0
LINE
  5
1A7
100
AcDbEntity
  8
zagin_list
 62
256
370
-1
 48
1.0
  6
BYLAYER
100
AcDbLine
 10
-194.855715851498644
 20
-112.5000000000000284
 30
0.0
 11
-180.9143729004088073
 21
-109.6471143170298603
 31
0.0
  0
LINE
  5
1A8
100
AcDbEntity
  8
zagin_list
 62
256
370
-1
 48
1.0
  6
BYLAYER
100
AcDbLine
 10
-167.2075857324137758
 20
-150.5543864307430226
 30
0.0
 11
-154.1640428598540495
 21
-144.865274959546781
 31
0.0
  0
LINE
  5
1A9
100
AcDbEntity
  8
zagin_list
 62
256
370
-1
 48
1.0
  6
BYLAYER
100
AcDbLine
 10
-132.2516817658064952
 20
-182.0288237343631295
 30
0.0
 11
-120.6760043851707849
 21
-173.7521279456175023
 31
0.0
  0
LINE
  5
1AA
100
AcDbEntity
  8
zagin_list
 62
256
370
-1
 48
1.0
  6
BYLAYER
100
AcDbLine
 10
-91.5157446920550228
 20
-205.5477279695852246
 30
0.0
 11
-81.9138454511401335
 21
-195.045179185251186
 31
0.0
  0
LINE
  5
1AB
100
AcDbEntity
  8
zagin_list
 62
256
370
-1
 48
1.0
  6
BYLAYER
100
AcDbLine
 10
-46.7801304339959572
 20
-220.0832101651062374
 30
0.0
 11
-39.5716584046540163
 21
-207.813820163879825
 31
0.0
  0
LINE
  5
1AC
100
AcDbEntity
  8
zagin_list
 62
256
370
-1
 48
1.0
  6
BYLAYER
100
AcDbLine
 10
-0.0000000000000413
 20
-225.0
 30
0.0
 11
4.5000000000000187
 21
-211.4999999999999432
 31
0.0
  0
LINE
  5
1AD
100
AcDbEntity
  8
zagin_list
 62
256
370
-1
 48
1.0
  6
BYLAYER
100
AcDbLine
 10
46.7801304339958719
 20
-220.0832101651062374
 30
0.0
 11
48.3749868112581112
 21
-205.9426149465199956
 31
0.0
  0
LINE
  5
1AE
100
AcDbEntity
  8
zagin_list
 62
256
370
-1
 48
1.0
  6
BYLAYER
100
AcDbLine
 10
91.5157446920549518
 20
-205.5477279695852246
 30
0.0
 11
90.1357545699234208
 21
-191.3845493975690033
 31
0.0
  0
LINE
  5
1AF
100
AcDbEntity
  8
zagin_list
 62
256
370
-1
 48
1.0
  6
BYLAYER
100
AcDbLine
 10
132.2516817658064099
 20
-182.0288237343632147
 30
0.0
 11
127.957157334545343
 21
-168.4620606749852527
 31
0.0
  0
LINE
  5
1B0
100
AcDbEntity
  8
zagin_list
 62
256
370
-1
 48
1.0
  6
BYLAYER
100
AcDbLine
 10
167.2075857324136905
 20
-150.5543864307430795
 30
0.0
 11
160.1862183170836715
 21
-138.1769715302503414
 31
0.0
  0
LINE
  5
1B1
100
AcDbEntity
  8
zagin_list
 62
256
370
-1
 48
1.0
  6
BYLAYER
100
AcDbLine
 10
194.8557158514986156
 20
-112.5000000000001137
 30
0.0
 11
185.4143729004087504
 21
-101.8528856829700686
 31
0.0
  0
LINE
  5
1B2
100
AcDbEntity
  8
zagin_list
 62
256
370
-1
 48
1.0
  6
BYLAYER
100
AcDbLine
 10
213.9877161664095411
 20
-69.5288237343632147
 30
0.0
 11
202.5390296711122176
 21
-61.0773399869731719
 31
0.0
  0
LINE
  5
1B3
100
AcDbEntity
  8
zagin_list
 62
256
370
-1
 48
1.0
  6
BYLAYER
100
AcDbLine
 10
223.7674264578614896
 20
-23.5189042352222195
 30
0.0
 11
210.8117589550942057
 21
-17.6324214519515969
 31
0.0
  0
LINE
  5
1B4
100
AcDbEntity
  8
zagin_list
 62
256
370
-1
 48
1.0
  6
BYLAYER
100
AcDbLine
 10
223.7674264578614896
 20
23.5189042352219104
 30
0.0
 11
209.8710027856853912
 21
26.58311851026588
 31
0.0
  0
LINE
  5
1B5
100
AcDbEntity
  8
zagin_list
 62
256
370
-1
 48
1.0
  6
BYLAYER
100
AcDbLine
 10
213.9877161664095695
 20
69.5288237343631152
 30
0.0
 11
199.7578767217376878
 21
69.6368486336295689
 31
0.0
  0
LINE
  5
1B6
100
AcDbEntity
  8
zagin_list
 62
256
370
-1
 48
1.0
  6
BYLAYER
100
AcDbLine
 10
194.8557158514987862
 20
112.4999999999998295
 30
0.0
 11
180.9143729004088073
 21
109.6471143170298461
 31
0.0
  0
LINE
  5
1B7
100
AcDbEntity
  8
zagin_list
 62
256
370
-1
 48
1.0
  6
BYLAYER
100
AcDbLine
 10
167.2075857324137758
 20
150.5543864307429942
 30
0.0
 11
154.1640428598540495
 21
144.8652749595467526
 31
0.0
  0
LINE
  5
1B8
100
AcDbEntity
  8
zagin_list
 62
256
370
-1
 48
1.0
  6
BYLAYER
100
AcDbLine
 10
132.2516817658064952
 20
182.0288237343631295
 30
0.0
 11
120.6760043851708133
 21
173.7521279456174739
 31
0.0
  0
LINE
  5
1B9
100
AcDbEntity
  8
zagin_list
 62
256
370
-1
 48
1.0
  6
BYLAYER
100
AcDbLine
 10
91.5157446920552218
 20
205.5477279695850825
 30
0.0
 11
81.9138454511401619
 21
195.0451791852511292
 31
0.0
  0
LINE
  5
1BA
100
AcDbEntity
  8
zagin_list
 62
256
370
-1
 48
1.0
  6
BYLAYER
100
AcDbLine
 10
46.7801304339959856
 20
220.0832101651062374
 30
0.0
 11
39.5716584046540376
 21
207.813820163879825
 31
0.0
  0
LINE
  5
1BB
100
AcDbEntity
  8
zagin_list
 62
256
370
-1
 48
1.0
  6
BYLAYER
100
AcDbLine
 10
0.0000000000000689
 20
225.0
 30
0.0
 11
-4.4999999999999929
 21
211.4999999999999432
 31
0.0
  0
LINE
  5
1BC
100
AcDbEntity
  8
zob
 62
256
370
-1
 48
1.0
  6
BYLAYER
100
AcDbLine
 10
-0.0000000000000586
 20
224.9999999999999147
 30
0.0
 11
-4.500000000000024
 21
211.4999999999998863
 31
0.0
  0
LINE
  5
1BD
100
AcDbEntity
  8
zob
 62
256
370
-1
 48
1.0
  6
BYLAYER
100
AcDbLine
 10
0.0000000000000453
 20
224.9999999999999147
 30
0.0
 11
-4.5000000000000187
 21
211.4999999999998863
 31
0.0
  0
LINE
  5
1BE
100
AcDbEntity
  8
pred_rezilo
 62
256
370
-1
 48
1.0
  6
BYLAYER
100
AcDbLine
 10
554.2421276539723749
 20
142.7738639847925128
 30
0.0
 11
559.0430772744298338
 21
137.522589592625593
 31
0.0
  0
LINE
  5
1BF
100
AcDbEntity
  8
pred_rezilo
 62
256
370
-1
 48
1.0
  6
BYLAYER
100
AcDbLine
 10
533.8741591170968377
 20
131.0144118671815932
 30
0.0
 11
539.6619978074145365
 21
126.8760639728086801
 31
0.0
  0
LINE
  5
1C0
100
AcDbEntity
  8
pred_rezilo
 62
256
370
-1
 48
1.0
  6
BYLAYER
100
AcDbLine
 10
516.3962071337930411
 20
115.2771932153678449
 30
0.0
 11
522.9179785700729326
 21
112.43263747977349
 31
0.0
  0
LINE
  5
1C1
100
AcDbEntity
  8
pred_rezilo
 62
256
370
-1
 48
1.0
  6
BYLAYER
100
AcDbLine
 10
623.3900652169979821
 20
150.0416050825530192
 30
0.0
 11
624.187493405629084
 21
142.9713074732601683
 31
0.0
  0
LINE
  5
1C2
100
AcDbEntity
  8
pred_rezilo
 62
256
370
-1
 48
1.0
  6
BYLAYER
100
AcDbLine
 10
600.0
 20
152.4999999999998295
 30
0.0
 11
602.25
 21
145.7499999999998863
 31
0.0
  0
LINE
  5
1C3
100
AcDbEntity
  8
pred_rezilo
 62
256
370
-1
 48
1.0
  6
BYLAYER
100
AcDbLine
 10
600.0
 20
152.4999999999997726
 30
0.0
 11
602.25
 21
145.7499999999998863
 31
0.0
  0
LINE
  5
1C4
100
AcDbEntity
  8
pred_rezilo
 62
256
370
-1
 48
1.0
  6
BYLAYER
100
AcDbLine
 10
697.4278579257494357
 20
96.2500000000001279
 30
0.0
 11
692.7071864502042899
 21
90.9264428414850272
 31
0.0
  0
LINE
  5
1C5
100
AcDbEntity
  8
pred_rezilo
 62
256
370
-1
 48
1.0
  6
BYLAYER
100
AcDbLine
 10
683.6037928662069589
 20
115.2771932153849832
 30
0.0
 11
680.0931091585417789
 21
109.0884857651253128
 31
0.0
  0
LINE
  5
1C6
100
AcDbEntity
  8
pred_rezilo
 62
256
370
-1
 48
1.0
  6
BYLAYER
100
AcDbLine
 10
666.1258408829031623
 20
131.0144118671817068
 30
0.0
 11
663.9785786672725862
 21
124.2310303374917595
 31
0.0
  0
LINE
  5
1C7
100
AcDbEntity
  8
pred_rezilo
 62
256
370
-1
 48
1.0
  6
BYLAYER
100
AcDbLine
 10
645.7578723460276251
 20
142.773863984792456
 30
0.0
 11
645.0678772849616962
 21
135.6922746987841037
 31
0.0
  0
LINE
  5
1C8
100
AcDbEntity
  8
pred_rezilo
 62
256
370
-1
 48
1.0
  6
BYLAYER
100
AcDbLine
 10
706.9938580832048274
 20
5.2355881328186484
 30
0.0
 11
699.8789383608688013
 21
5.1815756831849598
 31
0.0
  0
LINE
  5
1C9
100
AcDbEntity
  8
pred_rezilo
 62
256
370
-1
 48
1.0
  6
BYLAYER
100
AcDbLine
 10
711.8837132289307874
 20
28.2405478823890626
 30
0.0
 11
704.9355013928427525
 21
26.7084407448669161
 31
0.0
  0
LINE
  5
1CA
100
AcDbEntity
  8
pred_rezilo
 62
256
370
-1
 48
1.0
  6
BYLAYER
100
AcDbLine
 10
711.8837132289307874
 20
51.7594521176109268
 30
0.0
 11
705.4058794775471597
 21
48.8162107259757292
 31
0.0
  0
LINE
  5
1CB
100
AcDbEntity
  8
pred_rezilo
 62
256
370
-1
 48
1.0
  6
BYLAYER
100
AcDbLine
 10
706.9938580832048274
 20
74.7644118671819911
 30
0.0
 11
701.2695148355561514
 21
70.5386699934866499
 31
0.0
  0
LINE
  5
1CC
100
AcDbEntity
  8
pred_rezilo
 62
256
370
-1
 48
1.0
  6
BYLAYER
100
AcDbLine
 10
645.7578723460276251
 20
-62.7738639847925697
 30
0.0
 11
640.9569227255699388
 21
-57.5225895926256925
 31
0.0
  0
LINE
  5
1CD
100
AcDbEntity
  8
pred_rezilo
 62
256
370
-1
 48
1.0
  6
BYLAYER
100
AcDbLine
 10
666.1258408829031623
 20
-51.0144118671816784
 30
0.0
 11
660.3380021925854635
 21
-46.8760639728087085
 31
0.0
  0
LINE
  5
1CE
100
AcDbEntity
  8
pred_rezilo
 62
256
370
-1
 48
1.0
  6
BYLAYER
100
AcDbLine
 10
683.6037928662069589
 20
-35.2771932153715113
 30
0.0
 11
677.0820214299270674
 21
-32.4326374797732342
 31
0.0
  0
LINE
  5
1CF
100
AcDbEntity
  8
pred_rezilo
 62
256
370
-1
 48
1.0
  6
BYLAYER
100
AcDbLine
 10
697.427857925749322
 20
-16.2500000000000711
 30
0.0
 11
690.4571864502042899
 21
-14.8235571585150581
 31
0.0
  0
LINE
  5
1D0
100
AcDbEntity
  8
pred_rezilo
 62
256
370
-1
 48
1.0
  6
BYLAYER
100
AcDbLine
 10
554.2421276539723749
 20
-62.7738639847927402
 30
0.0
 11
554.9321227150383038
 21
-55.6922746987845017
 31
0.0
  0
LINE
  5
1D1
100
AcDbEntity
  8
pred_rezilo
 62
256
370
-1
 48
1.0
  6
BYLAYER
100
AcDbLine
 10
576.6099347830019042
 20
-70.0416050825531613
 30
0.0
 11
575.812506594370916
 21
-62.9713074732599551
 31
0.0
  0
LINE
  5
1D2
100
AcDbEntity
  8
pred_rezilo
 62
256
370
-1
 48
1.0
  6
BYLAYER
100
AcDbLine
 10
600.0
 20
-72.4999999999999574
 30
0.0
 11
597.75
 21
-65.75
 31
0.0
  0
LINE
  5
1D3
100
AcDbEntity
  8
pred_rezilo
 62
256
370
-1
 48
1.0
  6
BYLAYER
100
AcDbLine
 10
623.3900652169979821
 20
-70.041605082553076
 30
0.0
 11
619.7858292023270224
 21
-63.9069100819399267
 31
0.0
  0
LINE
  5
1D4
100
AcDbEntity
  8
pred_rezilo
 62
256
370
-1
 48
1.0
  6
BYLAYER
100
AcDbLine
 10
493.0061419167951726
 20
5.2355881328184068
 30
0.0
 11
498.7304851644438486
 21
9.4613300065135313
 31
0.0
  0
LINE
  5
1D5
100
AcDbEntity
  8
pred_rezilo
 62
256
370
-1
 48
1.0
  6
BYLAYER
100
AcDbLine
 10
502.5721420742505643
 20
-16.2500000000000142
 30
0.0
 11
507.2928135497956532
 21
-10.9264428414849988
 31
0.0
  0
LINE
  5
1D6
100
AcDbEntity
  8
pred_rezilo
 62
256
370
-1
 48
1.0
  6
BYLAYER
100
AcDbLine
 10
516.3962071337930411
 20
-35.2771932153715255
 30
0.0
 11
519.9068908414581074
 21
-29.0884857651251991
 31
0.0
  0
LINE
  5
1D7
100
AcDbEntity
  8
pred_rezilo
 62
256
370
-1
 48
1.0
  6
BYLAYER
100
AcDbLine
 10
533.8741591170968377
 20
-51.0144118671816074
 30
0.0
 11
536.0214213327271864
 21
-44.2310303374925837
 31
0.0
  0
LINE
  5
1D8
100
AcDbEntity
  8
pred_rezilo
 62
256
370
-1
 48
1.0
  6
BYLAYER
100
AcDbLine
 10
502.5721420742505643
 20
96.2499999999998295
 30
0.0
 11
509.5428135497954827
 21
94.8235571585149017
 31
0.0
  0
LINE
  5
1D9
100
AcDbEntity
  8
pred_rezilo
 62
256
370
-1
 48
1.0
  6
BYLAYER
100
AcDbLine
 10
493.0061419167951726
 20
74.7644118671814937
 30
0.0
 11
500.1210616391311987
 21
74.8184243168147702
 31
0.0
  0
LINE
  5
1DA
100
AcDbEntity
  8
pred_rezilo
 62
256
370
-1
 48
1.0
  6
BYLAYER
100
AcDbLine
 10
488.1162867710692126
 20
51.7594521176109481
 30
0.0
 11
495.0644986071573044
 21
53.2915592551329524
 31
0.0
  0
LINE
  5
1DB
100
AcDbEntity
  8
pred_rezilo
 62
256
370
-1
 48
1.0
  6
BYLAYER
100
AcDbLine
 10
488.1162867710692126
 20
28.2405478823888814
 30
0.0
 11
494.5941205224528971
 21
31.1837892740242388
 31
0.0
  0
LINE
  5
1DC
100
AcDbEntity
  8
pred_rezilo
 62
256
370
-1
 48
1.0
  6
BYLAYER
100
AcDbLine
 10
576.6099347830019042
 20
150.0416050825530192
 30
0.0
 11
580.2141707976729776
 21
143.9069100819399694
 31
0.0
  0
LINE
  5
1DD
100
AcDbEntity
  8
zagin_list
 62
256
370
-1
 48
1.0
  6
BYLAYER
100
AcDbLine
 10
-4.4999999999999991
 20
211.4999999999999432
 30
0.0
 11
-11.2499999999999982
 21
209.2499999999999432
 31
0.0
  0
LINE
  5
1DE
100
AcDbEntity
  8
zagin_list
 62
256
370
-1
 48
1.0
  6
BYLAYER
100
AcDbLine
 10
-48.3749868112582391
 20
205.9426149465199956
 30
0.0
 11
-54.5096818118714737
 21
202.3383789318490074
 31
0.0
  0
LINE
  5
1DF
100
AcDbEntity
  8
zagin_list
 62
256
370
-1
 48
1.0
  6
BYLAYER
100
AcDbLine
 10
-90.135754569923435
 20
191.3845493975690033
 30
0.0
 11
-95.3870289620904828
 21
186.5835997771114592
 31
0.0
  0
LINE
  5
1E0
100
AcDbEntity
  8
zagin_list
 62
256
370
-1
 48
1.0
  6
BYLAYER
100
AcDbLine
 10
-127.9571573345453714
 20
168.4620606749852527
 30
0.0
 11
-132.0955052289181708
 21
162.6742219846673834
 31
0.0
  0
LINE
  5
1E1
100
AcDbEntity
  8
zagin_list
 62
256
370
-1
 48
1.0
  6
BYLAYER
100
AcDbLine
 10
-160.1862183170837568
 20
138.1769715302502277
 30
0.0
 11
-163.0307740526818634
 21
131.655200093970393
 31
0.0
  0
LINE
  5
1E2
100
AcDbEntity
  8
zagin_list
 62
256
370
-1
 48
1.0
  6
BYLAYER
100
AcDbLine
 10
-185.4143729004087504
 20
101.8528856829700544
 30
0.0
 11
-186.8408157418937492
 21
94.8822142074250792
 31
0.0
  0
LINE
  5
1E3
100
AcDbEntity
  8
zagin_list
 62
256
370
-1
 48
1.0
  6
BYLAYER
100
AcDbLine
 10
-202.539029671112246
 20
61.0773399869731506
 30
0.0
 11
-202.4850172214790405
 21
53.9624202646372524
 31
0.0
  0
LINE
  5
1E4
100
AcDbEntity
  8
zagin_list
 62
256
370
-1
 48
1.0
  6
BYLAYER
100
AcDbLine
 10
-210.8117589550942057
 20
17.6324214519515685
 30
0.0
 11
-209.279651817572244
 21
10.6842096158634323
 31
0.0
  0
LINE
  5
1E5
100
AcDbEntity
  8
zagin_list
 62
256
370
-1
 48
1.0
  6
BYLAYER
100
AcDbLine
 10
-209.8710027856853912
 20
-26.583118510265912
 30
0.0
 11
-206.9277613940500657
 21
-33.0609522616495113
 31
0.0
  0
LINE
  5
1E6
100
AcDbEntity
  8
zagin_list
 62
256
370
-1
 48
1.0
  6
BYLAYER
100
AcDbLine
 10
-199.7578767217376878
 20
-69.6368486336296115
 30
0.0
 11
-195.5321348480427162
 21
-75.3611918812782307
 31
0.0
  0
LINE
  5
1E7
100
AcDbEntity
  8
zagin_list
 62
256
370
-1
 48
1.0
  6
BYLAYER
100
AcDbLine
 10
-180.9143729004088073
 20
-109.6471143170298603
 30
0.0
 11
-175.5908157418937776
 21
-114.3677857925748924
 31
0.0
  0
LINE
  5
1E8
100
AcDbEntity
  8
zagin_list
 62
256
370
-1
 48
1.0
  6
BYLAYER
100
AcDbLine
 10
-154.1640428598540495
 20
-144.865274959546781
 30
0.0
 11
-147.9753354096076237
 21
-148.3759586672117052
 31
0.0
  0
LINE
  5
1E9
100
AcDbEntity
  8
zagin_list
 62
256
370
-1
 48
1.0
  6
BYLAYER
100
AcDbLine
 10
-120.6760043851707849
 20
-173.7521279456175023
 30
0.0
 11
-113.8926228554818181
 21
-175.8993901612480499
 31
0.0
  0
LINE
  5
1EA
100
AcDbEntity
  8
zagin_list
 62
256
370
-1
 48
1.0
  6
BYLAYER
100
AcDbLine
 10
-81.9138454511401335
 20
-195.045179185251186
 30
0.0
 11
-74.832256165132037
 21
-195.7351742463169444
 31
0.0
  0
LINE
  5
1EB
100
AcDbEntity
  8
zagin_list
 62
256
370
-1
 48
1.0
  6
BYLAYER
100
AcDbLine
 10
-39.5716584046540163
 20
-207.813820163879825
 30
0.0
 11
-32.5013607953608812
 21
-207.0163919752486095
 31
0.0
  0
LINE
  5
1EC
100
AcDbEntity
  8
zagin_list
 62
256
370
-1
 48
1.0
  6
BYLAYER
100
AcDbLine
 10
4.5000000000000187
 20
-211.4999999999999432
 30
0.0
 11
11.2499999999999947
 21
-209.2499999999999432
 31
0.0
  0
LINE
  5
1ED
100
AcDbEntity
  8
zagin_list
 62
256
370
-1
 48
1.0
  6
BYLAYER
100
AcDbLine
 10
48.3749868112581112
 20
-205.9426149465199956
 30
0.0
 11
54.5096818118713315
 21
-202.3383789318490358
 31
0.0
  0
LINE
  5
1EE
100
AcDbEntity
  8
zagin_list
 62
256
370
-1
 48
1.0
  6
BYLAYER
100
AcDbLine
 10
90.1357545699234208
 20
-191.3845493975690033
 30
0.0
 11
95.3870289620903833
 21
-186.5835997771114876
 31
0.0
  0
LINE
  5
1EF
100
AcDbEntity
  8
zagin_list
 62
256
370
-1
 48
1.0
  6
BYLAYER
100
AcDbLine
 10
127.957157334545343
 20
-168.4620606749852527
 30
0.0
 11
132.0955052289181708
 21
-162.6742219846674118
 31
0.0
  0
LINE
  5
1F0
100
AcDbEntity
  8
zagin_list
 62
256
370
-1
 48
1.0
  6
BYLAYER
100
AcDbLine
 10
160.1862183170836715
 20
-138.1769715302503414
 30
0.0
 11
163.0307740526818066
 21
-131.6552000939704783
 31
0.0
  0
LINE
  5
1F1
100
AcDbEntity
  8
zagin_list
 62
256
370
-1
 48
1.0
  6
BYLAYER
100
AcDbLine
 10
185.4143729004087504
 20
-101.8528856829700686
 30
0.0
 11
186.8408157418937208
 21
-94.8822142074251076
 31
0.0
  0
LINE
  5
1F2
100
AcDbEntity
  8
zagin_list
 62
256
370
-1
 48
1.0
  6
BYLAYER
100
AcDbLine
 10
202.5390296711122176
 20
-61.0773399869731719
 30
0.0
 11
202.4850172214789836
 21
-53.9624202646372879
 31
0.0
  0
LINE
  5
1F3
100
AcDbEntity
  8
zagin_list
 62
256
370
-1
 48
1.0
  6
BYLAYER
100
AcDbLine
 10
210.8117589550942057
 20
-17.6324214519515969
 30
0.0
 11
209.279651817572244
 21
-10.6842096158635513
 31
0.0
  0
LINE
  5
1F4
100
AcDbEntity
  8
zagin_list
 62
256
370
-1
 48
1.0
  6
BYLAYER
100
AcDbLine
 10
209.8710027856853912
 20
26.58311851026588
 30
0.0
 11
206.9277613940500657
 21
33.0609522616494829
 31
0.0
  0
LINE
  5
1F5
100
AcDbEntity
  8
zagin_list
 62
256
370
-1
 48
1.0
  6
BYLAYER
100
AcDbLine
 10
199.7578767217376878
 20
69.6368486336295689
 30
0.0
 11
195.5321348480427162
 21
75.3611918812782022
 31
0.0
  0
LINE
  5
1F6
100
AcDbEntity
  8
zagin_list
 62
256
370
-1
 48
1.0
  6
BYLAYER
100
AcDbLine
 10
180.9143729004088073
 20
109.6471143170298461
 30
0.0
 11
175.5908157418938345
 21
114.3677857925748071
 31
0.0
  0
LINE
  5
1F7
100
AcDbEntity
  8
zagin_list
 62
256
370
-1
 48
1.0
  6
BYLAYER
100
AcDbLine
 10
154.1640428598540495
 20
144.8652749595467526
 30
0.0
 11
147.9753354096076237
 21
148.3759586672117052
 31
0.0
  0
LINE
  5
1F8
100
AcDbEntity
  8
zagin_list
 62
256
370
-1
 48
1.0
  6
BYLAYER
100
AcDbLine
 10
120.6760043851708133
 20
173.7521279456174739
 30
0.0
 11
113.8926228554818323
 21
175.8993901612480215
 31
0.0
  0
LINE
  5
1F9
100
AcDbEntity
  8
zagin_list
 62
256
370
-1
 48
1.0
  6
BYLAYER
100
AcDbLine
 10
81.9138454511401619
 20
195.0451791852511292
 30
0.0
 11
74.8322561651320655
 21
195.7351742463168875
 31
0.0
  0
LINE
  5
1FA
100
AcDbEntity
  8
zagin_list
 62
256
370
-1
 48
1.0
  6
BYLAYER
100
AcDbLine
 10
39.5716584046540376
 20
207.813820163879825
 30
0.0
 11
32.5013607953609096
 21
207.0163919752486095
 31
0.0
  0
LINE
  5
1FB
100
AcDbEntity
  8
zagin_list
 62
256
370
-1
 48
1.0
  6
BYLAYER
100
AcDbLine
 10
-4.4999999999999929
 20
211.4999999999999432
 30
0.0
 11
-11.2499999999999716
 21
209.2499999999999432
 31
0.0
  0
LINE
  5
1FC
100
AcDbEntity
  8
zob
 62
256
370
-1
 48
1.0
  6
BYLAYER
100
AcDbLine
 10
-4.500000000000024
 20
211.4999999999998863
 30
0.0
 11
-11.2500000000000231
 21
209.2499999999998863
 31
0.0
  0
LINE
  5
1FD
100
AcDbEntity
  8
zob
 62
256
370
-1
 48
1.0
  6
BYLAYER
100
AcDbLine
 10
-4.5000000000000187
 20
211.4999999999998863
 30
0.0
 11
-11.2499999999999947
 21
209.2499999999998863
 31
0.0
  0
LINE
  5
1FE
100
AcDbEntity
  8
pred_rezilo
 62
256
370
-1
 48
1.0
  6
BYLAYER
100
AcDbLine
 10
580.2141707976729776
 20
143.9069100819399694
 30
0.0
 11
583.7493196023194741
 21
143.5081959876242763
 31
0.0
  0
LINE
  5
1FF
100
AcDbEntity
  8
pred_rezilo
 62
256
370
-1
 48
1.0
  6
BYLAYER
100
AcDbLine
 10
559.0430772744298338
 20
137.522589592625593
 30
0.0
 11
562.5838719174340667
 21
137.8675871231583301
 31
0.0
  0
LINE
  5
200
100
AcDbEntity
  8
pred_rezilo
 62
256
370
-1
 48
1.0
  6
BYLAYER
100
AcDbLine
 10
539.6619978074145365
 20
126.8760639728086801
 30
0.0
 11
543.0536885722591478
 21
127.9496950806240676
 31
0.0
  0
LINE
  5
201
100
AcDbEntity
  8
pred_rezilo
 62
256
370
-1
 48
1.0
  6
BYLAYER
100
AcDbLine
 10
522.9179785700729326
 20
112.43263747977349
 30
0.0
 11
526.0123322951960745
 21
114.1879793336033231
 31
0.0
  0
LINE
  5
202
100
AcDbEntity
  8
pred_rezilo
 62
256
370
-1
 48
1.0
  6
BYLAYER
100
AcDbLine
 10
624.187493405629084
 20
142.9713074732601683
 30
0.0
 11
627.25484090593568
 21
141.1691894659245463
 31
0.0
  0
LINE
  5
203
100
AcDbEntity
  8
pred_rezilo
 62
256
370
-1
 48
1.0
  6
BYLAYER
100
AcDbLine
 10
602.25
 20
145.7499999999998863
 30
0.0
 11
605.625
 21
144.6249999999998295
 31
0.0
  0
LINE
  5
204
100
AcDbEntity
  8
pred_rezilo
 62
256
370
-1
 48
1.0
  6
BYLAYER
100
AcDbLine
 10
602.25
 20
145.7499999999998863
 30
0.0
 11
605.625
 21
144.6249999999998295
 31
0.0
  0
LINE
  5
205
100
AcDbEntity
  8
pred_rezilo
 62
256
370
-1
 48
1.0
  6
BYLAYER
100
AcDbLine
 10
692.7071864502042899
 20
90.9264428414850272
 30
0.0
 11
693.4204078709469741
 21
87.4411071037125254
 31
0.0
  0
LINE
  5
206
100
AcDbEntity
  8
pred_rezilo
 62
256
370
-1
 48
1.0
  6
BYLAYER
100
AcDbLine
 10
680.0931091585417789
 20
109.0884857651253128
 30
0.0
 11
681.5153870263410454
 21
105.8276000469851539
 31
0.0
  0
LINE
  5
207
100
AcDbEntity
  8
pred_rezilo
 62
256
370
-1
 48
1.0
  6
BYLAYER
100
AcDbLine
 10
663.9785786672725862
 20
124.2310303374917595
 30
0.0
 11
666.0477526144591138
 21
121.3371109923334075
 31
0.0
  0
LINE
  5
208
100
AcDbEntity
  8
pred_rezilo
 62
256
370
-1
 48
1.0
  6
BYLAYER
100
AcDbLine
 10
645.0678772849616962
 20
135.6922746987841037
 30
0.0
 11
647.6935144810453266
 21
133.2917998885553175
 31
0.0
  0
LINE
  5
209
100
AcDbEntity
  8
pred_rezilo
 62
256
370
-1
 48
1.0
  6
BYLAYER
100
AcDbLine
 10
699.8789383608688013
 20
5.1815756831849598
 30
0.0
 11
697.7660674240212302
 21
2.3194040593608065
 31
0.0
  0
LINE
  5
20A
100
AcDbEntity
  8
pred_rezilo
 62
256
370
-1
 48
1.0
  6
BYLAYER
100
AcDbLine
 10
704.9355013928427525
 20
26.7084407448669161
 30
0.0
 11
703.4638806970249334
 21
23.4695238691752124
 31
0.0
  0
LINE
  5
20B
100
AcDbEntity
  8
pred_rezilo
 62
256
370
-1
 48
1.0
  6
BYLAYER
100
AcDbLine
 10
705.4058794775471597
 20
48.8162107259757292
 30
0.0
 11
704.6398259087861788
 21
45.3421048079316051
 31
0.0
  0
LINE
  5
20C
100
AcDbEntity
  8
pred_rezilo
 62
256
370
-1
 48
1.0
  6
BYLAYER
100
AcDbLine
 10
701.2695148355561514
 20
70.5386699934866499
 30
0.0
 11
701.2425086107396055
 21
66.9812101323184663
 31
0.0
  0
LINE
  5
20D
100
AcDbEntity
  8
pred_rezilo
 62
256
370
-1
 48
1.0
  6
BYLAYER
100
AcDbLine
 10
640.9569227255699388
 20
-57.5225895926256925
 30
0.0
 11
637.4161280825660469
 21
-57.8675871231583585
 31
0.0
  0
LINE
  5
20E
100
AcDbEntity
  8
pred_rezilo
 62
256
370
-1
 48
1.0
  6
BYLAYER
100
AcDbLine
 10
660.3380021925854635
 20
-46.8760639728087085
 30
0.0
 11
656.9463114277408522
 21
-47.9496950806240818
 31
0.0
  0
LINE
  5
20F
100
AcDbEntity
  8
pred_rezilo
 62
256
370
-1
 48
1.0
  6
BYLAYER
100
AcDbLine
 10
677.0820214299270674
 20
-32.4326374797732342
 30
0.0
 11
673.9876677048036981
 21
-34.1879793336058526
 31
0.0
  0
LINE
  5
210
100
AcDbEntity
  8
pred_rezilo
 62
256
370
-1
 48
1.0
  6
BYLAYER
100
AcDbLine
 10
690.4571864502042899
 20
-14.8235571585150581
 30
0.0
 11
687.7954078709467467
 21
-17.183892896287432
 31
0.0
  0
LINE
  5
211
100
AcDbEntity
  8
pred_rezilo
 62
256
370
-1
 48
1.0
  6
BYLAYER
100
AcDbLine
 10
554.9321227150383038
 20
-55.6922746987845017
 30
0.0
 11
552.3064855189546734
 21
-53.2917998885557438
 31
0.0
  0
LINE
  5
212
100
AcDbEntity
  8
pred_rezilo
 62
256
370
-1
 48
1.0
  6
BYLAYER
100
AcDbLine
 10
575.812506594370916
 20
-62.9713074732599551
 30
0.0
 11
572.74515909406432
 21
-61.1691894659245037
 31
0.0
  0
LINE
  5
213
100
AcDbEntity
  8
pred_rezilo
 62
256
370
-1
 48
1.0
  6
BYLAYER
100
AcDbLine
 10
597.75
 20
-65.75
 30
0.0
 11
594.375
 21
-64.6249999999998721
 31
0.0
  0
LINE
  5
214
100
AcDbEntity
  8
pred_rezilo
 62
256
370
-1
 48
1.0
  6
BYLAYER
100
AcDbLine
 10
619.7858292023270224
 20
-63.9069100819399267
 30
0.0
 11
616.2506803976805259
 21
-63.5081959876242621
 31
0.0
  0
LINE
  5
215
100
AcDbEntity
  8
pred_rezilo
 62
256
370
-1
 48
1.0
  6
BYLAYER
100
AcDbLine
 10
498.7304851644438486
 20
9.4613300065135313
 30
0.0
 11
498.757491389260565
 21
13.0187898676814591
 31
0.0
  0
LINE
  5
216
100
AcDbEntity
  8
pred_rezilo
 62
256
370
-1
 48
1.0
  6
BYLAYER
100
AcDbLine
 10
507.2928135497956532
 20
-10.9264428414849988
 30
0.0
 11
506.5795921290530828
 21
-7.441107103712497
 31
0.0
  0
LINE
  5
217
100
AcDbEntity
  8
pred_rezilo
 62
256
370
-1
 48
1.0
  6
BYLAYER
100
AcDbLine
 10
519.9068908414581074
 20
-29.0884857651251991
 30
0.0
 11
518.4846129736589546
 21
-25.8276000469852676
 31
0.0
  0
LINE
  5
218
100
AcDbEntity
  8
pred_rezilo
 62
256
370
-1
 48
1.0
  6
BYLAYER
100
AcDbLine
 10
536.0214213327271864
 20
-44.2310303374925837
 30
0.0
 11
533.9522473855408862
 21
-41.3371109923337059
 31
0.0
  0
LINE
  5
219
100
AcDbEntity
  8
pred_rezilo
 62
256
370
-1
 48
1.0
  6
BYLAYER
100
AcDbLine
 10
509.5428135497954827
 20
94.8235571585149017
 30
0.0
 11
512.2045921290530259
 21
97.1838928962874462
 31
0.0
  0
LINE
  5
21A
100
AcDbEntity
  8
pred_rezilo
 62
256
370
-1
 48
1.0
  6
BYLAYER
100
AcDbLine
 10
500.1210616391311987
 20
74.8184243168147702
 30
0.0
 11
502.2339325759785993
 21
77.6805959406391082
 31
0.0
  0
LINE
  5
21B
100
AcDbEntity
  8
pred_rezilo
 62
256
370
-1
 48
1.0
  6
BYLAYER
100
AcDbLine
 10
495.0644986071573044
 20
53.2915592551329524
 30
0.0
 11
496.5361193029750098
 21
56.5304761308248231
 31
0.0
  0
LINE
  5
21C
100
AcDbEntity
  8
pred_rezilo
 62
256
370
-1
 48
1.0
  6
BYLAYER
100
AcDbLine
 10
494.5941205224528971
 20
31.1837892740242388
 30
0.0
 11
495.3601740912138212
 21
34.6578951920682812
 31
0.0
  0
LINE
  5
21D
100
AcDbEntity
  8
zagin_list
 62
256
370
-1
 48
1.0
  6
BYLAYER
100
AcDbLine
 10
-27.0
 20
216.0
 30
0.0
 11
-33.4037706875516491
 21
199.7259074428089036
 31
0.0
  0
LINE
  5
21E
100
AcDbEntity
  8
zagin_list
 62
256
370
-1
 48
1.0
  6
BYLAYER
100
AcDbLine
 10
-71.3189104364487605
 20
205.6662661064224835
 30
0.0
 11
-74.1991692700365917
 21
188.4163827262280506
 31
0.0
  0
LINE
  5
21F
100
AcDbEntity
  8
zagin_list
 62
256
370
-1
 48
1.0
  6
BYLAYER
100
AcDbLine
 10
-112.5208422607230432
 20
186.3439294877551902
 30
0.0
 11
-111.7517081083039727
 21
168.8721579623959883
 31
0.0
  0
LINE
  5
220
100
AcDbEntity
  8
zagin_list
 62
256
370
-1
 48
1.0
  6
BYLAYER
100
AcDbLine
 10
-148.8050733432978063
 20
158.8774689730918226
 30
0.0
 11
-144.4201610580475688
 21
141.9474095570877239
 31
0.0
  0
LINE
  5
221
100
AcDbEntity
  8
zagin_list
 62
256
370
-1
 48
1.0
  6
BYLAYER
100
AcDbLine
 10
-178.5858086748063158
 20
124.4673006856237123
 30
0.0
 11
-170.776759964734083
 21
108.8188782148924645
 31
0.0
  0
LINE
  5
222
100
AcDbEntity
  8
zagin_list
 62
256
370
-1
 48
1.0
  6
BYLAYER
100
AcDbLine
 10
-200.561487217438696
 20
84.6173140978201843
 30
0.0
 11
-189.6695949831478174
 21
70.9344397237947106
 31
0.0
  0
LINE
  5
223
100
AcDbEntity
  8
zagin_list
 62
256
370
-1
 48
1.0
  6
BYLAYER
100
AcDbLine
 10
-213.7716663678767191
 20
41.0691448450194656
 30
0.0
 11
-200.2729585651032664
 21
29.9498258355607092
 31
0.0
  0
LINE
  5
224
100
AcDbEntity
  8
zagin_list
 62
256
370
-1
 48
1.0
  6
BYLAYER
100
AcDbLine
 10
-217.6389979077736712
 20
-4.2739431091301308
 30
0.0
 11
-202.1234328414855099
 21
-12.3437391568965946
 31
0.0
  0
LINE
  5
225
100
AcDbEntity
  8
zagin_list
 62
256
370
-1
 48
1.0
  6
BYLAYER
100
AcDbLine
 10
-211.9944608913203865
 20
-49.4302392407564852
 30
0.0
 11
-195.1401432068557256
 21
-54.0978235163654588
 31
0.0
  0
LINE
  5
226
100
AcDbEntity
  8
zagin_list
 62
256
370
-1
 48
1.0
  6
BYLAYER
100
AcDbLine
 10
-197.0847486716295975
 20
-92.4261967249578049
 30
0.0
 11
-179.628292927788948
 21
-93.487573398010781
 31
0.0
  0
LINE
  5
227
100
AcDbEntity
  8
zagin_list
 62
256
370
-1
 48
1.0
  6
BYLAYER
100
AcDbLine
 10
-173.5614872174388097
 20
-131.3826859021797588
 30
0.0
 11
-156.265824295596218
 21
-128.7914677190141219
 31
0.0
  0
LINE
  5
228
100
AcDbEntity
  8
zagin_list
 62
256
370
-1
 48
1.0
  6
BYLAYER
100
AcDbLine
 10
-142.4527559314280154
 20
-164.5971212614029753
 30
0.0
 11
-126.0737892950668453
 21
-158.4665568906672775
 31
0.0
  0
LINE
  5
229
100
AcDbEntity
  8
zagin_list
 62
256
370
-1
 48
1.0
  6
BYLAYER
100
AcDbLine
 10
-105.1181556470505996
 20
-190.6178725968854053
 30
0.0
 11
-90.3717247331814804
 21
-181.2158971192926913
 31
0.0
  0
LINE
  5
22A
100
AcDbEntity
  8
zagin_list
 62
256
370
-1
 48
1.0
  6
BYLAYER
100
AcDbLine
 10
-63.1893875480227152
 20
-208.3077082138483433
 30
0.0
 11
-50.7199821488082563
 21
-196.0452330734531756
 31
0.0
  0
LINE
  5
22B
100
AcDbEntity
  8
zagin_list
 62
256
370
-1
 48
1.0
  6
BYLAYER
100
AcDbLine
 10
-18.4989399968233101
 20
-216.8934974105814604
 30
0.0
 11
-8.8515329630549964
 21
-202.3064516129032313
 31
0.0
  0
LINE
  5
22C
100
AcDbEntity
  8
zagin_list
 62
256
370
-1
 48
1.0
  6
BYLAYER
100
AcDbLine
 10
27.0000000000000142
 20
-216.0
 30
0.0
 11
33.4037706875517131
 21
-199.7259074428088752
 31
0.0
  0
LINE
  5
22D
100
AcDbEntity
  8
zagin_list
 62
256
370
-1
 48
1.0
  6
BYLAYER
100
AcDbLine
 10
71.3189104364486468
 20
-205.6662661064225404
 30
0.0
 11
74.1991692700365206
 21
-188.416382726228079
 31
0.0
  0
LINE
  5
22E
100
AcDbEntity
  8
zagin_list
 62
256
370
-1
 48
1.0
  6
BYLAYER
100
AcDbLine
 10
112.5208422607230148
 20
-186.3439294877551902
 30
0.0
 11
111.7517081083038022
 21
-168.8721579623961304
 31
0.0
  0
LINE
  5
22F
100
AcDbEntity
  8
zagin_list
 62
256
370
-1
 48
1.0
  6
BYLAYER
100
AcDbLine
 10
148.8050733432978063
 20
-158.877468973091851
 30
0.0
 11
144.4201610580476256
 21
-141.9474095570876955
 31
0.0
  0
LINE
  5
230
100
AcDbEntity
  8
zagin_list
 62
256
370
-1
 48
1.0
  6
BYLAYER
100
AcDbLine
 10
178.5858086748062306
 20
-124.467300685623826
 30
0.0
 11
170.776759964734083
 21
-108.8188782148924645
 31
0.0
  0
LINE
  5
231
100
AcDbEntity
  8
zagin_list
 62
256
370
-1
 48
1.0
  6
BYLAYER
100
AcDbLine
 10
200.561487217438696
 20
-84.6173140978202127
 30
0.0
 11
189.6695949831477321
 21
-70.9344397237948954
 31
0.0
  0
LINE
  5
232
100
AcDbEntity
  8
zagin_list
 62
256
370
-1
 48
1.0
  6
BYLAYER
100
AcDbLine
 10
213.7716663678767191
 20
-41.069144845019494
 30
0.0
 11
200.2729585651032664
 21
-29.9498258355606524
 31
0.0
  0
LINE
  5
233
100
AcDbEntity
  8
zagin_list
 62
256
370
-1
 48
1.0
  6
BYLAYER
100
AcDbLine
 10
217.6389979077736712
 20
4.2739431091301041
 30
0.0
 11
202.1234328414855099
 21
12.343739156896568
 31
0.0
  0
LINE
  5
234
100
AcDbEntity
  8
zagin_list
 62
256
370
-1
 48
1.0
  6
BYLAYER
100
AcDbLine
 10
211.9944608913203865
 20
49.4302392407564639
 30
0.0
 11
195.1401432068557824
 21
54.097823516365267
 31
0.0
  0
LINE
  5
235
100
AcDbEntity
  8
zagin_list
 62
256
370
-1
 48
1.0
  6
BYLAYER
100
AcDbLine
 10
197.0847486716295975
 20
92.4261967249577907
 30
0.0
 11
179.6282929277888911
 21
93.4875733980108237
 31
0.0
  0
LINE
  5
236
100
AcDbEntity
  8
zagin_list
 62
256
370
-1
 48
1.0
  6
BYLAYER
100
AcDbLine
 10
173.5614872174388097
 20
131.3826859021797304
 30
0.0
 11
156.2658242955962464
 21
128.7914677190140935
 31
0.0
  0
LINE
  5
237
100
AcDbEntity
  8
zagin_list
 62
256
370
-1
 48
1.0
  6
BYLAYER
100
AcDbLine
 10
142.4527559314280154
 20
164.5971212614029753
 30
0.0
 11
126.0737892950668453
 21
158.4665568906672775
 31
0.0
  0
LINE
  5
238
100
AcDbEntity
  8
zagin_list
 62
256
370
-1
 48
1.0
  6
BYLAYER
100
AcDbLine
 10
105.1181556470506138
 20
190.6178725968854053
 30
0.0
 11
90.3717247331815088
 21
181.2158971192926629
 31
0.0
  0
LINE
  5
239
100
AcDbEntity
  8
zagin_list
 62
256
370
-1
 48
1.0
  6
BYLAYER
100
AcDbLine
 10
63.1893875480227507
 20
208.3077082138483433
 30
0.0
 11
50.7199821488082705
 21
196.0452330734531188
 31
0.0
  0
LINE
  5
23A
100
AcDbEntity
  8
zagin_list
 62
256
370
-1
 48
1.0
  6
BYLAYER
100
AcDbLine
 10
18.4989399968233386
 20
216.8934974105814604
 30
0.0
 11
8.8515329630550248
 21
202.3064516129032313
 31
0.0
  0
LINE
  5
23B
100
AcDbEntity
  8
zagin_list
 62
256
370
-1
 48
1.0
  6
BYLAYER
100
AcDbLine
 10
-26.9999999999999858
 20
216.0
 30
0.0
 11
-33.4037706875516989
 21
199.7259074428088752
 31
0.0
  0
LINE
  5
23C
100
AcDbEntity
  8
zob
 62
256
370
-1
 48
1.0
  6
BYLAYER
100
AcDbLine
 10
-27.0000000000000213
 20
215.9999999999999147
 30
0.0
 11
-33.4037706875516776
 21
199.7259074428088184
 31
0.0
  0
LINE
  5
23D
100
AcDbEntity
  8
zob
 62
256
370
-1
 48
1.0
  6
BYLAYER
100
AcDbLine
 10
-27.0000000000000107
 20
215.9999999999999147
 30
0.0
 11
-33.4037706875517202
 21
199.7259074428087615
 31
0.0
  0
LINE
  5
23E
100
AcDbEntity
  8
pred_rezilo
 62
256
370
-1
 48
1.0
  6
BYLAYER
100
AcDbLine
 10
568.4053062259886246
 20
144.1538541069240296
 30
0.0
 11
574.6400089255957937
 21
138.0226165367266162
 31
0.0
  0
LINE
  5
23F
100
AcDbEntity
  8
pred_rezilo
 62
256
370
-1
 48
1.0
  6
BYLAYER
100
AcDbLine
 10
547.4409221764747144
 20
135.3089362984428305
 30
0.0
 11
554.8141376334092456
 21
130.6079485596462177
 31
0.0
  0
LINE
  5
240
100
AcDbEntity
  8
pred_rezilo
 62
256
370
-1
 48
1.0
  6
BYLAYER
100
AcDbLine
 10
528.7736220342860634
 20
122.2985606307014734
 30
0.0
 11
536.9631053524666413
 21
119.2332784453334682
 31
0.0
  0
LINE
  5
241
100
AcDbEntity
  8
pred_rezilo
 62
256
370
-1
 48
1.0
  6
BYLAYER
100
AcDbLine
 10
635.6594552182244797
 20
142.833133053211526
 30
0.0
 11
637.0995846350182319
 21
134.2081913631143379
 31
0.0
  0
LINE
  5
242
100
AcDbEntity
  8
pred_rezilo
 62
256
370
-1
 48
1.0
  6
BYLAYER
100
AcDbLine
 10
613.5
 20
148.0000000000000568
 30
0.0
 11
616.7018853437758708
 21
139.8629537214044944
 31
0.0
  0
LINE
  5
243
100
AcDbEntity
  8
pred_rezilo
 62
256
370
-1
 48
1.0
  6
BYLAYER
100
AcDbLine
 10
613.5
 20
148.0000000000000568
 30
0.0
 11
616.7018853437758708
 21
139.8629537214044944
 31
0.0
  0
LINE
  5
244
100
AcDbEntity
  8
pred_rezilo
 62
256
370
-1
 48
1.0
  6
BYLAYER
100
AcDbLine
 10
700.2807436087193764
 20
82.3086570489103622
 30
0.0
 11
694.834797491573795
 21
75.4672198618974761
 31
0.0
  0
LINE
  5
245
100
AcDbEntity
  8
pred_rezilo
 62
256
370
-1
 48
1.0
  6
BYLAYER
100
AcDbLine
 10
689.2929043374031153
 20
102.2336503428118846
 30
0.0
 11
685.3883799823669278
 21
94.4094391074467865
 31
0.0
  0
LINE
  5
246
100
AcDbEntity
  8
pred_rezilo
 62
256
370
-1
 48
1.0
  6
BYLAYER
100
AcDbLine
 10
674.4025366716489316
 20
119.4387344865455276
 30
0.0
 11
672.2100805290236849
 21
110.9737047785451125
 31
0.0
  0
LINE
  5
247
100
AcDbEntity
  8
pred_rezilo
 62
256
370
-1
 48
1.0
  6
BYLAYER
100
AcDbLine
 10
656.2604211303614647
 20
133.1719647438778225
 30
0.0
 11
655.8758540541518869
 21
124.4360789811978094
 31
0.0
  0
LINE
  5
248
100
AcDbEntity
  8
pred_rezilo
 62
256
370
-1
 48
1.0
  6
BYLAYER
100
AcDbLine
 10
698.5423743358146567
 20
-6.2130983624789877
 30
0.0
 11
689.8141464638944171
 21
-6.7437866990053266
 31
0.0
  0
LINE
  5
249
100
AcDbEntity
  8
pred_rezilo
 62
256
370
-1
 48
1.0
  6
BYLAYER
100
AcDbLine
 10
705.9972304456600796
 20
15.2848803796216508
 30
0.0
 11
697.5700716034278912
 21
12.9510882418174624
 31
0.0
  0
LINE
  5
24A
100
AcDbEntity
  8
pred_rezilo
 62
256
370
-1
 48
1.0
  6
BYLAYER
100
AcDbLine
 10
708.8194989538867503
 20
37.8630284454349137
 30
0.0
 11
701.061716420742755
 21
33.8281304215517196
 31
0.0
  0
LINE
  5
24B
100
AcDbEntity
  8
pred_rezilo
 62
256
370
-1
 48
1.0
  6
BYLAYER
100
AcDbLine
 10
706.8858331839383027
 20
60.5345724225096404
 30
0.0
 11
700.1364792825515906
 21
54.9749129177802729
 31
0.0
  0
LINE
  5
24C
100
AcDbEntity
  8
pred_rezilo
 62
256
370
-1
 48
1.0
  6
BYLAYER
100
AcDbLine
 10
631.5946937740112617
 20
-64.1538541069241717
 30
0.0
 11
625.3599910744042063
 21
-58.0226165367264599
 31
0.0
  0
LINE
  5
24D
100
AcDbEntity
  8
pred_rezilo
 62
256
370
-1
 48
1.0
  6
BYLAYER
100
AcDbLine
 10
652.5590778235252856
 20
-55.30893629844266
 30
0.0
 11
645.1858623665906407
 21
-50.6079485596462746
 31
0.0
  0
LINE
  5
24E
100
AcDbEntity
  8
pred_rezilo
 62
256
370
-1
 48
1.0
  6
BYLAYER
100
AcDbLine
 10
671.2263779657139366
 20
-42.298560630701374
 30
0.0
 11
663.0368946475334724
 21
-39.2332784453335961
 31
0.0
  0
LINE
  5
24F
100
AcDbEntity
  8
pred_rezilo
 62
256
370
-1
 48
1.0
  6
BYLAYER
100
AcDbLine
 10
686.7807436087193764
 20
-25.6913429510898652
 30
0.0
 11
678.1329121477981516
 21
-24.395733859507132
 31
0.0
  0
LINE
  5
250
100
AcDbEntity
  8
pred_rezilo
 62
256
370
-1
 48
1.0
  6
BYLAYER
100
AcDbLine
 10
543.7395788696385353
 20
-53.1719647438774388
 30
0.0
 11
544.1241459458478857
 21
-44.4360789811981078
 31
0.0
  0
LINE
  5
251
100
AcDbEntity
  8
pred_rezilo
 62
256
370
-1
 48
1.0
  6
BYLAYER
100
AcDbLine
 10
564.3405447817755203
 20
-62.8331330532112702
 30
0.0
 11
562.9004153649817681
 21
-54.2081913631140253
 31
0.0
  0
LINE
  5
252
100
AcDbEntity
  8
pred_rezilo
 62
256
370
-1
 48
1.0
  6
BYLAYER
100
AcDbLine
 10
586.5
 20
-68.0
 30
0.0
 11
583.2981146562241292
 21
-59.8629537214044092
 31
0.0
  0
LINE
  5
253
100
AcDbEntity
  8
pred_rezilo
 62
256
370
-1
 48
1.0
  6
BYLAYER
100
AcDbLine
 10
609.2494699984115414
 20
-68.4467487052906733
 30
0.0
 11
604.4257664815274893
 21
-61.1532258064514878
 31
0.0
  0
LINE
  5
254
100
AcDbEntity
  8
pred_rezilo
 62
256
370
-1
 48
1.0
  6
BYLAYER
100
AcDbLine
 10
493.1141668160616973
 20
19.4654275774902814
 30
0.0
 11
499.8635207174484094
 21
25.0250870822196738
 31
0.0
  0
LINE
  5
255
100
AcDbEntity
  8
pred_rezilo
 62
256
370
-1
 48
1.0
  6
BYLAYER
100
AcDbLine
 10
499.7192563912806236
 20
-2.3086570489100637
 30
0.0
 11
505.165202508426205
 21
4.5327801381025949
 31
0.0
  0
LINE
  5
256
100
AcDbEntity
  8
pred_rezilo
 62
256
370
-1
 48
1.0
  6
BYLAYER
100
AcDbLine
 10
510.7070956625968847
 20
-22.2336503428118846
 30
0.0
 11
514.6116200176330722
 21
-14.4094391074461754
 31
0.0
  0
LINE
  5
257
100
AcDbEntity
  8
pred_rezilo
 62
256
370
-1
 48
1.0
  6
BYLAYER
100
AcDbLine
 10
525.5974633283509547
 20
-39.4387344865459113
 30
0.0
 11
527.7899194709762014
 21
-30.9737047785438619
 31
0.0
  0
LINE
  5
258
100
AcDbEntity
  8
pred_rezilo
 62
256
370
-1
 48
1.0
  6
BYLAYER
100
AcDbLine
 10
513.2192563912806236
 20
105.6913429510900357
 30
0.0
 11
521.8670878522018484
 21
104.3957338595069047
 31
0.0
  0
LINE
  5
259
100
AcDbEntity
  8
pred_rezilo
 62
256
370
-1
 48
1.0
  6
BYLAYER
100
AcDbLine
 10
501.457625664185116
 20
86.2130983624787746
 30
0.0
 11
510.1858535361055829
 21
86.7437866990053976
 31
0.0
  0
LINE
  5
25A
100
AcDbEntity
  8
pred_rezilo
 62
256
370
-1
 48
1.0
  6
BYLAYER
100
AcDbLine
 10
494.0027695543398636
 20
64.7151196203783456
 30
0.0
 11
502.4299283965721088
 21
67.0489117581826264
 31
0.0
  0
LINE
  5
25B
100
AcDbEntity
  8
pred_rezilo
 62
256
370
-1
 48
1.0
  6
BYLAYER
100
AcDbLine
 10
491.1805010461132497
 20
42.1369715545651644
 30
0.0
 11
498.938283579257245
 21
46.1718695784483373
 31
0.0
  0
LINE
  5
25C
100
AcDbEntity
  8
pred_rezilo
 62
256
370
-1
 48
1.0
  6
BYLAYER
100
AcDbLine
 10
590.7505300015882312
 20
148.4467487052908439
 30
0.0
 11
595.5742335184725107
 21
141.1532258064516157
 31
0.0
  0
CIRCLE
  5
25D
100
AcDbEntity
  8
zagin_list
 62
256
370
-1
 48
1.0
  6
BYLAYER
100
AcDbCircle
 10
0.0
 20
0.0
 30
0.0
 40
45.0
  0
CIRCLE
  5
25E
100
AcDbEntity
  8
pred_rezilo
 62
256
370
-1
 48
1.0
  6
BYLAYER
100
AcDbCircle
 10
600.0
 20
40.0
 30
0.0
 40
22.5
  0
LINE
  5
25F
100
AcDbEntity
  8
kote
 62
256
370
-1
 48
1.0
  6
BYLAYER
100
AcDbLine
 10
0.0000000000000758
 20
225.0
 30
0.0
 11
0.0
 21
165.0
 31
0.0
  0
LINE
  5
260
100
AcDbEntity
  8
kote
 62
256
370
-1
 48
1.0
  6
BYLAYER
100
AcDbLine
 10
-0.0000000000000568
 20
224.9999999999999432
 30
0.0
 11
-45.0
 21
225.0
 31
0.0
  0
DIMENSION
  5
261
100
AcDbEntity
  8
kote
 62
256
370
-1
 48
1.0
  6
BYLAYER
100
AcDbDimension
 10
-27.0
 20
216.0
 30
0.0
 11
-36.4256068662078931
 21
219.08893774753858
 31
0.0
 70
130
 71
8
 72
2
 74
0
 75
0
 41
1.0
 42
0.0
  1
a
  3
Standard
100
AcDb2LineAngularDimension
 13
-45.0
 23
225.0
 33
0.0
 14
-0.0000000000000568
 24
224.9999999999999432
 34
0.0
 15
-6.7500000000000027
 25
222.7499999999999147
 35
0.0
 16
-39.0
 26
217.5
 36
0.0
  0
DIMENSION
  5
262
100
AcDbEntity
  8
kote
 62
256
370
-1
 48
1.0
  6
BYLAYER
100
AcDbDimension
 10
-4.4999999999999991
 20
211.4999999999999432
 30
0.0
 11
-26.0937300181863421
 21
198.9062699818134661
 31
0.0
 70
130
 71
8
 72
2
 74
0
 75
0
 41
1.0
 42
0.0
  1
b
  3
Standard
100
AcDb2LineAngularDimension
 13
-6.7499999999999893
 23
222.7499999999999432
 33
0.0
 14
0.0000000000000689
 24
225.0
 34
0.0
 15
-0.000000000000035
 25
225.0
 35
0.0
 16
-37.6765842400820929
 26
212.4411385866393687
 36
0.0
  0
DIMENSION
  5
263
100
AcDbEntity
  8
kote
 62
256
370
-1
 48
1.0
  6
BYLAYER
100
AcDbDimension
 10
0.0
 20
165.0
 30
0.0
 11
-5.91106225246142
 21
188.574393133792114
 31
0.0
 70
130
 71
8
 72
2
 74
0
 75
0
 41
1.0
 42
0.0
  1
g
  3
Standard
100
AcDb2LineAngularDimension
 13
-4.4999999999999991
 23
211.4999999999999432
 33
0.0
 14
-0.000000000000035
 24
225.0
 34
0.0
 15
0.0000000000000758
 25
225.0
 35
0.0
 16
-12.558861413360594
 26
187.3234157599179071
 36
0.0
  0
DIMENSION
  5
264
100
AcDbEntity
  8
kote
 62
256
370
-1
 48
1.0
  6
BYLAYER
100
AcDbDimension
 10
-4.4999999999999991
 20
211.4999999999999432
 30
0.0
 11
-37.5044142942343584
 21
197.9683476046257624
 31
0.0
 70
130
 71
8
 72
2
 74
0
 75
0
 41
1.0
 42
0.0
  1
d
  3
Standard
100
AcDb2LineAngularDimension
 13
-45.0
 23
225.0
 33
0.0
 14
-0.0000000000000568
 24
224.9999999999999432
 34
0.0
 15
-0.000000000000035
 25
225.0
 35
0.0
 16
-45.0
 26
205.5
 36
0.0
  0
LINE
  5
265
100
AcDbEntity
  8
obdelovanec
 62
256
370
-1
 48
1.0
  6
BYLAYER
100
AcDbLine
 10
-240.0
 20
200.0
 30
0.0
 11
800.0
 21
200.0
 31
0.0
  0
LINE
  5
266
100
AcDbEntity
  8
obdelovanec
 62
256
370
-1
 48
1.0
  6
BYLAYER
100
AcDbLine
 10
800.0
 20
200.0
 30
0.0
 11
800.0
 21
130.0
 31
0.0
  0
LINE
  5
267
100
AcDbEntity
  8
obdelovanec
 62
256
370
-1
 48
1.0
  6
BYLAYER
100
AcDbLine
 10
800.0
 20
130.0
 30
0.0
 11
-240.0
 21
130.0
 31
0.0
  0
LINE
  5
268
100
AcDbEntity
  8
obdelovanec
 62
256
370
-1
 48
1.0
  6
BYLAYER
100
AcDbLine
 10
-240.0
 20
130.0
 30
0.0
 11
-240.0
 21
200.0
 31
0.0
  0
ENDSEC
  0
SECTION
  2
OBJECTS
  0
DICTIONARY
  5
C
100
AcDbDictionary
280
0
281
1
  3
ACAD_GROUP
350
D
  3
ACAD_LAYOUT
350
1A
  3
ACAD_MLINESTYLE
350
17
  3
ACAD_PLOTSETTINGS
350
19
  3
ACAD_PLOTSTYLENAME
350
E
  3
AcDbVariableDictionary
350
269
  3
QCAD_OBJECTS
350
26A
  0
DICTIONARY
  5
D
100
AcDbDictionary
280
0
281
1
  0
ACDBDICTIONARYWDFLT
  5
E
100
AcDbDictionary
281
1
  3
Normal
350
F
100
AcDbDictionaryWithDefault
340
F
  0
ACDBPLACEHOLDER
  5
F
  0
DICTIONARY
  5
17
100
AcDbDictionary
280
0
281
1
  3
Standard
350
18
  0
MLINESTYLE
  5
18
100
AcDbMlineStyle
  2
STANDARD
 70
0
  3

 62
256
 51
90.0
 52
90.0
 71
2
 49
0.5
 62
256
  6
BYLAYER
 49
-0.5
 62
256
  6
BYLAYER
  0
DICTIONARY
  5
19
100
AcDbDictionary
280
0
281
1
  0
DICTIONARY
  5
1A
100
AcDbDictionary
281
1
  3
Layout1
350
1E
  3
Layout2
350
26
  3
Model
350
22
  0
LAYOUT
  5
1E
100
AcDbPlotSettings
  1

  2
none_device
  4

  6

 40
0.0
 41
0.0
 42
0.0
 43
0.0
 44
0.0
 45
0.0
 46
0.0
 47
0.0
 48
0.0
 49
0.0
140
0.0
141
0.0
142
1.0
143
1.0
 70
688
 72
0
 73
0
 74
5
  7

 75
16
147
1.0
148
0.0
149
0.0
100
AcDbLayout
  1
Layout1
 70
1
 71
1
 10
0.0
 20
0.0
 11
420.0
 21
297.0
 12
0.0
 22
0.0
 32
0.0
 14
100000000000000000000.0
 24
100000000000000000000.0
 34
100000000000000000000.0
 15
-100000000000000000000.0
 25
-100000000000000000000.0
 35
-100000000000000000000.0
146
0.0
 13
0.0
 23
0.0
 33
0.0
 16
1.0
 26
0.0
 36
0.0
 17
0.0
 27
1.0
 37
0.0
 76
0
330
1B
  0
LAYOUT
  5
22
100
AcDbPlotSettings
  1

  2
none_device
  4

  6

 40
0.0
 41
0.0
 42
0.0
 43
0.0
 44
0.0
 45
0.0
 46
0.0
 47
0.0
 48
0.0
 49
0.0
140
0.0
141
0.0
142
1.0
143
1.0
 70
1712
 72
0
 73
0
 74
0
  7

 75
0
147
1.0
148
0.0
149
0.0
100
AcDbLayout
  1
Model
 70
1
 71
0
 10
0.0
 20
0.0
 11
12.0
 21
9.0
 12
0.0
 22
0.0
 32
0.0
 14
0.0
 24
0.0
 34
0.0
 15
0.0
 25
0.0
 35
0.0
146
0.0
 13
0.0
 23
0.0
 33
0.0
 16
1.0
 26
0.0
 36
0.0
 17
0.0
 27
1.0
 37
0.0
 76
0
330
1F
  0
LAYOUT
  5
26
100
AcDbPlotSettings
  1

  2
none_device
  4

  6

 40
0.0
 41
0.0
 42
0.0
 43
0.0
 44
0.0
 45
0.0
 46
0.0
 47
0.0
 48
0.0
 49
0.0
140
0.0
141
0.0
142
1.0
143
1.0
 70
688
 72
0
 73
0
 74
5
  7

 75
16
147
1.0
148
0.0
149
0.0
100
AcDbLayout
  1
Layout2
 70
1
 71
2
 10
0.0
 20
0.0
 11
12.0
 21
9.0
 12
0.0
 22
0.0
 32
0.0
 14
0.0
 24
0.0
 34
0.0
 15
0.0
 25
0.0
 35
0.0
146
0.0
 13
0.0
 23
0.0
 33
0.0
 16
1.0
 26
0.0
 36
0.0
 17
0.0
 27
1.0
 37
0.0
 76
0
330
23
  0
DICTIONARY
  5
269
100
AcDbDictionary
281
1
  3
DIMASSOC
350
26C
  3
HIDETEXT
350
26B
  0
DICTIONARYVAR
  5
26B
100
DictionaryVariables
280
0
  1
2
  0
DICTIONARYVAR
  5
26C
100
DictionaryVariables
280
0
  1
1
  0
DICTIONARY
  5
26A
100
AcDbDictionary
281
1
  3
ColorSettings/BackgroundColor
350
26D
  3
ColorSettings/ColorMode
350
26E
  3
Grid/DisplayGrid00
350
26F
  3
Grid/DisplayGrid01
350
270
  3
Grid/DisplayGrid02
350
271
  3
Grid/DisplayGrid03
350
272
  3
Grid/GridSpacingX00
350
273
  3
Grid/GridSpacingX01
350
274
  3
Grid/GridSpacingX02
350
275
  3
Grid/GridSpacingX03
350
276
  3
Grid/GridSpacingY00
350
277
  3
Grid/GridSpacingY01
350
278
  3
Grid/GridSpacingY02
350
279
  3
Grid/GridSpacingY03
350
27A
  3
Grid/IsometricGrid00
350
27B
  3
Grid/IsometricGrid01
350
27C
  3
Grid/IsometricGrid02
350
27D
  3
Grid/IsometricGrid03
350
27E
  3
Grid/IsometricProjection00
350
27F
  3
Grid/IsometricProjection01
350
280
  3
Grid/IsometricProjection02
350
281
  3
Grid/IsometricProjection03
350
282
  3
Grid/MetaGridSpacingX00
350
283
  3
Grid/MetaGridSpacingX01
350
284
  3
Grid/MetaGridSpacingX02
350
285
  3
Grid/MetaGridSpacingX03
350
286
  3
Grid/MetaGridSpacingY00
350
287
  3
Grid/MetaGridSpacingY01
350
288
  3
Grid/MetaGridSpacingY02
350
289
  3
Grid/MetaGridSpacingY03
350
28A
  3
MultiPageSettings/Columns
350
28B
  3
MultiPageSettings/GlueMarginsBottom
350
28C
  3
MultiPageSettings/GlueMarginsLeft
350
28D
  3
MultiPageSettings/GlueMarginsRight
350
28E
  3
MultiPageSettings/GlueMarginsTop
350
28F
  3
MultiPageSettings/PrintCropMarks
350
290
  3
MultiPageSettings/Rows
350
291
  3
PageSettings/OffsetX
350
292
  3
PageSettings/OffsetY
350
293
  3
PageSettings/PageOrientation
350
294
  3
PageSettings/PaperHeight
350
295
  3
PageSettings/PaperWidth
350
296
  3
PageSettings/Scale
350
297
  3
PageSettings/ShowPaperBorders
350
298
  3
PageTagSettings/EnablePageTags
350
299
  3
PageTagSettings/TagAlignment
350
29A
  3
PageTagSettings/TagFont
350
29B
  3
PageTagSettings/TagPosition
350
29C
  3
QCADVersion
350
29D
  3
UnitSettings/PaperUnit
350
29E
  3
ViewportCenter
350
29F
  3
ViewportHeight
350
2A0
  3
ViewportWidth
350
2A1
  0
XRECORD
  5
26D
330
26A
100
AcDbXrecord
280
1
1000
White
  0
XRECORD
  5
26E
330
26A
100
AcDbXrecord
280
1
1000
FullColor
  0
XRECORD
  5
26F
330
26A
100
AcDbXrecord
280
1
290
1
  0
XRECORD
  5
270
330
26A
100
AcDbXrecord
280
1
290
1
  0
XRECORD
  5
271
330
26A
100
AcDbXrecord
280
1
290
1
  0
XRECORD
  5
272
330
26A
100
AcDbXrecord
280
1
290
1
  0
XRECORD
  5
273
330
26A
100
AcDbXrecord
280
1
1000
auto
  0
XRECORD
  5
274
330
26A
100
AcDbXrecord
280
1
1000
auto
  0
XRECORD
  5
275
330
26A
100
AcDbXrecord
280
1
1000
auto
  0
XRECORD
  5
276
330
26A
100
AcDbXrecord
280
1
1000
auto
  0
XRECORD
  5
277
330
26A
100
AcDbXrecord
280
1
1000
auto
  0
XRECORD
  5
278
330
26A
100
AcDbXrecord
280
1
1000
auto
  0
XRECORD
  5
279
330
26A
100
AcDbXrecord
280
1
1000
auto
  0
XRECORD
  5
27A
330
26A
100
AcDbXrecord
280
1
1000
auto
  0
XRECORD
  5
27B
330
26A
100
AcDbXrecord
280
1
290
0
  0
XRECORD
  5
27C
330
26A
100
AcDbXrecord
280
1
290
0
  0
XRECORD
  5
27D
330
26A
100
AcDbXrecord
280
1
290
0
  0
XRECORD
  5
27E
330
26A
100
AcDbXrecord
280
1
290
0
  0
XRECORD
  5
27F
330
26A
100
AcDbXrecord
280
1
 90
65537
  0
XRECORD
  5
280
330
26A
100
AcDbXrecord
280
1
 90
65537
  0
XRECORD
  5
281
330
26A
100
AcDbXrecord
280
1
 90
65537
  0
XRECORD
  5
282
330
26A
100
AcDbXrecord
280
1
 90
65537
  0
XRECORD
  5
283
330
26A
100
AcDbXrecord
280
1
1000
auto
  0
XRECORD
  5
284
330
26A
100
AcDbXrecord
280
1
1000
auto
  0
XRECORD
  5
285
330
26A
100
AcDbXrecord
280
1
1000
auto
  0
XRECORD
  5
286
330
26A
100
AcDbXrecord
280
1
1000
auto
  0
XRECORD
  5
287
330
26A
100
AcDbXrecord
280
1
1000
auto
  0
XRECORD
  5
288
330
26A
100
AcDbXrecord
280
1
1000
auto
  0
XRECORD
  5
289
330
26A
100
AcDbXrecord
280
1
1000
auto
  0
XRECORD
  5
28A
330
26A
100
AcDbXrecord
280
1
1000
auto
  0
XRECORD
  5
28B
330
26A
100
AcDbXrecord
280
1
 90
1
  0
XRECORD
  5
28C
330
26A
100
AcDbXrecord
280
1
 40
10.0
  0
XRECORD
  5
28D
330
26A
100
AcDbXrecord
280
1
 40
10.0
  0
XRECORD
  5
28E
330
26A
100
AcDbXrecord
280
1
 40
10.0
  0
XRECORD
  5
28F
330
26A
100
AcDbXrecord
280
1
 40
10.0
  0
XRECORD
  5
290
330
26A
100
AcDbXrecord
280
1
290
0
  0
XRECORD
  5
291
330
26A
100
AcDbXrecord
280
1
 90
1
  0
XRECORD
  5
292
330
26A
100
AcDbXrecord
280
1
 40
0.0
  0
XRECORD
  5
293
330
26A
100
AcDbXrecord
280
1
 40
0.0
  0
XRECORD
  5
294
330
26A
100
AcDbXrecord
280
1
1000
Portrait
  0
XRECORD
  5
295
330
26A
100
AcDbXrecord
280
1
 40
297.0
  0
XRECORD
  5
296
330
26A
100
AcDbXrecord
280
1
 40
210.0
  0
XRECORD
  5
297
330
26A
100
AcDbXrecord
280
1
1000
1:1
  0
XRECORD
  5
298
330
26A
100
AcDbXrecord
280
1
290
1
  0
XRECORD
  5
299
330
26A
100
AcDbXrecord
280
1
290
0
  0
XRECORD
  5
29A
330
26A
100
AcDbXrecord
280
1
1000
Inside
  0
XRECORD
  5
29B
330
26A
100
AcDbXrecord
280
1
1000
Arial,10,-1,5,50,0,0,0,0,0
  0
XRECORD
  5
29C
330
26A
100
AcDbXrecord
280
1
1000
TopLeft
  0
XRECORD
  5
29D
330
26A
100
AcDbXrecord
280
1
1000
3.25.2
  0
XRECORD
  5
29E
330
26A
100
AcDbXrecord
280
1
 90
4
  0
XRECORD
  5
2A0
330
26A
100
AcDbXrecord
280
1
 40
133.9199999999999591
  0
XRECORD
  5
2A1
330
26A
100
AcDbXrecord
280
1
 40
242.9567999999999302
  0
ENDSEC
  0
EOF
