999
dxflib 3.17.0.0
  0
SECTION
  2
HEADER
  9
$ACADVER
  1
AC1015
  9
$HANDSEED
  5
FFFF
  9
$ANGBASE
 50
0.0
  9
$ATTMODE
 70
1
  9
$AUNITS
 70
0
  9
$AUPREC
 70
0
  9
$CELTSCALE
 40
1.0
  9
$CHAMFERA
 40
0.0
  9
$CHAMFERB
 40
0.0
  9
$CHAMFERC
 40
0.0
  9
$CHAMFERD
 40
0.0
  9
$CMLJUST
 70
0
  9
$CMLSCALE
 40
1.0
  9
$DIMADEC
 70
0
  9
$DIMALTD
 70
2
  9
$DIMALTF
 40
25.3999999999999986
  9
$DIMALTRND
 40
0.0
  9
$DIMALTTD
 70
2
  9
$DIMALTTZ
 70
0
  9
$DIMALTU
 70
2
  9
$DIMALTZ
 70
0
  9
$DIMAPOST
  1

  9
$DIMASZ
 40
2.5
  9
$DIMATFIT
 70
3
  9
$DIMAUNIT
 70
0
  9
$DIMAZIN
 70
2
  9
$DIMCEN
 40
0.09
  9
$DIMDEC
 70
4
  9
$DIMDLE
 40
0.0
  9
$DIMDLI
 40
0.38
  9
$DIMDSEP
 70
46
  9
$DIMEXE
 40
1.25
  9
$DIMEXO
 40
0.625
  9
$DIMFRAC
 70
0
  9
$DIMGAP
 40
0.625
  9
$DIMJUST
 70
0
  9
$DIMLFAC
 40
1.0
  9
$DIMLUNIT
 70
2
  9
$DIMLWD
 70
-2
  9
$DIMLWE
 70
-2
  9
$DIMPOST
  1

  9
$DIMRND
 40
0.0
  9
$DIMSCALE
 40
1.0
  9
$DIMTAD
 70
0
  9
$DIMTDEC
 70
4
  9
$DIMTFAC
 40
1.0
  9
$DIMTM
 40
0.0
  9
$DIMTOLJ
 70
1
  9
$DIMTP
 40
0.0
  9
$DIMTSZ
 40
0.0
  9
$DIMTVP
 40
0.0
  9
$DIMTXT
 40
2.5
  9
$DIMTZIN
 70
0
  9
$DIMZIN
 70
8
  9
$DWGCODEPAGE
  3
ANSI_1252
  9
$ELEVATION
 40
0.0
  9
$EXTMAX
 10
-100000000000000000000.0
 20
-100000000000000000000.0
 30
-100000000000000000000.0
  9
$EXTMIN
 10
100000000000000000000.0
 20
100000000000000000000.0
 30
100000000000000000000.0
  9
$FILLETRAD
 40
0.5
  9
$INSBASE
 10
0.0
 20
0.0
 30
0.0
  9
$INSUNITS
 70
4
  9
$LIMMAX
 10
12.0
 20
9.0
  9
$LIMMIN
 10
0.0
 20
0.0
  9
$LTSCALE
 40
1.0
  9
$LUNITS
 70
2
  9
$LUPREC
 70
4
  9
$MAXACTVP
 70
2
  9
$MEASUREMENT
 70
1
  9
$MIRRTEXT
 70
0
  9
$PDMODE
 70
0
  9
$PDSIZE
 40
0.0
  9
$PELEVATION
 40
0.0
  9
$PEXTMAX
 10
-100000000000000000000.0
 20
-100000000000000000000.0
 30
-100000000000000000000.0
  9
$PEXTMIN
 10
100000000000000000000.0
 20
100000000000000000000.0
 30
100000000000000000000.0
  9
$PINSBASE
 10
0.0
 20
0.0
 30
0.0
  9
$PLIMMAX
 10
12.0
 20
9.0
  9
$PLIMMIN
 10
0.0
 20
0.0
  9
$PLINEWID
 40
0.0
  9
$PROXYGRAPHICS
 70
1
  9
$PUCSORG
 10
0.0
 20
0.0
 30
0.0
  9
$PUCSXDIR
 10
1.0
 20
0.0
 30
0.0
  9
$PUCSYDIR
 10
0.0
 20
1.0
 30
0.0
  9
$SHADEDGE
 70
3
  9
$SHADEDIF
 70
70
  9
$SKETCHINC
 40
0.1
  9
$SPLINESEGS
 70
8
  9
$SPLINETYPE
 70
6
  9
$SURFTAB1
 70
6
  9
$SURFTAB2
 70
6
  9
$SURFTYPE
 70
6
  9
$SURFU
 70
6
  9
$SURFV
 70
6
  9
$TEXTSIZE
 40
2.5
  9
$THICKNESS
 40
0.0
  9
$TRACEWID
 40
0.05
  9
$TREEDEPTH
 70
3020
  9
$UCSORG
 10
0.0
 20
0.0
 30
0.0
  9
$UCSXDIR
 10
1.0
 20
0.0
 30
0.0
  9
$UCSYDIR
 10
0.0
 20
1.0
 30
0.0
  9
$UNITMODE
 70
0
  9
$USERI1
 70
0
  9
$USERI2
 70
0
  9
$USERI3
 70
0
  9
$USERI4
 70
0
  9
$USERI5
 70
0
  9
$USERR1
 40
0.0
  9
$USERR2
 40
0.0
  9
$USERR3
 40
0.0
  9
$USERR4
 40
0.0
  9
$USERR5
 40
0.0
  0
ENDSEC
  0
SECTION
  2
TABLES
  0
TABLE
  2
VPORT
  5
8
100
AcDbSymbolTable
 70
1
  0
VPORT
  5
30
100
AcDbSymbolTableRecord
100
AcDbViewportTableRecord
  2
*Active
 70
0
 10
0.0
 20
0.0
 11
1.0
 21
1.0
 12
286.3055555555554861
 22
148.5
 13
0.0
 23
0.0
 14
10.0
 24
10.0
 15
10.0
 25
10.0
 16
0.0
 26
0.0
 36
1.0
 17
0.0
 27
0.0
 37
0.0
 40
297.0
 41
1.92798353909465
 42
50.0
 43
0.0
 44
0.0
 50
0.0
 51
0.0
 71
0
 72
100
 73
1
 74
3
 75
1
 76
1
 77
0
 78
0
281
0
 65
1
110
0.0
120
0.0
130
0.0
111
1.0
121
0.0
131
0.0
112
0.0
122
1.0
132
0.0
 79
0
146
0.0
  0
ENDTAB
  0
TABLE
  2
LTYPE
  5
5
100
AcDbSymbolTable
 70
50
  0
LTYPE
  5
16
100
AcDbSymbolTableRecord
100
AcDbLinetypeTableRecord
  2
Continuous
 70
0
  3
Solid line
 72
65
 73
0
 40
0.0
  0
LTYPE
  5
31
100
AcDbSymbolTableRecord
100
AcDbLinetypeTableRecord
  2
ACAD_ISO09W100
 70
0
  3
ISO long-dash double-short-dash ____ __ __ ____
 72
65
 73
6
 40
45.0
 49
24.0
 74
0
 49
-3.0
 74
0
 49
6.0
 74
0
 49
-3.0
 74
0
 49
6.0
 74
0
 49
-3.0
 74
0
  0
LTYPE
  5
32
100
AcDbSymbolTableRecord
100
AcDbLinetypeTableRecord
  2
ACAD_ISO06W100
 70
0
  3
ISO long-dash triple-dot ____ ... ____ ... ____
 72
65
 73
8
 40
36.0000000000000071
 49
24.0
 74
0
 49
-2.9500000000000002
 74
0
 49
0.1
 74
0
 49
-2.9000000000000004
 74
0
 49
0.1
 74
0
 49
-2.9000000000000004
 74
0
 49
0.1
 74
0
 49
-2.9500000000000002
 74
0
  0
LTYPE
  5
33
100
AcDbSymbolTableRecord
100
AcDbLinetypeTableRecord
  2
HOT_WATER_SUPPLY
 70
0
  3
Hot water supply ---- HW ---- HW ---- HW ----
 72
65
 73
3
 40
22.8599999999999994
 49
12.6999999999999993
 74
0
 49
-5.0800000000000001
 74
0
 49
-5.0800000000000001
 74
0
  0
LTYPE
  5
34
100
AcDbSymbolTableRecord
100
AcDbLinetypeTableRecord
  2
GAS_LINE
 70
0
  3
Gas line ----GAS----GAS----GAS----GAS----GAS----GAS--
 72
65
 73
3
 40
24.1300000000000026
 49
12.6999999999999993
 74
0
 49
-5.0800000000000001
 74
0
 49
-6.3499999999999996
 74
0
  0
LTYPE
  5
35
100
AcDbSymbolTableRecord
100
AcDbLinetypeTableRecord
  2
DIVIDE2
 70
0
  3
Divide (.5x) __..__..__..__..__..__..__..__.._
 72
65
 73
6
 40
15.8749999999999982
 49
6.3499999999999996
 74
0
 49
-3.125
 74
0
 49
0.1
 74
0
 49
-3.0750000000000002
 74
0
 49
0.1
 74
0
 49
-3.125
 74
0
  0
LTYPE
  5
36
100
AcDbSymbolTableRecord
100
AcDbLinetypeTableRecord
  2
DOTX2
 70
0
  3
Dot (2x) .  .  .  .  .  .  .  .  .  .  .  .  .  .
 72
65
 73
2
 40
12.6999999999999993
 49
0.1
 74
0
 49
-12.5999999999999996
 74
0
  0
LTYPE
  5
37
100
AcDbSymbolTableRecord
100
AcDbLinetypeTableRecord
  2
HIDDEN2
 70
0
  3
Hidden (.5x) _ _ _ _ _ _ _ _ _ _ _ _ _ _ _ _ _ 
 72
65
 73
2
 40
4.7624999999999993
 49
3.1749999999999998
 74
0
 49
-1.5874999999999999
 74
0
  0
LTYPE
  5
38
100
AcDbSymbolTableRecord
100
AcDbLinetypeTableRecord
  2
ACAD_ISO08W100
 70
0
  3
ISO long-dash short-dash ____ __ ____ __ ____ _
 72
65
 73
4
 40
36.0
 49
24.0
 74
0
 49
-3.0
 74
0
 49
6.0
 74
0
 49
-3.0
 74
0
  0
LTYPE
  5
39
100
AcDbSymbolTableRecord
100
AcDbLinetypeTableRecord
  2
DRAINAGE
 70
0
  3
Drainage ---->---->---->----
 72
65
 73
2
 40
10.1600000000000001
 49
5.0800000000000001
 74
0
 49
5.0800000000000001
 74
0
  0
LTYPE
  5
3A
100
AcDbSymbolTableRecord
100
AcDbLinetypeTableRecord
  2
DIVIDEX2
 70
0
  3
Divide (2x) ________  .  .  ________  .  .  _
 72
65
 73
6
 40
63.5
 49
25.3999999999999986
 74
0
 49
-12.6499999999999986
 74
0
 49
0.1
 74
0
 49
-12.5999999999999979
 74
0
 49
0.1
 74
0
 49
-12.6499999999999986
 74
0
  0
LTYPE
  5
3B
100
AcDbSymbolTableRecord
100
AcDbLinetypeTableRecord
  2
DASHEDX2
 70
0
  3
Dashed (2x) ____  ____  ____  ____  ____  ___
 72
65
 73
2
 40
38.0999999999999943
 49
25.3999999999999986
 74
0
 49
-12.6999999999999993
 74
0
  0
LTYPE
  5
3C
100
AcDbSymbolTableRecord
100
AcDbLinetypeTableRecord
  2
ACAD_ISO14W100
 70
0
  3
ISO dash triple-dot __ . . . __ . . . __ . . . _
 72
65
 73
8
 40
24.0000000000000036
 49
12.0
 74
0
 49
-2.9500000000000002
 74
0
 49
0.1
 74
0
 49
-2.9000000000000004
 74
0
 49
0.1
 74
0
 49
-2.9000000000000004
 74
0
 49
0.1
 74
0
 49
-2.9500000000000002
 74
0
  0
LTYPE
  5
3D
100
AcDbSymbolTableRecord
100
AcDbLinetypeTableRecord
  2
PHANTOM
 70
0
  3
Phantom ______  __  __  ______  __  __  ______ 
 72
65
 73
6
 40
63.5000000000000071
 49
31.75
 74
0
 49
-6.3499999999999996
 74
0
 49
6.3499999999999996
 74
0
 49
-6.3499999999999996
 74
0
 49
6.3499999999999996
 74
0
 49
-6.3499999999999996
 74
0
  0
LTYPE
  5
3E
100
AcDbSymbolTableRecord
100
AcDbLinetypeTableRecord
  2
DASHDOTX2
 70
0
  3
Dash dot (2x) ____  .  ____  .  ____  .  ___
 72
65
 73
4
 40
50.7999999999999972
 49
25.3999999999999986
 74
0
 49
-12.6499999999999986
 74
0
 49
0.1
 74
0
 49
-12.6499999999999986
 74
0
  0
LTYPE
  5
3F
100
AcDbSymbolTableRecord
100
AcDbLinetypeTableRecord
  2
FENCELINE2
 70
0
  3
Fenceline square ----[]-----[]----[]-----[]----[]---
 72
65
 73
4
 40
36.8299999999999983
 49
6.3499999999999996
 74
0
 49
-2.54
 74
0
 49
-2.54
 74
0
 49
25.3999999999999986
 74
0
  0
LTYPE
  5
40
100
AcDbSymbolTableRecord
100
AcDbLinetypeTableRecord
  2
ACAD_ISO12W100
 70
0
  3
ISO dash double-dot __ . . __ . . __ . . __ . . 
 72
65
 73
6
 40
21.0
 49
12.0
 74
0
 49
-2.9500000000000002
 74
0
 49
0.1
 74
0
 49
-2.9000000000000004
 74
0
 49
0.1
 74
0
 49
-2.9500000000000002
 74
0
  0
LTYPE
  5
41
100
AcDbSymbolTableRecord
100
AcDbLinetypeTableRecord
  2
DASHED
 70
0
  3
Dashed __ __ __ __ __ __ __ __ __ __ __ __ __ _
 72
65
 73
2
 40
19.0499999999999972
 49
12.6999999999999993
 74
0
 49
-6.3499999999999996
 74
0
  0
LTYPE
  5
42
100
AcDbSymbolTableRecord
100
AcDbLinetypeTableRecord
  2
BORDER2
 70
0
  3
Border (.5x) __.__.__.__.__.__.__.__.__.__.__.
 72
65
 73
6
 40
22.2250000000000014
 49
6.3499999999999996
 74
0
 49
-3.1749999999999998
 74
0
 49
6.3499999999999996
 74
0
 49
-3.125
 74
0
 49
0.1
 74
0
 49
-3.125
 74
0
  0
LTYPE
  5
43
100
AcDbSymbolTableRecord
100
AcDbLinetypeTableRecord
  2
ACAD_ISO10W100
 70
0
  3
ISO dash dot __ . __ . __ . __ . __ . __ . __ . 
 72
65
 73
4
 40
18.0
 49
12.0
 74
0
 49
-2.9500000000000002
 74
0
 49
0.1
 74
0
 49
-2.9500000000000002
 74
0
  0
LTYPE
  5
44
100
AcDbSymbolTableRecord
100
AcDbLinetypeTableRecord
  2
PHANTOM2
 70
0
  3
Phantom (.5x) ___ _ _ ___ _ _ ___ _ _ ___ _ _
 72
65
 73
6
 40
31.7500000000000036
 49
15.875
 74
0
 49
-3.1749999999999998
 74
0
 49
3.1749999999999998
 74
0
 49
-3.1749999999999998
 74
0
 49
3.1749999999999998
 74
0
 49
-3.1749999999999998
 74
0
  0
LTYPE
  5
45
100
AcDbSymbolTableRecord
100
AcDbLinetypeTableRecord
  2
DIVIDE
 70
0
  3
Divide ____ . . ____ . . ____ . . ____ . . ____
 72
65
 73
6
 40
31.7500000000000036
 49
12.6999999999999993
 74
0
 49
-6.2999999999999998
 74
0
 49
0.1
 74
0
 49
-6.25
 74
0
 49
0.1
 74
0
 49
-6.2999999999999998
 74
0
  0
LTYPE
  5
46
100
AcDbSymbolTableRecord
100
AcDbLinetypeTableRecord
  2
ACAD_ISO15W100
 70
0
  3
ISO double-dash triple-dot __ __ . . . __ __ . .
 72
65
 73
10
 40
39.0000000000000071
 49
12.0
 74
0
 49
-3.0
 74
0
 49
12.0
 74
0
 49
-2.9500000000000002
 74
0
 49
0.1
 74
0
 49
-2.9000000000000004
 74
0
 49
0.1
 74
0
 49
-2.9000000000000004
 74
0
 49
0.1
 74
0
 49
-2.9500000000000002
 74
0
  0
LTYPE
  5
47
100
AcDbSymbolTableRecord
100
AcDbLinetypeTableRecord
  2
PHANTOMX2
 70
0
  3
Phantom (2x) ____________    ____    ____   _
 72
65
 73
6
 40
127.0000000000000142
 49
63.5
 74
0
 49
-12.6999999999999993
 74
0
 49
12.6999999999999993
 74
0
 49
-12.6999999999999993
 74
0
 49
12.6999999999999993
 74
0
 49
-12.6999999999999993
 74
0
  0
LTYPE
  5
48
100
AcDbSymbolTableRecord
100
AcDbLinetypeTableRecord
  2
CENTERX2
 70
0
  3
Center (2x) ________  __  ________  __  _____
 72
65
 73
4
 40
101.6000000000000085
 49
63.5
 74
0
 49
-12.6999999999999993
 74
0
 49
12.6999999999999993
 74
0
 49
-12.6999999999999993
 74
0
  0
LTYPE
  5
15
100
AcDbSymbolTableRecord
100
AcDbLinetypeTableRecord
  2
BYLAYER
 70
0
  3

 72
65
 73
0
 40
0.0
  0
LTYPE
  5
49
100
AcDbSymbolTableRecord
100
AcDbLinetypeTableRecord
  2
CENTER2
 70
0
  3
Center (.5x) ___ _ ___ _ ___ _ ___ _ ___ _ ___
 72
65
 73
4
 40
28.5750000000000028
 49
19.0500000000000007
 74
0
 49
-3.1749999999999998
 74
0
 49
3.1749999999999998
 74
0
 49
-3.1749999999999998
 74
0
  0
LTYPE
  5
4A
100
AcDbSymbolTableRecord
100
AcDbLinetypeTableRecord
  2
FENCELINE1
 70
0
  3
Fenceline circle ----0-----0----0-----0----0-----0--
 72
65
 73
4
 40
36.8299999999999983
 49
6.3499999999999996
 74
0
 49
-2.54
 74
0
 49
-2.54
 74
0
 49
25.3999999999999986
 74
0
  0
LTYPE
  5
4B
100
AcDbSymbolTableRecord
100
AcDbLinetypeTableRecord
  2
ACAD_ISO02W100
 70
0
  3
ISO dash __ __ __ __ __ __ __ __ __ __ __ __ __
 72
65
 73
2
 40
15.0
 49
12.0
 74
0
 49
-3.0
 74
0
  0
LTYPE
  5
4C
100
AcDbSymbolTableRecord
100
AcDbLinetypeTableRecord
  2
HIDDEN
 70
0
  3
Hidden __ __ __ __ __ __ __ __ __ __ __ __ __ __
 72
65
 73
2
 40
9.5249999999999986
 49
6.3499999999999996
 74
0
 49
-3.1749999999999998
 74
0
  0
LTYPE
  5
4D
100
AcDbSymbolTableRecord
100
AcDbLinetypeTableRecord
  2
DASHDOT2
 70
0
  3
Dash dot (.5x) _._._._._._._._._._._._._._._.
 72
65
 73
4
 40
12.6999999999999993
 49
6.3499999999999996
 74
0
 49
-3.125
 74
0
 49
0.1
 74
0
 49
-3.125
 74
0
  0
LTYPE
  5
4E
100
AcDbSymbolTableRecord
100
AcDbLinetypeTableRecord
  2
HIDDENX2
 70
0
  3
Hidden (2x) ____ ____ ____ ____ ____ ____ ____ 
 72
65
 73
2
 40
19.0499999999999972
 49
12.6999999999999993
 74
0
 49
-6.3499999999999996
 74
0
  0
LTYPE
  5
4F
100
AcDbSymbolTableRecord
100
AcDbLinetypeTableRecord
  2
ACAD_ISO05W100
 70
0
  3
ISO long-dash double-dot ____ .. ____ .. ____ . 
 72
65
 73
6
 40
33.0000000000000071
 49
24.0
 74
0
 49
-2.9500000000000002
 74
0
 49
0.1
 74
0
 49
-2.9000000000000004
 74
0
 49
0.1
 74
0
 49
-2.9500000000000002
 74
0
  0
LTYPE
  5
50
100
AcDbSymbolTableRecord
100
AcDbLinetypeTableRecord
  2
ACAD_ISO13W100
 70
0
  3
ISO double-dash double-dot __ __ . . __ __ . . _
 72
65
 73
8
 40
36.0000000000000071
 49
12.0
 74
0
 49
-3.0
 74
0
 49
12.0
 74
0
 49
-2.9500000000000002
 74
0
 49
0.1
 74
0
 49
-2.9000000000000004
 74
0
 49
0.1
 74
0
 49
-2.9500000000000002
 74
0
  0
LTYPE
  5
51
100
AcDbSymbolTableRecord
100
AcDbLinetypeTableRecord
  2
BATTING
 70
0
  3
Batting SSSSSSSSSSSSSSSSSSSSSSSSSSSSSSSSSSSSSSSSSSSSSSS
 72
65
 73
4
 40
10.1625399999999999
 49
0.00254
 74
0
 49
-2.54
 74
0
 49
-5.0800000000000001
 74
0
 49
-2.54
 74
0
  0
LTYPE
  5
52
100
AcDbSymbolTableRecord
100
AcDbLinetypeTableRecord
  2
BORDERX2
 70
0
  3
Border (2x) ____  ____  .  ____  ____  .  ___
 72
65
 73
6
 40
88.8999999999999773
 49
25.3999999999999986
 74
0
 49
-12.6999999999999993
 74
0
 49
25.3999999999999986
 74
0
 49
-12.6499999999999986
 74
0
 49
0.1
 74
0
 49
-12.6499999999999986
 74
0
  0
LTYPE
  5
53
100
AcDbSymbolTableRecord
100
AcDbLinetypeTableRecord
  2
ACAD_ISO11W100
 70
0
  3
ISO double-dash dot __ __ . __ __ . __ __ . __ _
 72
65
 73
6
 40
33.0
 49
12.0
 74
0
 49
-3.0
 74
0
 49
12.0
 74
0
 49
-2.9500000000000002
 74
0
 49
0.1
 74
0
 49
-2.9500000000000002
 74
0
  0
LTYPE
  5
54
100
AcDbSymbolTableRecord
100
AcDbLinetypeTableRecord
  2
ACAD_ISO04W100
 70
0
  3
ISO long-dash dot ____ . ____ . ____ . ____ . _
 72
65
 73
4
 40
30.0
 49
24.0
 74
0
 49
-2.9500000000000002
 74
0
 49
0.1
 74
0
 49
-2.9500000000000002
 74
0
  0
LTYPE
  5
55
100
AcDbSymbolTableRecord
100
AcDbLinetypeTableRecord
  2
ACAD_ISO03W100
 70
0
  3
ISO dash space __    __    __    __    __    __
 72
65
 73
2
 40
30.0
 49
12.0
 74
0
 49
-18.0
 74
0
  0
LTYPE
  5
56
100
AcDbSymbolTableRecord
100
AcDbLinetypeTableRecord
  2
DOT2
 70
0
  3
Dot (.5x) ........................................
 72
65
 73
2
 40
3.1749999999999998
 49
0.1
 74
0
 49
-3.0749999999999997
 74
0
  0
LTYPE
  5
57
100
AcDbSymbolTableRecord
100
AcDbLinetypeTableRecord
  2
DOT
 70
0
  3
Dot . . . . . . . . . . . . . . . . . . . . . . . .
 72
65
 73
2
 40
6.3499999999999996
 49
0.1
 74
0
 49
-6.25
 74
0
  0
LTYPE
  5
58
100
AcDbSymbolTableRecord
100
AcDbLinetypeTableRecord
  2
DASHED2
 70
0
  3
Dashed (.5x) _ _ _ _ _ _ _ _ _ _ _ _ _ _ _ _ _ 
 72
65
 73
2
 40
9.5249999999999986
 49
6.3499999999999996
 74
0
 49
-3.1749999999999998
 74
0
  0
LTYPE
  5
14
100
AcDbSymbolTableRecord
100
AcDbLinetypeTableRecord
  2
BYBLOCK
 70
0
  3

 72
65
 73
0
 40
0.0
  0
LTYPE
  5
59
100
AcDbSymbolTableRecord
100
AcDbLinetypeTableRecord
  2
ACAD_ISO07W100
 70
0
  3
ISO dot . . . . . . . . . . . . . . . . . . . . 
 72
65
 73
2
 40
3.0
 49
0.1
 74
0
 49
-2.8999999999999999
 74
0
  0
LTYPE
  5
5A
100
AcDbSymbolTableRecord
100
AcDbLinetypeTableRecord
  2
DASHDOT
 70
0
  3
Dash dot __ . __ . __ . __ . __ . __ . __ . __
 72
65
 73
4
 40
25.4000000000000021
 49
12.6999999999999993
 74
0
 49
-6.2999999999999998
 74
0
 49
0.1
 74
0
 49
-6.2999999999999998
 74
0
  0
LTYPE
  5
5B
100
AcDbSymbolTableRecord
100
AcDbLinetypeTableRecord
  2
DRAINAGE2
 70
0
  3
Drainage reversed----<----<----<----
 72
65
 73
2
 40
10.1600000000000001
 49
5.0800000000000001
 74
0
 49
5.0800000000000001
 74
0
  0
LTYPE
  5
5C
100
AcDbSymbolTableRecord
100
AcDbLinetypeTableRecord
  2
BORDER
 70
0
  3
Border __ __ . __ __ . __ __ . __ __ . __ __ .
 72
65
 73
6
 40
44.4499999999999957
 49
12.6999999999999993
 74
0
 49
-6.3499999999999996
 74
0
 49
12.6999999999999993
 74
0
 49
-6.2999999999999998
 74
0
 49
0.1
 74
0
 49
-6.2999999999999998
 74
0
  0
LTYPE
  5
5D
100
AcDbSymbolTableRecord
100
AcDbLinetypeTableRecord
  2
TRACKS
 70
0
  3
Tracks -|-|-|-|-|-|-|-|-|-|-|-|-|-|-|-|-|-|-|-|-|-|-|-|-
 72
65
 73
2
 40
7.6200000000000001
 49
3.8100000000000001
 74
0
 49
3.8100000000000001
 74
0
  0
LTYPE
  5
5E
100
AcDbSymbolTableRecord
100
AcDbLinetypeTableRecord
  2
ZIGZAG
 70
0
  3
Zig zag /\/\/\/\/\/\/\/\/\/\/\/\/\/\/\/\/\/\/\/\/\/\/\/
 72
65
 73
4
 40
20.32254
 49
0.00254
 74
0
 49
-5.0800000000000001
 74
0
 49
-10.1600000000000001
 74
0
 49
-5.0800000000000001
 74
0
  0
LTYPE
  5
5F
100
AcDbSymbolTableRecord
100
AcDbLinetypeTableRecord
  2
CENTER
 70
0
  3
Center ____ _ ____ _ ____ _ ____ _ ____ _ ____
 72
65
 73
4
 40
50.8000000000000043
 49
31.75
 74
0
 49
-6.3499999999999996
 74
0
 49
6.3499999999999996
 74
0
 49
-6.3499999999999996
 74
0
  0
ENDTAB
  0
TABLE
  2
LAYER
  5
2
100
AcDbSymbolTable
 70
12
  0
LAYER
  5
60
100
AcDbSymbolTableRecord
100
AcDbLayerTableRecord
  2
glava_glavne
 70
0
 62
7
420
0
  6
Continuous
370
35
390
F
  0
LAYER
  5
61
100
AcDbSymbolTableRecord
100
AcDbLayerTableRecord
  2
10_vidni_rob
 70
1
 62
7
420
0
  6
Continuous
370
50
390
F
  0
LAYER
  5
62
100
AcDbSymbolTableRecord
100
AcDbLayerTableRecord
  2
00_pomozne
 70
1
 62
252
420
10526884
  6
Continuous
370
-3
390
F
  0
LAYER
  5
63
100
AcDbSymbolTableRecord
100
AcDbLayerTableRecord
  2
glava_pomozne
 70
0
 62
7
420
0
  6
Continuous
370
18
390
F
  0
LAYER
  5
64
100
AcDbSymbolTableRecord
100
AcDbLayerTableRecord
  2
A4
 70
0
 62
252
420
10526884
  6
Continuous
370
-3
390
F
  0
LAYER
  5
65
100
AcDbSymbolTableRecord
100
AcDbLayerTableRecord
  2
glava_rob
 70
0
 62
7
420
0
  6
Continuous
370
70
390
F
  0
LAYER
  5
66
100
AcDbSymbolTableRecord
100
AcDbLayerTableRecord
  2
glava_txt
 70
0
 62
7
420
0
  6
Continuous
370
25
390
F
  0
LAYER
  5
67
100
AcDbSymbolTableRecord
100
AcDbLayerTableRecord
  2
40_srednica
 70
1
 62
9
420
12632256
  6
ACAD_ISO10W100
370
25
390
F
  0
LAYER
  5
68
100
AcDbSymbolTableRecord
100
AcDbLayerTableRecord
  2
30_kote
 70
1
 62
9
420
12632256
  6
Continuous
370
25
390
F
  0
LAYER
  5
69
100
AcDbSymbolTableRecord
100
AcDbLayerTableRecord
  2
glava_sestavna
 70
0
 62
7
420
0
  6
Continuous
370
18
390
F
  0
LAYER
  5
6A
100
AcDbSymbolTableRecord
100
AcDbLayerTableRecord
  2
20_skriti_rob
 70
1
 62
252
420
10526884
  6
ACAD_ISO02W100
370
25
390
F
  0
LAYER
  5
10
100
AcDbSymbolTableRecord
100
AcDbLayerTableRecord
  2
0
 70
0
 62
7
420
16777215
  6
Continuous
370
50
390
F
  0
ENDTAB
  0
TABLE
  2
STYLE
  5
3
100
AcDbSymbolTable
 70
16
  0
STYLE
  5
6B
100
AcDbSymbolTableRecord
100
AcDbTextStyleTableRecord
  2
Standard
 70
0
 40
0.0
 41
1.0
 50
0.0
 71
0
 42
2.5
  3

  4

1001
ACAD
1000
txt
1071
0
  0
STYLE
  5
6C
100
AcDbSymbolTableRecord
100
AcDbTextStyleTableRecord
  2
textstyle0
 70
0
 40
0.0
 41
1.0
 50
0.0
 71
0
 42
3.5
  3

  4

1001
ACAD
1000
Cursive
1071
0
  0
STYLE
  5
6D
100
AcDbSymbolTableRecord
100
AcDbTextStyleTableRecord
  2
textstyle1
 70
0
 40
0.0
 41
1.0
 50
0.0
 71
0
 42
3.5
  3

  4

1001
ACAD
1000
Cursive
1071
0
  0
STYLE
  5
6E
100
AcDbSymbolTableRecord
100
AcDbTextStyleTableRecord
  2
textstyle2
 70
0
 40
0.0
 41
1.0
 50
0.0
 71
0
 42
3.5
  3

  4

1001
ACAD
1000
Cursive
1071
0
  0
STYLE
  5
6F
100
AcDbSymbolTableRecord
100
AcDbTextStyleTableRecord
  2
textstyle3
 70
0
 40
0.0
 41
1.0
 50
0.0
 71
0
 42
3.5
  3

  4

1001
ACAD
1000
Cursive
1071
0
  0
STYLE
  5
70
100
AcDbSymbolTableRecord
100
AcDbTextStyleTableRecord
  2
textstyle4
 70
0
 40
0.0
 41
1.0
 50
0.0
 71
0
 42
3.5
  3

  4

1001
ACAD
1000
Cursive
1071
0
  0
STYLE
  5
71
100
AcDbSymbolTableRecord
100
AcDbTextStyleTableRecord
  2
textstyle5
 70
0
 40
0.0
 41
1.0
 50
0.0
 71
0
 42
3.5
  3

  4

1001
ACAD
1000
Cursive
1071
0
  0
STYLE
  5
72
100
AcDbSymbolTableRecord
100
AcDbTextStyleTableRecord
  2
textstyle6
 70
0
 40
0.0
 41
1.0
 50
0.0
 71
0
 42
3.5
  3

  4

1001
ACAD
1000
Cursive
1071
0
  0
STYLE
  5
73
100
AcDbSymbolTableRecord
100
AcDbTextStyleTableRecord
  2
textstyle7
 70
0
 40
0.0
 41
1.0
 50
0.0
 71
0
 42
3.5
  3

  4

1001
ACAD
1000
Cursive
1071
0
  0
STYLE
  5
74
100
AcDbSymbolTableRecord
100
AcDbTextStyleTableRecord
  2
textstyle8
 70
0
 40
0.0
 41
1.0
 50
0.0
 71
0
 42
3.5
  3

  4

1001
ACAD
1000
Cursive
1071
0
  0
STYLE
  5
75
100
AcDbSymbolTableRecord
100
AcDbTextStyleTableRecord
  2
textstyle9
 70
0
 40
0.0
 41
1.0
 50
0.0
 71
0
 42
3.5
  3

  4

1001
ACAD
1000
Cursive
1071
0
  0
STYLE
  5
76
100
AcDbSymbolTableRecord
100
AcDbTextStyleTableRecord
  2
textstyle10
 70
0
 40
0.0
 41
1.0
 50
0.0
 71
0
 42
3.5
  3

  4

1001
ACAD
1000
Cursive
1071
0
  0
STYLE
  5
77
100
AcDbSymbolTableRecord
100
AcDbTextStyleTableRecord
  2
textstyle11
 70
0
 40
0.0
 41
1.0
 50
0.0
 71
0
 42
3.5
  3

  4

1001
ACAD
1000
Cursive
1071
0
  0
STYLE
  5
78
100
AcDbSymbolTableRecord
100
AcDbTextStyleTableRecord
  2
textstyle12
 70
0
 40
0.0
 41
1.0
 50
0.0
 71
0
 42
3.5
  3

  4

1001
ACAD
1000
Cursive
1071
0
  0
STYLE
  5
79
100
AcDbSymbolTableRecord
100
AcDbTextStyleTableRecord
  2
textstyle13
 70
0
 40
0.0
 41
1.0
 50
0.0
 71
0
 42
3.5
  3

  4

1001
ACAD
1000
Cursive
1071
0
  0
STYLE
  5
7A
100
AcDbSymbolTableRecord
100
AcDbTextStyleTableRecord
  2
textstyle14
 70
0
 40
0.0
 41
1.0
 50
0.0
 71
0
 42
3.5
  3

  4

1001
ACAD
1000
Cursive
1071
0
  0
ENDTAB
  0
TABLE
  2
VIEW
  5
6
100
AcDbSymbolTable
 70
0
  0
ENDTAB
  0
TABLE
  2
UCS
  5
7
100
AcDbSymbolTable
 70
0
  0
ENDTAB
  0
TABLE
  2
APPID
  5
9
100
AcDbSymbolTable
 70
1
  0
APPID
  5
12
100
AcDbSymbolTableRecord
100
AcDbRegAppTableRecord
  2
ACAD
 70
0
  0
APPID
  5
7B
100
AcDbSymbolTableRecord
100
AcDbRegAppTableRecord
  2
QCAD
 70
0
  0
ENDTAB
  0
TABLE
  2
DIMSTYLE
  5
A
100
AcDbSymbolTable
 70
1
100
AcDbDimStyleTable
 71
0
  0
DIMSTYLE
105
27
100
AcDbSymbolTableRecord
100
AcDbDimStyleTableRecord
  2
Standard
 41
2.5
 42
0.625
 43
3.75
 44
1.25
 70
0
 73
0
 74
0
 77
1
 78
8
140
2.5
141
2.5
143
0.03937007874016
147
0.625
171
3
172
1
271
2
272
2
274
3
278
44
283
0
284
8
340
6B
  0
ENDTAB
  0
TABLE
  2
BLOCK_RECORD
  5
1
100
AcDbSymbolTable
 70
1
  0
BLOCK_RECORD
  5
1F
100
AcDbSymbolTableRecord
100
AcDbBlockTableRecord
  2
*Model_Space
340
22
  0
BLOCK_RECORD
  5
1B
100
AcDbSymbolTableRecord
100
AcDbBlockTableRecord
  2
*Paper_Space
340
1E
  0
BLOCK_RECORD
  5
23
100
AcDbSymbolTableRecord
100
AcDbBlockTableRecord
  2
*Paper_Space0
340
26
  0
ENDTAB
  0
ENDSEC
  0
SECTION
  2
BLOCKS
  0
BLOCK
  5
20
100
AcDbEntity
  8
0
100
AcDbBlockBegin
  2
*Model_Space
 70
0
 10
0.0
 20
0.0
 30
0.0
  3
*Model_Space
  1

  0
ENDBLK
  5
21
100
AcDbEntity
  8
0
100
AcDbBlockEnd
  0
BLOCK
  5
1C
100
AcDbEntity
 67
1
  8
0
100
AcDbBlockBegin
  2
*Paper_Space
 70
0
 10
0.0
 20
0.0
 30
0.0
  3
*Paper_Space
  1

  0
ENDBLK
  5
1D
100
AcDbEntity
 67
1
  8
0
100
AcDbBlockEnd
  0
BLOCK
  5
24
100
AcDbEntity
  8
0
100
AcDbBlockBegin
  2
*Paper_Space0
 70
0
 10
0.0
 20
0.0
 30
0.0
  3
*Paper_Space0
  1

  0
ENDBLK
  5
25
100
AcDbEntity
  8
0
100
AcDbBlockEnd
  0
ENDSEC
  0
SECTION
  2
ENTITIES
  0
LINE
  5
7C
100
AcDbEntity
  8
A4
 62
256
370
-1
 48
1.0
  6
BYLAYER
100
AcDbLine
 10
0.0
 20
0.0
 30
0.0
 11
210.0
 21
0.0
 31
0.0
  0
LINE
  5
7D
100
AcDbEntity
  8
A4
 62
256
370
-1
 48
1.0
  6
BYLAYER
100
AcDbLine
 10
210.0
 20
0.0
 30
0.0
 11
210.0000000000000284
 21
297.0
 31
0.0
  0
LINE
  5
7E
100
AcDbEntity
  8
A4
 62
256
370
-1
 48
1.0
  6
BYLAYER
100
AcDbLine
 10
210.0000000000000284
 20
297.0
 30
0.0
 11
0.0000000000000284
 21
297.0
 31
0.0
  0
LINE
  5
7F
100
AcDbEntity
  8
A4
 62
256
370
-1
 48
1.0
  6
BYLAYER
100
AcDbLine
 10
0.0000000000000284
 20
297.0
 30
0.0
 11
0.0
 21
0.0
 31
0.0
  0
LINE
  5
80
100
AcDbEntity
  8
glava_rob
 62
256
370
-1
 48
1.0
  6
BYLAYER
100
AcDbLine
 10
20.0000000000000284
 20
292.0
 30
0.0
 11
20.0
 21
5.0
 31
0.0
  0
LINE
  5
81
100
AcDbEntity
  8
glava_rob
 62
256
370
-1
 48
1.0
  6
BYLAYER
100
AcDbLine
 10
205.0
 20
5.0000000000000009
 30
0.0
 11
205.0
 21
47.0
 31
0.0
  0
LINE
  5
82
100
AcDbEntity
  8
glava_rob
 62
256
370
-1
 48
1.0
  6
BYLAYER
100
AcDbLine
 10
20.0
 20
5.0
 30
0.0
 11
205.0
 21
5.0
 31
0.0
  0
LINE
  5
83
100
AcDbEntity
  8
glava_rob
 62
256
370
-1
 48
1.0
  6
BYLAYER
100
AcDbLine
 10
205.0000000000000284
 20
292.0
 30
0.0
 11
20.0000000000000284
 21
292.0
 31
0.0
  0
LINE
  5
84
100
AcDbEntity
  8
glava_pomozne
 62
256
370
-1
 48
1.0
  6
BYLAYER
100
AcDbLine
 10
145.0
 20
19.0
 30
0.0
 11
205.0
 21
19.0
 31
0.0
  0
LINE
  5
85
100
AcDbEntity
  8
glava_glavne
 62
256
370
-1
 48
1.0
  6
BYLAYER
100
AcDbLine
 10
20.0
 20
26.0
 30
0.0
 11
205.0
 21
26.0
 31
0.0
  0
LINE
  5
86
100
AcDbEntity
  8
glava_pomozne
 62
256
370
-1
 48
1.0
  6
BYLAYER
100
AcDbLine
 10
20.0
 20
33.0
 30
0.0
 11
145.0
 21
33.0
 31
0.0
  0
LINE
  5
87
100
AcDbEntity
  8
glava_pomozne
 62
256
370
-1
 48
1.0
  6
BYLAYER
100
AcDbLine
 10
20.0
 20
40.0
 30
0.0
 11
145.0
 21
40.0
 31
0.0
  0
LINE
  5
88
100
AcDbEntity
  8
glava_glavne
 62
256
370
-1
 48
1.0
  6
BYLAYER
100
AcDbLine
 10
20.0
 20
47.0
 30
0.0
 11
205.0
 21
47.0
 31
0.0
  0
LINE
  5
89
100
AcDbEntity
  8
glava_sestavna
 62
256
370
18
 48
1.0
  6
BYLAYER
100
AcDbLine
 10
20.0
 20
54.0
 30
0.0
 11
205.0000000000000284
 21
54.0
 31
0.0
  0
MTEXT
  5
8A
100
AcDbEntity
  8
glava_txt
 62
256
370
-1
 48
1.0
  6
BYLAYER
100
AcDbMText
 10
21.4999999999999964
 20
24.4999999999999964
 30
0.0
 40
3.5
 41
0.0
 71
1
 72
1
  1
\FStandard|c0;Merilo
  7
textstyle4
 50
0.0
 73
2
 44
1.0
  0
MTEXT
  5
8B
100
AcDbEntity
  8
glava_txt
 62
256
370
-1
 48
1.0
  6
BYLAYER
100
AcDbMText
 10
36.5
 20
24.4999999999999964
 30
0.0
 40
3.5
 41
0.0
 71
1
 72
1
  1
\FStandard|c0;Naslov risbe
  7
textstyle3
 50
0.0
 73
2
 44
1.0
  0
MTEXT
  5
8C
100
AcDbEntity
  8
glava_txt
 62
256
370
-1
 48
1.0
  6
BYLAYER
100
AcDbMText
 10
146.0
 20
46.0
 30
0.0
 40
3.5
 41
0.0
 71
1
 72
1
  1
\FStandard|c0;Ustanova:\P   Univerza v Ljubljani\P   Pedago\U+0161ka Fakulteta
  7
textstyle2
 50
0.0
 73
2
 44
1.0
  0
MTEXT
  5
8D
100
AcDbEntity
  8
glava_txt
 62
256
370
-1
 48
1.0
  6
BYLAYER
100
AcDbMText
 10
146.5
 20
24.4999999999999964
 30
0.0
 40
3.5
 41
0.0
 71
1
 72
1
  1
\FStandard|c0;\U+0160ol. leto
  7
textstyle1
 50
0.0
 73
2
 44
1.0
  0
MTEXT
  5
8E
100
AcDbEntity
  8
glava_txt
 62
256
370
-1
 48
1.0
  6
BYLAYER
100
AcDbMText
 10
146.5
 20
17.5
 30
0.0
 40
3.5
 41
0.0
 71
1
 72
1
  1
\FStandard|c0;\U+0160t. risbe
  7
textstyle0
 50
0.0
 73
2
 44
1.0
  0
LINE
  5
8F
100
AcDbEntity
  8
glava_glavne
 62
256
370
-1
 48
1.0
  6
BYLAYER
100
AcDbLine
 10
145.0
 20
5.000000000000008
 30
0.0
 11
145.0
 21
47.0
 31
0.0
  0
MTEXT
  5
90
100
AcDbEntity
  8
glava_txt
 62
256
370
-1
 48
1.0
  6
BYLAYER
100
AcDbMText
 10
21.4999999999999964
 20
38.5
 30
0.0
 40
3.5
 41
0.0
 71
1
 72
1
  1
\FStandard|c0;Risal
  7
textstyle9
 50
0.0
 73
2
 44
1.0
  0
MTEXT
  5
91
100
AcDbEntity
  8
glava_txt
 62
256
370
-1
 48
1.0
  6
BYLAYER
100
AcDbMText
 10
21.4999999999999964
 20
31.4999999999999964
 30
0.0
 40
3.5
 41
0.0
 71
1
 72
1
  1
\FStandard|c0;Pregl.
  7
textstyle8
 50
0.0
 73
2
 44
1.0
  0
LINE
  5
92
100
AcDbEntity
  8
glava_glavne
 62
256
370
-1
 48
1.0
  6
BYLAYER
100
AcDbLine
 10
35.0
 20
47.0
 30
0.0
 11
34.9999999999999929
 21
5.0
 31
0.0
  0
MTEXT
  5
93
100
AcDbEntity
  8
glava_txt
 62
256
370
-1
 48
1.0
  6
BYLAYER
100
AcDbMText
 10
36.5
 20
45.4999999999999929
 30
0.0
 40
3.5
 41
0.0
 71
1
 72
1
  1
\FStandard|c0;Datum
  7
textstyle7
 50
0.0
 73
2
 44
1.0
  0
LINE
  5
94
100
AcDbEntity
  8
glava_glavne
 62
256
370
-1
 48
1.0
  6
BYLAYER
100
AcDbLine
 10
70.0
 20
47.0
 30
0.0
 11
70.0
 21
26.0
 31
0.0
  0
MTEXT
  5
95
100
AcDbEntity
  8
glava_txt
 62
256
370
-1
 48
1.0
  6
BYLAYER
100
AcDbMText
 10
71.5
 20
45.4999999999999929
 30
0.0
 40
3.5
 41
0.0
 71
1
 72
1
  1
\FStandard|c0;Ime in priimek
  7
textstyle6
 50
0.0
 73
2
 44
1.0
  0
MTEXT
  5
96
100
AcDbEntity
  8
glava_sestavna
 62
256
370
25
 48
1.0
  6
BYLAYER
100
AcDbMText
 10
21.4999999999999964
 20
52.4999999999999929
 30
0.0
 40
3.5
 41
0.0
 71
1
 72
1
  1
\FStandard|c0;Poz.
  7
textstyle5
 50
0.0
 73
2
 44
1.0
  0
LINE
  5
97
100
AcDbEntity
  8
glava_glavne
 62
256
370
-1
 48
1.0
  6
BYLAYER
100
AcDbLine
 10
125.0
 20
26.0
 30
0.0
 11
125.0
 21
47.0
 31
0.0
  0
MTEXT
  5
98
100
AcDbEntity
  8
glava_txt
 62
256
370
-1
 48
1.0
  6
BYLAYER
100
AcDbMText
 10
126.4999999999999858
 20
45.4999999999999929
 30
0.0
 40
3.5
 41
0.0
 71
1
 72
1
  1
\FStandard|c0;Oddelek
  7
textstyle14
 50
0.0
 73
2
 44
1.0
  0
MTEXT
  5
99
100
AcDbEntity
  8
glava_sestavna
 62
256
370
25
 48
1.0
  6
BYLAYER
100
AcDbMText
 10
36.5
 20
52.4999999999999929
 30
0.0
 40
3.5
 41
0.0
 71
1
 72
1
  1
\FStandard|c0;Predmet
  7
textstyle13
 50
0.0
 73
2
 44
1.0
  0
MTEXT
  5
9A
100
AcDbEntity
  8
glava_sestavna
 62
256
370
25
 48
1.0
  6
BYLAYER
100
AcDbMText
 10
71.5
 20
52.4999999999999929
 30
0.0
 40
3.5
 41
0.0
 71
1
 72
1
  1
\FStandard|c0;Gradivo
  7
textstyle12
 50
0.0
 73
2
 44
1.0
  0
LINE
  5
9B
100
AcDbEntity
  8
glava_sestavna
 62
256
370
18
 48
1.0
  6
BYLAYER
100
AcDbLine
 10
180.0
 20
47.0
 30
0.0
 11
180.0
 21
54.0
 31
0.0
  0
MTEXT
  5
9C
100
AcDbEntity
  8
glava_sestavna
 62
256
370
25
 48
1.0
  6
BYLAYER
100
AcDbMText
 10
181.5293113414707022
 20
52.4749474949428034
 30
0.0
 40
3.5
 41
0.0
 71
1
 72
1
  1
\FStandard|c0;Kos
  7
textstyle11
 50
0.0
 73
2
 44
1.0
  0
MTEXT
  5
9D
100
AcDbEntity
  8
glava_sestavna
 62
256
370
25
 48
1.0
  6
BYLAYER
100
AcDbMText
 10
126.4999999999999858
 20
52.4999999999999929
 30
0.0
 40
3.5
 41
0.0
 71
1
 72
1
  1
\FStandard|c0;Mere
  7
textstyle10
 50
0.0
 73
2
 44
1.0
  0
LINE
  5
9E
100
AcDbEntity
  8
glava_sestavna
 62
256
370
18
 48
1.0
  6
BYLAYER
100
AcDbLine
 10
125.0
 20
47.0
 30
0.0
 11
125.0
 21
54.0
 31
0.0
  0
LINE
  5
9F
100
AcDbEntity
  8
glava_sestavna
 62
256
370
18
 48
1.0
  6
BYLAYER
100
AcDbLine
 10
70.0
 20
47.0
 30
0.0
 11
70.0
 21
54.0
 31
0.0
  0
LINE
  5
A0
100
AcDbEntity
  8
glava_sestavna
 62
256
370
18
 48
1.0
  6
BYLAYER
100
AcDbLine
 10
35.0
 20
47.0
 30
0.0
 11
35.0
 21
54.0
 31
0.0
  0
LINE
  5
A1
100
AcDbEntity
  8
glava_sestavna
 62
256
370
18
 48
1.0
  6
BYLAYER
100
AcDbLine
 10
20.0
 20
61.0
 30
0.0
 11
205.0000000000000284
 21
61.0
 31
0.0
  0
LINE
  5
A2
100
AcDbEntity
  8
glava_sestavna
 62
256
370
18
 48
1.0
  6
BYLAYER
100
AcDbLine
 10
35.0
 20
54.0
 30
0.0
 11
35.0
 21
61.0
 31
0.0
  0
LINE
  5
A3
100
AcDbEntity
  8
glava_sestavna
 62
256
370
18
 48
1.0
  6
BYLAYER
100
AcDbLine
 10
70.0
 20
54.0
 30
0.0
 11
70.0
 21
61.0
 31
0.0
  0
LINE
  5
A4
100
AcDbEntity
  8
glava_sestavna
 62
256
370
18
 48
1.0
  6
BYLAYER
100
AcDbLine
 10
125.0
 20
54.0
 30
0.0
 11
125.0000000000000142
 21
61.0
 31
0.0
  0
LINE
  5
A5
100
AcDbEntity
  8
glava_sestavna
 62
256
370
18
 48
1.0
  6
BYLAYER
100
AcDbLine
 10
180.0
 20
54.0
 30
0.0
 11
180.0
 21
61.0
 31
0.0
  0
LINE
  5
A6
100
AcDbEntity
  8
glava_rob
 62
256
370
-1
 48
1.0
  6
BYLAYER
100
AcDbLine
 10
205.0
 20
47.0
 30
0.0
 11
205.0000000000000284
 21
292.0
 31
0.0
  0
LINE
  5
A7
100
AcDbEntity
  8
10_vidni_rob
 62
256
370
-1
 48
1.0
  6
BYLAYER
100
AcDbLine
 10
50.0
 20
270.0
 30
0.0
 11
90.0
 21
270.0
 31
0.0
  0
LINE
  5
A8
100
AcDbEntity
  8
10_vidni_rob
 62
256
370
-1
 48
1.0
  6
BYLAYER
100
AcDbLine
 10
141.2126073058510087
 20
148.5765772559094273
 30
0.0
 11
169.4960837136523537
 21
132.2471045382469015
 31
0.0
  0
LINE
  5
A9
100
AcDbEntity
  8
20_skriti_rob
 62
256
370
-1
 48
1.0
  6
BYLAYER
100
AcDbLine
 10
141.2126073058510087
 20
128.5765772559094273
 30
0.0
 11
169.4960837136523537
 21
112.2471045382469015
 31
0.0
  0
LINE
  5
AA
100
AcDbEntity
  8
10_vidni_rob
 62
256
370
-1
 48
1.0
  6
BYLAYER
100
AcDbLine
 10
100.0
 20
260.0
 30
0.0
 11
100.0
 21
190.0
 31
0.0
  0
LINE
  5
AB
100
AcDbEntity
  8
10_vidni_rob
 62
256
370
-1
 48
1.0
  6
BYLAYER
100
AcDbLine
 10
169.4960837136523253
 20
124.0823681794156244
 30
0.0
 11
120.0
 21
95.5057909235062112
 31
0.0
  0
LINE
  5
AC
100
AcDbEntity
  8
10_vidni_rob
 62
256
370
-1
 48
1.0
  6
BYLAYER
100
AcDbLine
 10
169.4960837136523253
 20
104.0823681794156244
 30
0.0
 11
120.0
 21
75.5057909235062112
 31
0.0
  0
LINE
  5
AD
100
AcDbEntity
  8
10_vidni_rob
 62
256
370
-1
 48
1.0
  6
BYLAYER
100
AcDbLine
 10
100.0
 20
190.0
 30
0.0
 11
87.3205080756887639
 21
190.0
 31
0.0
  0
LINE
  5
AE
100
AcDbEntity
  8
10_vidni_rob
 62
256
370
-1
 48
1.0
  6
BYLAYER
100
AcDbLine
 10
52.6794919243112005
 20
190.0
 30
0.0
 11
40.0
 21
190.0
 31
0.0
  0
LINE
  5
AF
100
AcDbEntity
  8
10_vidni_rob
 62
256
370
-1
 48
1.0
  6
BYLAYER
100
AcDbLine
 10
86.5402881559020898
 20
114.823764563703449
 30
0.0
 11
77.574785388298011
 21
120.0
 31
0.0
  0
LINE
  5
B0
100
AcDbEntity
  8
10_vidni_rob
 62
256
370
-1
 48
1.0
  6
BYLAYER
100
AcDbLine
 10
120.0
 20
95.5057909235062112
 30
0.0
 11
111.0344972323958928
 21
100.6820263598027765
 31
0.0
  0
LINE
  5
B1
100
AcDbEntity
  8
10_vidni_rob
 62
256
370
-1
 48
1.0
  6
BYLAYER
100
AcDbLine
 10
86.5402881559020898
 20
94.823764563703449
 30
0.0
 11
77.574785388298011
 21
100.0
 31
0.0
  0
LINE
  5
B2
100
AcDbEntity
  8
10_vidni_rob
 62
256
370
-1
 48
1.0
  6
BYLAYER
100
AcDbLine
 10
120.0
 20
75.5057909235062112
 30
0.0
 11
111.0344972323958928
 21
80.6820263598027765
 31
0.0
  0
LINE
  5
B3
100
AcDbEntity
  8
10_vidni_rob
 62
256
370
-1
 48
1.0
  6
BYLAYER
100
AcDbLine
 10
40.0
 20
190.0
 30
0.0
 11
40.0
 21
260.0
 31
0.0
  0
LINE
  5
B4
100
AcDbEntity
  8
10_vidni_rob
 62
256
370
-1
 48
1.0
  6
BYLAYER
100
AcDbLine
 10
77.574785388298011
 20
120.0
 30
0.0
 11
127.0708691019503362
 21
148.5765772559094273
 31
0.0
  0
LINE
  5
B5
100
AcDbEntity
  8
20_skriti_rob
 62
256
370
-1
 48
1.0
  6
BYLAYER
100
AcDbLine
 10
77.574785388298011
 20
100.0
 30
0.0
 11
127.0708691019503362
 21
128.5765772559094273
 31
0.0
  0
ARC
  5
B6
100
AcDbEntity
  8
10_vidni_rob
 62
256
370
-1
 48
1.0
  6
BYLAYER
100
AcDbCircle
 10
70.0
 20
220.0
 30
0.0
 40
10.0
100
AcDbArc
 50
300.0
 51
240.0
  0
ELLIPSE
  5
B7
100
AcDbEntity
  8
10_vidni_rob
 62
256
370
-1
 48
1.0
  6
BYLAYER
100
AcDbEllipse
 10
120.0
 20
120.0
 30
0.0
 11
9.9997189817430279
 21
0.0
 31
0.0
 40
0.5773502691896256
 41
4.4505895925855388
 42
3.4033920413889409
  0
ELLIPSE
  5
B8
100
AcDbEntity
  8
20_skriti_rob
 62
256
370
-1
 48
1.0
  6
BYLAYER
100
AcDbEllipse
 10
120.0
 20
100.0
 30
0.0
 11
9.9997189817430279
 21
0.0
 31
0.0
 40
0.5773502691896256
 41
4.4505895925855388
 42
2.4210295717375319
  0
ELLIPSE
  5
B9
100
AcDbEntity
  8
10_vidni_rob
 62
256
370
-1
 48
1.0
  6
BYLAYER
100
AcDbEllipse
 10
120.0
 20
100.0
 30
0.0
 11
9.9997189817430279
 21
0.0
 31
0.0
 40
0.5773502691896256
 41
2.4210295717375319
 42
2.8797932657906427
  0
ELLIPSE
  5
BA
100
AcDbEntity
  8
20_skriti_rob
 62
256
370
-1
 48
1.0
  6
BYLAYER
100
AcDbEllipse
 10
120.0
 20
100.0
 30
0.0
 11
9.9997189817430279
 21
0.0
 31
0.0
 40
0.5773502691896256
 41
2.8797932657906427
 42
3.4033920413889409
  0
LINE
  5
BB
100
AcDbEntity
  8
10_vidni_rob
 62
256
370
-1
 48
1.0
  6
BYLAYER
100
AcDbLine
 10
65.0
 20
211.3397459621556038
 30
0.0
 11
52.6794919243112147
 21
190.0000000000000284
 31
0.0
  0
LINE
  5
BC
100
AcDbEntity
  8
10_vidni_rob
 62
256
370
-1
 48
1.0
  6
BYLAYER
100
AcDbLine
 10
75.0
 20
211.3397459621556038
 30
0.0
 11
87.3205080756887639
 21
190.0000000000000284
 31
0.0
  0
LINE
  5
BD
100
AcDbEntity
  8
10_vidni_rob
 62
256
370
-1
 48
1.0
  6
BYLAYER
100
AcDbLine
 10
117.4118822818517174
 20
114.4233813593170197
 30
0.0
 11
111.034497232395907
 21
100.6820263598027907
 31
0.0
  0
LINE
  5
BE
100
AcDbEntity
  8
10_vidni_rob
 62
256
370
-1
 48
1.0
  6
BYLAYER
100
AcDbLine
 10
110.3410131799013811
 20
118.5057495387326583
 30
0.0
 11
86.5402881559021182
 21
114.823764563703449
 31
0.0
  0
LINE
  5
BF
100
AcDbEntity
  8
20_skriti_rob
 62
256
370
-1
 48
1.0
  6
BYLAYER
100
AcDbLine
 10
117.4118822818517174
 20
94.4233813593170197
 30
0.0
 11
111.034497232395907
 21
80.6820263598027907
 31
0.0
  0
LINE
  5
C0
100
AcDbEntity
  8
10_vidni_rob
 62
256
370
-1
 48
1.0
  6
BYLAYER
100
AcDbLine
 10
110.3410131799013811
 20
98.5057495387326441
 30
0.0
 11
86.5402881559021182
 21
94.823764563703449
 31
0.0
  0
ARC
  5
C1
100
AcDbEntity
  8
10_vidni_rob
 62
256
370
-1
 48
1.0
  6
BYLAYER
100
AcDbCircle
 10
50.0
 20
260.0
 30
0.0
 40
10.0
100
AcDbArc
 50
90.0
 51
180.0
  0
ELLIPSE
  5
C2
100
AcDbEntity
  8
10_vidni_rob
 62
256
370
-1
 48
1.0
  6
BYLAYER
100
AcDbEllipse
 10
134.1417382039006725
 20
144.494209076493803
 30
0.0
 11
9.9997189817430279
 21
0.0000000000000011
 31
0.0
 40
0.5773502691896256
 41
0.7853981633974477
 42
2.3561944901923453
  0
ELLIPSE
  5
C3
100
AcDbEntity
  8
20_skriti_rob
 62
256
370
-1
 48
1.0
  6
BYLAYER
100
AcDbEllipse
 10
134.1417382039006725
 20
124.494209076493803
 30
0.0
 11
9.9997189817430279
 21
0.0000000000000011
 31
0.0
 40
0.5773502691896256
 41
0.7853981633974477
 42
2.3561944901923453
  0
ARC
  5
C4
100
AcDbEntity
  8
10_vidni_rob
 62
256
370
-1
 48
1.0
  6
BYLAYER
100
AcDbCircle
 10
90.0
 20
260.0
 30
0.0
 40
10.0
100
AcDbArc
 50
0.0
 51
90.0
  0
ELLIPSE
  5
C5
100
AcDbEntity
  8
10_vidni_rob
 62
256
370
-1
 48
1.0
  6
BYLAYER
100
AcDbEllipse
 10
162.4252146117020175
 20
128.1647363588312487
 30
0.0
 11
9.9997189817430261
 21
0.0
 31
0.0
 40
0.5773502691896257
 41
5.4977871437821371
 42
0.7853981633974481
  0
ELLIPSE
  5
C6
100
AcDbEntity
  8
20_skriti_rob
 62
256
370
-1
 48
1.0
  6
BYLAYER
100
AcDbEllipse
 10
162.4252146117020175
 20
108.1647363588312487
 30
0.0
 11
9.9997189817430261
 21
0.0
 31
0.0
 40
0.5773502691896257
 41
0.0
 42
0.7853981633974481
  0
ELLIPSE
  5
C7
100
AcDbEntity
  8
10_vidni_rob
 62
256
370
-1
 48
1.0
  6
BYLAYER
100
AcDbEllipse
 10
162.4252146117020175
 20
108.1647363588312487
 30
0.0
 11
9.9997189817430261
 21
0.0
 31
0.0
 40
0.5773502691896257
 41
5.4977871437821371
 42
0.0
  0
LINE
  5
C8
100
AcDbEntity
  8
10_vidni_rob
 62
256
370
-1
 48
1.0
  6
BYLAYER
100
AcDbLine
 10
140.0
 20
270.0
 30
0.0
 11
160.0
 21
270.0
 31
0.0
  0
LINE
  5
C9
100
AcDbEntity
  8
10_vidni_rob
 62
256
370
-1
 48
1.0
  6
BYLAYER
100
AcDbLine
 10
160.0
 20
270.0
 30
0.0
 11
160.0
 21
190.0
 31
0.0
  0
LINE
  5
CA
100
AcDbEntity
  8
10_vidni_rob
 62
256
370
-1
 48
1.0
  6
BYLAYER
100
AcDbLine
 10
160.0
 20
190.0
 30
0.0
 11
140.0
 21
190.0
 31
0.0
  0
LINE
  5
CB
100
AcDbEntity
  8
10_vidni_rob
 62
256
370
-1
 48
1.0
  6
BYLAYER
100
AcDbLine
 10
140.0
 20
190.0
 30
0.0
 11
140.0
 21
270.0
 31
0.0
  0
LINE
  5
CC
100
AcDbEntity
  8
20_skriti_rob
 62
256
370
-1
 48
1.0
  6
BYLAYER
100
AcDbLine
 10
140.0
 20
230.0
 30
0.0
 11
160.0
 21
230.0
 31
0.0
  0
LINE
  5
CD
100
AcDbEntity
  8
20_skriti_rob
 62
256
370
-1
 48
1.0
  6
BYLAYER
100
AcDbLine
 10
139.9999999999999716
 20
211.3397459621556038
 30
0.0
 11
160.0000000000000284
 21
211.3397459621556038
 31
0.0
  0
LINE
  5
CE
100
AcDbEntity
  8
40_srednica
 62
256
370
-1
 48
1.0
  6
BYLAYER
100
AcDbLine
 10
137.0
 20
220.0
 30
0.0
 11
163.0
 21
220.0
 31
0.0
  0
DIMENSION
  5
CF
100
AcDbEntity
  8
30_kote
 62
256
370
-1
 48
1.0
  6
BYLAYER
100
AcDbDimension
 10
116.9999999999999858
 20
270.0
 30
0.0
 11
115.1249999999999858
 21
230.0000000000000284
 31
0.0
 70
0
 71
8
 72
2
 74
0
 75
0
 41
1.0
 42
0.0
  1

  3
Standard
100
AcDbAlignedDimension
 13
90.0
 23
270.0
 33
0.0
 14
100.0
 24
190.0000000000000568
 34
0.0
 50
90.0
100
AcDbRotatedDimension
1001
ACAD
1000
DSTYLE
1002
{
1070
144
1040
1.0
1070
40
1040
1.0
1002
}
  0
DIMENSION
  5
D0
100
AcDbEntity
  8
30_kote
 62
256
370
-1
 48
1.0
  6
BYLAYER
100
AcDbDimension
 10
78.9442719099991592
 20
224.4721359549996009
 30
0.0
 11
73.1230862544781672
 21
223.6217155441347586
 31
0.0
 70
131
 71
8
 72
2
 74
0
 75
0
 41
1.0
 42
0.0
  1

  3
Standard
100
AcDbDiametricDimension
 15
61.0557280900008195
 25
215.5278640450004275
 35
0.0
 40
0.0
1001
ACAD
1000
DSTYLE
1002
{
1070
279
1070
2
1070
144
1040
1.0
1070
40
1040
1.0
1002
}
  0
LINE
  5
D1
100
AcDbEntity
  8
40_srednica
 62
256
370
-1
 48
1.0
  6
BYLAYER
100
AcDbLine
 10
70.0
 20
273.0
 30
0.0
 11
70.0
 21
187.0
 31
0.0
  0
LINE
  5
D2
100
AcDbEntity
  8
40_srednica
 62
256
370
-1
 48
1.0
  6
BYLAYER
100
AcDbLine
 10
57.0
 20
220.0
 30
0.0
 11
83.0
 21
220.0
 31
0.0
  0
DIMENSION
  5
D3
100
AcDbEntity
  8
30_kote
 62
256
370
-1
 48
1.0
  6
BYLAYER
100
AcDbDimension
 10
110.0000000000000142
 20
220.0
 30
0.0
 11
108.1250000000000142
 21
205.0000000000000284
 31
0.0
 70
0
 71
8
 72
2
 74
0
 75
0
 41
1.0
 42
0.0
  1

  3
Standard
100
AcDbAlignedDimension
 13
82.9999999999999858
 23
220.0
 33
0.0
 14
100.0
 24
190.0000000000000568
 34
0.0
 50
90.0
100
AcDbRotatedDimension
1001
ACAD
1000
DSTYLE
1002
{
1070
144
1040
1.0
1070
40
1040
1.0
1002
}
  0
DIMENSION
  5
D4
100
AcDbEntity
  8
30_kote
 62
256
370
-1
 48
1.0
  6
BYLAYER
100
AcDbDimension
 10
87.3205080756887639
 20
190.0000000000000284
 30
0.0
 11
69.9999999999999858
 21
181.8750000000000284
 31
0.0
 70
2
 71
8
 72
2
 74
0
 75
0
 41
1.0
 42
0.0
  1

  3
Standard
100
AcDb2LineAngularDimension
 13
52.679491924311229
 23
190.0000000000000284
 33
0.0
 14
64.9999999999999858
 24
211.3397459621555754
 34
0.0
 15
75.0
 25
211.3397459621556038
 35
0.0
 16
69.9999999999999858
 26
180.0000000000000284
 36
0.0
  0
DIMENSION
  5
D5
100
AcDbEntity
  8
30_kote
 62
256
370
-1
 48
1.0
  6
BYLAYER
100
AcDbDimension
 10
39.9999999999999858
 20
173.0000000000000284
 30
0.0
 11
70.0
 21
174.8750000000000284
 31
0.0
 70
0
 71
8
 72
2
 74
0
 75
0
 41
1.0
 42
0.0
  1

  3
Standard
100
AcDbAlignedDimension
 13
39.9999999999999929
 23
190.0
 33
0.0
 14
100.0
 24
190.0000000000000568
 34
0.0
 50
0.0
100
AcDbRotatedDimension
1001
ACAD
1000
DSTYLE
1002
{
1070
144
1040
1.0
1070
40
1040
1.0
1002
}
  0
DIMENSION
  5
D6
100
AcDbEntity
  8
30_kote
 62
256
370
-1
 48
1.0
  6
BYLAYER
100
AcDbDimension
 10
49.9999999999999858
 20
260.0
 30
0.0
 11
46.3663895365628349
 21
263.9131189606246721
 31
0.0
 70
4
 71
8
 72
2
 74
0
 41
1.0
 42
0.0
  1

  3
Standard
100
AcDbRadialDimension
 15
41.0557280900008337
 25
264.4721359549996009
 35
0.0
 40
0.0
1001
ACAD
1000
DSTYLE
1002
{
1070
144
1040
1.0
1070
40
1040
1.0
1002
}
  0
LINE
  5
D7
100
AcDbEntity
  8
30_kote
 62
256
370
-1
 48
1.0
  6
BYLAYER
100
AcDbLine
 10
50.0
 20
262.0
 30
0.0
 11
50.0
 21
258.0
 31
0.0
  0
LINE
  5
D8
100
AcDbEntity
  8
30_kote
 62
256
370
-1
 48
1.0
  6
BYLAYER
100
AcDbLine
 10
89.9999999999999716
 20
262.0
 30
0.0
 11
89.9999999999999716
 21
258.0
 31
0.0
  0
LINE
  5
D9
100
AcDbEntity
  8
30_kote
 62
256
370
-1
 48
1.0
  6
BYLAYER
100
AcDbLine
 10
48.0
 20
260.0
 30
0.0
 11
52.0
 21
260.0
 31
0.0
  0
LINE
  5
DA
100
AcDbEntity
  8
30_kote
 62
256
370
-1
 48
1.0
  6
BYLAYER
100
AcDbLine
 10
87.9999999999999716
 20
260.0
 30
0.0
 11
91.9999999999999716
 21
260.0
 31
0.0
  0
DIMENSION
  5
DB
100
AcDbEntity
  8
30_kote
 62
256
370
-1
 48
1.0
  6
BYLAYER
100
AcDbDimension
 10
140.0
 20
173.0000000000000284
 30
0.0
 11
150.0
 21
174.8750000000000284
 31
0.0
 70
0
 71
8
 72
2
 74
0
 75
0
 41
1.0
 42
0.0
  1

  3
Standard
100
AcDbAlignedDimension
 13
140.0
 23
190.0
 33
0.0
 14
160.0
 24
189.9999999999999716
 34
0.0
 50
0.0
100
AcDbRotatedDimension
1001
ACAD
1000
DSTYLE
1002
{
1070
144
1040
1.0
1070
40
1040
1.0
1002
}
  0
LINE
  5
DC
100
AcDbEntity
  8
10_vidni_rob
 62
256
370
-1
 48
1.0
  6
BYLAYER
100
AcDbLine
 10
77.5747853882980394
 20
120.0
 30
0.0
 11
77.5747853882980394
 21
100.0000000000000284
 31
0.0
  0
LINE
  5
DD
100
AcDbEntity
  8
10_vidni_rob
 62
256
370
-1
 48
1.0
  6
BYLAYER
100
AcDbLine
 10
86.540288155902104
 20
94.8237645637034632
 30
0.0
 11
86.5402881559020898
 21
114.823764563703449
 31
0.0
  0
LINE
  5
DE
100
AcDbEntity
  8
10_vidni_rob
 62
256
370
-1
 48
1.0
  6
BYLAYER
100
AcDbLine
 10
120.0000000000000284
 20
95.5057909235062255
 30
0.0
 11
120.0000000000000284
 21
75.5057909235062397
 31
0.0
  0
LINE
  5
DF
100
AcDbEntity
  8
10_vidni_rob
 62
256
370
-1
 48
1.0
  6
BYLAYER
100
AcDbLine
 10
111.034497232395907
 20
100.6820263598027907
 30
0.0
 11
111.034497232395907
 21
80.6820263598027765
 31
0.0
  0
LINE
  5
E0
100
AcDbEntity
  8
10_vidni_rob
 62
256
370
-1
 48
1.0
  6
BYLAYER
100
AcDbLine
 10
110.3410131799013811
 20
118.5057495387326583
 30
0.0
 11
110.3410131799013811
 21
98.5057495387326441
 31
0.0
  0
LINE
  5
E1
100
AcDbEntity
  8
10_vidni_rob
 62
256
370
-1
 48
1.0
  6
BYLAYER
100
AcDbLine
 10
172.4249335934450471
 20
128.1647363588312487
 30
0.0
 11
172.4249335934450471
 21
108.1647363588312487
 31
0.0
  0
LINE
  5
E2
100
AcDbEntity
  8
20_skriti_rob
 62
256
370
-1
 48
1.0
  6
BYLAYER
100
AcDbLine
 10
117.4118822818517174
 20
114.4233813593170197
 30
0.0
 11
117.4118822818517174
 21
94.4233813593170197
 31
0.0
  0
LINE
  5
E3
100
AcDbEntity
  8
20_skriti_rob
 62
256
370
-1
 48
1.0
  6
BYLAYER
100
AcDbLine
 10
129.9997189817430296
 20
120.0
 30
0.0
 11
129.9997189817430296
 21
100.0
 31
0.0
  0
ENDSEC
  0
SECTION
  2
OBJECTS
  0
DICTIONARY
  5
C
100
AcDbDictionary
280
0
281
1
  3
ACAD_GROUP
350
D
  3
ACAD_LAYOUT
350
1A
  3
ACAD_MLINESTYLE
350
17
  3
ACAD_PLOTSETTINGS
350
19
  3
ACAD_PLOTSTYLENAME
350
E
  3
AcDbVariableDictionary
350
E4
  3
QCAD_OBJECTS
350
E5
  0
DICTIONARY
  5
D
100
AcDbDictionary
280
0
281
1
  0
ACDBDICTIONARYWDFLT
  5
E
100
AcDbDictionary
281
1
  3
Normal
350
F
100
AcDbDictionaryWithDefault
340
F
  0
ACDBPLACEHOLDER
  5
F
  0
DICTIONARY
  5
17
100
AcDbDictionary
280
0
281
1
  3
Standard
350
18
  0
MLINESTYLE
  5
18
100
AcDbMlineStyle
  2
STANDARD
 70
0
  3

 62
256
 51
90.0
 52
90.0
 71
2
 49
0.5
 62
256
  6
BYLAYER
 49
-0.5
 62
256
  6
BYLAYER
  0
DICTIONARY
  5
19
100
AcDbDictionary
280
0
281
1
  0
DICTIONARY
  5
1A
100
AcDbDictionary
281
1
  3
Layout1
350
1E
  3
Layout2
350
26
  3
Model
350
22
  0
LAYOUT
  5
1E
100
AcDbPlotSettings
  1

  2
none_device
  4

  6

 40
0.0
 41
0.0
 42
0.0
 43
0.0
 44
0.0
 45
0.0
 46
0.0
 47
0.0
 48
0.0
 49
0.0
140
0.0
141
0.0
142
1.0
143
1.0
 70
688
 72
0
 73
0
 74
5
  7

 75
16
147
1.0
148
0.0
149
0.0
100
AcDbLayout
  1
Layout1
 70
1
 71
1
 10
0.0
 20
0.0
 11
420.0
 21
297.0
 12
0.0
 22
0.0
 32
0.0
 14
100000000000000000000.0
 24
100000000000000000000.0
 34
100000000000000000000.0
 15
-100000000000000000000.0
 25
-100000000000000000000.0
 35
-100000000000000000000.0
146
0.0
 13
0.0
 23
0.0
 33
0.0
 16
1.0
 26
0.0
 36
0.0
 17
0.0
 27
1.0
 37
0.0
 76
0
330
1B
  0
LAYOUT
  5
22
100
AcDbPlotSettings
  1

  2
none_device
  4

  6

 40
0.0
 41
0.0
 42
0.0
 43
0.0
 44
0.0
 45
0.0
 46
0.0
 47
0.0
 48
0.0
 49
0.0
140
0.0
141
0.0
142
1.0
143
1.0
 70
1712
 72
0
 73
0
 74
0
  7

 75
0
147
1.0
148
0.0
149
0.0
100
AcDbLayout
  1
Model
 70
1
 71
0
 10
0.0
 20
0.0
 11
12.0
 21
9.0
 12
0.0
 22
0.0
 32
0.0
 14
0.0
 24
0.0
 34
0.0
 15
0.0
 25
0.0
 35
0.0
146
0.0
 13
0.0
 23
0.0
 33
0.0
 16
1.0
 26
0.0
 36
0.0
 17
0.0
 27
1.0
 37
0.0
 76
0
330
1F
  0
LAYOUT
  5
26
100
AcDbPlotSettings
  1

  2
none_device
  4

  6

 40
0.0
 41
0.0
 42
0.0
 43
0.0
 44
0.0
 45
0.0
 46
0.0
 47
0.0
 48
0.0
 49
0.0
140
0.0
141
0.0
142
1.0
143
1.0
 70
688
 72
0
 73
0
 74
5
  7

 75
16
147
1.0
148
0.0
149
0.0
100
AcDbLayout
  1
Layout2
 70
1
 71
2
 10
0.0
 20
0.0
 11
12.0
 21
9.0
 12
0.0
 22
0.0
 32
0.0
 14
0.0
 24
0.0
 34
0.0
 15
0.0
 25
0.0
 35
0.0
146
0.0
 13
0.0
 23
0.0
 33
0.0
 16
1.0
 26
0.0
 36
0.0
 17
0.0
 27
1.0
 37
0.0
 76
0
330
23
  0
DICTIONARY
  5
E4
100
AcDbDictionary
281
1
  3
DIMASSOC
350
E7
  3
HIDETEXT
350
E6
  0
DICTIONARYVAR
  5
E6
100
DictionaryVariables
280
0
  1
2
  0
DICTIONARYVAR
  5
E7
100
DictionaryVariables
280
0
  1
1
  0
DICTIONARY
  5
E5
100
AcDbDictionary
281
1
  3
ColorSettings/BackgroundColor
350
E8
  3
ColorSettings/ColorMode
350
E9
  3
Grid/DisplayGrid00
350
EA
  3
Grid/DisplayGrid01
350
EB
  3
Grid/DisplayGrid02
350
EC
  3
Grid/DisplayGrid03
350
ED
  3
Grid/GridSpacingX00
350
EE
  3
Grid/GridSpacingX01
350
EF
  3
Grid/GridSpacingX02
350
F0
  3
Grid/GridSpacingX03
350
F1
  3
Grid/GridSpacingY00
350
F2
  3
Grid/GridSpacingY01
350
F3
  3
Grid/GridSpacingY02
350
F4
  3
Grid/GridSpacingY03
350
F5
  3
Grid/IsometricGrid00
350
F6
  3
Grid/IsometricGrid01
350
F7
  3
Grid/IsometricGrid02
350
F8
  3
Grid/IsometricGrid03
350
F9
  3
Grid/IsometricProjection00
350
FA
  3
Grid/IsometricProjection01
350
FB
  3
Grid/IsometricProjection02
350
FC
  3
Grid/IsometricProjection03
350
FD
  3
Grid/MetaGridSpacingX00
350
FE
  3
Grid/MetaGridSpacingX01
350
FF
  3
Grid/MetaGridSpacingX02
350
100
  3
Grid/MetaGridSpacingX03
350
101
  3
Grid/MetaGridSpacingY00
350
102
  3
Grid/MetaGridSpacingY01
350
103
  3
Grid/MetaGridSpacingY02
350
104
  3
Grid/MetaGridSpacingY03
350
105
  3
MultiPageSettings/Columns
350
106
  3
MultiPageSettings/GlueMarginsBottom
350
107
  3
MultiPageSettings/GlueMarginsLeft
350
108
  3
MultiPageSettings/GlueMarginsRight
350
109
  3
MultiPageSettings/GlueMarginsTop
350
10A
  3
MultiPageSettings/PrintCropMarks
350
10B
  3
MultiPageSettings/Rows
350
10C
  3
PageSettings/OffsetX
350
10D
  3
PageSettings/OffsetY
350
10E
  3
PageSettings/PageOrientation
350
10F
  3
PageSettings/PaperHeight
350
110
  3
PageSettings/PaperWidth
350
111
  3
PageSettings/Scale
350
112
  3
PageSettings/ShowPaperBorders
350
113
  3
PageTagSettings/EnablePageTags
350
114
  3
PageTagSettings/TagAlignment
350
115
  3
PageTagSettings/TagFont
350
116
  3
PageTagSettings/TagPosition
350
117
  3
QCADVersion
350
118
  3
UnitSettings/PaperUnit
350
119
  3
ViewportCenter
350
11A
  3
ViewportHeight
350
11B
  3
ViewportWidth
350
11C
  0
XRECORD
  5
E8
330
E5
100
AcDbXrecord
280
1
1000
White
  0
XRECORD
  5
E9
330
E5
100
AcDbXrecord
280
1
1000
FullColor
  0
XRECORD
  5
EA
330
E5
100
AcDbXrecord
280
1
290
1
  0
XRECORD
  5
EB
330
E5
100
AcDbXrecord
280
1
290
1
  0
XRECORD
  5
EC
330
E5
100
AcDbXrecord
280
1
290
1
  0
XRECORD
  5
ED
330
E5
100
AcDbXrecord
280
1
290
1
  0
XRECORD
  5
EE
330
E5
100
AcDbXrecord
280
1
1000
auto
  0
XRECORD
  5
EF
330
E5
100
AcDbXrecord
280
1
1000
auto
  0
XRECORD
  5
F0
330
E5
100
AcDbXrecord
280
1
1000
auto
  0
XRECORD
  5
F1
330
E5
100
AcDbXrecord
280
1
1000
auto
  0
XRECORD
  5
F2
330
E5
100
AcDbXrecord
280
1
1000
auto
  0
XRECORD
  5
F3
330
E5
100
AcDbXrecord
280
1
1000
auto
  0
XRECORD
  5
F4
330
E5
100
AcDbXrecord
280
1
1000
auto
  0
XRECORD
  5
F5
330
E5
100
AcDbXrecord
280
1
1000
auto
  0
XRECORD
  5
F6
330
E5
100
AcDbXrecord
280
1
290
0
  0
XRECORD
  5
F7
330
E5
100
AcDbXrecord
280
1
290
0
  0
XRECORD
  5
F8
330
E5
100
AcDbXrecord
280
1
290
0
  0
XRECORD
  5
F9
330
E5
100
AcDbXrecord
280
1
290
0
  0
XRECORD
  5
FA
330
E5
100
AcDbXrecord
280
1
 90
0
  0
XRECORD
  5
FB
330
E5
100
AcDbXrecord
280
1
 90
0
  0
XRECORD
  5
FC
330
E5
100
AcDbXrecord
280
1
 90
0
  0
XRECORD
  5
FD
330
E5
100
AcDbXrecord
280
1
 90
0
  0
XRECORD
  5
FE
330
E5
100
AcDbXrecord
280
1
1000
auto
  0
XRECORD
  5
FF
330
E5
100
AcDbXrecord
280
1
1000
auto
  0
XRECORD
  5
100
330
E5
100
AcDbXrecord
280
1
1000
auto
  0
XRECORD
  5
101
330
E5
100
AcDbXrecord
280
1
1000
auto
  0
XRECORD
  5
102
330
E5
100
AcDbXrecord
280
1
1000
auto
  0
XRECORD
  5
103
330
E5
100
AcDbXrecord
280
1
1000
auto
  0
XRECORD
  5
104
330
E5
100
AcDbXrecord
280
1
1000
auto
  0
XRECORD
  5
105
330
E5
100
AcDbXrecord
280
1
1000
auto
  0
XRECORD
  5
106
330
E5
100
AcDbXrecord
280
1
 90
1
  0
XRECORD
  5
107
330
E5
100
AcDbXrecord
280
1
 40
10.0
  0
XRECORD
  5
108
330
E5
100
AcDbXrecord
280
1
 40
10.0
  0
XRECORD
  5
109
330
E5
100
AcDbXrecord
280
1
 40
10.0
  0
XRECORD
  5
10A
330
E5
100
AcDbXrecord
280
1
 40
10.0
  0
XRECORD
  5
10B
330
E5
100
AcDbXrecord
280
1
290
0
  0
XRECORD
  5
10C
330
E5
100
AcDbXrecord
280
1
 90
1
  0
XRECORD
  5
10D
330
E5
100
AcDbXrecord
280
1
 40
-0.0070820386477269
  0
XRECORD
  5
10E
330
E5
100
AcDbXrecord
280
1
 40
-0.0071817703048982
  0
XRECORD
  5
10F
330
E5
100
AcDbXrecord
280
1
1000
Portrait
  0
XRECORD
  5
110
330
E5
100
AcDbXrecord
280
1
 40
297.0
  0
XRECORD
  5
111
330
E5
100
AcDbXrecord
280
1
 40
210.0
  0
XRECORD
  5
112
330
E5
100
AcDbXrecord
280
1
1000
1:1
  0
XRECORD
  5
113
330
E5
100
AcDbXrecord
280
1
290
1
  0
XRECORD
  5
114
330
E5
100
AcDbXrecord
280
1
290
0
  0
XRECORD
  5
115
330
E5
100
AcDbXrecord
280
1
1000
Inside
  0
XRECORD
  5
116
330
E5
100
AcDbXrecord
280
1
1000
Arial,10,-1,5,50,0,0,0,0,0
  0
XRECORD
  5
117
330
E5
100
AcDbXrecord
280
1
1000
TopLeft
  0
XRECORD
  5
118
330
E5
100
AcDbXrecord
280
1
1000
3.25.2.7
  0
XRECORD
  5
119
330
E5
100
AcDbXrecord
280
1
 90
4
  0
XRECORD
  5
11B
330
E5
100
AcDbXrecord
280
1
 40
220.9937739463600508
  0
XRECORD
  5
11C
330
E5
100
AcDbXrecord
280
1
 40
236.1068965517239917
  0
ENDSEC
  0
EOF
