<?xml version="1.0" encoding="UTF-8" standalone="no"?>
<svg
   version="1.1"
   width="6.3254046cm"
   height="3.7067239cm"
   viewBox="0 0 24903.169 14593.401"
   id="svg424"
   sodipodi:docname="01_vir_napetosti_R.svg"
   inkscape:version="1.1.2 (0a00cf5339, 2022-02-04)"
   xmlns:inkscape="http://www.inkscape.org/namespaces/inkscape"
   xmlns:sodipodi="http://sodipodi.sourceforge.net/DTD/sodipodi-0.dtd"
   xmlns="http://www.w3.org/2000/svg"
   xmlns:svg="http://www.w3.org/2000/svg"
   xmlns:rdf="http://www.w3.org/1999/02/22-rdf-syntax-ns#"
   xmlns:cc="http://creativecommons.org/ns#"
   xmlns:dc="http://purl.org/dc/elements/1.1/">
  <defs
     id="defs428" />
  <sodipodi:namedview
     id="namedview426"
     pagecolor="#ffffff"
     bordercolor="#666666"
     borderopacity="1.0"
     inkscape:pageshadow="2"
     inkscape:pageopacity="0.0"
     inkscape:pagecheckerboard="0"
     inkscape:document-units="cm"
     showgrid="false"
     inkscape:zoom="1.5463217"
     inkscape:cx="165.87751"
     inkscape:cy="152.94359"
     inkscape:window-width="1458"
     inkscape:window-height="1080"
     inkscape:window-x="0"
     inkscape:window-y="19"
     inkscape:window-maximized="0"
     inkscape:current-layer="svg424" />
  <title
     id="title2">SVG Picture created as 01_vir_napetosti_R.svg date 2022/02/13 21:25:38 </title>
  <desc
     id="desc4">Picture generated by Eeschema-SVG </desc>
  <g
     style="fill:#000000;fill-opacity:1;stroke:#000000;stroke-linecap:round;stroke-linejoin:round;stroke-opacity:1"
     id="g6"
     transform="translate(-24077.285,-13196)" />
  <g
     style="fill:#000000;fill-opacity:0;stroke:#000000;stroke-width:60;stroke-linecap:round;stroke-linejoin:round;stroke-opacity:1"
     id="g96"
     transform="translate(-24077.285,-13196)">
    <g
       id="g12">
      <path
         style="fill:none;fill-opacity:0;stroke:#000000;stroke-width:60;stroke-linecap:round;stroke-linejoin:round;stroke-opacity:1"
         d="m 35750,18250 750,-750"
         id="path8" />
      <path
         style="fill:none;fill-opacity:0;stroke:#000000;stroke-width:60;stroke-linecap:round;stroke-linejoin:round;stroke-opacity:1"
         d="m 35750,18750 750,750 v 0"
         id="path10" />
    </g>
    <g
       style="fill:#000000;fill-opacity:0;stroke:#000000;stroke-width:200;stroke-linecap:round;stroke-linejoin:round;stroke-opacity:1"
       id="g16">
      <path
         style="fill:none;fill-opacity:0;stroke:#000000;stroke-width:200;stroke-linecap:round;stroke-linejoin:round;stroke-opacity:1"
         d="m 35750,17750 v 1500 0"
         id="path14" />
    </g>
    <g
       style="fill:#000000;fill-opacity:1;stroke:#000000;stroke-width:60;stroke-linecap:round;stroke-linejoin:round;stroke-opacity:1"
       id="g20">
      <path
         style="fill:#000000;fill-opacity:1;fill-rule:evenodd;stroke:#000000;stroke-width:60;stroke-linecap:round;stroke-linejoin:round;stroke-opacity:1"
         d="m 36000,19200 200,-200 200,400 z"
         id="path18" />
    </g>
    <g
       style="fill:#000000;fill-opacity:0;stroke:#000000;stroke-width:100;stroke-linecap:round;stroke-linejoin:round;stroke-opacity:1"
       id="g24">
      <circle
         cx="36000"
         cy="18500"
         r="1110"
         id="circle22" />
    </g>
    <g
       style="fill:#000000;fill-opacity:0;stroke:#000000;stroke-width:60;stroke-linecap:round;stroke-linejoin:round;stroke-opacity:1"
       id="g94">
      <path
         d="m 36500,19500 v 1000"
         id="path26" />
      <g
         transform="rotate(-90,36600,20000)"
         id="g30">
        <text
           x="36600"
           y="20500"
           textLength="606.18109"
           font-size="666.654px"
           lengthAdjust="spacingAndGlyphs"
           text-anchor="middle"
           opacity="0"
           id="text28">1</text>
      </g>
      <g
         class="stroked-text"
         id="g38">
        <desc
           id="desc32">1</desc>
        <path
           d="m 37076,19857 v 285"
           id="path34" />
        <path
           d="m 37076,20000 h -500 l 71,47 48,48 24,47"
           id="path36" />
      </g>
      <path
         d="M 35750,18500 H 33500"
         id="path40" />
      <text
         x="34625"
         y="19100"
         textLength="536.18109"
         font-size="666.654px"
         lengthAdjust="spacingAndGlyphs"
         text-anchor="middle"
         opacity="0"
         id="text42">2</text>
      <g
         class="stroked-text"
         id="g48">
        <desc
           id="desc44">2</desc>
        <path
           d="m 34482,18623 23,-23 48,-24 h 119 l 48,24 24,23 23,48 v 48 l -23,71 -286,286 h 309"
           id="path46" />
      </g>
      <path
         d="M 36500,17500 V 16500"
         id="path50" />
      <g
         transform="rotate(-90,36600,17000)"
         id="g54">
        <text
           x="36600"
           y="17500"
           textLength="536.18109"
           font-size="666.654px"
           lengthAdjust="spacingAndGlyphs"
           text-anchor="middle"
           opacity="0"
           id="text52">3</text>
      </g>
      <g
         class="stroked-text"
         id="g60">
        <desc
           id="desc56">3</desc>
        <path
           d="m 36576,17166 v -309 l 190,166 v -71 l 24,-48 24,-24 47,-23 h 119 l 48,23 24,24 24,48 v 143 l -24,47 -24,24"
           id="path58" />
      </g>
      <text
         x="38031.262"
         y="18249.922"
         textLength="1060"
         font-size="666.654px"
         lengthAdjust="spacingAndGlyphs"
         text-anchor="middle"
         opacity="0"
         id="text62">Q1</text>
      <g
         class="stroked-text"
         id="g74">
        <desc
           id="desc64">Q1</desc>
        <path
           d="m 37983,18273 -48,-24 -47,-47 -72,-72 -47,-23 h -48"
           id="path66" />
        <path
           d="m 37745,18226 -48,-24 -47,-48 -24,-95 v -167 l 24,-95 47,-48 48,-23 h 95 l 48,23 47,48 24,95 v 167 l -24,95 -47,48 -48,24 h -95"
           id="path68" />
        <path
           d="m 38435,18226 h -285"
           id="path70" />
        <path
           d="m 38293,18226 v -500 l -48,71 -48,48 -47,23"
           id="path72" />
      </g>
      <text
         x="38745.551"
         y="19249.922"
         textLength="2488.5828"
         font-size="666.654px"
         lengthAdjust="spacingAndGlyphs"
         text-anchor="middle"
         opacity="0"
         id="text76">BD139</text>
      <g
         class="stroked-text"
         id="g92">
        <desc
           id="desc78">BD139</desc>
        <path
           d="m 37816,18964 72,23 24,24 24,48 v 71 l -24,48 -24,24 -48,24 h -190 v -500 h 166 l 48,23 24,24 24,48 v 47 l -24,48 -24,24 -48,24 h -166"
           id="path80" />
        <path
           d="m 38150,19226 v -500 h 119 l 71,23 48,48 24,48 24,95 v 71 l -24,96 -24,47 -48,48 -71,24 h -119"
           id="path82" />
        <path
           d="m 38912,19226 h -286"
           id="path84" />
        <path
           d="m 38769,19226 v -500 l -48,71 -47,48 -48,23"
           id="path86" />
        <path
           d="m 39078,18726 h 310 l -167,190 h 72 l 47,24 24,24 24,47 v 119 l -24,48 -24,24 -47,24 h -143 l -48,-24 -24,-24"
           id="path88" />
        <path
           d="m 39626,19226 h 95 l 48,-24 24,-24 47,-71 24,-96 v -190 l -24,-48 -24,-24 -47,-23 h -95 l -48,23 -24,24 -24,48 v 119 l 24,47 24,24 48,24 h 95 l 47,-24 24,-24 24,-47"
           id="path90" />
      </g>
    </g>
  </g>
  <g
     style="fill:#000000;fill-opacity:0;stroke:#000000;stroke-width:60;stroke-linecap:round;stroke-linejoin:round;stroke-opacity:1"
     id="g182"
     transform="translate(-24077.285,-13196)">
    <g
       id="g100">
      <path
         style="fill:none;fill-opacity:0;stroke:#000000;stroke-width:60;stroke-linecap:round;stroke-linejoin:round;stroke-opacity:1"
         d="m 27500,18500 h -400"
         id="path98" />
    </g>
    <g
       style="fill:#000000;fill-opacity:1;stroke:#000000;stroke-width:60;stroke-linecap:round;stroke-linejoin:round;stroke-opacity:1"
       id="g104">
      <path
         style="fill:#000000;fill-opacity:1;fill-rule:evenodd;stroke:#000000;stroke-width:60;stroke-linecap:round;stroke-linejoin:round;stroke-opacity:1"
         d="m 26950,18500 450,-200 v 400 z"
         id="path102" />
    </g>
    <g
       style="fill:#000000;fill-opacity:0;stroke:#000000;stroke-width:100;stroke-linecap:round;stroke-linejoin:round;stroke-opacity:1"
       id="g108">
      <rect
         x="26100"
         y="17500"
         width="800"
         height="2000"
         rx="0.000000"
         id="rect106" />
    </g>
    <g
       style="fill:#000000;fill-opacity:0;stroke:#000000;stroke-width:60;stroke-linecap:round;stroke-linejoin:round;stroke-opacity:1"
       id="g180">
      <path
         d="m 26500,17500 v -500"
         id="path110" />
      <g
         transform="rotate(-90,26400,17250)"
         id="g114">
        <text
           x="26400"
           y="17250"
           textLength="536.18109"
           font-size="666.654px"
           lengthAdjust="spacingAndGlyphs"
           text-anchor="middle"
           opacity="0"
           id="text112">1</text>
      </g>
      <g
         class="stroked-text"
         id="g122">
        <desc
           id="desc116">1</desc>
        <path
           d="m 26376,17107 v 285"
           id="path118" />
        <path
           d="m 26376,17250 h -500 l 71,47 48,48 24,47"
           id="path120" />
      </g>
      <path
         d="m 27500,18500 h 500"
         id="path124" />
      <text
         x="27750"
         y="18400"
         textLength="536.18109"
         font-size="666.654px"
         lengthAdjust="spacingAndGlyphs"
         text-anchor="middle"
         opacity="0"
         id="text126">2</text>
      <g
         class="stroked-text"
         id="g132">
        <desc
           id="desc128">2</desc>
        <path
           d="m 27607,17923 23,-23 48,-24 h 119 l 48,24 24,23 23,48 v 48 l -23,71 -286,286 h 309"
           id="path130" />
      </g>
      <path
         d="m 26500,19500 v 500"
         id="path134" />
      <g
         transform="rotate(-90,26400,19750)"
         id="g138">
        <text
           x="26400"
           y="19750"
           textLength="536.18109"
           font-size="666.654px"
           lengthAdjust="spacingAndGlyphs"
           text-anchor="middle"
           opacity="0"
           id="text136">3</text>
      </g>
      <g
         class="stroked-text"
         id="g144">
        <desc
           id="desc140">3</desc>
        <path
           d="m 25876,19916 v -309 l 190,166 v -71 l 24,-48 24,-24 47,-23 h 119 l 48,23 24,24 24,48 v 143 l -24,47 -24,24"
           id="path142" />
      </g>
      <text
         x="24766.338"
         y="18249.922"
         textLength="1464.7638"
         font-size="666.654px"
         lengthAdjust="spacingAndGlyphs"
         text-anchor="middle"
         opacity="0"
         id="text146">RV1</text>
      <g
         class="stroked-text"
         id="g160">
        <desc
           id="desc148">RV1</desc>
        <path
           d="m 24468,18226 -166,-239"
           id="path150" />
        <path
           d="m 24182,18226 v -500 h 191 l 48,23 23,24 24,48 v 71 l -24,48 -23,24 -48,23 h -191"
           id="path152" />
        <path
           d="m 24611,17726 167,500 166,-500"
           id="path154" />
        <path
           d="m 25373,18226 h -286"
           id="path156" />
        <path
           d="m 25230,18226 v -500 l -48,71 -47,48 -48,23"
           id="path158" />
      </g>
      <text
         x="24790.158"
         y="19249.922"
         textLength="1417.126"
         font-size="666.654px"
         lengthAdjust="spacingAndGlyphs"
         text-anchor="middle"
         opacity="0"
         id="text162">10k</text>
      <g
         class="stroked-text"
         id="g178">
        <desc
           id="desc164">10k</desc>
        <path
           d="m 24492,19226 h -286"
           id="path166" />
        <path
           d="m 24349,19226 v -500 l -47,71 -48,48 -48,23"
           id="path168" />
        <path
           d="m 24802,18726 h 47 l 48,23 24,24 23,48 24,95 v 119 l -24,95 -23,48 -24,24 -48,24 h -47 l -48,-24 -24,-24 -24,-48 -24,-95 v -119 l 24,-95 24,-48 24,-24 48,-23"
           id="path170" />
        <path
           d="m 25182,19226 v -500"
           id="path172" />
        <path
           d="m 25230,19035 143,191"
           id="path174" />
        <path
           d="m 25373,18892 -191,191"
           id="path176" />
      </g>
    </g>
  </g>
  <g
     style="fill:#000000;fill-opacity:0;stroke:#000000;stroke-width:60;stroke-linecap:round;stroke-linejoin:round;stroke-opacity:1"
     id="g200"
     transform="translate(-24077.285,-13196)">
    <g
       id="g198">
      <path
         style="fill:none;fill-opacity:0;stroke:#000000;stroke-width:60;stroke-linecap:round;stroke-linejoin:round;stroke-opacity:1"
         d="m 26500,25500 v 500 h 500 l -500,500 -500,-500 h 500"
         id="path184" />
      <text
         x="26500"
         y="27749.961"
         textLength="1583.8188"
         font-size="666.654px"
         lengthAdjust="spacingAndGlyphs"
         text-anchor="middle"
         opacity="0"
         id="text186">GND</text>
      <g
         class="stroked-text"
         id="g196">
        <desc
           id="desc188">GND</desc>
        <path
           d="m 26119,27249 -48,-23 h -71 l -72,23 -48,48 -23,48 -24,95 v 71 l 24,96 23,47 48,48 72,24 h 47 l 72,-24 23,-24 v -167 h -95"
           id="path190" />
        <path
           d="m 26357,27726 v -500 l 285,500 v -500"
           id="path192" />
        <path
           d="m 26880,27726 v -500 h 120 l 71,23 48,48 23,48 24,95 v 71 l -24,96 -23,47 -48,48 -71,24 h -120"
           id="path194" />
      </g>
    </g>
  </g>
  <g
     style="fill:#000000;fill-opacity:0;stroke:#000000;stroke-width:60;stroke-linecap:round;stroke-linejoin:round;stroke-opacity:1"
     id="g218"
     transform="translate(-24077.285,-13196)">
    <g
       id="g216">
      <path
         style="fill:none;fill-opacity:0;stroke:#000000;stroke-width:60;stroke-linecap:round;stroke-linejoin:round;stroke-opacity:1"
         d="m 36500,25500 v 500 h 500 l -500,500 -500,-500 h 500"
         id="path202" />
      <text
         x="36500"
         y="27749.961"
         textLength="1583.8188"
         font-size="666.654px"
         lengthAdjust="spacingAndGlyphs"
         text-anchor="middle"
         opacity="0"
         id="text204">GND</text>
      <g
         class="stroked-text"
         id="g214">
        <desc
           id="desc206">GND</desc>
        <path
           d="m 36119,27249 -48,-23 h -71 l -72,23 -48,48 -23,48 -24,95 v 71 l 24,96 23,47 48,48 72,24 h 47 l 72,-24 23,-24 v -167 h -95"
           id="path208" />
        <path
           d="m 36357,27726 v -500 l 285,500 v -500"
           id="path210" />
        <path
           d="m 36880,27726 v -500 h 120 l 71,23 48,48 23,48 24,95 v 71 l -24,96 -23,47 -48,48 -71,24 h -120"
           id="path212" />
      </g>
    </g>
  </g>
  <g
     style="fill:#000000;fill-opacity:0;stroke:#000000;stroke-width:60;stroke-linecap:round;stroke-linejoin:round;stroke-opacity:1"
     id="g310"
     transform="translate(-24077.285,-13196)">
    <g
       id="g230">
      <path
         style="fill:none;fill-opacity:0;stroke:#000000;stroke-width:60;stroke-linecap:round;stroke-linejoin:round;stroke-opacity:1"
         d="m 41250,24250 500,-500"
         id="path220" />
      <path
         style="fill:none;fill-opacity:0;stroke:#000000;stroke-width:60;stroke-linecap:round;stroke-linejoin:round;stroke-opacity:1"
         d="m 43250,22250 500,-500"
         id="path222" />
      <path
         style="fill:none;fill-opacity:0;stroke:#000000;stroke-width:60;stroke-linecap:round;stroke-linejoin:round;stroke-opacity:1"
         d="m 43250,21750 h 500 v 500"
         id="path224" />
      <path
         style="fill:none;fill-opacity:0;stroke:#000000;stroke-width:60;stroke-linecap:round;stroke-linejoin:round;stroke-opacity:1"
         d="m 42600,21500 h 200"
         id="path226" />
      <path
         style="fill:none;fill-opacity:0;stroke:#000000;stroke-width:60;stroke-linecap:round;stroke-linejoin:round;stroke-opacity:1"
         d="m 42700,21400 v 200"
         id="path228" />
    </g>
    <g
       style="fill:#000000;fill-opacity:0;stroke:#000000;stroke-width:100;stroke-linecap:round;stroke-linejoin:round;stroke-opacity:1"
       id="g234">
      <circle
         cx="42500"
         cy="23000"
         r="1000"
         id="circle232" />
    </g>
    <g
       style="fill:#000000;fill-opacity:0;stroke:#000000;stroke-width:125;stroke-linecap:round;stroke-linejoin:round;stroke-opacity:1"
       id="g244">
      <text
         x="42500"
         y="23500"
         textLength="917.12598"
         font-size="1333.31px"
         lengthAdjust="spacingAndGlyphs"
         text-anchor="middle"
         opacity="0"
         id="text236">V</text>
      <g
         class="stroked-text"
         id="g242">
        <desc
           id="desc238">V</desc>
        <path
           d="m 42166,22452 334,1000 333,-1000"
           id="path240" />
      </g>
    </g>
    <g
       style="fill:#000000;fill-opacity:0;stroke:#000000;stroke-width:60;stroke-linecap:round;stroke-linejoin:round;stroke-opacity:1"
       id="g308">
      <path
         d="m 42500,24000 v 1000"
         id="path246" />
      <path
         d="M 42500,22000 V 21000"
         id="path248" />
      <text
         x="45019.332"
         y="22574.922"
         textLength="2101.1812"
         font-size="666.654px"
         lengthAdjust="spacingAndGlyphs"
         text-anchor="middle"
         opacity="0"
         id="text250">MES1</text>
      <g
         class="stroked-text"
         id="g266">
        <desc
           id="desc252">MES1</desc>
        <path
           d="m 44150,22551 v -500 l 166,357 167,-357 v 500"
           id="path254" />
        <path
           d="m 44721,22289 h 167"
           id="path256" />
        <path
           d="m 44959,22551 h -238 v -500 h 238"
           id="path258" />
        <path
           d="m 45150,22527 71,24 h 119 l 48,-24 24,-24 23,-48 v -47 l -23,-48 -24,-24 -48,-24 -95,-23 -48,-24 -23,-24 -24,-48 v -47 l 24,-48 23,-24 48,-23 h 119 l 71,23"
           id="path260" />
        <path
           d="m 45912,22551 h -286"
           id="path262" />
        <path
           d="m 45769,22551 v -500 l -48,71 -47,48 -48,23"
           id="path264" />
      </g>
      <text
         x="46495.551"
         y="23574.922"
         textLength="4988.5825"
         font-size="666.654px"
         lengthAdjust="spacingAndGlyphs"
         text-anchor="middle"
         opacity="0"
         id="text268">Voltmeter_DC</text>
      <g
         class="stroked-text"
         id="g306">
        <desc
           id="desc270">Voltmeter_DC</desc>
        <path
           d="m 44078,23051 167,500 167,-500"
           id="path272" />
        <path
           d="m 44650,23551 -48,-24 -24,-24 -23,-48 v -143 l 23,-47 24,-24 48,-24 h 71 l 48,24 24,24 23,47 v 143 l -23,48 -24,24 -48,24 h -71"
           id="path274" />
        <path
           d="m 45102,23551 -47,-24 -24,-48 v -428"
           id="path276" />
        <path
           d="m 45221,23217 h 191"
           id="path278" />
        <path
           d="m 45293,23051 v 428 l 23,48 48,24 h 48"
           id="path280" />
        <path
           d="m 45578,23551 v -334"
           id="path282" />
        <path
           d="m 45578,23265 24,-24 48,-24 h 71 l 48,24 24,48 v 262"
           id="path284" />
        <path
           d="m 45793,23289 23,-48 48,-24 h 72 l 47,24 24,48 v 262"
           id="path286" />
        <path
           d="m 46436,23527 -48,24 h -95 l -48,-24 -24,-48 v -190 l 24,-48 48,-24 h 95 l 48,24 23,48 v 47 l -238,48"
           id="path288" />
        <path
           d="m 46602,23217 h 191"
           id="path290" />
        <path
           d="m 46674,23051 v 428 l 23,48 48,24 h 48"
           id="path292" />
        <path
           d="m 47150,23527 -48,24 h -95 l -48,-24 -23,-48 v -190 l 23,-48 48,-24 h 95 l 48,24 24,48 v 47 l -238,48"
           id="path294" />
        <path
           d="m 47388,23551 v -334"
           id="path296" />
        <path
           d="m 47388,23312 24,-47 24,-24 47,-24 h 48"
           id="path298" />
        <path
           d="m 47578,23598 h 381"
           id="path300" />
        <path
           d="m 48078,23551 v -500 h 119 l 72,23 47,48 24,48 24,95 v 71 l -24,96 -24,47 -47,48 -72,24 h -119"
           id="path302" />
        <path
           d="m 48864,23503 -24,24 -71,24 h -48 l -71,-24 -48,-48 -24,-47 -23,-96 v -71 l 23,-95 24,-48 48,-48 71,-23 h 48 l 71,23 24,24"
           id="path304" />
      </g>
    </g>
  </g>
  <g
     style="fill:#000000;fill-opacity:0;stroke:#000000;stroke-width:60;stroke-linecap:round;stroke-linejoin:round;stroke-opacity:1"
     id="g364"
     transform="translate(-24077.285,-13196)">
    <g
       id="g312" />
    <g
       style="fill:#000000;fill-opacity:0;stroke:#000000;stroke-width:100;stroke-linecap:round;stroke-linejoin:round;stroke-opacity:1"
       id="g316">
      <rect
         x="36100"
         y="22000"
         width="800"
         height="2000"
         rx="0.000000"
         id="rect314" />
    </g>
    <g
       style="fill:#000000;fill-opacity:0;stroke:#000000;stroke-width:60;stroke-linecap:round;stroke-linejoin:round;stroke-opacity:1"
       id="g362">
      <path
         d="m 36500,22000 v -500"
         id="path318" />
      <path
         d="m 36500,24000 v 500"
         id="path320" />
      <text
         x="38019.332"
         y="22749.922"
         textLength="1036.1812"
         font-size="666.654px"
         lengthAdjust="spacingAndGlyphs"
         text-anchor="middle"
         opacity="0"
         id="text322">R1</text>
      <g
         class="stroked-text"
         id="g334">
        <desc
           id="desc324">R1</desc>
        <path
           d="m 37935,22726 -166,-239"
           id="path326" />
        <path
           d="m 37650,22726 v -500 h 190 l 48,23 24,24 23,48 v 71 l -23,48 -24,24 -48,23 h -190"
           id="path328" />
        <path
           d="m 38412,22726 h -286"
           id="path330" />
        <path
           d="m 38269,22726 v -500 l -48,71 -47,48 -48,23"
           id="path332" />
      </g>
      <text
         x="38578.859"
         y="23749.922"
         textLength="2155.2363"
         font-size="666.654px"
         lengthAdjust="spacingAndGlyphs"
         text-anchor="middle"
         opacity="0"
         id="text336">testni</text>
      <g
         class="stroked-text"
         id="g360">
        <desc
           id="desc338">testni</desc>
        <path
           d="m 37578,23392 h 191"
           id="path340" />
        <path
           d="m 37650,23226 v 428 l 24,48 47,24 h 48"
           id="path342" />
        <path
           d="m 38126,23702 -48,24 h -95 l -48,-24 -23,-48 v -190 l 23,-48 48,-24 h 95 l 48,24 24,48 v 47 l -238,48"
           id="path344" />
        <path
           d="m 38340,23702 48,24 h 95 l 48,-24 24,-48 v -24 l -24,-47 -48,-24 h -71 l -48,-24 -24,-48 v -23 l 24,-48 48,-24 h 71 l 48,24"
           id="path346" />
        <path
           d="m 38697,23392 h 191"
           id="path348" />
        <path
           d="m 38769,23226 v 428 l 24,48 47,24 h 48"
           id="path350" />
        <path
           d="m 39055,23392 v 334"
           id="path352" />
        <path
           d="m 39055,23440 23,-24 48,-24 h 71 l 48,24 24,48 v 262"
           id="path354" />
        <path
           d="m 39507,23726 v -334"
           id="path356" />
        <path
           d="m 39507,23226 -24,23 24,24 24,-24 -24,-23 v 47"
           id="path358" />
      </g>
    </g>
  </g>
  <g
     style="fill:#000000;fill-opacity:0;stroke:#000000;stroke-width:60;stroke-linecap:round;stroke-linejoin:round;stroke-opacity:1"
     id="g388"
     transform="translate(-24077.285,-13196)">
    <g
       id="g386">
      <path
         style="fill:none;fill-opacity:0;stroke:#000000;stroke-width:60;stroke-linecap:round;stroke-linejoin:round;stroke-opacity:1"
         d="m 26200,15000 300,-500"
         id="path366" />
      <path
         style="fill:none;fill-opacity:0;stroke:#000000;stroke-width:60;stroke-linecap:round;stroke-linejoin:round;stroke-opacity:1"
         d="M 26500,15500 V 14500"
         id="path368" />
      <path
         style="fill:none;fill-opacity:0;stroke:#000000;stroke-width:60;stroke-linecap:round;stroke-linejoin:round;stroke-opacity:1"
         d="m 26500,14500 300,500"
         id="path370" />
      <text
         x="26500"
         y="13749.961"
         textLength="1583.8188"
         font-size="666.654px"
         lengthAdjust="spacingAndGlyphs"
         text-anchor="middle"
         opacity="0"
         id="text372">+9V</text>
      <g
         class="stroked-text"
         id="g384">
        <desc
           id="desc374">+9V</desc>
        <path
           d="m 25857,13535 h 381"
           id="path376" />
        <path
           d="m 26047,13726 v -381"
           id="path378" />
        <path
           d="m 26500,13726 h 95 l 47,-24 24,-24 48,-71 24,-96 v -190 l -24,-48 -24,-24 -48,-23 h -95 l -47,23 -24,24 -24,48 v 119 l 24,48 24,23 47,24 h 95 l 48,-24 24,-23 24,-48"
           id="path380" />
        <path
           d="m 26880,13226 167,500 167,-500"
           id="path382" />
      </g>
    </g>
  </g>
  <g
     style="fill:#000000;fill-opacity:0;stroke:#000000;stroke-width:60;stroke-linecap:round;stroke-linejoin:round;stroke-opacity:1"
     id="g414"
     transform="translate(-24077.285,-13196)">
    <path
       d="m 36500,21000 v 500"
       id="path390" />
    <path
       d="m 36500,20500 v 500"
       id="path392" />
    <path
       d="m 36500,21000 h 6000"
       id="path394" />
    <path
       d="m 26500,16000 v 1000"
       id="path396" />
    <path
       d="m 36500,25000 v 500"
       id="path398" />
    <path
       d="m 36500,25000 h 6000"
       id="path400" />
    <path
       d="m 36500,16500 v -500"
       id="path402" />
    <path
       d="m 26500,15500 v 500"
       id="path404" />
    <path
       d="m 36500,24500 v 500"
       id="path406" />
    <path
       d="m 28000,18500 h 5500"
       id="path408" />
    <path
       d="m 26500,20000 v 5500"
       id="path410" />
    <path
       d="M 26500,16000 H 36500"
       id="path412" />
  </g>
  <g
     style="fill:#000000;fill-opacity:1;stroke:#000000;stroke-width:60;stroke-linecap:round;stroke-linejoin:round;stroke-opacity:1"
     id="g422"
     transform="translate(-24077.285,-13196)">
    <circle
       cx="26500"
       cy="16000"
       r="180"
       id="circle416" />
    <circle
       cx="36500"
       cy="21000"
       r="180"
       id="circle418" />
    <circle
       cx="36500"
       cy="25000"
       r="180"
       id="circle420" />
  </g>
  <metadata
     id="metadata1245">
    <rdf:RDF>
      <cc:Work
         rdf:about="">
        <dc:title>SVG Picture created as 01_vir_napetosti_R.svg date 2022/02/13 21:25:38 </dc:title>
      </cc:Work>
    </rdf:RDF>
  </metadata>
</svg>
