<?xml version="1.0" standalone="no"?>
 <!DOCTYPE svg PUBLIC "-//W3C//DTD SVG 1.1//EN" 
 "http://www.w3.org/Graphics/SVG/1.1/DTD/svg11.dtd"> 
<svg
  xmlns:svg="http://www.w3.org/2000/svg"
  xmlns="http://www.w3.org/2000/svg"
  xmlns:xlink="http://www.w3.org/1999/xlink"
  version="1.1"
  width="297.0022mm" height="210.0072mm" viewBox="0.0000 0.0000 297.0022 210.0072">
<title>SVG Image created as 913_boost_converter.svg date 2025/11/21 10:47:30 </title>
  <desc>Image generated by Eeschema-SVG </desc>
<g style="fill:#000000; fill-opacity:1.0000;stroke:#000000; stroke-opacity:1.0000;
stroke-linecap:round; stroke-linejoin:round;"
 transform="translate(0 0) scale(1 1)">
</g>
<g style="fill:none; 
stroke:#000000; stroke-width:0.1524; stroke-opacity:1; 
stroke-linecap:round; stroke-linejoin:round;">
<path d="M97.7900 83.8200 A0.6350 0.6350 0.0 0 0 96.5200 83.8200" />
<path d="M99.0600 83.8200 A0.6350 0.6350 0.0 0 0 97.7900 83.8200" />
<path d="M100.3300 83.8200 A0.6350 0.6350 0.0 0 0 99.0600 83.8200" />
<path d="M101.6000 83.8200 A0.6350 0.6350 0.0 0 0 100.3300 83.8200" />
<path d="M96.5200 83.8200
L95.2500 83.8200
" />
<path d="M101.6000 83.8200
L102.8700 83.8200
" />
<text x="99.0600" y="79.6289"
textLength="2.4408" font-size="1.6933" lengthAdjust="spacingAndGlyphs"
text-anchor="middle" opacity="0" stroke-opacity="0">L1</text>
<g class="stroked-text"><desc>L1</desc>
<path d="M98.8483 79.5734
L98.2435 79.5734
" />
<path d="M98.2435 79.5734
L98.2435 78.3034
" />
<path d="M99.9369 79.5734
L99.2112 79.5734
" />
<path d="M99.5740 79.5734
L99.5740 78.3034
" />
<path d="M99.5740 78.3034
L99.4531 78.4849
" />
<path d="M99.4531 78.4849
L99.3321 78.6058
" />
<path d="M99.3321 78.6058
L99.2112 78.6663
" />
</g><text x="99.0600" y="81.6609"
textLength="5.5250" font-size="1.6933" lengthAdjust="spacingAndGlyphs"
text-anchor="middle" opacity="0" stroke-opacity="0">100m</text>
<g class="stroked-text"><desc>100m</desc>
<path d="M97.3667 81.6054
L96.6410 81.6054
" />
<path d="M97.0038 81.6054
L97.0038 80.3354
" />
<path d="M97.0038 80.3354
L96.8829 80.5169
" />
<path d="M96.8829 80.5169
L96.7619 80.6378
" />
<path d="M96.7619 80.6378
L96.6410 80.6983
" />
<path d="M98.1528 80.3354
L98.2738 80.3354
" />
<path d="M98.2738 80.3354
L98.3947 80.3959
" />
<path d="M98.3947 80.3959
L98.4552 80.4564
" />
<path d="M98.4552 80.4564
L98.5157 80.5773
" />
<path d="M98.5157 80.5773
L98.5762 80.8192
" />
<path d="M98.5762 80.8192
L98.5762 81.1216
" />
<path d="M98.5762 81.1216
L98.5157 81.3635
" />
<path d="M98.5157 81.3635
L98.4552 81.4845
" />
<path d="M98.4552 81.4845
L98.3947 81.5450
" />
<path d="M98.3947 81.5450
L98.2738 81.6054
" />
<path d="M98.2738 81.6054
L98.1528 81.6054
" />
<path d="M98.1528 81.6054
L98.0319 81.5450
" />
<path d="M98.0319 81.5450
L97.9714 81.4845
" />
<path d="M97.9714 81.4845
L97.9109 81.3635
" />
<path d="M97.9109 81.3635
L97.8505 81.1216
" />
<path d="M97.8505 81.1216
L97.8505 80.8192
" />
<path d="M97.8505 80.8192
L97.9109 80.5773
" />
<path d="M97.9109 80.5773
L97.9714 80.4564
" />
<path d="M97.9714 80.4564
L98.0319 80.3959
" />
<path d="M98.0319 80.3959
L98.1528 80.3354
" />
<path d="M99.3623 80.3354
L99.4833 80.3354
" />
<path d="M99.4833 80.3354
L99.6042 80.3959
" />
<path d="M99.6042 80.3959
L99.6647 80.4564
" />
<path d="M99.6647 80.4564
L99.7252 80.5773
" />
<path d="M99.7252 80.5773
L99.7857 80.8192
" />
<path d="M99.7857 80.8192
L99.7857 81.1216
" />
<path d="M99.7857 81.1216
L99.7252 81.3635
" />
<path d="M99.7252 81.3635
L99.6647 81.4845
" />
<path d="M99.6647 81.4845
L99.6042 81.5450
" />
<path d="M99.6042 81.5450
L99.4833 81.6054
" />
<path d="M99.4833 81.6054
L99.3623 81.6054
" />
<path d="M99.3623 81.6054
L99.2414 81.5450
" />
<path d="M99.2414 81.5450
L99.1809 81.4845
" />
<path d="M99.1809 81.4845
L99.1204 81.3635
" />
<path d="M99.1204 81.3635
L99.0600 81.1216
" />
<path d="M99.0600 81.1216
L99.0600 80.8192
" />
<path d="M99.0600 80.8192
L99.1204 80.5773
" />
<path d="M99.1204 80.5773
L99.1809 80.4564
" />
<path d="M99.1809 80.4564
L99.2414 80.3959
" />
<path d="M99.2414 80.3959
L99.3623 80.3354
" />
<path d="M100.3299 81.6054
L100.3299 80.7588
" />
<path d="M100.3299 80.8797
L100.3904 80.8192
" />
<path d="M100.3904 80.8192
L100.5114 80.7588
" />
<path d="M100.5114 80.7588
L100.6928 80.7588
" />
<path d="M100.6928 80.7588
L100.8137 80.8192
" />
<path d="M100.8137 80.8192
L100.8742 80.9402
" />
<path d="M100.8742 80.9402
L100.8742 81.6054
" />
<path d="M100.8742 80.9402
L100.9347 80.8192
" />
<path d="M100.9347 80.8192
L101.0556 80.7588
" />
<path d="M101.0556 80.7588
L101.2371 80.7588
" />
<path d="M101.2371 80.7588
L101.3580 80.8192
" />
<path d="M101.3580 80.8192
L101.4185 80.9402
" />
<path d="M101.4185 80.9402
L101.4185 81.6054
" />
</g></g>
<g style="fill:none; 
stroke:#000000; stroke-width:0.2540; stroke-opacity:1; 
stroke-linecap:round; stroke-linejoin:round;">
<rect x="137.414000" y="88.900000" width="2.032000" height="5.080000" rx="0.000000" />
</g>
<g style="fill:none; 
stroke:#000000; stroke-width:0.1524; stroke-opacity:1; 
stroke-linecap:round; stroke-linejoin:round;">
<path d="M138.4300 88.9000
L138.4300 87.6300
" />
<path d="M138.4300 93.9800
L138.4300 95.2500
" />
<text x="142.3209" y="90.8049"
textLength="2.6827" font-size="1.6933" lengthAdjust="spacingAndGlyphs"
text-anchor="middle" opacity="0" stroke-opacity="0">R2</text>
<g class="stroked-text"><desc>R2</desc>
<path d="M142.1092 90.7494
L141.6859 90.1447
" />
<path d="M141.3835 90.7494
L141.3835 89.4794
" />
<path d="M141.3835 89.4794
L141.8673 89.4794
" />
<path d="M141.8673 89.4794
L141.9883 89.5399
" />
<path d="M141.9883 89.5399
L142.0488 89.6004
" />
<path d="M142.0488 89.6004
L142.1092 89.7213
" />
<path d="M142.1092 89.7213
L142.1092 89.9028
" />
<path d="M142.1092 89.9028
L142.0488 90.0237
" />
<path d="M142.0488 90.0237
L141.9883 90.0842
" />
<path d="M141.9883 90.0842
L141.8673 90.1447
" />
<path d="M141.8673 90.1447
L141.3835 90.1447
" />
<path d="M142.5931 89.6004
L142.6535 89.5399
" />
<path d="M142.6535 89.5399
L142.7745 89.4794
" />
<path d="M142.7745 89.4794
L143.0769 89.4794
" />
<path d="M143.0769 89.4794
L143.1978 89.5399
" />
<path d="M143.1978 89.5399
L143.2583 89.6004
" />
<path d="M143.2583 89.6004
L143.3188 89.7213
" />
<path d="M143.3188 89.7213
L143.3188 89.8423
" />
<path d="M143.3188 89.8423
L143.2583 90.0237
" />
<path d="M143.2583 90.0237
L142.5326 90.7494
" />
<path d="M142.5326 90.7494
L143.3188 90.7494
" />
</g><text x="142.2000" y="93.3449"
textLength="2.4408" font-size="1.6933" lengthAdjust="spacingAndGlyphs"
text-anchor="middle" opacity="0" stroke-opacity="0">1k</text>
<g class="stroked-text"><desc>1k</desc>
<path d="M142.0488 93.2894
L141.3231 93.2894
" />
<path d="M141.6859 93.2894
L141.6859 92.0194
" />
<path d="M141.6859 92.0194
L141.5650 92.2009
" />
<path d="M141.5650 92.2009
L141.4440 92.3218
" />
<path d="M141.4440 92.3218
L141.3231 92.3823
" />
<path d="M142.5930 93.2894
L142.5930 92.0194
" />
<path d="M142.7140 92.8056
L143.0768 93.2894
" />
<path d="M143.0768 92.4428
L142.5930 92.9266
" />
</g><path style="fill:none; 
stroke:#000000; stroke-width:0.1524; stroke-opacity:1; 
stroke-linecap:round; stroke-linejoin:round;fill:none"
d="M 101.6000,92.7100
104.7750,92.7100
" /> 
<path style="fill:none; 
stroke:#000000; stroke-width:0.5080; stroke-opacity:1; 
stroke-linecap:round; stroke-linejoin:round;fill:none"
d="M 104.7750,90.8050
104.7750,94.6150
104.7750,94.6150
" /> 
<path style="fill:none; 
stroke:#000000; stroke-width:0.1524; stroke-opacity:1; 
stroke-linecap:round; stroke-linejoin:round;fill:none"
d="M 104.7750,92.0750
106.6800,90.1700
" /> 
<path style="fill:none; 
stroke:#000000; stroke-width:0.1524; stroke-opacity:1; 
stroke-linecap:round; stroke-linejoin:round;fill:none"
d="M 104.7750,93.3450
106.6800,95.2500
106.6800,95.2500
" /> 
</g>
<g style="fill:none; 
stroke:#000000; stroke-width:0.2540; stroke-opacity:1; 
stroke-linecap:round; stroke-linejoin:round;">
<circle cx="105.4100" cy="92.7100" r="2.8194" /> 
<path style="fill:#000000; fill-opacity:1.0000; 
stroke:#000000; stroke-width:0.1524; stroke-opacity:1; 
stroke-linecap:round; stroke-linejoin:round;fill-rule:evenodd;"
d="M 105.4100,94.4880
105.9180,93.9800
106.4260,94.9960
105.4100,94.4880
Z" /> 
<path style="fill:none; 
stroke:#000000; stroke-width:0.1524; stroke-opacity:1; 
stroke-linecap:round; stroke-linejoin:round;fill:none"
d="M 106.9340,93.9800
Z" /> 
<path style="fill:none; 
stroke:#000000; stroke-width:0.1524; stroke-opacity:1; 
stroke-linecap:round; stroke-linejoin:round;fill:none"
d="M 106.9340,93.9800
Z" /> 
</g>
<g style="fill:none; 
stroke:#000000; stroke-width:0.1524; stroke-opacity:1; 
stroke-linecap:round; stroke-linejoin:round;">
<path d="M101.6000 92.7100
L99.0600 92.7100
" />
<text x="100.3300" y="92.4560"
textLength="1.4732" font-size="1.6933" lengthAdjust="spacingAndGlyphs"
text-anchor="middle" opacity="0" stroke-opacity="0">B</text>
<g class="stroked-text"><desc>B</desc>
<path d="M100.4207 91.6273
L100.6021 91.6878
" />
<path d="M100.6021 91.6878
L100.6626 91.7482
" />
<path d="M100.6626 91.7482
L100.7230 91.8692
" />
<path d="M100.7230 91.8692
L100.7230 92.0506
" />
<path d="M100.7230 92.0506
L100.6626 92.1716
" />
<path d="M100.6626 92.1716
L100.6021 92.2321
" />
<path d="M100.6021 92.2321
L100.4811 92.2925
" />
<path d="M100.4811 92.2925
L99.9973 92.2925
" />
<path d="M99.9973 92.2925
L99.9973 91.0225
" />
<path d="M99.9973 91.0225
L100.4207 91.0225
" />
<path d="M100.4207 91.0225
L100.5416 91.0830
" />
<path d="M100.5416 91.0830
L100.6021 91.1435
" />
<path d="M100.6021 91.1435
L100.6626 91.2644
" />
<path d="M100.6626 91.2644
L100.6626 91.3854
" />
<path d="M100.6626 91.3854
L100.6021 91.5063
" />
<path d="M100.6021 91.5063
L100.5416 91.5668
" />
<path d="M100.5416 91.5668
L100.4207 91.6273
" />
<path d="M100.4207 91.6273
L99.9973 91.6273
" />
</g><path d="M106.6800 90.1700
L106.6800 87.6300
" />
<g transform="rotate(-90.000000 106.4260 88.9000)">
<text x="106.4260" y="88.9000"
textLength="1.4732" font-size="1.6933" lengthAdjust="spacingAndGlyphs"
text-anchor="middle" opacity="0" stroke-opacity="0">C</text>
</g>
<g class="stroked-text"><desc>C</desc>
<path d="M106.1416 88.5069
L106.2021 88.5673
" />
<path d="M106.2021 88.5673
L106.2625 88.7488
" />
<path d="M106.2625 88.7488
L106.2625 88.8697
" />
<path d="M106.2625 88.8697
L106.2021 89.0511
" />
<path d="M106.2021 89.0511
L106.0811 89.1721
" />
<path d="M106.0811 89.1721
L105.9601 89.2326
" />
<path d="M105.9601 89.2326
L105.7182 89.2930
" />
<path d="M105.7182 89.2930
L105.5368 89.2930
" />
<path d="M105.5368 89.2930
L105.2949 89.2326
" />
<path d="M105.2949 89.2326
L105.1740 89.1721
" />
<path d="M105.1740 89.1721
L105.0530 89.0511
" />
<path d="M105.0530 89.0511
L104.9925 88.8697
" />
<path d="M104.9925 88.8697
L104.9925 88.7488
" />
<path d="M104.9925 88.7488
L105.0530 88.5673
" />
<path d="M105.0530 88.5673
L105.1135 88.5069
" />
</g><path d="M106.6800 95.2500
L106.6800 97.7900
" />
<g transform="rotate(-90.000000 106.4260 96.5200)">
<text x="106.4260" y="96.5200"
textLength="1.3522" font-size="1.6933" lengthAdjust="spacingAndGlyphs"
text-anchor="middle" opacity="0" stroke-opacity="0">E</text>
</g>
<g class="stroked-text"><desc>E</desc>
<path d="M105.5973 96.7921
L105.5973 96.3687
" />
<path d="M106.2625 96.1873
L106.2625 96.7921
" />
<path d="M106.2625 96.7921
L104.9925 96.7921
" />
<path d="M104.9925 96.7921
L104.9925 96.1873
" />
</g><text x="110.6012" y="92.0749"
textLength="2.7432" font-size="1.6933" lengthAdjust="spacingAndGlyphs"
text-anchor="middle" opacity="0" stroke-opacity="0">Q1</text>
<g class="stroked-text"><desc>Q1</desc>
<path d="M110.4802 92.1404
L110.3592 92.0799
" />
<path d="M110.3592 92.0799
L110.2383 91.9590
" />
<path d="M110.2383 91.9590
L110.0569 91.7775
" />
<path d="M110.0569 91.7775
L109.9359 91.7170
" />
<path d="M109.9359 91.7170
L109.8150 91.7170
" />
<path d="M109.8754 92.0194
L109.7545 91.9590
" />
<path d="M109.7545 91.9590
L109.6335 91.8380
" />
<path d="M109.6335 91.8380
L109.5731 91.5961
" />
<path d="M109.5731 91.5961
L109.5731 91.1728
" />
<path d="M109.5731 91.1728
L109.6335 90.9309
" />
<path d="M109.6335 90.9309
L109.7545 90.8099
" />
<path d="M109.7545 90.8099
L109.8754 90.7494
" />
<path d="M109.8754 90.7494
L110.1173 90.7494
" />
<path d="M110.1173 90.7494
L110.2383 90.8099
" />
<path d="M110.2383 90.8099
L110.3592 90.9309
" />
<path d="M110.3592 90.9309
L110.4197 91.1728
" />
<path d="M110.4197 91.1728
L110.4197 91.5961
" />
<path d="M110.4197 91.5961
L110.3592 91.8380
" />
<path d="M110.3592 91.8380
L110.2383 91.9590
" />
<path d="M110.2383 91.9590
L110.1173 92.0194
" />
<path d="M110.1173 92.0194
L109.8754 92.0194
" />
<path d="M111.6293 92.0194
L110.9036 92.0194
" />
<path d="M111.2664 92.0194
L111.2664 90.7494
" />
<path d="M111.2664 90.7494
L111.1455 90.9309
" />
<path d="M111.1455 90.9309
L111.0245 91.0518
" />
<path d="M111.0245 91.0518
L110.9036 91.1123
" />
</g><text x="112.4154" y="94.6149"
textLength="6.3717" font-size="1.6933" lengthAdjust="spacingAndGlyphs"
text-anchor="middle" opacity="0" stroke-opacity="0">BC108</text>
<g class="stroked-text"><desc>BC108</desc>
<path d="M110.0569 93.8942
L110.2383 93.9547
" />
<path d="M110.2383 93.9547
L110.2988 94.0151
" />
<path d="M110.2988 94.0151
L110.3592 94.1361
" />
<path d="M110.3592 94.1361
L110.3592 94.3175
" />
<path d="M110.3592 94.3175
L110.2988 94.4385
" />
<path d="M110.2988 94.4385
L110.2383 94.4990
" />
<path d="M110.2383 94.4990
L110.1173 94.5594
" />
<path d="M110.1173 94.5594
L109.6335 94.5594
" />
<path d="M109.6335 94.5594
L109.6335 93.2894
" />
<path d="M109.6335 93.2894
L110.0569 93.2894
" />
<path d="M110.0569 93.2894
L110.1778 93.3499
" />
<path d="M110.1778 93.3499
L110.2383 93.4104
" />
<path d="M110.2383 93.4104
L110.2988 93.5313
" />
<path d="M110.2988 93.5313
L110.2988 93.6523
" />
<path d="M110.2988 93.6523
L110.2383 93.7732
" />
<path d="M110.2383 93.7732
L110.1778 93.8337
" />
<path d="M110.1778 93.8337
L110.0569 93.8942
" />
<path d="M110.0569 93.8942
L109.6335 93.8942
" />
<path d="M111.6292 94.4385
L111.5688 94.4990
" />
<path d="M111.5688 94.4990
L111.3873 94.5594
" />
<path d="M111.3873 94.5594
L111.2664 94.5594
" />
<path d="M111.2664 94.5594
L111.0850 94.4990
" />
<path d="M111.0850 94.4990
L110.9640 94.3780
" />
<path d="M110.9640 94.3780
L110.9035 94.2570
" />
<path d="M110.9035 94.2570
L110.8431 94.0151
" />
<path d="M110.8431 94.0151
L110.8431 93.8337
" />
<path d="M110.8431 93.8337
L110.9035 93.5918
" />
<path d="M110.9035 93.5918
L110.9640 93.4709
" />
<path d="M110.9640 93.4709
L111.0850 93.3499
" />
<path d="M111.0850 93.3499
L111.2664 93.2894
" />
<path d="M111.2664 93.2894
L111.3873 93.2894
" />
<path d="M111.3873 93.2894
L111.5688 93.3499
" />
<path d="M111.5688 93.3499
L111.6292 93.4104
" />
<path d="M112.8388 94.5594
L112.1131 94.5594
" />
<path d="M112.4759 94.5594
L112.4759 93.2894
" />
<path d="M112.4759 93.2894
L112.3550 93.4709
" />
<path d="M112.3550 93.4709
L112.2340 93.5918
" />
<path d="M112.2340 93.5918
L112.1131 93.6523
" />
<path d="M113.6249 93.2894
L113.7459 93.2894
" />
<path d="M113.7459 93.2894
L113.8668 93.3499
" />
<path d="M113.8668 93.3499
L113.9273 93.4104
" />
<path d="M113.9273 93.4104
L113.9878 93.5313
" />
<path d="M113.9878 93.5313
L114.0483 93.7732
" />
<path d="M114.0483 93.7732
L114.0483 94.0756
" />
<path d="M114.0483 94.0756
L113.9878 94.3175
" />
<path d="M113.9878 94.3175
L113.9273 94.4385
" />
<path d="M113.9273 94.4385
L113.8668 94.4990
" />
<path d="M113.8668 94.4990
L113.7459 94.5594
" />
<path d="M113.7459 94.5594
L113.6249 94.5594
" />
<path d="M113.6249 94.5594
L113.5040 94.4990
" />
<path d="M113.5040 94.4990
L113.4435 94.4385
" />
<path d="M113.4435 94.4385
L113.3830 94.3175
" />
<path d="M113.3830 94.3175
L113.3226 94.0756
" />
<path d="M113.3226 94.0756
L113.3226 93.7732
" />
<path d="M113.3226 93.7732
L113.3830 93.5313
" />
<path d="M113.3830 93.5313
L113.4435 93.4104
" />
<path d="M113.4435 93.4104
L113.5040 93.3499
" />
<path d="M113.5040 93.3499
L113.6249 93.2894
" />
<path d="M114.7740 93.8337
L114.6530 93.7732
" />
<path d="M114.6530 93.7732
L114.5925 93.7128
" />
<path d="M114.5925 93.7128
L114.5321 93.5918
" />
<path d="M114.5321 93.5918
L114.5321 93.5313
" />
<path d="M114.5321 93.5313
L114.5925 93.4104
" />
<path d="M114.5925 93.4104
L114.6530 93.3499
" />
<path d="M114.6530 93.3499
L114.7740 93.2894
" />
<path d="M114.7740 93.2894
L115.0159 93.2894
" />
<path d="M115.0159 93.2894
L115.1368 93.3499
" />
<path d="M115.1368 93.3499
L115.1973 93.4104
" />
<path d="M115.1973 93.4104
L115.2578 93.5313
" />
<path d="M115.2578 93.5313
L115.2578 93.5918
" />
<path d="M115.2578 93.5918
L115.1973 93.7128
" />
<path d="M115.1973 93.7128
L115.1368 93.7732
" />
<path d="M115.1368 93.7732
L115.0159 93.8337
" />
<path d="M115.0159 93.8337
L114.7740 93.8337
" />
<path d="M114.7740 93.8337
L114.6530 93.8942
" />
<path d="M114.6530 93.8942
L114.5925 93.9547
" />
<path d="M114.5925 93.9547
L114.5321 94.0756
" />
<path d="M114.5321 94.0756
L114.5321 94.3175
" />
<path d="M114.5321 94.3175
L114.5925 94.4385
" />
<path d="M114.5925 94.4385
L114.6530 94.4990
" />
<path d="M114.6530 94.4990
L114.7740 94.5594
" />
<path d="M114.7740 94.5594
L115.0159 94.5594
" />
<path d="M115.0159 94.5594
L115.1368 94.4990
" />
<path d="M115.1368 94.4990
L115.1973 94.4385
" />
<path d="M115.1973 94.4385
L115.2578 94.3175
" />
<path d="M115.2578 94.3175
L115.2578 94.0756
" />
<path d="M115.2578 94.0756
L115.1973 93.9547
" />
<path d="M115.1973 93.9547
L115.1368 93.8942
" />
<path d="M115.1368 93.8942
L115.0159 93.8337
" />
</g><path style="fill:none; 
stroke:#000000; stroke-width:0.1524; stroke-opacity:1; 
stroke-linecap:round; stroke-linejoin:round;fill:none"
d="M 88.9000,109.2200
88.9000,110.4900
90.1700,110.4900
88.9000,111.7600
87.6300,110.4900
88.9000,110.4900
" /> 
<path d="M88.9000 109.2200
L88.9000 109.2200
" />
<text x="88.9000" y="114.9350"
textLength="4.0737" font-size="1.6933" lengthAdjust="spacingAndGlyphs"
text-anchor="middle" opacity="0" stroke-opacity="0">GND</text>
<g class="stroked-text"><desc>GND</desc>
<path d="M87.9324 113.6700
L87.8114 113.6095
" />
<path d="M87.8114 113.6095
L87.6300 113.6095
" />
<path d="M87.6300 113.6095
L87.4486 113.6700
" />
<path d="M87.4486 113.6700
L87.3276 113.7910
" />
<path d="M87.3276 113.7910
L87.2671 113.9119
" />
<path d="M87.2671 113.9119
L87.2067 114.1538
" />
<path d="M87.2067 114.1538
L87.2067 114.3352
" />
<path d="M87.2067 114.3352
L87.2671 114.5771
" />
<path d="M87.2671 114.5771
L87.3276 114.6981
" />
<path d="M87.3276 114.6981
L87.4486 114.8191
" />
<path d="M87.4486 114.8191
L87.6300 114.8795
" />
<path d="M87.6300 114.8795
L87.7509 114.8795
" />
<path d="M87.7509 114.8795
L87.9324 114.8191
" />
<path d="M87.9324 114.8191
L87.9928 114.7586
" />
<path d="M87.9928 114.7586
L87.9928 114.3352
" />
<path d="M87.9928 114.3352
L87.7509 114.3352
" />
<path d="M88.5371 114.8795
L88.5371 113.6095
" />
<path d="M88.5371 113.6095
L89.2628 114.8795
" />
<path d="M89.2628 114.8795
L89.2628 113.6095
" />
<path d="M89.8676 114.8795
L89.8676 113.6095
" />
<path d="M89.8676 113.6095
L90.1700 113.6095
" />
<path d="M90.1700 113.6095
L90.3514 113.6700
" />
<path d="M90.3514 113.6700
L90.4724 113.7910
" />
<path d="M90.4724 113.7910
L90.5329 113.9119
" />
<path d="M90.5329 113.9119
L90.5933 114.1538
" />
<path d="M90.5933 114.1538
L90.5933 114.3352
" />
<path d="M90.5933 114.3352
L90.5329 114.5771
" />
<path d="M90.5329 114.5771
L90.4724 114.6981
" />
<path d="M90.4724 114.6981
L90.3514 114.8191
" />
<path d="M90.3514 114.8191
L90.1700 114.8795
" />
<path d="M90.1700 114.8795
L89.8676 114.8795
" />
</g><path style="fill:none; 
stroke:#000000; stroke-width:0.1524; stroke-opacity:1; 
stroke-linecap:round; stroke-linejoin:round;fill:none"
d="M 76.2000,101.6000
76.2000,102.8700
77.4700,102.8700
76.2000,104.1400
74.9300,102.8700
76.2000,102.8700
" /> 
<path d="M76.2000 101.6000
L76.2000 101.6000
" />
<text x="76.2000" y="107.3150"
textLength="4.0737" font-size="1.6933" lengthAdjust="spacingAndGlyphs"
text-anchor="middle" opacity="0" stroke-opacity="0">GND</text>
<g class="stroked-text"><desc>GND</desc>
<path d="M75.2324 106.0500
L75.1114 105.9895
" />
<path d="M75.1114 105.9895
L74.9300 105.9895
" />
<path d="M74.9300 105.9895
L74.7486 106.0500
" />
<path d="M74.7486 106.0500
L74.6276 106.1710
" />
<path d="M74.6276 106.1710
L74.5671 106.2919
" />
<path d="M74.5671 106.2919
L74.5067 106.5338
" />
<path d="M74.5067 106.5338
L74.5067 106.7152
" />
<path d="M74.5067 106.7152
L74.5671 106.9571
" />
<path d="M74.5671 106.9571
L74.6276 107.0781
" />
<path d="M74.6276 107.0781
L74.7486 107.1991
" />
<path d="M74.7486 107.1991
L74.9300 107.2595
" />
<path d="M74.9300 107.2595
L75.0509 107.2595
" />
<path d="M75.0509 107.2595
L75.2324 107.1991
" />
<path d="M75.2324 107.1991
L75.2928 107.1386
" />
<path d="M75.2928 107.1386
L75.2928 106.7152
" />
<path d="M75.2928 106.7152
L75.0509 106.7152
" />
<path d="M75.8371 107.2595
L75.8371 105.9895
" />
<path d="M75.8371 105.9895
L76.5628 107.2595
" />
<path d="M76.5628 107.2595
L76.5628 105.9895
" />
<path d="M77.1676 107.2595
L77.1676 105.9895
" />
<path d="M77.1676 105.9895
L77.4700 105.9895
" />
<path d="M77.4700 105.9895
L77.6514 106.0500
" />
<path d="M77.6514 106.0500
L77.7724 106.1710
" />
<path d="M77.7724 106.1710
L77.8329 106.2919
" />
<path d="M77.8329 106.2919
L77.8933 106.5338
" />
<path d="M77.8933 106.5338
L77.8933 106.7152
" />
<path d="M77.8933 106.7152
L77.8329 106.9571
" />
<path d="M77.8329 106.9571
L77.7724 107.0781
" />
<path d="M77.7724 107.0781
L77.6514 107.1991
" />
<path d="M77.6514 107.1991
L77.4700 107.2595
" />
<path d="M77.4700 107.2595
L77.1676 107.2595
" />
</g><path style="fill:none; 
stroke:#000000; stroke-width:0.1524; stroke-opacity:1; 
stroke-linecap:round; stroke-linejoin:round;fill:none"
d="M 74.9300,93.7260
77.4700,93.7260
" /> 
<path style="fill:none; 
stroke:#000000; stroke-width:0.1524; stroke-opacity:1; 
stroke-linecap:round; stroke-linejoin:round;fill:none"
d="M 75.4380,94.2340
74.9300,94.2340
" /> 
<path style="fill:none; 
stroke:#000000; stroke-width:0.1524; stroke-opacity:1; 
stroke-linecap:round; stroke-linejoin:round;fill:none"
d="M 76.4540,94.2340
75.9460,94.2340
" /> 
<path style="fill:none; 
stroke:#000000; stroke-width:0.1524; stroke-opacity:1; 
stroke-linecap:round; stroke-linejoin:round;fill:none"
d="M 77.4700,94.2340
76.9620,94.2340
" /> 
</g>
<g style="fill:none; 
stroke:#000000; stroke-width:0.2540; stroke-opacity:1; 
stroke-linecap:round; stroke-linejoin:round;">
<circle cx="76.2000" cy="93.9800" r="2.5400" /> 
</g>
<g style="fill:none; 
stroke:#000000; stroke-width:0.1524; stroke-opacity:1; 
stroke-linecap:round; stroke-linejoin:round;">
<text x="76.2000" y="92.7100"
textLength="1.7756" font-size="1.6933" lengthAdjust="spacingAndGlyphs"
text-anchor="middle" opacity="0" stroke-opacity="0">+</text>
<g class="stroked-text"><desc>+</desc>
<path d="M75.7161 92.1707
L76.6838 92.1707
" />
<path d="M76.1999 92.6545
L76.1999 91.6869
" />
</g><path d="M76.2000 91.4400
L76.2000 88.9000
" />
<path d="M76.2000 96.5200
L76.2000 99.0600
" />
<text x="81.2702" y="93.2151"
textLength="2.5013" font-size="1.6933" lengthAdjust="spacingAndGlyphs"
text-anchor="middle" opacity="0" stroke-opacity="0">V1</text>
<g class="stroked-text"><desc>V1</desc>
<path d="M80.2421 91.8896
L80.6654 93.1596
" />
<path d="M80.6654 93.1596
L81.0888 91.8896
" />
<path d="M82.1774 93.1596
L81.4517 93.1596
" />
<path d="M81.8145 93.1596
L81.8145 91.8896
" />
<path d="M81.8145 91.8896
L81.6936 92.0711
" />
<path d="M81.6936 92.0711
L81.5726 92.1920
" />
<path d="M81.5726 92.1920
L81.4517 92.2525
" />
</g><text x="80.7259" y="95.7551"
textLength="1.4127" font-size="1.6933" lengthAdjust="spacingAndGlyphs"
text-anchor="middle" opacity="0" stroke-opacity="0">9</text>
<g class="stroked-text"><desc>9</desc>
<path d="M80.4840 95.6996
L80.7259 95.6996
" />
<path d="M80.7259 95.6996
L80.8469 95.6392
" />
<path d="M80.8469 95.6392
L80.9073 95.5787
" />
<path d="M80.9073 95.5787
L81.0283 95.3972
" />
<path d="M81.0283 95.3972
L81.0888 95.1553
" />
<path d="M81.0888 95.1553
L81.0888 94.6715
" />
<path d="M81.0888 94.6715
L81.0283 94.5506
" />
<path d="M81.0283 94.5506
L80.9678 94.4901
" />
<path d="M80.9678 94.4901
L80.8469 94.4296
" />
<path d="M80.8469 94.4296
L80.6050 94.4296
" />
<path d="M80.6050 94.4296
L80.4840 94.4901
" />
<path d="M80.4840 94.4901
L80.4235 94.5506
" />
<path d="M80.4235 94.5506
L80.3631 94.6715
" />
<path d="M80.3631 94.6715
L80.3631 94.9739
" />
<path d="M80.3631 94.9739
L80.4235 95.0949
" />
<path d="M80.4235 95.0949
L80.4840 95.1553
" />
<path d="M80.4840 95.1553
L80.6050 95.2158
" />
<path d="M80.6050 95.2158
L80.8469 95.2158
" />
<path d="M80.8469 95.2158
L80.9678 95.1553
" />
<path d="M80.9678 95.1553
L81.0283 95.0949
" />
<path d="M81.0283 95.0949
L81.0888 94.9739
" />
</g><rect x="122.174000" y="90.424000" width="4.572000" height="0.508000" rx="0.000000" />
<path style="fill:none; 
stroke:#000000; stroke-width:0.1524; stroke-opacity:1; 
stroke-linecap:round; stroke-linejoin:round;fill:none"
d="M 122.6820,89.1540
123.6980,89.1540
" /> 
<path style="fill:none; 
stroke:#000000; stroke-width:0.1524; stroke-opacity:1; 
stroke-linecap:round; stroke-linejoin:round;fill:none"
d="M 123.1900,88.6460
123.1900,89.6620
" /> 
</g>
<g style="fill:#000000; fill-opacity:1.0000; 
stroke:#000000; stroke-width:0.1524; stroke-opacity:1; 
stroke-linecap:round; stroke-linejoin:round;">
<rect x="122.174000" y="91.948000" width="4.572000" height="0.508000" rx="0.000000" />
</g>
<g style="fill:none; 
stroke:#000000; stroke-width:0.1524; stroke-opacity:1; 
stroke-linecap:round; stroke-linejoin:round;">
<path d="M124.4600 90.4240
L124.4600 87.6300
" />
<path d="M124.4600 92.4560
L124.4600 95.2500
" />
<text x="129.6209" y="89.9159"
textLength="2.6827" font-size="1.6933" lengthAdjust="spacingAndGlyphs"
text-anchor="middle" opacity="0" stroke-opacity="0">C2</text>
<g class="stroked-text"><desc>C2</desc>
<path d="M129.4092 89.7395
L129.3488 89.8000
" />
<path d="M129.3488 89.8000
L129.1673 89.8604
" />
<path d="M129.1673 89.8604
L129.0464 89.8604
" />
<path d="M129.0464 89.8604
L128.8650 89.8000
" />
<path d="M128.8650 89.8000
L128.7440 89.6790
" />
<path d="M128.7440 89.6790
L128.6835 89.5580
" />
<path d="M128.6835 89.5580
L128.6231 89.3161
" />
<path d="M128.6231 89.3161
L128.6231 89.1347
" />
<path d="M128.6231 89.1347
L128.6835 88.8928
" />
<path d="M128.6835 88.8928
L128.7440 88.7719
" />
<path d="M128.7440 88.7719
L128.8650 88.6509
" />
<path d="M128.8650 88.6509
L129.0464 88.5904
" />
<path d="M129.0464 88.5904
L129.1673 88.5904
" />
<path d="M129.1673 88.5904
L129.3488 88.6509
" />
<path d="M129.3488 88.6509
L129.4092 88.7114
" />
<path d="M129.8931 88.7114
L129.9535 88.6509
" />
<path d="M129.9535 88.6509
L130.0745 88.5904
" />
<path d="M130.0745 88.5904
L130.3769 88.5904
" />
<path d="M130.3769 88.5904
L130.4978 88.6509
" />
<path d="M130.4978 88.6509
L130.5583 88.7114
" />
<path d="M130.5583 88.7114
L130.6188 88.8323
" />
<path d="M130.6188 88.8323
L130.6188 88.9533
" />
<path d="M130.6188 88.9533
L130.5583 89.1347
" />
<path d="M130.5583 89.1347
L129.8326 89.8604
" />
<path d="M129.8326 89.8604
L130.6188 89.8604
" />
</g><text x="130.7699" y="92.4559"
textLength="4.9807" font-size="1.6933" lengthAdjust="spacingAndGlyphs"
text-anchor="middle" opacity="0" stroke-opacity="0">100u</text>
<g class="stroked-text"><desc>100u</desc>
<path d="M129.3488 92.4004
L128.6231 92.4004
" />
<path d="M128.9859 92.4004
L128.9859 91.1304
" />
<path d="M128.9859 91.1304
L128.8650 91.3119
" />
<path d="M128.8650 91.3119
L128.7440 91.4328
" />
<path d="M128.7440 91.4328
L128.6231 91.4933
" />
<path d="M130.1349 91.1304
L130.2559 91.1304
" />
<path d="M130.2559 91.1304
L130.3768 91.1909
" />
<path d="M130.3768 91.1909
L130.4373 91.2514
" />
<path d="M130.4373 91.2514
L130.4978 91.3723
" />
<path d="M130.4978 91.3723
L130.5583 91.6142
" />
<path d="M130.5583 91.6142
L130.5583 91.9166
" />
<path d="M130.5583 91.9166
L130.4978 92.1585
" />
<path d="M130.4978 92.1585
L130.4373 92.2795
" />
<path d="M130.4373 92.2795
L130.3768 92.3400
" />
<path d="M130.3768 92.3400
L130.2559 92.4004
" />
<path d="M130.2559 92.4004
L130.1349 92.4004
" />
<path d="M130.1349 92.4004
L130.0140 92.3400
" />
<path d="M130.0140 92.3400
L129.9535 92.2795
" />
<path d="M129.9535 92.2795
L129.8930 92.1585
" />
<path d="M129.8930 92.1585
L129.8326 91.9166
" />
<path d="M129.8326 91.9166
L129.8326 91.6142
" />
<path d="M129.8326 91.6142
L129.8930 91.3723
" />
<path d="M129.8930 91.3723
L129.9535 91.2514
" />
<path d="M129.9535 91.2514
L130.0140 91.1909
" />
<path d="M130.0140 91.1909
L130.1349 91.1304
" />
<path d="M131.3444 91.1304
L131.4654 91.1304
" />
<path d="M131.4654 91.1304
L131.5863 91.1909
" />
<path d="M131.5863 91.1909
L131.6468 91.2514
" />
<path d="M131.6468 91.2514
L131.7073 91.3723
" />
<path d="M131.7073 91.3723
L131.7678 91.6142
" />
<path d="M131.7678 91.6142
L131.7678 91.9166
" />
<path d="M131.7678 91.9166
L131.7073 92.1585
" />
<path d="M131.7073 92.1585
L131.6468 92.2795
" />
<path d="M131.6468 92.2795
L131.5863 92.3400
" />
<path d="M131.5863 92.3400
L131.4654 92.4004
" />
<path d="M131.4654 92.4004
L131.3444 92.4004
" />
<path d="M131.3444 92.4004
L131.2235 92.3400
" />
<path d="M131.2235 92.3400
L131.1630 92.2795
" />
<path d="M131.1630 92.2795
L131.1025 92.1585
" />
<path d="M131.1025 92.1585
L131.0421 91.9166
" />
<path d="M131.0421 91.9166
L131.0421 91.6142
" />
<path d="M131.0421 91.6142
L131.1025 91.3723
" />
<path d="M131.1025 91.3723
L131.1630 91.2514
" />
<path d="M131.1630 91.2514
L131.2235 91.1909
" />
<path d="M131.2235 91.1909
L131.3444 91.1304
" />
<path d="M132.8563 91.5538
L132.8563 92.4004
" />
<path d="M132.3120 91.5538
L132.3120 92.2190
" />
<path d="M132.3120 92.2190
L132.3725 92.3400
" />
<path d="M132.3725 92.3400
L132.4935 92.4004
" />
<path d="M132.4935 92.4004
L132.6749 92.4004
" />
<path d="M132.6749 92.4004
L132.7958 92.3400
" />
<path d="M132.7958 92.3400
L132.8563 92.2795
" />
</g><path style="fill:none; 
stroke:#000000; stroke-width:0.1524; stroke-opacity:1; 
stroke-linecap:round; stroke-linejoin:round;fill:none"
d="M 86.8680,103.6320
87.5030,103.6320
87.7570,102.1080
88.7730,102.1080
89.0270,103.6320
90.0430,103.6320
90.2970,102.1080
90.9320,102.1080
" /> 
</g>
<g style="fill:none; 
stroke:#000000; stroke-width:0.2540; stroke-opacity:1; 
stroke-linecap:round; stroke-linejoin:round;">
<circle cx="88.9000" cy="102.8700" r="2.5400" /> 
</g>
<g style="fill:none; 
stroke:#000000; stroke-width:0.1524; stroke-opacity:1; 
stroke-linecap:round; stroke-linejoin:round;">
<text x="88.9000" y="101.6000"
textLength="1.7756" font-size="1.6933" lengthAdjust="spacingAndGlyphs"
text-anchor="middle" opacity="0" stroke-opacity="0">+</text>
<g class="stroked-text"><desc>+</desc>
<path d="M88.4161 101.0607
L89.3838 101.0607
" />
<path d="M88.8999 101.5445
L88.8999 100.5769
" />
</g><path d="M88.9000 100.3300
L88.9000 97.7900
" />
<path d="M88.9000 105.4100
L88.9000 107.9500
" />
<text x="93.9702" y="100.8351"
textLength="2.5013" font-size="1.6933" lengthAdjust="spacingAndGlyphs"
text-anchor="middle" opacity="0" stroke-opacity="0">V2</text>
<g class="stroked-text"><desc>V2</desc>
<path d="M92.9421 99.5096
L93.3654 100.7796
" />
<path d="M93.3654 100.7796
L93.7888 99.5096
" />
<path d="M94.1517 99.6306
L94.2121 99.5701
" />
<path d="M94.2121 99.5701
L94.3331 99.5096
" />
<path d="M94.3331 99.5096
L94.6355 99.5096
" />
<path d="M94.6355 99.5096
L94.7564 99.5701
" />
<path d="M94.7564 99.5701
L94.8169 99.6306
" />
<path d="M94.8169 99.6306
L94.8774 99.7515
" />
<path d="M94.8774 99.7515
L94.8774 99.8725
" />
<path d="M94.8774 99.8725
L94.8169 100.0539
" />
<path d="M94.8169 100.0539
L94.0912 100.7796
" />
<path d="M94.0912 100.7796
L94.8774 100.7796
" />
</g><text x="96.3590" y="103.3751"
textLength="7.2789" font-size="1.6933" lengthAdjust="spacingAndGlyphs"
text-anchor="middle" opacity="0" stroke-opacity="0">VPULSE</text>
<g class="stroked-text"><desc>VPULSE</desc>
<path d="M92.9421 102.0496
L93.3654 103.3196
" />
<path d="M93.3654 103.3196
L93.7888 102.0496
" />
<path d="M94.2121 103.3196
L94.2121 102.0496
" />
<path d="M94.2121 102.0496
L94.6959 102.0496
" />
<path d="M94.6959 102.0496
L94.8169 102.1101
" />
<path d="M94.8169 102.1101
L94.8774 102.1706
" />
<path d="M94.8774 102.1706
L94.9378 102.2915
" />
<path d="M94.9378 102.2915
L94.9378 102.4730
" />
<path d="M94.9378 102.4730
L94.8774 102.5939
" />
<path d="M94.8774 102.5939
L94.8169 102.6544
" />
<path d="M94.8169 102.6544
L94.6959 102.7149
" />
<path d="M94.6959 102.7149
L94.2121 102.7149
" />
<path d="M95.4821 102.0496
L95.4821 103.0777
" />
<path d="M95.4821 103.0777
L95.5426 103.1987
" />
<path d="M95.5426 103.1987
L95.6031 103.2592
" />
<path d="M95.6031 103.2592
L95.7240 103.3196
" />
<path d="M95.7240 103.3196
L95.9659 103.3196
" />
<path d="M95.9659 103.3196
L96.0869 103.2592
" />
<path d="M96.0869 103.2592
L96.1474 103.1987
" />
<path d="M96.1474 103.1987
L96.2078 103.0777
" />
<path d="M96.2078 103.0777
L96.2078 102.0496
" />
<path d="M97.4174 103.3196
L96.8126 103.3196
" />
<path d="M96.8126 103.3196
L96.8126 102.0496
" />
<path d="M97.7803 103.2592
L97.9617 103.3196
" />
<path d="M97.9617 103.3196
L98.2641 103.3196
" />
<path d="M98.2641 103.3196
L98.3850 103.2592
" />
<path d="M98.3850 103.2592
L98.4455 103.1987
" />
<path d="M98.4455 103.1987
L98.5060 103.0777
" />
<path d="M98.5060 103.0777
L98.5060 102.9568
" />
<path d="M98.5060 102.9568
L98.4455 102.8358
" />
<path d="M98.4455 102.8358
L98.3850 102.7753
" />
<path d="M98.3850 102.7753
L98.2641 102.7149
" />
<path d="M98.2641 102.7149
L98.0222 102.6544
" />
<path d="M98.0222 102.6544
L97.9012 102.5939
" />
<path d="M97.9012 102.5939
L97.8407 102.5334
" />
<path d="M97.8407 102.5334
L97.7803 102.4125
" />
<path d="M97.7803 102.4125
L97.7803 102.2915
" />
<path d="M97.7803 102.2915
L97.8407 102.1706
" />
<path d="M97.8407 102.1706
L97.9012 102.1101
" />
<path d="M97.9012 102.1101
L98.0222 102.0496
" />
<path d="M98.0222 102.0496
L98.3245 102.0496
" />
<path d="M98.3245 102.0496
L98.5060 102.1101
" />
<path d="M99.0502 102.6544
L99.4736 102.6544
" />
<path d="M99.6550 103.3196
L99.0502 103.3196
" />
<path d="M99.0502 103.3196
L99.0502 102.0496
" />
<path d="M99.0502 102.0496
L99.6550 102.0496
" />
</g><text x="116.9207" y="105.9151"
textLength="48.4022" font-size="1.6933" lengthAdjust="spacingAndGlyphs"
text-anchor="middle" opacity="0" stroke-opacity="0">y1=0 y2=5 td=2n tr=2n tf=2n tw=0.3m per=1m</text>
<g class="stroked-text"><desc>y1=0 y2=5 td=2n tr=2n tf=2n tw=0.3m per=1m</desc>
<path d="M93.0026 105.0130
L93.3050 105.8596
" />
<path d="M93.6073 105.0130
L93.3050 105.8596
" />
<path d="M93.3050 105.8596
L93.1840 106.1620
" />
<path d="M93.1840 106.1620
L93.1235 106.2225
" />
<path d="M93.1235 106.2225
L93.0026 106.2830
" />
<path d="M94.7564 105.8596
L94.0307 105.8596
" />
<path d="M94.3935 105.8596
L94.3935 104.5896
" />
<path d="M94.3935 104.5896
L94.2726 104.7711
" />
<path d="M94.2726 104.7711
L94.1516 104.8920
" />
<path d="M94.1516 104.8920
L94.0307 104.9525
" />
<path d="M95.3006 105.1944
L96.2683 105.1944
" />
<path d="M96.2683 105.5572
L95.3006 105.5572
" />
<path d="M97.1149 104.5896
L97.2359 104.5896
" />
<path d="M97.2359 104.5896
L97.3568 104.6501
" />
<path d="M97.3568 104.6501
L97.4173 104.7106
" />
<path d="M97.4173 104.7106
L97.4778 104.8315
" />
<path d="M97.4778 104.8315
L97.5383 105.0734
" />
<path d="M97.5383 105.0734
L97.5383 105.3758
" />
<path d="M97.5383 105.3758
L97.4778 105.6177
" />
<path d="M97.4778 105.6177
L97.4173 105.7387
" />
<path d="M97.4173 105.7387
L97.3568 105.7992
" />
<path d="M97.3568 105.7992
L97.2359 105.8596
" />
<path d="M97.2359 105.8596
L97.1149 105.8596
" />
<path d="M97.1149 105.8596
L96.9940 105.7992
" />
<path d="M96.9940 105.7992
L96.9335 105.7387
" />
<path d="M96.9335 105.7387
L96.8730 105.6177
" />
<path d="M96.8730 105.6177
L96.8126 105.3758
" />
<path d="M96.8126 105.3758
L96.8126 105.0734
" />
<path d="M96.8126 105.0734
L96.8730 104.8315
" />
<path d="M96.8730 104.8315
L96.9335 104.7106
" />
<path d="M96.9335 104.7106
L96.9940 104.6501
" />
<path d="M96.9940 104.6501
L97.1149 104.5896
" />
<path d="M98.9292 105.0130
L99.2316 105.8596
" />
<path d="M99.5339 105.0130
L99.2316 105.8596
" />
<path d="M99.2316 105.8596
L99.1106 106.1620
" />
<path d="M99.1106 106.1620
L99.0501 106.2225
" />
<path d="M99.0501 106.2225
L98.9292 106.2830
" />
<path d="M99.9573 104.7106
L100.0177 104.6501
" />
<path d="M100.0177 104.6501
L100.1387 104.5896
" />
<path d="M100.1387 104.5896
L100.4411 104.5896
" />
<path d="M100.4411 104.5896
L100.5620 104.6501
" />
<path d="M100.5620 104.6501
L100.6225 104.7106
" />
<path d="M100.6225 104.7106
L100.6830 104.8315
" />
<path d="M100.6830 104.8315
L100.6830 104.9525
" />
<path d="M100.6830 104.9525
L100.6225 105.1339
" />
<path d="M100.6225 105.1339
L99.8968 105.8596
" />
<path d="M99.8968 105.8596
L100.6830 105.8596
" />
<path d="M101.2272 105.1944
L102.1949 105.1944
" />
<path d="M102.1949 105.5572
L101.2272 105.5572
" />
<path d="M103.4044 104.5896
L102.7996 104.5896
" />
<path d="M102.7996 104.5896
L102.7392 105.1944
" />
<path d="M102.7392 105.1944
L102.7996 105.1339
" />
<path d="M102.7996 105.1339
L102.9206 105.0734
" />
<path d="M102.9206 105.0734
L103.2230 105.0734
" />
<path d="M103.2230 105.0734
L103.3439 105.1339
" />
<path d="M103.3439 105.1339
L103.4044 105.1944
" />
<path d="M103.4044 105.1944
L103.4649 105.3153
" />
<path d="M103.4649 105.3153
L103.4649 105.6177
" />
<path d="M103.4649 105.6177
L103.4044 105.7387
" />
<path d="M103.4044 105.7387
L103.3439 105.7992
" />
<path d="M103.3439 105.7992
L103.2230 105.8596
" />
<path d="M103.2230 105.8596
L102.9206 105.8596
" />
<path d="M102.9206 105.8596
L102.7996 105.7992
" />
<path d="M102.7996 105.7992
L102.7392 105.7387
" />
<path d="M104.7953 105.0130
L105.2791 105.0130
" />
<path d="M104.9767 104.5896
L104.9767 105.6782
" />
<path d="M104.9767 105.6782
L105.0372 105.7992
" />
<path d="M105.0372 105.7992
L105.1582 105.8596
" />
<path d="M105.1582 105.8596
L105.2791 105.8596
" />
<path d="M106.2467 105.8596
L106.2467 104.5896
" />
<path d="M106.2467 105.7992
L106.1258 105.8596
" />
<path d="M106.1258 105.8596
L105.8839 105.8596
" />
<path d="M105.8839 105.8596
L105.7629 105.7992
" />
<path d="M105.7629 105.7992
L105.7024 105.7387
" />
<path d="M105.7024 105.7387
L105.6420 105.6177
" />
<path d="M105.6420 105.6177
L105.6420 105.2549
" />
<path d="M105.6420 105.2549
L105.7024 105.1339
" />
<path d="M105.7024 105.1339
L105.7629 105.0734
" />
<path d="M105.7629 105.0734
L105.8839 105.0130
" />
<path d="M105.8839 105.0130
L106.1258 105.0130
" />
<path d="M106.1258 105.0130
L106.2467 105.0734
" />
<path d="M106.8514 105.1944
L107.8191 105.1944
" />
<path d="M107.8191 105.5572
L106.8514 105.5572
" />
<path d="M108.3634 104.7106
L108.4238 104.6501
" />
<path d="M108.4238 104.6501
L108.5448 104.5896
" />
<path d="M108.5448 104.5896
L108.8472 104.5896
" />
<path d="M108.8472 104.5896
L108.9681 104.6501
" />
<path d="M108.9681 104.6501
L109.0286 104.7106
" />
<path d="M109.0286 104.7106
L109.0891 104.8315
" />
<path d="M109.0891 104.8315
L109.0891 104.9525
" />
<path d="M109.0891 104.9525
L109.0286 105.1339
" />
<path d="M109.0286 105.1339
L108.3029 105.8596
" />
<path d="M108.3029 105.8596
L109.0891 105.8596
" />
<path d="M109.6333 105.0130
L109.6333 105.8596
" />
<path d="M109.6333 105.1339
L109.6938 105.0734
" />
<path d="M109.6938 105.0734
L109.8148 105.0130
" />
<path d="M109.8148 105.0130
L109.9962 105.0130
" />
<path d="M109.9962 105.0130
L110.1171 105.0734
" />
<path d="M110.1171 105.0734
L110.1776 105.1944
" />
<path d="M110.1776 105.1944
L110.1776 105.8596
" />
<path d="M111.5685 105.0130
L112.0523 105.0130
" />
<path d="M111.7499 104.5896
L111.7499 105.6782
" />
<path d="M111.7499 105.6782
L111.8104 105.7992
" />
<path d="M111.8104 105.7992
L111.9314 105.8596
" />
<path d="M111.9314 105.8596
L112.0523 105.8596
" />
<path d="M112.4756 105.8596
L112.4756 105.0130
" />
<path d="M112.4756 105.2549
L112.5361 105.1339
" />
<path d="M112.5361 105.1339
L112.5966 105.0734
" />
<path d="M112.5966 105.0734
L112.7175 105.0130
" />
<path d="M112.7175 105.0130
L112.8385 105.0130
" />
<path d="M113.2618 105.1944
L114.2295 105.1944
" />
<path d="M114.2295 105.5572
L113.2618 105.5572
" />
<path d="M114.7738 104.7106
L114.8342 104.6501
" />
<path d="M114.8342 104.6501
L114.9552 104.5896
" />
<path d="M114.9552 104.5896
L115.2576 104.5896
" />
<path d="M115.2576 104.5896
L115.3785 104.6501
" />
<path d="M115.3785 104.6501
L115.4390 104.7106
" />
<path d="M115.4390 104.7106
L115.4995 104.8315
" />
<path d="M115.4995 104.8315
L115.4995 104.9525
" />
<path d="M115.4995 104.9525
L115.4390 105.1339
" />
<path d="M115.4390 105.1339
L114.7133 105.8596
" />
<path d="M114.7133 105.8596
L115.4995 105.8596
" />
<path d="M116.0437 105.0130
L116.0437 105.8596
" />
<path d="M116.0437 105.1339
L116.1042 105.0734
" />
<path d="M116.1042 105.0734
L116.2252 105.0130
" />
<path d="M116.2252 105.0130
L116.4066 105.0130
" />
<path d="M116.4066 105.0130
L116.5275 105.0734
" />
<path d="M116.5275 105.0734
L116.5880 105.1944
" />
<path d="M116.5880 105.1944
L116.5880 105.8596
" />
<path d="M117.9789 105.0130
L118.4627 105.0130
" />
<path d="M118.1603 104.5896
L118.1603 105.6782
" />
<path d="M118.1603 105.6782
L118.2208 105.7992
" />
<path d="M118.2208 105.7992
L118.3418 105.8596
" />
<path d="M118.3418 105.8596
L118.4627 105.8596
" />
<path d="M118.7046 105.0130
L119.1884 105.0130
" />
<path d="M118.8860 105.8596
L118.8860 104.7711
" />
<path d="M118.8860 104.7711
L118.9465 104.6501
" />
<path d="M118.9465 104.6501
L119.0675 104.5896
" />
<path d="M119.0675 104.5896
L119.1884 104.5896
" />
<path d="M119.6117 105.1944
L120.5794 105.1944
" />
<path d="M120.5794 105.5572
L119.6117 105.5572
" />
<path d="M121.1237 104.7106
L121.1841 104.6501
" />
<path d="M121.1841 104.6501
L121.3051 104.5896
" />
<path d="M121.3051 104.5896
L121.6075 104.5896
" />
<path d="M121.6075 104.5896
L121.7284 104.6501
" />
<path d="M121.7284 104.6501
L121.7889 104.7106
" />
<path d="M121.7889 104.7106
L121.8494 104.8315
" />
<path d="M121.8494 104.8315
L121.8494 104.9525
" />
<path d="M121.8494 104.9525
L121.7889 105.1339
" />
<path d="M121.7889 105.1339
L121.0632 105.8596
" />
<path d="M121.0632 105.8596
L121.8494 105.8596
" />
<path d="M122.3936 105.0130
L122.3936 105.8596
" />
<path d="M122.3936 105.1339
L122.4541 105.0734
" />
<path d="M122.4541 105.0734
L122.5751 105.0130
" />
<path d="M122.5751 105.0130
L122.7565 105.0130
" />
<path d="M122.7565 105.0130
L122.8774 105.0734
" />
<path d="M122.8774 105.0734
L122.9379 105.1944
" />
<path d="M122.9379 105.1944
L122.9379 105.8596
" />
<path d="M124.3288 105.0130
L124.8126 105.0130
" />
<path d="M124.5102 104.5896
L124.5102 105.6782
" />
<path d="M124.5102 105.6782
L124.5707 105.7992
" />
<path d="M124.5707 105.7992
L124.6917 105.8596
" />
<path d="M124.6917 105.8596
L124.8126 105.8596
" />
<path d="M125.1150 105.0130
L125.3569 105.8596
" />
<path d="M125.3569 105.8596
L125.5988 105.2549
" />
<path d="M125.5988 105.2549
L125.8407 105.8596
" />
<path d="M125.8407 105.8596
L126.0826 105.0130
" />
<path d="M126.5664 105.1944
L127.5341 105.1944
" />
<path d="M127.5341 105.5572
L126.5664 105.5572
" />
<path d="M128.3807 104.5896
L128.5017 104.5896
" />
<path d="M128.5017 104.5896
L128.6226 104.6501
" />
<path d="M128.6226 104.6501
L128.6831 104.7106
" />
<path d="M128.6831 104.7106
L128.7436 104.8315
" />
<path d="M128.7436 104.8315
L128.8041 105.0734
" />
<path d="M128.8041 105.0734
L128.8041 105.3758
" />
<path d="M128.8041 105.3758
L128.7436 105.6177
" />
<path d="M128.7436 105.6177
L128.6831 105.7387
" />
<path d="M128.6831 105.7387
L128.6226 105.7992
" />
<path d="M128.6226 105.7992
L128.5017 105.8596
" />
<path d="M128.5017 105.8596
L128.3807 105.8596
" />
<path d="M128.3807 105.8596
L128.2598 105.7992
" />
<path d="M128.2598 105.7992
L128.1993 105.7387
" />
<path d="M128.1993 105.7387
L128.1388 105.6177
" />
<path d="M128.1388 105.6177
L128.0784 105.3758
" />
<path d="M128.0784 105.3758
L128.0784 105.0734
" />
<path d="M128.0784 105.0734
L128.1388 104.8315
" />
<path d="M128.1388 104.8315
L128.1993 104.7106
" />
<path d="M128.1993 104.7106
L128.2598 104.6501
" />
<path d="M128.2598 104.6501
L128.3807 104.5896
" />
<path d="M129.3483 105.7387
L129.4088 105.7992
" />
<path d="M129.4088 105.7992
L129.3483 105.8596
" />
<path d="M129.3483 105.8596
L129.2879 105.7992
" />
<path d="M129.2879 105.7992
L129.3483 105.7387
" />
<path d="M129.3483 105.7387
L129.3483 105.8596
" />
<path d="M129.8322 104.5896
L130.6184 104.5896
" />
<path d="M130.6184 104.5896
L130.1950 105.0734
" />
<path d="M130.1950 105.0734
L130.3765 105.0734
" />
<path d="M130.3765 105.0734
L130.4974 105.1339
" />
<path d="M130.4974 105.1339
L130.5579 105.1944
" />
<path d="M130.5579 105.1944
L130.6184 105.3153
" />
<path d="M130.6184 105.3153
L130.6184 105.6177
" />
<path d="M130.6184 105.6177
L130.5579 105.7387
" />
<path d="M130.5579 105.7387
L130.4974 105.7992
" />
<path d="M130.4974 105.7992
L130.3765 105.8596
" />
<path d="M130.3765 105.8596
L130.0136 105.8596
" />
<path d="M130.0136 105.8596
L129.8927 105.7992
" />
<path d="M129.8927 105.7992
L129.8322 105.7387
" />
<path d="M131.1626 105.8596
L131.1626 105.0130
" />
<path d="M131.1626 105.1339
L131.2231 105.0734
" />
<path d="M131.2231 105.0734
L131.3441 105.0130
" />
<path d="M131.3441 105.0130
L131.5255 105.0130
" />
<path d="M131.5255 105.0130
L131.6464 105.0734
" />
<path d="M131.6464 105.0734
L131.7069 105.1944
" />
<path d="M131.7069 105.1944
L131.7069 105.8596
" />
<path d="M131.7069 105.1944
L131.7674 105.0734
" />
<path d="M131.7674 105.0734
L131.8883 105.0130
" />
<path d="M131.8883 105.0130
L132.0698 105.0130
" />
<path d="M132.0698 105.0130
L132.1907 105.0734
" />
<path d="M132.1907 105.0734
L132.2512 105.1944
" />
<path d="M132.2512 105.1944
L132.2512 105.8596
" />
<path d="M133.8235 105.0130
L133.8235 106.2830
" />
<path d="M133.8235 105.0734
L133.9445 105.0130
" />
<path d="M133.9445 105.0130
L134.1864 105.0130
" />
<path d="M134.1864 105.0130
L134.3073 105.0734
" />
<path d="M134.3073 105.0734
L134.3678 105.1339
" />
<path d="M134.3678 105.1339
L134.4283 105.2549
" />
<path d="M134.4283 105.2549
L134.4283 105.6177
" />
<path d="M134.4283 105.6177
L134.3678 105.7387
" />
<path d="M134.3678 105.7387
L134.3073 105.7992
" />
<path d="M134.3073 105.7992
L134.1864 105.8596
" />
<path d="M134.1864 105.8596
L133.9445 105.8596
" />
<path d="M133.9445 105.8596
L133.8235 105.7992
" />
<path d="M135.4563 105.7992
L135.3354 105.8596
" />
<path d="M135.3354 105.8596
L135.0935 105.8596
" />
<path d="M135.0935 105.8596
L134.9725 105.7992
" />
<path d="M134.9725 105.7992
L134.9121 105.6782
" />
<path d="M134.9121 105.6782
L134.9121 105.1944
" />
<path d="M134.9121 105.1944
L134.9725 105.0734
" />
<path d="M134.9725 105.0734
L135.0935 105.0130
" />
<path d="M135.0935 105.0130
L135.3354 105.0130
" />
<path d="M135.3354 105.0130
L135.4563 105.0734
" />
<path d="M135.4563 105.0734
L135.5168 105.1944
" />
<path d="M135.5168 105.1944
L135.5168 105.3153
" />
<path d="M135.5168 105.3153
L134.9121 105.4363
" />
<path d="M136.0611 105.8596
L136.0611 105.0130
" />
<path d="M136.0611 105.2549
L136.1216 105.1339
" />
<path d="M136.1216 105.1339
L136.1821 105.0734
" />
<path d="M136.1821 105.0734
L136.3030 105.0130
" />
<path d="M136.3030 105.0130
L136.4240 105.0130
" />
<path d="M136.8473 105.1944
L137.8150 105.1944
" />
<path d="M137.8150 105.5572
L136.8473 105.5572
" />
<path d="M139.0850 105.8596
L138.3593 105.8596
" />
<path d="M138.7221 105.8596
L138.7221 104.5896
" />
<path d="M138.7221 104.5896
L138.6012 104.7711
" />
<path d="M138.6012 104.7711
L138.4802 104.8920
" />
<path d="M138.4802 104.8920
L138.3593 104.9525
" />
<path d="M139.6292 105.8596
L139.6292 105.0130
" />
<path d="M139.6292 105.1339
L139.6897 105.0734
" />
<path d="M139.6897 105.0734
L139.8107 105.0130
" />
<path d="M139.8107 105.0130
L139.9921 105.0130
" />
<path d="M139.9921 105.0130
L140.1130 105.0734
" />
<path d="M140.1130 105.0734
L140.1735 105.1944
" />
<path d="M140.1735 105.1944
L140.1735 105.8596
" />
<path d="M140.1735 105.1944
L140.2340 105.0734
" />
<path d="M140.2340 105.0734
L140.3549 105.0130
" />
<path d="M140.3549 105.0130
L140.5364 105.0130
" />
<path d="M140.5364 105.0130
L140.6573 105.0734
" />
<path d="M140.6573 105.0734
L140.7178 105.1944
" />
<path d="M140.7178 105.1944
L140.7178 105.8596
" />
</g></g>
<g style="fill:none; 
stroke:#000000; stroke-width:0.2540; stroke-opacity:1; 
stroke-linecap:round; stroke-linejoin:round;">
<rect x="91.440000" y="91.694000" width="5.080000" height="2.032000" rx="0.000000" />
</g>
<g style="fill:none; 
stroke:#000000; stroke-width:0.1524; stroke-opacity:1; 
stroke-linecap:round; stroke-linejoin:round;">
<path d="M91.4400 92.7100
L90.1700 92.7100
" />
<path d="M96.5200 92.7100
L97.7900 92.7100
" />
<text x="93.9799" y="86.9949"
textLength="2.6827" font-size="1.6933" lengthAdjust="spacingAndGlyphs"
text-anchor="middle" opacity="0" stroke-opacity="0">R1</text>
<g class="stroked-text"><desc>R1</desc>
<path d="M93.7682 86.9394
L93.3449 86.3347
" />
<path d="M93.0425 86.9394
L93.0425 85.6694
" />
<path d="M93.0425 85.6694
L93.5263 85.6694
" />
<path d="M93.5263 85.6694
L93.6473 85.7299
" />
<path d="M93.6473 85.7299
L93.7078 85.7904
" />
<path d="M93.7078 85.7904
L93.7682 85.9113
" />
<path d="M93.7682 85.9113
L93.7682 86.0928
" />
<path d="M93.7682 86.0928
L93.7078 86.2137
" />
<path d="M93.7078 86.2137
L93.6473 86.2742
" />
<path d="M93.6473 86.2742
L93.5263 86.3347
" />
<path d="M93.5263 86.3347
L93.0425 86.3347
" />
<path d="M94.9778 86.9394
L94.2521 86.9394
" />
<path d="M94.6149 86.9394
L94.6149 85.6694
" />
<path d="M94.6149 85.6694
L94.4940 85.8509
" />
<path d="M94.4940 85.8509
L94.3730 85.9718
" />
<path d="M94.3730 85.9718
L94.2521 86.0323
" />
</g><text x="93.9799" y="89.5349"
textLength="3.8317" font-size="1.6933" lengthAdjust="spacingAndGlyphs"
text-anchor="middle" opacity="0" stroke-opacity="0">100</text>
<g class="stroked-text"><desc>100</desc>
<path d="M93.1333 89.4794
L92.4076 89.4794
" />
<path d="M92.7704 89.4794
L92.7704 88.2094
" />
<path d="M92.7704 88.2094
L92.6495 88.3909
" />
<path d="M92.6495 88.3909
L92.5285 88.5118
" />
<path d="M92.5285 88.5118
L92.4076 88.5723
" />
<path d="M93.9194 88.2094
L94.0404 88.2094
" />
<path d="M94.0404 88.2094
L94.1613 88.2699
" />
<path d="M94.1613 88.2699
L94.2218 88.3304
" />
<path d="M94.2218 88.3304
L94.2823 88.4513
" />
<path d="M94.2823 88.4513
L94.3428 88.6932
" />
<path d="M94.3428 88.6932
L94.3428 88.9956
" />
<path d="M94.3428 88.9956
L94.2823 89.2375
" />
<path d="M94.2823 89.2375
L94.2218 89.3585
" />
<path d="M94.2218 89.3585
L94.1613 89.4190
" />
<path d="M94.1613 89.4190
L94.0404 89.4794
" />
<path d="M94.0404 89.4794
L93.9194 89.4794
" />
<path d="M93.9194 89.4794
L93.7985 89.4190
" />
<path d="M93.7985 89.4190
L93.7380 89.3585
" />
<path d="M93.7380 89.3585
L93.6775 89.2375
" />
<path d="M93.6775 89.2375
L93.6171 88.9956
" />
<path d="M93.6171 88.9956
L93.6171 88.6932
" />
<path d="M93.6171 88.6932
L93.6775 88.4513
" />
<path d="M93.6775 88.4513
L93.7380 88.3304
" />
<path d="M93.7380 88.3304
L93.7985 88.2699
" />
<path d="M93.7985 88.2699
L93.9194 88.2094
" />
<path d="M95.1289 88.2094
L95.2499 88.2094
" />
<path d="M95.2499 88.2094
L95.3708 88.2699
" />
<path d="M95.3708 88.2699
L95.4313 88.3304
" />
<path d="M95.4313 88.3304
L95.4918 88.4513
" />
<path d="M95.4918 88.4513
L95.5523 88.6932
" />
<path d="M95.5523 88.6932
L95.5523 88.9956
" />
<path d="M95.5523 88.9956
L95.4918 89.2375
" />
<path d="M95.4918 89.2375
L95.4313 89.3585
" />
<path d="M95.4313 89.3585
L95.3708 89.4190
" />
<path d="M95.3708 89.4190
L95.2499 89.4794
" />
<path d="M95.2499 89.4794
L95.1289 89.4794
" />
<path d="M95.1289 89.4794
L95.0080 89.4190
" />
<path d="M95.0080 89.4190
L94.9475 89.3585
" />
<path d="M94.9475 89.3585
L94.8870 89.2375
" />
<path d="M94.8870 89.2375
L94.8266 88.9956
" />
<path d="M94.8266 88.9956
L94.8266 88.6932
" />
<path d="M94.8266 88.6932
L94.8870 88.4513
" />
<path d="M94.8870 88.4513
L94.9475 88.3304
" />
<path d="M94.9475 88.3304
L95.0080 88.2699
" />
<path d="M95.0080 88.2699
L95.1289 88.2094
" />
</g></g>
<g style="fill:none; 
stroke:#000000; stroke-width:0.2540; stroke-opacity:1; 
stroke-linecap:round; stroke-linejoin:round;">
<rect x="82.550000" y="82.804000" width="5.080000" height="2.032000" rx="0.000000" />
</g>
<g style="fill:none; 
stroke:#000000; stroke-width:0.1524; stroke-opacity:1; 
stroke-linecap:round; stroke-linejoin:round;">
<path d="M82.5500 83.8200
L81.2800 83.8200
" />
<path d="M87.6300 83.8200
L88.9000 83.8200
" />
<text x="85.0899" y="78.1049"
textLength="2.6827" font-size="1.6933" lengthAdjust="spacingAndGlyphs"
text-anchor="middle" opacity="0" stroke-opacity="0">R3</text>
<g class="stroked-text"><desc>R3</desc>
<path d="M84.8782 78.0494
L84.4549 77.4447
" />
<path d="M84.1525 78.0494
L84.1525 76.7794
" />
<path d="M84.1525 76.7794
L84.6363 76.7794
" />
<path d="M84.6363 76.7794
L84.7573 76.8399
" />
<path d="M84.7573 76.8399
L84.8178 76.9004
" />
<path d="M84.8178 76.9004
L84.8782 77.0213
" />
<path d="M84.8782 77.0213
L84.8782 77.2028
" />
<path d="M84.8782 77.2028
L84.8178 77.3237
" />
<path d="M84.8178 77.3237
L84.7573 77.3842
" />
<path d="M84.7573 77.3842
L84.6363 77.4447
" />
<path d="M84.6363 77.4447
L84.1525 77.4447
" />
<path d="M85.3016 76.7794
L86.0878 76.7794
" />
<path d="M86.0878 76.7794
L85.6644 77.2632
" />
<path d="M85.6644 77.2632
L85.8459 77.2632
" />
<path d="M85.8459 77.2632
L85.9668 77.3237
" />
<path d="M85.9668 77.3237
L86.0273 77.3842
" />
<path d="M86.0273 77.3842
L86.0878 77.5051
" />
<path d="M86.0878 77.5051
L86.0878 77.8075
" />
<path d="M86.0878 77.8075
L86.0273 77.9285
" />
<path d="M86.0273 77.9285
L85.9668 77.9890
" />
<path d="M85.9668 77.9890
L85.8459 78.0494
" />
<path d="M85.8459 78.0494
L85.4830 78.0494
" />
<path d="M85.4830 78.0494
L85.3621 77.9890
" />
<path d="M85.3621 77.9890
L85.3016 77.9285
" />
</g><text x="85.0900" y="80.6449"
textLength="2.6222" font-size="1.6933" lengthAdjust="spacingAndGlyphs"
text-anchor="middle" opacity="0" stroke-opacity="0">10</text>
<g class="stroked-text"><desc>10</desc>
<path d="M84.8481 80.5894
L84.1224 80.5894
" />
<path d="M84.4852 80.5894
L84.4852 79.3194
" />
<path d="M84.4852 79.3194
L84.3643 79.5009
" />
<path d="M84.3643 79.5009
L84.2433 79.6218
" />
<path d="M84.2433 79.6218
L84.1224 79.6823
" />
<path d="M85.6342 79.3194
L85.7552 79.3194
" />
<path d="M85.7552 79.3194
L85.8761 79.3799
" />
<path d="M85.8761 79.3799
L85.9366 79.4404
" />
<path d="M85.9366 79.4404
L85.9971 79.5613
" />
<path d="M85.9971 79.5613
L86.0576 79.8032
" />
<path d="M86.0576 79.8032
L86.0576 80.1056
" />
<path d="M86.0576 80.1056
L85.9971 80.3475
" />
<path d="M85.9971 80.3475
L85.9366 80.4685
" />
<path d="M85.9366 80.4685
L85.8761 80.5290
" />
<path d="M85.8761 80.5290
L85.7552 80.5894
" />
<path d="M85.7552 80.5894
L85.6342 80.5894
" />
<path d="M85.6342 80.5894
L85.5133 80.5290
" />
<path d="M85.5133 80.5290
L85.4528 80.4685
" />
<path d="M85.4528 80.4685
L85.3923 80.3475
" />
<path d="M85.3923 80.3475
L85.3319 80.1056
" />
<path d="M85.3319 80.1056
L85.3319 79.8032
" />
<path d="M85.3319 79.8032
L85.3923 79.5613
" />
<path d="M85.3923 79.5613
L85.4528 79.4404
" />
<path d="M85.4528 79.4404
L85.5133 79.3799
" />
<path d="M85.5133 79.3799
L85.6342 79.3194
" />
</g><path style="fill:none; 
stroke:#000000; stroke-width:0.2540; stroke-opacity:1; 
stroke-linecap:round; stroke-linejoin:round;fill:none"
d="M 116.8400,85.0900
116.8400,82.5500
" /> 
<path style="fill:none; 
stroke:#000000; stroke-width:0.2540; stroke-opacity:1; 
stroke-linecap:round; stroke-linejoin:round;fill:none"
d="M 114.3000,85.0900
114.3000,82.5500
116.8400,83.8200
Z" /> 
<path style="fill:none; 
stroke:#000000; stroke-width:0.1524; stroke-opacity:1; 
stroke-linecap:round; stroke-linejoin:round;fill:none"
d="M 114.3000,83.8200
116.8400,83.8200
" /> 
</g>
<g style="fill:none; 
stroke:#000000; stroke-width:0.1524; stroke-opacity:1; 
stroke-linecap:round; stroke-linejoin:round;">
<path d="M116.8400 83.8200
L119.3800 83.8200
" />
<path d="M114.3000 83.8200
L111.7600 83.8200
" />
<text x="115.5699" y="78.1049"
textLength="2.6827" font-size="1.6933" lengthAdjust="spacingAndGlyphs"
text-anchor="middle" opacity="0" stroke-opacity="0">D1</text>
<g class="stroked-text"><desc>D1</desc>
<path d="M114.6325 78.0494
L114.6325 76.7794
" />
<path d="M114.6325 76.7794
L114.9349 76.7794
" />
<path d="M114.9349 76.7794
L115.1163 76.8399
" />
<path d="M115.1163 76.8399
L115.2373 76.9609
" />
<path d="M115.2373 76.9609
L115.2978 77.0818
" />
<path d="M115.2978 77.0818
L115.3582 77.3237
" />
<path d="M115.3582 77.3237
L115.3582 77.5051
" />
<path d="M115.3582 77.5051
L115.2978 77.7470
" />
<path d="M115.2978 77.7470
L115.2373 77.8680
" />
<path d="M115.2373 77.8680
L115.1163 77.9890
" />
<path d="M115.1163 77.9890
L114.9349 78.0494
" />
<path d="M114.9349 78.0494
L114.6325 78.0494
" />
<path d="M116.5678 78.0494
L115.8421 78.0494
" />
<path d="M116.2049 78.0494
L116.2049 76.7794
" />
<path d="M116.2049 76.7794
L116.0840 76.9609
" />
<path d="M116.0840 76.9609
L115.9630 77.0818
" />
<path d="M115.9630 77.0818
L115.8421 77.1423
" />
</g><text x="115.5700" y="80.6449"
textLength="1.4732" font-size="1.6933" lengthAdjust="spacingAndGlyphs"
text-anchor="middle" opacity="0" stroke-opacity="0">D</text>
<g class="stroked-text"><desc>D</desc>
<path d="M115.2373 80.5894
L115.2373 79.3194
" />
<path d="M115.2373 79.3194
L115.5397 79.3194
" />
<path d="M115.5397 79.3194
L115.7211 79.3799
" />
<path d="M115.7211 79.3799
L115.8421 79.5009
" />
<path d="M115.8421 79.5009
L115.9026 79.6218
" />
<path d="M115.9026 79.6218
L115.9630 79.8637
" />
<path d="M115.9630 79.8637
L115.9630 80.0451
" />
<path d="M115.9630 80.0451
L115.9026 80.2870
" />
<path d="M115.9026 80.2870
L115.8421 80.4080
" />
<path d="M115.8421 80.4080
L115.7211 80.5290
" />
<path d="M115.7211 80.5290
L115.5397 80.5894
" />
<path d="M115.5397 80.5894
L115.2373 80.5894
" />
</g></g>
<g style="fill:none; 
stroke:#000000; stroke-width:0.1524; stroke-opacity:1; 
stroke-linecap:round; stroke-linejoin:round;">
<text x="88.9000" y="92.3607"
textLength="2.6005" font-size="1.6933" lengthAdjust="spacingAndGlyphs"
text-anchor="start" opacity="0" stroke-opacity="0">U_{B}</text>
<g class="stroked-text"><desc>U_{B}</desc>
<path d="M89.3025 90.9272
L89.3025 91.9553
" />
<path d="M89.3025 91.9553
L89.3630 92.0763
" />
<path d="M89.3630 92.0763
L89.4235 92.1368
" />
<path d="M89.4235 92.1368
L89.5444 92.1972
" />
<path d="M89.5444 92.1972
L89.7863 92.1972
" />
<path d="M89.7863 92.1972
L89.9073 92.1368
" />
<path d="M89.9073 92.1368
L89.9678 92.0763
" />
<path d="M89.9678 92.0763
L90.0282 91.9553
" />
<path d="M90.0282 91.9553
L90.0282 90.9272
" />
<path d="M90.9112 91.8053
L91.0564 91.8537
" />
<path d="M91.0564 91.8537
L91.1047 91.9021
" />
<path d="M91.1047 91.9021
L91.1531 91.9989
" />
<path d="M91.1531 91.9989
L91.1531 92.1440
" />
<path d="M91.1531 92.1440
L91.1047 92.2408
" />
<path d="M91.1047 92.2408
L91.0564 92.2892
" />
<path d="M91.0564 92.2892
L90.9596 92.3375
" />
<path d="M90.9596 92.3375
L90.5726 92.3375
" />
<path d="M90.5726 92.3375
L90.5726 91.3215
" />
<path d="M90.5726 91.3215
L90.9112 91.3215
" />
<path d="M90.9112 91.3215
L91.0080 91.3699
" />
<path d="M91.0080 91.3699
L91.0564 91.4183
" />
<path d="M91.0564 91.4183
L91.1047 91.5151
" />
<path d="M91.1047 91.5151
L91.1047 91.6118
" />
<path d="M91.1047 91.6118
L91.0564 91.7086
" />
<path d="M91.0564 91.7086
L91.0080 91.7570
" />
<path d="M91.0080 91.7570
L90.9112 91.8053
" />
<path d="M90.9112 91.8053
L90.5726 91.8053
" />
</g></g>
<g style="fill:none; 
stroke:#000000; stroke-width:0.1524; stroke-opacity:1; 
stroke-linecap:round; stroke-linejoin:round;">
<text x="124.4600" y="83.4707"
textLength="2.6005" font-size="1.6933" lengthAdjust="spacingAndGlyphs"
text-anchor="start" opacity="0" stroke-opacity="0">U_{C}</text>
<g class="stroked-text"><desc>U_{C}</desc>
<path d="M124.8625 82.0372
L124.8625 83.0653
" />
<path d="M124.8625 83.0653
L124.9230 83.1863
" />
<path d="M124.9230 83.1863
L124.9835 83.2468
" />
<path d="M124.9835 83.2468
L125.1044 83.3072
" />
<path d="M125.1044 83.3072
L125.3463 83.3072
" />
<path d="M125.3463 83.3072
L125.4673 83.2468
" />
<path d="M125.4673 83.2468
L125.5278 83.1863
" />
<path d="M125.5278 83.1863
L125.5882 83.0653
" />
<path d="M125.5882 83.0653
L125.5882 82.0372
" />
<path d="M126.7131 83.3508
L126.6647 83.3992
" />
<path d="M126.6647 83.3992
L126.5196 83.4475
" />
<path d="M126.5196 83.4475
L126.4228 83.4475
" />
<path d="M126.4228 83.4475
L126.2777 83.3992
" />
<path d="M126.2777 83.3992
L126.1809 83.3024
" />
<path d="M126.1809 83.3024
L126.1326 83.2056
" />
<path d="M126.1326 83.2056
L126.0842 83.0121
" />
<path d="M126.0842 83.0121
L126.0842 82.8670
" />
<path d="M126.0842 82.8670
L126.1326 82.6734
" />
<path d="M126.1326 82.6734
L126.1809 82.5767
" />
<path d="M126.1809 82.5767
L126.2777 82.4799
" />
<path d="M126.2777 82.4799
L126.4228 82.4315
" />
<path d="M126.4228 82.4315
L126.5196 82.4315
" />
<path d="M126.5196 82.4315
L126.6647 82.4799
" />
<path d="M126.6647 82.4799
L126.7131 82.5283
" />
</g></g>
<g style="fill:none; 
stroke:#000000; stroke-width:0.1524; stroke-opacity:1; 
stroke-linecap:round; stroke-linejoin:round;">
<text x="106.6800" y="83.4707"
textLength="2.4554" font-size="1.6933" lengthAdjust="spacingAndGlyphs"
text-anchor="start" opacity="0" stroke-opacity="0">U_{A}</text>
<g class="stroked-text"><desc>U_{A}</desc>
<path d="M107.0825 82.0372
L107.0825 83.0653
" />
<path d="M107.0825 83.0653
L107.1430 83.1863
" />
<path d="M107.1430 83.1863
L107.2035 83.2468
" />
<path d="M107.2035 83.2468
L107.3244 83.3072
" />
<path d="M107.3244 83.3072
L107.5663 83.3072
" />
<path d="M107.5663 83.3072
L107.6873 83.2468
" />
<path d="M107.6873 83.2468
L107.7478 83.1863
" />
<path d="M107.7478 83.1863
L107.8082 83.0653
" />
<path d="M107.8082 83.0653
L107.8082 82.0372
" />
<path d="M108.3042 83.1572
L108.7880 83.1572
" />
<path d="M108.2074 83.4475
L108.5461 82.4315
" />
<path d="M108.5461 82.4315
L108.8847 83.4475
" />
</g><path d="M90.1700 92.7100
L88.9000 92.7100
" />
<path d="M88.9000 107.9500
L88.9000 109.2200
" />
<path d="M88.9000 83.8200
L95.2500 83.8200
" />
<path d="M106.6800 83.8200
L106.6800 87.6300
" />
<path d="M106.6800 83.8200
L111.7600 83.8200
" />
<path d="M106.6800 99.0600
L124.4600 99.0600
" />
<path d="M138.4300 83.8200
L124.4600 83.8200
" />
<path d="M138.4300 95.2500
L138.4300 99.0600
" />
<path d="M138.4300 87.6300
L138.4300 83.8200
" />
<path d="M124.4600 99.0600
L124.4600 95.2500
" />
<path d="M124.4600 87.6300
L124.4600 83.8200
" />
<path d="M138.4300 99.0600
L124.4600 99.0600
" />
<path d="M76.2000 88.9000
L76.2000 83.8200
" />
<path d="M76.2000 99.0600
L76.2000 101.6000
" />
<path d="M76.2000 83.8200
L81.2800 83.8200
" />
<path d="M88.9000 92.7100
L88.9000 97.7900
" />
<path d="M106.6800 97.7900
L106.6800 99.0600
" />
<path d="M97.7900 92.7100
L99.0600 92.7100
" />
<path d="M76.2000 99.0600
L106.6800 99.0600
" />
<path d="M102.8700 83.8200
L106.6800 83.8200
" />
<path d="M124.4600 83.8200
L119.3800 83.8200
" />
</g>
<g style="fill:none; 
stroke:#000000; stroke-width:0.1524; stroke-opacity:1; 
stroke-linecap:round; stroke-linejoin:round;">
<text x="119.6340" y="71.7590"
textLength="15.4429" font-size="1.6933" lengthAdjust="spacingAndGlyphs"
text-anchor="middle" opacity="0" stroke-opacity="0">.tran 10u 100m</text>
<g class="stroked-text"><desc>.tran 10u 100m</desc>
<path d="M112.3165 71.5826
L112.3770 71.6431
" />
<path d="M112.3770 71.6431
L112.3165 71.7035
" />
<path d="M112.3165 71.7035
L112.2561 71.6431
" />
<path d="M112.2561 71.6431
L112.3165 71.5826
" />
<path d="M112.3165 71.5826
L112.3165 71.7035
" />
<path d="M112.7399 70.8569
L113.2237 70.8569
" />
<path d="M112.9213 70.4335
L112.9213 71.5221
" />
<path d="M112.9213 71.5221
L112.9818 71.6431
" />
<path d="M112.9818 71.6431
L113.1028 71.7035
" />
<path d="M113.1028 71.7035
L113.2237 71.7035
" />
<path d="M113.6470 71.7035
L113.6470 70.8569
" />
<path d="M113.6470 71.0988
L113.7075 70.9778
" />
<path d="M113.7075 70.9778
L113.7680 70.9173
" />
<path d="M113.7680 70.9173
L113.8889 70.8569
" />
<path d="M113.8889 70.8569
L114.0099 70.8569
" />
<path d="M114.9775 71.7035
L114.9775 71.0383
" />
<path d="M114.9775 71.0383
L114.9170 70.9173
" />
<path d="M114.9170 70.9173
L114.7961 70.8569
" />
<path d="M114.7961 70.8569
L114.5542 70.8569
" />
<path d="M114.5542 70.8569
L114.4332 70.9173
" />
<path d="M114.9775 71.6431
L114.8566 71.7035
" />
<path d="M114.8566 71.7035
L114.5542 71.7035
" />
<path d="M114.5542 71.7035
L114.4332 71.6431
" />
<path d="M114.4332 71.6431
L114.3728 71.5221
" />
<path d="M114.3728 71.5221
L114.3728 71.4011
" />
<path d="M114.3728 71.4011
L114.4332 71.2802
" />
<path d="M114.4332 71.2802
L114.5542 71.2197
" />
<path d="M114.5542 71.2197
L114.8566 71.2197
" />
<path d="M114.8566 71.2197
L114.9775 71.1592
" />
<path d="M115.5822 70.8569
L115.5822 71.7035
" />
<path d="M115.5822 70.9778
L115.6427 70.9173
" />
<path d="M115.6427 70.9173
L115.7637 70.8569
" />
<path d="M115.7637 70.8569
L115.9451 70.8569
" />
<path d="M115.9451 70.8569
L116.0660 70.9173
" />
<path d="M116.0660 70.9173
L116.1265 71.0383
" />
<path d="M116.1265 71.0383
L116.1265 71.7035
" />
<path d="M118.3641 71.7035
L117.6384 71.7035
" />
<path d="M118.0012 71.7035
L118.0012 70.4335
" />
<path d="M118.0012 70.4335
L117.8803 70.6150
" />
<path d="M117.8803 70.6150
L117.7593 70.7359
" />
<path d="M117.7593 70.7359
L117.6384 70.7964
" />
<path d="M119.1502 70.4335
L119.2712 70.4335
" />
<path d="M119.2712 70.4335
L119.3921 70.4940
" />
<path d="M119.3921 70.4940
L119.4526 70.5545
" />
<path d="M119.4526 70.5545
L119.5131 70.6754
" />
<path d="M119.5131 70.6754
L119.5736 70.9173
" />
<path d="M119.5736 70.9173
L119.5736 71.2197
" />
<path d="M119.5736 71.2197
L119.5131 71.4616
" />
<path d="M119.5131 71.4616
L119.4526 71.5826
" />
<path d="M119.4526 71.5826
L119.3921 71.6431
" />
<path d="M119.3921 71.6431
L119.2712 71.7035
" />
<path d="M119.2712 71.7035
L119.1502 71.7035
" />
<path d="M119.1502 71.7035
L119.0293 71.6431
" />
<path d="M119.0293 71.6431
L118.9688 71.5826
" />
<path d="M118.9688 71.5826
L118.9083 71.4616
" />
<path d="M118.9083 71.4616
L118.8479 71.2197
" />
<path d="M118.8479 71.2197
L118.8479 70.9173
" />
<path d="M118.8479 70.9173
L118.9083 70.6754
" />
<path d="M118.9083 70.6754
L118.9688 70.5545
" />
<path d="M118.9688 70.5545
L119.0293 70.4940
" />
<path d="M119.0293 70.4940
L119.1502 70.4335
" />
<path d="M120.6621 70.8569
L120.6621 71.7035
" />
<path d="M120.1178 70.8569
L120.1178 71.5221
" />
<path d="M120.1178 71.5221
L120.1783 71.6431
" />
<path d="M120.1783 71.6431
L120.2993 71.7035
" />
<path d="M120.2993 71.7035
L120.4807 71.7035
" />
<path d="M120.4807 71.7035
L120.6016 71.6431
" />
<path d="M120.6016 71.6431
L120.6621 71.5826
" />
<path d="M122.8997 71.7035
L122.1740 71.7035
" />
<path d="M122.5368 71.7035
L122.5368 70.4335
" />
<path d="M122.5368 70.4335
L122.4159 70.6150
" />
<path d="M122.4159 70.6150
L122.2949 70.7359
" />
<path d="M122.2949 70.7359
L122.1740 70.7964
" />
<path d="M123.6858 70.4335
L123.8068 70.4335
" />
<path d="M123.8068 70.4335
L123.9277 70.4940
" />
<path d="M123.9277 70.4940
L123.9882 70.5545
" />
<path d="M123.9882 70.5545
L124.0487 70.6754
" />
<path d="M124.0487 70.6754
L124.1092 70.9173
" />
<path d="M124.1092 70.9173
L124.1092 71.2197
" />
<path d="M124.1092 71.2197
L124.0487 71.4616
" />
<path d="M124.0487 71.4616
L123.9882 71.5826
" />
<path d="M123.9882 71.5826
L123.9277 71.6431
" />
<path d="M123.9277 71.6431
L123.8068 71.7035
" />
<path d="M123.8068 71.7035
L123.6858 71.7035
" />
<path d="M123.6858 71.7035
L123.5649 71.6431
" />
<path d="M123.5649 71.6431
L123.5044 71.5826
" />
<path d="M123.5044 71.5826
L123.4439 71.4616
" />
<path d="M123.4439 71.4616
L123.3835 71.2197
" />
<path d="M123.3835 71.2197
L123.3835 70.9173
" />
<path d="M123.3835 70.9173
L123.4439 70.6754
" />
<path d="M123.4439 70.6754
L123.5044 70.5545
" />
<path d="M123.5044 70.5545
L123.5649 70.4940
" />
<path d="M123.5649 70.4940
L123.6858 70.4335
" />
<path d="M124.8953 70.4335
L125.0163 70.4335
" />
<path d="M125.0163 70.4335
L125.1372 70.4940
" />
<path d="M125.1372 70.4940
L125.1977 70.5545
" />
<path d="M125.1977 70.5545
L125.2582 70.6754
" />
<path d="M125.2582 70.6754
L125.3187 70.9173
" />
<path d="M125.3187 70.9173
L125.3187 71.2197
" />
<path d="M125.3187 71.2197
L125.2582 71.4616
" />
<path d="M125.2582 71.4616
L125.1977 71.5826
" />
<path d="M125.1977 71.5826
L125.1372 71.6431
" />
<path d="M125.1372 71.6431
L125.0163 71.7035
" />
<path d="M125.0163 71.7035
L124.8953 71.7035
" />
<path d="M124.8953 71.7035
L124.7744 71.6431
" />
<path d="M124.7744 71.6431
L124.7139 71.5826
" />
<path d="M124.7139 71.5826
L124.6534 71.4616
" />
<path d="M124.6534 71.4616
L124.5930 71.2197
" />
<path d="M124.5930 71.2197
L124.5930 70.9173
" />
<path d="M124.5930 70.9173
L124.6534 70.6754
" />
<path d="M124.6534 70.6754
L124.7139 70.5545
" />
<path d="M124.7139 70.5545
L124.7744 70.4940
" />
<path d="M124.7744 70.4940
L124.8953 70.4335
" />
<path d="M125.8629 71.7035
L125.8629 70.8569
" />
<path d="M125.8629 70.9778
L125.9234 70.9173
" />
<path d="M125.9234 70.9173
L126.0444 70.8569
" />
<path d="M126.0444 70.8569
L126.2258 70.8569
" />
<path d="M126.2258 70.8569
L126.3467 70.9173
" />
<path d="M126.3467 70.9173
L126.4072 71.0383
" />
<path d="M126.4072 71.0383
L126.4072 71.7035
" />
<path d="M126.4072 71.0383
L126.4677 70.9173
" />
<path d="M126.4677 70.9173
L126.5886 70.8569
" />
<path d="M126.5886 70.8569
L126.7701 70.8569
" />
<path d="M126.7701 70.8569
L126.8910 70.9173
" />
<path d="M126.8910 70.9173
L126.9515 71.0383
" />
<path d="M126.9515 71.0383
L126.9515 71.7035
" />
</g><text x="110.6012" y="92.0749"
textLength="2.7432" font-size="1.6933" lengthAdjust="spacingAndGlyphs"
text-anchor="middle" opacity="0" stroke-opacity="0">Q1</text>
<g class="stroked-text"><desc>Q1</desc>
<path d="M110.4802 92.1404
L110.3592 92.0799
" />
<path d="M110.3592 92.0799
L110.2383 91.9590
" />
<path d="M110.2383 91.9590
L110.0569 91.7775
" />
<path d="M110.0569 91.7775
L109.9359 91.7170
" />
<path d="M109.9359 91.7170
L109.8150 91.7170
" />
<path d="M109.8754 92.0194
L109.7545 91.9590
" />
<path d="M109.7545 91.9590
L109.6335 91.8380
" />
<path d="M109.6335 91.8380
L109.5731 91.5961
" />
<path d="M109.5731 91.5961
L109.5731 91.1728
" />
<path d="M109.5731 91.1728
L109.6335 90.9309
" />
<path d="M109.6335 90.9309
L109.7545 90.8099
" />
<path d="M109.7545 90.8099
L109.8754 90.7494
" />
<path d="M109.8754 90.7494
L110.1173 90.7494
" />
<path d="M110.1173 90.7494
L110.2383 90.8099
" />
<path d="M110.2383 90.8099
L110.3592 90.9309
" />
<path d="M110.3592 90.9309
L110.4197 91.1728
" />
<path d="M110.4197 91.1728
L110.4197 91.5961
" />
<path d="M110.4197 91.5961
L110.3592 91.8380
" />
<path d="M110.3592 91.8380
L110.2383 91.9590
" />
<path d="M110.2383 91.9590
L110.1173 92.0194
" />
<path d="M110.1173 92.0194
L109.8754 92.0194
" />
<path d="M111.6293 92.0194
L110.9036 92.0194
" />
<path d="M111.2664 92.0194
L111.2664 90.7494
" />
<path d="M111.2664 90.7494
L111.1455 90.9309
" />
<path d="M111.1455 90.9309
L111.0245 91.0518
" />
<path d="M111.0245 91.0518
L110.9036 91.1123
" />
</g><text x="112.4154" y="94.6149"
textLength="6.3717" font-size="1.6933" lengthAdjust="spacingAndGlyphs"
text-anchor="middle" opacity="0" stroke-opacity="0">BC108</text>
<g class="stroked-text"><desc>BC108</desc>
<path d="M110.0569 93.8942
L110.2383 93.9547
" />
<path d="M110.2383 93.9547
L110.2988 94.0151
" />
<path d="M110.2988 94.0151
L110.3592 94.1361
" />
<path d="M110.3592 94.1361
L110.3592 94.3175
" />
<path d="M110.3592 94.3175
L110.2988 94.4385
" />
<path d="M110.2988 94.4385
L110.2383 94.4990
" />
<path d="M110.2383 94.4990
L110.1173 94.5594
" />
<path d="M110.1173 94.5594
L109.6335 94.5594
" />
<path d="M109.6335 94.5594
L109.6335 93.2894
" />
<path d="M109.6335 93.2894
L110.0569 93.2894
" />
<path d="M110.0569 93.2894
L110.1778 93.3499
" />
<path d="M110.1778 93.3499
L110.2383 93.4104
" />
<path d="M110.2383 93.4104
L110.2988 93.5313
" />
<path d="M110.2988 93.5313
L110.2988 93.6523
" />
<path d="M110.2988 93.6523
L110.2383 93.7732
" />
<path d="M110.2383 93.7732
L110.1778 93.8337
" />
<path d="M110.1778 93.8337
L110.0569 93.8942
" />
<path d="M110.0569 93.8942
L109.6335 93.8942
" />
<path d="M111.6292 94.4385
L111.5688 94.4990
" />
<path d="M111.5688 94.4990
L111.3873 94.5594
" />
<path d="M111.3873 94.5594
L111.2664 94.5594
" />
<path d="M111.2664 94.5594
L111.0850 94.4990
" />
<path d="M111.0850 94.4990
L110.9640 94.3780
" />
<path d="M110.9640 94.3780
L110.9035 94.2570
" />
<path d="M110.9035 94.2570
L110.8431 94.0151
" />
<path d="M110.8431 94.0151
L110.8431 93.8337
" />
<path d="M110.8431 93.8337
L110.9035 93.5918
" />
<path d="M110.9035 93.5918
L110.9640 93.4709
" />
<path d="M110.9640 93.4709
L111.0850 93.3499
" />
<path d="M111.0850 93.3499
L111.2664 93.2894
" />
<path d="M111.2664 93.2894
L111.3873 93.2894
" />
<path d="M111.3873 93.2894
L111.5688 93.3499
" />
<path d="M111.5688 93.3499
L111.6292 93.4104
" />
<path d="M112.8388 94.5594
L112.1131 94.5594
" />
<path d="M112.4759 94.5594
L112.4759 93.2894
" />
<path d="M112.4759 93.2894
L112.3550 93.4709
" />
<path d="M112.3550 93.4709
L112.2340 93.5918
" />
<path d="M112.2340 93.5918
L112.1131 93.6523
" />
<path d="M113.6249 93.2894
L113.7459 93.2894
" />
<path d="M113.7459 93.2894
L113.8668 93.3499
" />
<path d="M113.8668 93.3499
L113.9273 93.4104
" />
<path d="M113.9273 93.4104
L113.9878 93.5313
" />
<path d="M113.9878 93.5313
L114.0483 93.7732
" />
<path d="M114.0483 93.7732
L114.0483 94.0756
" />
<path d="M114.0483 94.0756
L113.9878 94.3175
" />
<path d="M113.9878 94.3175
L113.9273 94.4385
" />
<path d="M113.9273 94.4385
L113.8668 94.4990
" />
<path d="M113.8668 94.4990
L113.7459 94.5594
" />
<path d="M113.7459 94.5594
L113.6249 94.5594
" />
<path d="M113.6249 94.5594
L113.5040 94.4990
" />
<path d="M113.5040 94.4990
L113.4435 94.4385
" />
<path d="M113.4435 94.4385
L113.3830 94.3175
" />
<path d="M113.3830 94.3175
L113.3226 94.0756
" />
<path d="M113.3226 94.0756
L113.3226 93.7732
" />
<path d="M113.3226 93.7732
L113.3830 93.5313
" />
<path d="M113.3830 93.5313
L113.4435 93.4104
" />
<path d="M113.4435 93.4104
L113.5040 93.3499
" />
<path d="M113.5040 93.3499
L113.6249 93.2894
" />
<path d="M114.7740 93.8337
L114.6530 93.7732
" />
<path d="M114.6530 93.7732
L114.5925 93.7128
" />
<path d="M114.5925 93.7128
L114.5321 93.5918
" />
<path d="M114.5321 93.5918
L114.5321 93.5313
" />
<path d="M114.5321 93.5313
L114.5925 93.4104
" />
<path d="M114.5925 93.4104
L114.6530 93.3499
" />
<path d="M114.6530 93.3499
L114.7740 93.2894
" />
<path d="M114.7740 93.2894
L115.0159 93.2894
" />
<path d="M115.0159 93.2894
L115.1368 93.3499
" />
<path d="M115.1368 93.3499
L115.1973 93.4104
" />
<path d="M115.1973 93.4104
L115.2578 93.5313
" />
<path d="M115.2578 93.5313
L115.2578 93.5918
" />
<path d="M115.2578 93.5918
L115.1973 93.7128
" />
<path d="M115.1973 93.7128
L115.1368 93.7732
" />
<path d="M115.1368 93.7732
L115.0159 93.8337
" />
<path d="M115.0159 93.8337
L114.7740 93.8337
" />
<path d="M114.7740 93.8337
L114.6530 93.8942
" />
<path d="M114.6530 93.8942
L114.5925 93.9547
" />
<path d="M114.5925 93.9547
L114.5321 94.0756
" />
<path d="M114.5321 94.0756
L114.5321 94.3175
" />
<path d="M114.5321 94.3175
L114.5925 94.4385
" />
<path d="M114.5925 94.4385
L114.6530 94.4990
" />
<path d="M114.6530 94.4990
L114.7740 94.5594
" />
<path d="M114.7740 94.5594
L115.0159 94.5594
" />
<path d="M115.0159 94.5594
L115.1368 94.4990
" />
<path d="M115.1368 94.4990
L115.1973 94.4385
" />
<path d="M115.1973 94.4385
L115.2578 94.3175
" />
<path d="M115.2578 94.3175
L115.2578 94.0756
" />
<path d="M115.2578 94.0756
L115.1973 93.9547
" />
<path d="M115.1973 93.9547
L115.1368 93.8942
" />
<path d="M115.1368 93.8942
L115.0159 93.8337
" />
</g><path d="M101.6000 92.7100
L99.0600 92.7100
" />
<text x="100.3300" y="92.4560"
textLength="1.4732" font-size="1.6933" lengthAdjust="spacingAndGlyphs"
text-anchor="middle" opacity="0" stroke-opacity="0">B</text>
<g class="stroked-text"><desc>B</desc>
<path d="M100.4207 91.6273
L100.6021 91.6878
" />
<path d="M100.6021 91.6878
L100.6626 91.7482
" />
<path d="M100.6626 91.7482
L100.7230 91.8692
" />
<path d="M100.7230 91.8692
L100.7230 92.0506
" />
<path d="M100.7230 92.0506
L100.6626 92.1716
" />
<path d="M100.6626 92.1716
L100.6021 92.2321
" />
<path d="M100.6021 92.2321
L100.4811 92.2925
" />
<path d="M100.4811 92.2925
L99.9973 92.2925
" />
<path d="M99.9973 92.2925
L99.9973 91.0225
" />
<path d="M99.9973 91.0225
L100.4207 91.0225
" />
<path d="M100.4207 91.0225
L100.5416 91.0830
" />
<path d="M100.5416 91.0830
L100.6021 91.1435
" />
<path d="M100.6021 91.1435
L100.6626 91.2644
" />
<path d="M100.6626 91.2644
L100.6626 91.3854
" />
<path d="M100.6626 91.3854
L100.6021 91.5063
" />
<path d="M100.6021 91.5063
L100.5416 91.5668
" />
<path d="M100.5416 91.5668
L100.4207 91.6273
" />
<path d="M100.4207 91.6273
L99.9973 91.6273
" />
</g><path d="M106.6800 90.1700
L106.6800 87.6300
" />
<g transform="rotate(-90.000000 106.4260 88.9000)">
<text x="106.4260" y="88.9000"
textLength="1.4732" font-size="1.6933" lengthAdjust="spacingAndGlyphs"
text-anchor="middle" opacity="0" stroke-opacity="0">C</text>
</g>
<g class="stroked-text"><desc>C</desc>
<path d="M106.1416 88.5069
L106.2021 88.5673
" />
<path d="M106.2021 88.5673
L106.2625 88.7488
" />
<path d="M106.2625 88.7488
L106.2625 88.8697
" />
<path d="M106.2625 88.8697
L106.2021 89.0511
" />
<path d="M106.2021 89.0511
L106.0811 89.1721
" />
<path d="M106.0811 89.1721
L105.9601 89.2326
" />
<path d="M105.9601 89.2326
L105.7182 89.2930
" />
<path d="M105.7182 89.2930
L105.5368 89.2930
" />
<path d="M105.5368 89.2930
L105.2949 89.2326
" />
<path d="M105.2949 89.2326
L105.1740 89.1721
" />
<path d="M105.1740 89.1721
L105.0530 89.0511
" />
<path d="M105.0530 89.0511
L104.9925 88.8697
" />
<path d="M104.9925 88.8697
L104.9925 88.7488
" />
<path d="M104.9925 88.7488
L105.0530 88.5673
" />
<path d="M105.0530 88.5673
L105.1135 88.5069
" />
</g><path d="M106.6800 95.2500
L106.6800 97.7900
" />
<g transform="rotate(-90.000000 106.4260 96.5200)">
<text x="106.4260" y="96.5200"
textLength="1.3522" font-size="1.6933" lengthAdjust="spacingAndGlyphs"
text-anchor="middle" opacity="0" stroke-opacity="0">E</text>
</g>
<g class="stroked-text"><desc>E</desc>
<path d="M105.5973 96.7921
L105.5973 96.3687
" />
<path d="M106.2625 96.1873
L106.2625 96.7921
" />
<path d="M106.2625 96.7921
L104.9925 96.7921
" />
<path d="M104.9925 96.7921
L104.9925 96.1873
" />
</g><text x="93.9702" y="100.8351"
textLength="2.5013" font-size="1.6933" lengthAdjust="spacingAndGlyphs"
text-anchor="middle" opacity="0" stroke-opacity="0">V2</text>
<g class="stroked-text"><desc>V2</desc>
<path d="M92.9421 99.5096
L93.3654 100.7796
" />
<path d="M93.3654 100.7796
L93.7888 99.5096
" />
<path d="M94.1517 99.6306
L94.2121 99.5701
" />
<path d="M94.2121 99.5701
L94.3331 99.5096
" />
<path d="M94.3331 99.5096
L94.6355 99.5096
" />
<path d="M94.6355 99.5096
L94.7564 99.5701
" />
<path d="M94.7564 99.5701
L94.8169 99.6306
" />
<path d="M94.8169 99.6306
L94.8774 99.7515
" />
<path d="M94.8774 99.7515
L94.8774 99.8725
" />
<path d="M94.8774 99.8725
L94.8169 100.0539
" />
<path d="M94.8169 100.0539
L94.0912 100.7796
" />
<path d="M94.0912 100.7796
L94.8774 100.7796
" />
</g><text x="96.3590" y="103.3751"
textLength="7.2789" font-size="1.6933" lengthAdjust="spacingAndGlyphs"
text-anchor="middle" opacity="0" stroke-opacity="0">VPULSE</text>
<g class="stroked-text"><desc>VPULSE</desc>
<path d="M92.9421 102.0496
L93.3654 103.3196
" />
<path d="M93.3654 103.3196
L93.7888 102.0496
" />
<path d="M94.2121 103.3196
L94.2121 102.0496
" />
<path d="M94.2121 102.0496
L94.6959 102.0496
" />
<path d="M94.6959 102.0496
L94.8169 102.1101
" />
<path d="M94.8169 102.1101
L94.8774 102.1706
" />
<path d="M94.8774 102.1706
L94.9378 102.2915
" />
<path d="M94.9378 102.2915
L94.9378 102.4730
" />
<path d="M94.9378 102.4730
L94.8774 102.5939
" />
<path d="M94.8774 102.5939
L94.8169 102.6544
" />
<path d="M94.8169 102.6544
L94.6959 102.7149
" />
<path d="M94.6959 102.7149
L94.2121 102.7149
" />
<path d="M95.4821 102.0496
L95.4821 103.0777
" />
<path d="M95.4821 103.0777
L95.5426 103.1987
" />
<path d="M95.5426 103.1987
L95.6031 103.2592
" />
<path d="M95.6031 103.2592
L95.7240 103.3196
" />
<path d="M95.7240 103.3196
L95.9659 103.3196
" />
<path d="M95.9659 103.3196
L96.0869 103.2592
" />
<path d="M96.0869 103.2592
L96.1474 103.1987
" />
<path d="M96.1474 103.1987
L96.2078 103.0777
" />
<path d="M96.2078 103.0777
L96.2078 102.0496
" />
<path d="M97.4174 103.3196
L96.8126 103.3196
" />
<path d="M96.8126 103.3196
L96.8126 102.0496
" />
<path d="M97.7803 103.2592
L97.9617 103.3196
" />
<path d="M97.9617 103.3196
L98.2641 103.3196
" />
<path d="M98.2641 103.3196
L98.3850 103.2592
" />
<path d="M98.3850 103.2592
L98.4455 103.1987
" />
<path d="M98.4455 103.1987
L98.5060 103.0777
" />
<path d="M98.5060 103.0777
L98.5060 102.9568
" />
<path d="M98.5060 102.9568
L98.4455 102.8358
" />
<path d="M98.4455 102.8358
L98.3850 102.7753
" />
<path d="M98.3850 102.7753
L98.2641 102.7149
" />
<path d="M98.2641 102.7149
L98.0222 102.6544
" />
<path d="M98.0222 102.6544
L97.9012 102.5939
" />
<path d="M97.9012 102.5939
L97.8407 102.5334
" />
<path d="M97.8407 102.5334
L97.7803 102.4125
" />
<path d="M97.7803 102.4125
L97.7803 102.2915
" />
<path d="M97.7803 102.2915
L97.8407 102.1706
" />
<path d="M97.8407 102.1706
L97.9012 102.1101
" />
<path d="M97.9012 102.1101
L98.0222 102.0496
" />
<path d="M98.0222 102.0496
L98.3245 102.0496
" />
<path d="M98.3245 102.0496
L98.5060 102.1101
" />
<path d="M99.0502 102.6544
L99.4736 102.6544
" />
<path d="M99.6550 103.3196
L99.0502 103.3196
" />
<path d="M99.0502 103.3196
L99.0502 102.0496
" />
<path d="M99.0502 102.0496
L99.6550 102.0496
" />
</g><text x="116.9207" y="105.9151"
textLength="48.4022" font-size="1.6933" lengthAdjust="spacingAndGlyphs"
text-anchor="middle" opacity="0" stroke-opacity="0">y1=0 y2=5 td=2n tr=2n tf=2n tw=0.3m per=1m</text>
<g class="stroked-text"><desc>y1=0 y2=5 td=2n tr=2n tf=2n tw=0.3m per=1m</desc>
<path d="M93.0026 105.0130
L93.3050 105.8596
" />
<path d="M93.6073 105.0130
L93.3050 105.8596
" />
<path d="M93.3050 105.8596
L93.1840 106.1620
" />
<path d="M93.1840 106.1620
L93.1235 106.2225
" />
<path d="M93.1235 106.2225
L93.0026 106.2830
" />
<path d="M94.7564 105.8596
L94.0307 105.8596
" />
<path d="M94.3935 105.8596
L94.3935 104.5896
" />
<path d="M94.3935 104.5896
L94.2726 104.7711
" />
<path d="M94.2726 104.7711
L94.1516 104.8920
" />
<path d="M94.1516 104.8920
L94.0307 104.9525
" />
<path d="M95.3006 105.1944
L96.2683 105.1944
" />
<path d="M96.2683 105.5572
L95.3006 105.5572
" />
<path d="M97.1149 104.5896
L97.2359 104.5896
" />
<path d="M97.2359 104.5896
L97.3568 104.6501
" />
<path d="M97.3568 104.6501
L97.4173 104.7106
" />
<path d="M97.4173 104.7106
L97.4778 104.8315
" />
<path d="M97.4778 104.8315
L97.5383 105.0734
" />
<path d="M97.5383 105.0734
L97.5383 105.3758
" />
<path d="M97.5383 105.3758
L97.4778 105.6177
" />
<path d="M97.4778 105.6177
L97.4173 105.7387
" />
<path d="M97.4173 105.7387
L97.3568 105.7992
" />
<path d="M97.3568 105.7992
L97.2359 105.8596
" />
<path d="M97.2359 105.8596
L97.1149 105.8596
" />
<path d="M97.1149 105.8596
L96.9940 105.7992
" />
<path d="M96.9940 105.7992
L96.9335 105.7387
" />
<path d="M96.9335 105.7387
L96.8730 105.6177
" />
<path d="M96.8730 105.6177
L96.8126 105.3758
" />
<path d="M96.8126 105.3758
L96.8126 105.0734
" />
<path d="M96.8126 105.0734
L96.8730 104.8315
" />
<path d="M96.8730 104.8315
L96.9335 104.7106
" />
<path d="M96.9335 104.7106
L96.9940 104.6501
" />
<path d="M96.9940 104.6501
L97.1149 104.5896
" />
<path d="M98.9292 105.0130
L99.2316 105.8596
" />
<path d="M99.5339 105.0130
L99.2316 105.8596
" />
<path d="M99.2316 105.8596
L99.1106 106.1620
" />
<path d="M99.1106 106.1620
L99.0501 106.2225
" />
<path d="M99.0501 106.2225
L98.9292 106.2830
" />
<path d="M99.9573 104.7106
L100.0177 104.6501
" />
<path d="M100.0177 104.6501
L100.1387 104.5896
" />
<path d="M100.1387 104.5896
L100.4411 104.5896
" />
<path d="M100.4411 104.5896
L100.5620 104.6501
" />
<path d="M100.5620 104.6501
L100.6225 104.7106
" />
<path d="M100.6225 104.7106
L100.6830 104.8315
" />
<path d="M100.6830 104.8315
L100.6830 104.9525
" />
<path d="M100.6830 104.9525
L100.6225 105.1339
" />
<path d="M100.6225 105.1339
L99.8968 105.8596
" />
<path d="M99.8968 105.8596
L100.6830 105.8596
" />
<path d="M101.2272 105.1944
L102.1949 105.1944
" />
<path d="M102.1949 105.5572
L101.2272 105.5572
" />
<path d="M103.4044 104.5896
L102.7996 104.5896
" />
<path d="M102.7996 104.5896
L102.7392 105.1944
" />
<path d="M102.7392 105.1944
L102.7996 105.1339
" />
<path d="M102.7996 105.1339
L102.9206 105.0734
" />
<path d="M102.9206 105.0734
L103.2230 105.0734
" />
<path d="M103.2230 105.0734
L103.3439 105.1339
" />
<path d="M103.3439 105.1339
L103.4044 105.1944
" />
<path d="M103.4044 105.1944
L103.4649 105.3153
" />
<path d="M103.4649 105.3153
L103.4649 105.6177
" />
<path d="M103.4649 105.6177
L103.4044 105.7387
" />
<path d="M103.4044 105.7387
L103.3439 105.7992
" />
<path d="M103.3439 105.7992
L103.2230 105.8596
" />
<path d="M103.2230 105.8596
L102.9206 105.8596
" />
<path d="M102.9206 105.8596
L102.7996 105.7992
" />
<path d="M102.7996 105.7992
L102.7392 105.7387
" />
<path d="M104.7953 105.0130
L105.2791 105.0130
" />
<path d="M104.9767 104.5896
L104.9767 105.6782
" />
<path d="M104.9767 105.6782
L105.0372 105.7992
" />
<path d="M105.0372 105.7992
L105.1582 105.8596
" />
<path d="M105.1582 105.8596
L105.2791 105.8596
" />
<path d="M106.2467 105.8596
L106.2467 104.5896
" />
<path d="M106.2467 105.7992
L106.1258 105.8596
" />
<path d="M106.1258 105.8596
L105.8839 105.8596
" />
<path d="M105.8839 105.8596
L105.7629 105.7992
" />
<path d="M105.7629 105.7992
L105.7024 105.7387
" />
<path d="M105.7024 105.7387
L105.6420 105.6177
" />
<path d="M105.6420 105.6177
L105.6420 105.2549
" />
<path d="M105.6420 105.2549
L105.7024 105.1339
" />
<path d="M105.7024 105.1339
L105.7629 105.0734
" />
<path d="M105.7629 105.0734
L105.8839 105.0130
" />
<path d="M105.8839 105.0130
L106.1258 105.0130
" />
<path d="M106.1258 105.0130
L106.2467 105.0734
" />
<path d="M106.8514 105.1944
L107.8191 105.1944
" />
<path d="M107.8191 105.5572
L106.8514 105.5572
" />
<path d="M108.3634 104.7106
L108.4238 104.6501
" />
<path d="M108.4238 104.6501
L108.5448 104.5896
" />
<path d="M108.5448 104.5896
L108.8472 104.5896
" />
<path d="M108.8472 104.5896
L108.9681 104.6501
" />
<path d="M108.9681 104.6501
L109.0286 104.7106
" />
<path d="M109.0286 104.7106
L109.0891 104.8315
" />
<path d="M109.0891 104.8315
L109.0891 104.9525
" />
<path d="M109.0891 104.9525
L109.0286 105.1339
" />
<path d="M109.0286 105.1339
L108.3029 105.8596
" />
<path d="M108.3029 105.8596
L109.0891 105.8596
" />
<path d="M109.6333 105.0130
L109.6333 105.8596
" />
<path d="M109.6333 105.1339
L109.6938 105.0734
" />
<path d="M109.6938 105.0734
L109.8148 105.0130
" />
<path d="M109.8148 105.0130
L109.9962 105.0130
" />
<path d="M109.9962 105.0130
L110.1171 105.0734
" />
<path d="M110.1171 105.0734
L110.1776 105.1944
" />
<path d="M110.1776 105.1944
L110.1776 105.8596
" />
<path d="M111.5685 105.0130
L112.0523 105.0130
" />
<path d="M111.7499 104.5896
L111.7499 105.6782
" />
<path d="M111.7499 105.6782
L111.8104 105.7992
" />
<path d="M111.8104 105.7992
L111.9314 105.8596
" />
<path d="M111.9314 105.8596
L112.0523 105.8596
" />
<path d="M112.4756 105.8596
L112.4756 105.0130
" />
<path d="M112.4756 105.2549
L112.5361 105.1339
" />
<path d="M112.5361 105.1339
L112.5966 105.0734
" />
<path d="M112.5966 105.0734
L112.7175 105.0130
" />
<path d="M112.7175 105.0130
L112.8385 105.0130
" />
<path d="M113.2618 105.1944
L114.2295 105.1944
" />
<path d="M114.2295 105.5572
L113.2618 105.5572
" />
<path d="M114.7738 104.7106
L114.8342 104.6501
" />
<path d="M114.8342 104.6501
L114.9552 104.5896
" />
<path d="M114.9552 104.5896
L115.2576 104.5896
" />
<path d="M115.2576 104.5896
L115.3785 104.6501
" />
<path d="M115.3785 104.6501
L115.4390 104.7106
" />
<path d="M115.4390 104.7106
L115.4995 104.8315
" />
<path d="M115.4995 104.8315
L115.4995 104.9525
" />
<path d="M115.4995 104.9525
L115.4390 105.1339
" />
<path d="M115.4390 105.1339
L114.7133 105.8596
" />
<path d="M114.7133 105.8596
L115.4995 105.8596
" />
<path d="M116.0437 105.0130
L116.0437 105.8596
" />
<path d="M116.0437 105.1339
L116.1042 105.0734
" />
<path d="M116.1042 105.0734
L116.2252 105.0130
" />
<path d="M116.2252 105.0130
L116.4066 105.0130
" />
<path d="M116.4066 105.0130
L116.5275 105.0734
" />
<path d="M116.5275 105.0734
L116.5880 105.1944
" />
<path d="M116.5880 105.1944
L116.5880 105.8596
" />
<path d="M117.9789 105.0130
L118.4627 105.0130
" />
<path d="M118.1603 104.5896
L118.1603 105.6782
" />
<path d="M118.1603 105.6782
L118.2208 105.7992
" />
<path d="M118.2208 105.7992
L118.3418 105.8596
" />
<path d="M118.3418 105.8596
L118.4627 105.8596
" />
<path d="M118.7046 105.0130
L119.1884 105.0130
" />
<path d="M118.8860 105.8596
L118.8860 104.7711
" />
<path d="M118.8860 104.7711
L118.9465 104.6501
" />
<path d="M118.9465 104.6501
L119.0675 104.5896
" />
<path d="M119.0675 104.5896
L119.1884 104.5896
" />
<path d="M119.6117 105.1944
L120.5794 105.1944
" />
<path d="M120.5794 105.5572
L119.6117 105.5572
" />
<path d="M121.1237 104.7106
L121.1841 104.6501
" />
<path d="M121.1841 104.6501
L121.3051 104.5896
" />
<path d="M121.3051 104.5896
L121.6075 104.5896
" />
<path d="M121.6075 104.5896
L121.7284 104.6501
" />
<path d="M121.7284 104.6501
L121.7889 104.7106
" />
<path d="M121.7889 104.7106
L121.8494 104.8315
" />
<path d="M121.8494 104.8315
L121.8494 104.9525
" />
<path d="M121.8494 104.9525
L121.7889 105.1339
" />
<path d="M121.7889 105.1339
L121.0632 105.8596
" />
<path d="M121.0632 105.8596
L121.8494 105.8596
" />
<path d="M122.3936 105.0130
L122.3936 105.8596
" />
<path d="M122.3936 105.1339
L122.4541 105.0734
" />
<path d="M122.4541 105.0734
L122.5751 105.0130
" />
<path d="M122.5751 105.0130
L122.7565 105.0130
" />
<path d="M122.7565 105.0130
L122.8774 105.0734
" />
<path d="M122.8774 105.0734
L122.9379 105.1944
" />
<path d="M122.9379 105.1944
L122.9379 105.8596
" />
<path d="M124.3288 105.0130
L124.8126 105.0130
" />
<path d="M124.5102 104.5896
L124.5102 105.6782
" />
<path d="M124.5102 105.6782
L124.5707 105.7992
" />
<path d="M124.5707 105.7992
L124.6917 105.8596
" />
<path d="M124.6917 105.8596
L124.8126 105.8596
" />
<path d="M125.1150 105.0130
L125.3569 105.8596
" />
<path d="M125.3569 105.8596
L125.5988 105.2549
" />
<path d="M125.5988 105.2549
L125.8407 105.8596
" />
<path d="M125.8407 105.8596
L126.0826 105.0130
" />
<path d="M126.5664 105.1944
L127.5341 105.1944
" />
<path d="M127.5341 105.5572
L126.5664 105.5572
" />
<path d="M128.3807 104.5896
L128.5017 104.5896
" />
<path d="M128.5017 104.5896
L128.6226 104.6501
" />
<path d="M128.6226 104.6501
L128.6831 104.7106
" />
<path d="M128.6831 104.7106
L128.7436 104.8315
" />
<path d="M128.7436 104.8315
L128.8041 105.0734
" />
<path d="M128.8041 105.0734
L128.8041 105.3758
" />
<path d="M128.8041 105.3758
L128.7436 105.6177
" />
<path d="M128.7436 105.6177
L128.6831 105.7387
" />
<path d="M128.6831 105.7387
L128.6226 105.7992
" />
<path d="M128.6226 105.7992
L128.5017 105.8596
" />
<path d="M128.5017 105.8596
L128.3807 105.8596
" />
<path d="M128.3807 105.8596
L128.2598 105.7992
" />
<path d="M128.2598 105.7992
L128.1993 105.7387
" />
<path d="M128.1993 105.7387
L128.1388 105.6177
" />
<path d="M128.1388 105.6177
L128.0784 105.3758
" />
<path d="M128.0784 105.3758
L128.0784 105.0734
" />
<path d="M128.0784 105.0734
L128.1388 104.8315
" />
<path d="M128.1388 104.8315
L128.1993 104.7106
" />
<path d="M128.1993 104.7106
L128.2598 104.6501
" />
<path d="M128.2598 104.6501
L128.3807 104.5896
" />
<path d="M129.3483 105.7387
L129.4088 105.7992
" />
<path d="M129.4088 105.7992
L129.3483 105.8596
" />
<path d="M129.3483 105.8596
L129.2879 105.7992
" />
<path d="M129.2879 105.7992
L129.3483 105.7387
" />
<path d="M129.3483 105.7387
L129.3483 105.8596
" />
<path d="M129.8322 104.5896
L130.6184 104.5896
" />
<path d="M130.6184 104.5896
L130.1950 105.0734
" />
<path d="M130.1950 105.0734
L130.3765 105.0734
" />
<path d="M130.3765 105.0734
L130.4974 105.1339
" />
<path d="M130.4974 105.1339
L130.5579 105.1944
" />
<path d="M130.5579 105.1944
L130.6184 105.3153
" />
<path d="M130.6184 105.3153
L130.6184 105.6177
" />
<path d="M130.6184 105.6177
L130.5579 105.7387
" />
<path d="M130.5579 105.7387
L130.4974 105.7992
" />
<path d="M130.4974 105.7992
L130.3765 105.8596
" />
<path d="M130.3765 105.8596
L130.0136 105.8596
" />
<path d="M130.0136 105.8596
L129.8927 105.7992
" />
<path d="M129.8927 105.7992
L129.8322 105.7387
" />
<path d="M131.1626 105.8596
L131.1626 105.0130
" />
<path d="M131.1626 105.1339
L131.2231 105.0734
" />
<path d="M131.2231 105.0734
L131.3441 105.0130
" />
<path d="M131.3441 105.0130
L131.5255 105.0130
" />
<path d="M131.5255 105.0130
L131.6464 105.0734
" />
<path d="M131.6464 105.0734
L131.7069 105.1944
" />
<path d="M131.7069 105.1944
L131.7069 105.8596
" />
<path d="M131.7069 105.1944
L131.7674 105.0734
" />
<path d="M131.7674 105.0734
L131.8883 105.0130
" />
<path d="M131.8883 105.0130
L132.0698 105.0130
" />
<path d="M132.0698 105.0130
L132.1907 105.0734
" />
<path d="M132.1907 105.0734
L132.2512 105.1944
" />
<path d="M132.2512 105.1944
L132.2512 105.8596
" />
<path d="M133.8235 105.0130
L133.8235 106.2830
" />
<path d="M133.8235 105.0734
L133.9445 105.0130
" />
<path d="M133.9445 105.0130
L134.1864 105.0130
" />
<path d="M134.1864 105.0130
L134.3073 105.0734
" />
<path d="M134.3073 105.0734
L134.3678 105.1339
" />
<path d="M134.3678 105.1339
L134.4283 105.2549
" />
<path d="M134.4283 105.2549
L134.4283 105.6177
" />
<path d="M134.4283 105.6177
L134.3678 105.7387
" />
<path d="M134.3678 105.7387
L134.3073 105.7992
" />
<path d="M134.3073 105.7992
L134.1864 105.8596
" />
<path d="M134.1864 105.8596
L133.9445 105.8596
" />
<path d="M133.9445 105.8596
L133.8235 105.7992
" />
<path d="M135.4563 105.7992
L135.3354 105.8596
" />
<path d="M135.3354 105.8596
L135.0935 105.8596
" />
<path d="M135.0935 105.8596
L134.9725 105.7992
" />
<path d="M134.9725 105.7992
L134.9121 105.6782
" />
<path d="M134.9121 105.6782
L134.9121 105.1944
" />
<path d="M134.9121 105.1944
L134.9725 105.0734
" />
<path d="M134.9725 105.0734
L135.0935 105.0130
" />
<path d="M135.0935 105.0130
L135.3354 105.0130
" />
<path d="M135.3354 105.0130
L135.4563 105.0734
" />
<path d="M135.4563 105.0734
L135.5168 105.1944
" />
<path d="M135.5168 105.1944
L135.5168 105.3153
" />
<path d="M135.5168 105.3153
L134.9121 105.4363
" />
<path d="M136.0611 105.8596
L136.0611 105.0130
" />
<path d="M136.0611 105.2549
L136.1216 105.1339
" />
<path d="M136.1216 105.1339
L136.1821 105.0734
" />
<path d="M136.1821 105.0734
L136.3030 105.0130
" />
<path d="M136.3030 105.0130
L136.4240 105.0130
" />
<path d="M136.8473 105.1944
L137.8150 105.1944
" />
<path d="M137.8150 105.5572
L136.8473 105.5572
" />
<path d="M139.0850 105.8596
L138.3593 105.8596
" />
<path d="M138.7221 105.8596
L138.7221 104.5896
" />
<path d="M138.7221 104.5896
L138.6012 104.7711
" />
<path d="M138.6012 104.7711
L138.4802 104.8920
" />
<path d="M138.4802 104.8920
L138.3593 104.9525
" />
<path d="M139.6292 105.8596
L139.6292 105.0130
" />
<path d="M139.6292 105.1339
L139.6897 105.0734
" />
<path d="M139.6897 105.0734
L139.8107 105.0130
" />
<path d="M139.8107 105.0130
L139.9921 105.0130
" />
<path d="M139.9921 105.0130
L140.1130 105.0734
" />
<path d="M140.1130 105.0734
L140.1735 105.1944
" />
<path d="M140.1735 105.1944
L140.1735 105.8596
" />
<path d="M140.1735 105.1944
L140.2340 105.0734
" />
<path d="M140.2340 105.0734
L140.3549 105.0130
" />
<path d="M140.3549 105.0130
L140.5364 105.0130
" />
<path d="M140.5364 105.0130
L140.6573 105.0734
" />
<path d="M140.6573 105.0734
L140.7178 105.1944
" />
<path d="M140.7178 105.1944
L140.7178 105.8596
" />
</g><path d="M88.9000 100.3300
L88.9000 97.7900
" />
<path d="M88.9000 105.4100
L88.9000 107.9500
" />
</g>
<g style="fill:#000000; fill-opacity:1.0000; 
stroke:#000000; stroke-width:0.1524; stroke-opacity:1; 
stroke-linecap:round; stroke-linejoin:round;">
<circle cx="124.4600" cy="83.8200" r="0.4572" /> 
<circle cx="106.6800" cy="99.0600" r="0.4572" /> 
<circle cx="76.2000" cy="99.0600" r="0.4572" /> 
<circle cx="124.4600" cy="99.0600" r="0.4572" /> 
<circle cx="106.6800" cy="83.8200" r="0.4572" /> 
</g> 
</svg>
