<svg xmlns="http://www.w3.org/2000/svg" xmlns:xlink="http://www.w3.org/1999/xlink" width="268" height="195" viewBox="-20 -39 268 195"><title>dioda</title><style type="text/css">
path, polyline, polygon {stroke-linejoin:round;}
path, polyline, polygon, line {stroke-linecap:round;}
rect, circle, ellipse, polyline, line, polygon, path {shape-rendering:crispEdges;}
</style>
<rect x="-20" y="-39" width="268" height="195" fill="#FFFFFF" stroke="none"/><g xmlns="http://www.w3.org/2000/svg" c_para="Prefix Start`1`"><g c_origin="40,60" c_para="package`DIP`Contributor`undefined`BOM_Manufacturer Part`?`spicePre`U`" c_partid="part_import_488266" c_shapetype="group"><g xmlns="http://www.w3.org/2000/svg" c_partid="part_annotation"><text x="52" y="72.25" font-family="Arial" font-size="7pt" fill="#000080" text-anchor="start">12V@50Hz</text></g><g xmlns="http://www.w3.org/2000/svg" c_partid="part_annotation"><text x="52" y="63.25" font-family="Arial" font-size="7pt" fill="#000080" text-anchor="start">U1</text></g><g c_partid="part_pin" c_etype="pinpart" c_show="show" c_elec="0" c_spicepin="1" c_origin="40,40"><path d="M 40 40 v 10" fill="none" stroke="#880000" stroke-width="1"/><text x="43" y="52" font-family="Verdana" font-size="7pt" fill="#0000FF" text-anchor="end" display="none" transform="rotate(270,43,52)">1</text><text x="39" y="50" font-family="Verdana" font-size="7pt" fill="#0000FF" text-anchor="start" display="none" transform="rotate(270,39,50)">1</text><circle cx="40" cy="47" r="3" stroke="#880000" fill="none" stroke-width="1" display="none"/><path d="M 37 50 L 40 53 L 43 50" fill="none" stroke="#880000" stroke-width="1" display="none"/></g><g c_partid="part_pin" c_etype="pinpart" c_show="show" c_elec="0" c_spicepin="2" c_origin="40,80"><path d="M 40 80 v -10" fill="none" stroke="#880000" stroke-width="1"/><text x="43" y="68" font-family="Verdana" font-size="7pt" fill="#0000FF" text-anchor="start" display="none" transform="rotate(270,43,68)">2</text><text x="39" y="70" font-family="Verdana" font-size="7pt" fill="#0000FF" text-anchor="end" display="none" transform="rotate(270,39,70)">2</text><circle cx="40" cy="73" r="3" stroke="#880000" fill="none" stroke-width="1" display="none"/><path d="M 43 70 L 40 67 L 37 70" fill="none" stroke="#880000" stroke-width="1" display="none"/></g><ellipse cx="40" cy="60" rx="10" ry="10" stroke="#000000" stroke-width="1" fill="none"/><path d="M 40 53 C 33 60 47 60 40 67" stroke="#000000" stroke-width="1" fill="none"/></g><g eelibtitle="AXIAL-0.3 (1/8W) " c_origin="180,60" c_para="package`AXIAL-0.3`nameAlias`Value(&#937;)`BOM_Manufacturer Part`?`spicePre`R`spiceSymbolName`Resistor`" c_partid="part_import_029925" c_shapetype="group" package-default="AXIAL-0.3" c_etype="pinpart"><g xmlns="http://www.w3.org/2000/svg" c_partid="part_annotation"><text x="186" y="72.25" font-family="Arial" font-size="7pt" fill="#000080" text-anchor="start">1k</text></g><g xmlns="http://www.w3.org/2000/svg" c_partid="part_annotation"><text x="186" y="63.25" font-family="Arial" font-size="7pt" fill="#000080" text-anchor="start">R1</text></g><rect x="176" y="50" width="8" height="20" stroke="#A00000" stroke-width="1" fill="none"/><g c_partid="part_pin" c_etype="pinpart" c_show="show" c_elec="0" c_spicepin="2" c_origin="160,80"><path d="M 180 50 v -10" fill="none" stroke="#800" stroke-width="1"/><text x="180" y="54" font-family="Verdana" font-size="7pt" fill="#800" text-anchor="end" display="none" transform="rotate(270,180,54)">2</text><text x="176" y="46" font-family="Verdana" font-size="7pt" fill="#800" text-anchor="start" display="none" transform="rotate(270,176,46)">2</text><circle cx="160" cy="67" r="3" stroke="#800" fill="none" stroke-width="1" display="none"/><path d="M 157 70 L 160 73 L 163 70" fill="none" stroke="#800" stroke-width="1" display="none"/></g><g c_partid="part_pin" c_etype="pinpart" c_show="show" c_elec="0" c_spicepin="1" c_origin="160,80"><path d="M 180 70 v 10" fill="none" stroke="#800" stroke-width="1"/><text x="180" y="66" font-family="Verdana" font-size="7pt" fill="#800" text-anchor="start" display="none" transform="rotate(270,180,66)">1</text><text x="176" y="74" font-family="Verdana" font-size="7pt" fill="#800" text-anchor="end" display="none" transform="rotate(270,176,74)">1</text><circle cx="160" cy="93" r="3" stroke="#800" fill="none" stroke-width="1" display="none"/><path d="M 163 90 L 160 87 L 157 90" fill="none" stroke="#800" stroke-width="1" display="none"/></g></g><g eelibtitle="1N4148" c_origin="110,40" c_para="package`DO-35`BOM_EasyEDA`E14516`BOM_Supplier`EasyEDA`BOM_Manufacturer`ST`BOM_Manufacturer Part`1N4148`spicePre`D`" c_partid="part_import_856892" c_shapetype="group" package-default="DO-35"><g xmlns="http://www.w3.org/2000/svg" c_partid="part_annotation"><text x="108.75" y="28" font-family="Arial" font-size="7pt" fill="#000080" text-anchor="start">1N4148</text></g><g xmlns="http://www.w3.org/2000/svg" c_partid="part_annotation"><text x="108.75" y="19" font-family="Arial" font-size="7pt" fill="#000080" text-anchor="start">D1</text></g><polygon points="110 50 120 40 110 31" stroke="#880000" stroke-width="1" fill="#FEFEFE" stroke-linecap="round"/><polyline points="120 31 120 50" stroke="#880000" stroke-width="1" fill="none" stroke-linecap="round"/><g c_partid="part_pin" c_etype="pinpart" c_show="show" c_elec="0" c_spicepin="1" c_origin="90,40"><path d="M 90 40 h 20" fill="none" stroke="#880000" stroke-width="1"/><text x="113" y="43" font-family="Verdana" font-size="7pt" fill="#0000FF" text-anchor="start" display="none">A</text><text x="104" y="39" font-family="Verdana" font-size="7pt" fill="#0000FF" text-anchor="end" display="none">1</text><circle cx="107" cy="40" r="3" stroke="#880000" fill="none" stroke-width="1" display="none"/><path d="M 110 43 L 113 40 L 110 37" fill="none" stroke="#880000" stroke-width="1" display="none"/></g><g c_partid="part_pin" c_etype="pinpart" c_show="show" c_elec="0" c_spicepin="2" c_origin="140,40"><path d="M 140 40 h -20" fill="none" stroke="#880000" stroke-width="1"/><text x="117" y="43" font-family="Verdana" font-size="7pt" fill="#0000FF" text-anchor="end" display="none">K</text><text x="126" y="39" font-family="Verdana" font-size="7pt" fill="#0000FF" text-anchor="start" display="none">2</text><circle cx="123" cy="40" r="3" stroke="#880000" fill="none" stroke-width="1" display="none"/><path d="M 120 37 L 117 40 L 120 43" fill="none" stroke="#880000" stroke-width="1" display="none"/></g></g><polyline points="90 40 40 40" stroke="#008800" stroke-width="1" fill="none" c_shapetype="line"/><polyline points="40 90 40 80 180 80" stroke="#008800" stroke-width="1" fill="none" c_shapetype="line"/><polyline points="180 40 140 40" stroke="#008800" stroke-width="1" fill="none" c_shapetype="line"/><g c_partid="part_netLabel_gnD" c_etype="pinpart" c_origin="40,90"><text x="29" y="77" font-family="Times New Roman" font-size="9pt" fill="#000080" text-anchor="start" display="none">GND</text><polyline points="40 100 40 90" stroke="#000000" stroke-width="1" fill="none"/><polyline points="30 100 49 100" stroke="#000000" stroke-width="1" fill="none"/><polyline points="34 102 47 102" stroke="#000000" stroke-width="1" fill="none"/><polyline points="36 104 43 104" stroke="#000000" stroke-width="1" fill="none"/><polyline points="39 106 41 106" stroke="#000000" stroke-width="1" fill="none"/></g><g c_partid="part_junction" c_etype="pinpart" c_origin="40,80"><circle cx="40" cy="80" r="2.5" fill="#CC0000" stroke-width="1"/></g></g></svg>